<svg width="26" height="26" viewBox="0 0 26 26" fill="none" xmlns="http://www.w3.org/2000/svg">
<mask id="mask0_9_15" style="mask-type:luminance" maskUnits="userSpaceOnUse" x="0" y="0" width="26" height="26">
<path d="M0 0H25.3774V25.3893H0V0Z" fill="white"/>
</mask>
<g mask="url(#mask0_9_15)">
<path d="M25.3463 12.6925C25.3463 12.8994 25.3415 13.107 25.3311 13.3139C25.3207 13.5208 25.3055 13.7271 25.2853 13.9334C25.2652 14.1397 25.2396 14.3454 25.2091 14.5505C25.1792 14.7555 25.1438 14.9594 25.1029 15.1627C25.0627 15.3659 25.0175 15.5679 24.9669 15.7694C24.9168 15.9702 24.8613 16.1698 24.8015 16.3681C24.7411 16.5665 24.6765 16.7636 24.6063 16.9583C24.5368 17.1537 24.4623 17.3471 24.383 17.5382C24.3037 17.7298 24.2195 17.9191 24.131 18.1064C24.0426 18.2938 23.9492 18.4788 23.8516 18.6619C23.754 18.8444 23.6521 19.025 23.5454 19.2027C23.4392 19.3803 23.3282 19.5554 23.2135 19.7276C23.0982 19.8997 22.9786 20.0694 22.8553 20.236C22.7321 20.402 22.6046 20.5656 22.4734 20.7261C22.3416 20.886 22.2068 21.0429 22.0677 21.1967C21.9286 21.3499 21.7852 21.5001 21.6388 21.6465C21.4924 21.793 21.3423 21.9359 21.1892 22.075C21.0354 22.2142 20.8786 22.3497 20.7188 22.4809C20.5583 22.6128 20.3954 22.7403 20.2289 22.8636C20.0623 22.9869 19.8933 23.1065 19.7207 23.2213C19.5486 23.3366 19.3735 23.4477 19.196 23.5539C19.0185 23.6607 18.8385 23.7627 18.6554 23.8603C18.473 23.958 18.2876 24.0514 18.1003 24.1399C17.9136 24.2284 17.7238 24.3126 17.5329 24.392C17.3413 24.4707 17.1479 24.5458 16.9527 24.6154C16.7581 24.6849 16.561 24.7502 16.3633 24.8101C16.165 24.8705 15.9649 24.926 15.7642 24.9761C15.5635 25.0267 15.3616 25.0719 15.1584 25.1122C14.9552 25.1525 14.7508 25.1879 14.5459 25.2184C14.3409 25.2489 14.1353 25.2746 13.9297 25.2947C13.7235 25.3148 13.5166 25.3301 13.3098 25.3405C13.103 25.3502 12.8962 25.3557 12.6887 25.3557C12.4813 25.3557 12.2745 25.3502 12.0677 25.3405C11.8608 25.3301 11.654 25.3148 11.4478 25.2947C11.2422 25.2746 11.0366 25.2489 10.8316 25.2184C10.6266 25.1879 10.4222 25.1525 10.2191 25.1122C10.0159 25.0719 9.81397 25.0267 9.61325 24.9761C9.41192 24.926 9.21242 24.8705 9.01414 24.8101C8.81647 24.7502 8.6194 24.6849 8.42478 24.6154C8.22956 24.5458 8.03616 24.4707 7.84459 24.392C7.65363 24.3126 7.46389 24.2284 7.27659 24.1399C7.0899 24.0514 6.90443 23.958 6.72201 23.8603C6.53898 23.7627 6.35901 23.6607 6.18147 23.5539C6.00393 23.4477 5.82884 23.3366 5.65679 23.2213C5.48413 23.1065 5.31514 22.9869 5.14858 22.8636C4.98202 22.7403 4.81913 22.6128 4.65867 22.4809C4.49883 22.3497 4.34204 22.2142 4.18829 22.075C4.03516 21.9359 3.88508 21.793 3.73865 21.6465C3.59223 21.5001 3.44886 21.3499 3.30976 21.1967C3.17066 21.0429 3.03583 20.886 2.90404 20.7261C2.77287 20.5656 2.64537 20.402 2.52213 20.236C2.39889 20.0694 2.27931 19.8997 2.164 19.7276C2.0493 19.5554 1.93827 19.3803 1.83211 19.2027C1.72534 19.025 1.62346 18.8444 1.52584 18.6619C1.42823 18.4788 1.33488 18.2938 1.24642 18.1064C1.15796 17.9191 1.07376 17.7298 0.994451 17.5382C0.915139 17.3471 0.840707 17.1537 0.771157 16.9583C0.700996 16.7636 0.636326 16.5665 0.575927 16.3681C0.516137 16.1698 0.460619 15.9702 0.410591 15.7694C0.359953 15.5679 0.314806 15.3659 0.27454 15.1627C0.233664 14.9594 0.198278 14.7555 0.167774 14.5505C0.137879 14.3454 0.112255 14.1397 0.0921221 13.9334C0.071989 13.7271 0.0567366 13.5208 0.0463651 13.3139C0.0359935 13.107 0.0311127 12.8994 0.0311127 12.6925C0.0311127 12.485 0.0359935 12.2781 0.0463651 12.0712C0.0567366 11.8643 0.071989 11.6573 0.0921221 11.451C0.112255 11.2447 0.137879 11.039 0.167774 10.8346C0.198278 10.6295 0.233664 10.425 0.27454 10.2218C0.314806 10.0185 0.359953 9.81648 0.410591 9.61567C0.460619 9.41425 0.516137 9.21466 0.575927 9.01629C0.636326 8.81792 0.700996 8.62139 0.771157 8.42607C0.840707 8.23137 0.915139 8.03788 0.994451 7.84623C1.07376 7.65457 1.15796 7.46536 1.24642 7.27798C1.33488 7.0906 1.42823 6.90565 1.52584 6.72316C1.62346 6.54005 1.72534 6.35999 1.83211 6.18237C1.93827 6.00415 2.0493 5.82958 2.164 5.65685C2.27931 5.48473 2.39889 5.31505 2.52213 5.14903C2.64537 4.9824 2.77287 4.81882 2.90404 4.65891C3.03583 4.49838 3.17066 4.34152 3.30976 4.18832C3.44886 4.0345 3.59223 3.88435 3.73865 3.73787C3.88508 3.59138 4.03516 3.44855 4.18829 3.30939C4.34204 3.17023 4.49883 3.03473 4.65867 2.9035C4.81913 2.77227 4.98202 2.64471 5.14858 2.52141C5.31514 2.39751 5.48413 2.27849 5.65679 2.16313C5.82884 2.04838 6.00393 1.93729 6.18147 1.83048C6.35901 1.72428 6.53898 1.62235 6.72201 1.52408C6.90443 1.42642 7.0899 1.33364 7.27659 1.24514C7.46389 1.15603 7.65363 1.07241 7.84459 0.993061C8.03616 0.913714 8.22956 0.83925 8.42478 0.769058C8.6194 0.699476 8.81647 0.634778 9.01414 0.574352C9.21242 0.513926 9.41192 0.458993 9.61325 0.408333C9.81397 0.358283 10.0159 0.313116 10.2191 0.272222C10.4222 0.231938 10.6266 0.196537 10.8316 0.166018C11.0366 0.1355 11.2422 0.110475 11.4478 0.0903332C11.654 0.0695809 11.8608 0.0543218 12.0677 0.044556C12.2745 0.0341798 12.4813 0.0292969 12.6887 0.0292969C12.8962 0.0292969 13.103 0.0341798 13.3098 0.044556C13.5166 0.0543218 13.7235 0.0695809 13.9297 0.0903332C14.1353 0.110475 14.3409 0.1355 14.5459 0.166018C14.7508 0.196537 14.9552 0.231938 15.1584 0.272222C15.3616 0.313116 15.5635 0.358283 15.7642 0.408333C15.9649 0.458993 16.165 0.513926 16.3633 0.574352C16.561 0.634778 16.7581 0.699476 16.9527 0.769058C17.1479 0.83925 17.3413 0.913714 17.5329 0.993061C17.7238 1.07241 17.9136 1.15603 18.1003 1.24514C18.2876 1.33364 18.473 1.42642 18.6554 1.52408C18.8385 1.62235 19.0185 1.72428 19.196 1.83048C19.3735 1.93729 19.5486 2.04838 19.7207 2.16313C19.8933 2.27849 20.0623 2.39751 20.2289 2.52141C20.3954 2.64471 20.5583 2.77227 20.7188 2.9035C20.8786 3.03473 21.0354 3.17023 21.1892 3.30939C21.3423 3.44855 21.4924 3.59138 21.6388 3.73787C21.7852 3.88435 21.9286 4.0345 22.0677 4.18832C22.2068 4.34152 22.3416 4.49838 22.4734 4.65891C22.6046 4.81882 22.7321 4.9824 22.8553 5.14903C22.9786 5.31505 23.0982 5.48473 23.2135 5.65685C23.3282 5.82958 23.4392 6.00415 23.5454 6.18237C23.6521 6.35999 23.754 6.54005 23.8516 6.72316C23.9492 6.90565 24.0426 7.0906 24.131 7.27798C24.2195 7.46536 24.3037 7.65457 24.383 7.84623C24.4623 8.03788 24.5368 8.23137 24.6063 8.42607C24.6765 8.62139 24.7411 8.81792 24.8015 9.01629C24.8613 9.21466 24.9168 9.41425 24.9669 9.61567C25.0175 9.81648 25.0627 10.0185 25.1029 10.2218C25.1438 10.425 25.1792 10.6295 25.2091 10.8346C25.2396 11.039 25.2652 11.2447 25.2853 11.451C25.3055 11.6573 25.3207 11.8643 25.3311 12.0712C25.3415 12.2781 25.3463 12.485 25.3463 12.6925Z" fill="#4267B2" stroke="#4267B2" stroke-width="0.486308" stroke-miterlimit="10"/>
</g>
<mask id="mask1_9_15" style="mask-type:luminance" maskUnits="userSpaceOnUse" x="8" y="3" width="12" height="23">
<path d="M8.57851 3.59424H19.5114V25.3897H8.57851V3.59424Z" fill="white"/>
</mask>
<g mask="url(#mask1_9_15)">
<path d="M15.6624 3.76754C14.6539 3.95004 14.3068 4.12094 13.7254 4.45115C13.1049 4.80455 12.6717 5.17504 12.3752 5.47717C11.407 6.47999 11.1904 7.41507 11.0086 8.13835C10.7347 9.20404 10.7634 10.2075 10.7634 10.2075V10.9881H8.72993V14.527H10.7634V25.2126C11.3899 25.3097 12.0336 25.361 12.6888 25.361C13.657 25.361 14.6027 25.2529 15.5087 25.0478V14.527H18.6019V10.9881H15.5087V10.2356C15.5087 10.2356 15.5087 10.0988 15.5087 10.0817C15.5087 10.0647 15.5087 10.0421 15.5087 10.025C15.5087 9.87117 15.5142 9.64289 15.5483 9.44392C15.6337 8.92511 15.8107 8.52044 16.1066 8.16154C16.4482 7.75077 16.8472 7.57437 17.2914 7.50601C18.3908 7.33511 19.3083 7.71659 19.3083 7.71659L19.4792 3.9952C19.4792 3.9952 18.7898 3.77303 17.6507 3.69307C16.8472 3.63631 16.1352 3.68209 15.6624 3.76754Z" fill="white"/>
</g>
<mask id="mask2_9_15" style="mask-type:luminance" maskUnits="userSpaceOnUse" x="7" y="2" width="14" height="24">
<path d="M7.79762 2.81299H20.2923V25.3897H7.79762V2.81299Z" fill="white"/>
</mask>
<g mask="url(#mask2_9_15)">
<path d="M15.6624 3.76705C14.6539 3.94955 14.3068 4.12045 13.7254 4.45066C13.1049 4.80406 12.6718 5.17455 12.3752 5.47668C11.407 6.47951 11.1904 7.41458 11.0086 8.13787C10.7347 9.20356 10.7634 10.207 10.7634 10.207V10.9877H8.72993V14.5265H10.7634V25.2122C11.3899 25.3092 12.0336 25.3605 12.6888 25.3605C13.6571 25.3605 14.6027 25.2525 15.5087 25.0474V14.5265H18.6019V10.9877H15.5087V10.2351C15.5087 10.2351 15.5087 10.0984 15.5087 10.0813C15.5087 10.0642 15.5087 10.0416 15.5087 10.0245C15.5087 9.87069 15.5142 9.64241 15.5483 9.44343C15.6338 8.92462 15.8107 8.51995 16.1066 8.16106C16.4482 7.75028 16.8472 7.57389 17.2914 7.50553C18.3908 7.33463 19.3084 7.7161 19.3084 7.7161L19.4792 3.99472C19.4792 3.99472 18.7898 3.77254 17.6507 3.69259C16.8472 3.63582 16.1353 3.6816 15.6624 3.76705Z" stroke="white" stroke-width="0.486308" stroke-miterlimit="10"/>
</g>
</svg>
