<svg width="26" height="26" viewBox="0 0 26 26" fill="none" xmlns="http://www.w3.org/2000/svg">
<mask id="mask0_9_3" style="mask-type:luminance" maskUnits="userSpaceOnUse" x="0" y="0" width="26" height="26">
<path d="M0 0H25.391V25.4017H0V0Z" fill="white"/>
</mask>
<g mask="url(#mask0_9_3)">
<mask id="mask1_9_3" style="mask-type:luminance" maskUnits="userSpaceOnUse" x="0" y="0" width="26" height="26">
<path d="M25.391 12.7011C25.391 12.9087 25.3861 13.1164 25.3756 13.324C25.3657 13.5316 25.3502 13.7392 25.3298 13.9457C25.3094 14.1527 25.284 14.3587 25.2536 14.5646C25.2233 14.77 25.1874 14.9749 25.1471 15.1786C25.1063 15.3824 25.061 15.5856 25.0108 15.7871C24.96 15.9886 24.9048 16.1891 24.8441 16.3878C24.7839 16.5866 24.7188 16.7837 24.6487 16.9798C24.5786 17.1752 24.5041 17.3696 24.4247 17.5612C24.3452 17.7533 24.2607 17.9433 24.1719 18.131C24.083 18.3193 23.9898 18.5048 23.8921 18.6881C23.7938 18.8714 23.6917 19.052 23.5847 19.2303C23.4781 19.4087 23.3667 19.5843 23.2513 19.7571C23.136 19.9299 23.0162 20.1 22.8926 20.2667C22.7689 20.434 22.6409 20.5975 22.509 20.7581C22.3776 20.9188 22.2419 21.0762 22.1022 21.2302C21.9626 21.3843 21.8197 21.535 21.6728 21.6819C21.5255 21.8287 21.3754 21.9723 21.2214 22.1115C21.0674 22.2511 20.9101 22.387 20.7495 22.5189C20.5889 22.6509 20.425 22.7785 20.2583 22.9027C20.0911 23.0264 19.9216 23.1462 19.7489 23.2616C19.5762 23.377 19.4006 23.488 19.2224 23.5951C19.0441 23.7016 18.8636 23.8043 18.6804 23.9021C18.4972 24.0004 18.3112 24.0937 18.1235 24.1826C17.9359 24.2715 17.746 24.3554 17.554 24.4349C17.3619 24.5144 17.1682 24.5895 16.9723 24.6596C16.7769 24.7298 16.5798 24.7949 16.3806 24.8551C16.1819 24.9153 15.9816 24.971 15.7801 25.0213C15.5787 25.0715 15.3761 25.1174 15.1725 25.1577C14.9683 25.1985 14.7641 25.2339 14.5582 25.2642C14.3529 25.2952 14.1465 25.3206 13.9401 25.341C13.7331 25.3609 13.5261 25.3763 13.3186 25.3868C13.1111 25.3968 12.9036 25.4017 12.6955 25.4017C12.488 25.4017 12.2799 25.3968 12.0724 25.3868C11.8649 25.3763 11.6579 25.3609 11.451 25.341C11.2446 25.3206 11.0381 25.2952 10.8328 25.2642C10.627 25.2339 10.4228 25.1985 10.2186 25.1577C10.0149 25.1174 9.81236 25.0715 9.61091 25.0213C9.40947 24.971 9.20912 24.9153 9.01044 24.8551C8.8112 24.7949 8.61417 24.7298 8.41879 24.6596C8.22287 24.5895 8.02915 24.5144 7.83708 24.4349C7.64502 24.3554 7.45516 24.2715 7.26752 24.1826C7.07987 24.0937 6.89443 24.0004 6.71119 23.9021C6.52796 23.8043 6.34693 23.7016 6.16867 23.5951C5.9904 23.488 5.8149 23.377 5.64215 23.2616C5.4694 23.1462 5.29997 23.0264 5.13274 22.9027C4.96606 22.7785 4.80215 22.6509 4.64154 22.5189C4.48094 22.387 4.32364 22.2511 4.16966 22.1115C4.01568 21.9723 3.86556 21.8287 3.71875 21.6819C3.57139 21.535 3.42845 21.3843 3.28882 21.2302C3.14918 21.0762 3.01341 20.9188 2.88206 20.7581C2.75015 20.5975 2.62211 20.434 2.49848 20.2667C2.37486 20.1 2.25509 19.9299 2.13974 19.7571C2.0244 19.5843 1.91291 19.4087 1.80639 19.2303C1.69932 19.052 1.59722 18.8714 1.49898 18.6881C1.40129 18.5048 1.30802 18.3193 1.21916 18.131C1.13031 17.9433 1.04586 17.7533 0.96639 17.5612C0.886915 17.3696 0.812408 17.1752 0.742315 16.9798C0.672223 16.7837 0.607098 16.5866 0.54694 16.3878C0.48623 16.1891 0.431039 15.9886 0.380816 15.7871C0.33004 15.5856 0.284784 15.3824 0.243943 15.1786C0.203654 14.9749 0.16778 14.77 0.137425 14.5646C0.10707 14.3587 0.0816822 14.1527 0.0612617 13.9457C0.0408412 13.7392 0.0253877 13.5316 0.0154534 13.324C0.00496713 13.1164 0 12.9087 0 12.7011C0 12.493 0.00496713 12.2854 0.0154534 12.0778C0.0253877 11.8701 0.0408412 11.6625 0.0612617 11.456C0.0816822 11.249 0.10707 11.043 0.137425 10.8371C0.16778 10.6317 0.203654 10.4268 0.243943 10.2231C0.284784 10.0193 0.33004 9.81615 0.380816 9.61461C0.431039 9.41308 0.48623 9.21264 0.54694 9.01387C0.607098 8.81509 0.672223 8.61798 0.742315 8.42196C0.812408 8.2265 0.886915 8.0327 0.96639 7.84055C1.04586 7.6484 1.13031 7.45846 1.21916 7.27073C1.30802 7.08244 1.40129 6.89692 1.49898 6.71361C1.59722 6.53029 1.69932 6.34974 1.80639 6.17139C1.91291 5.99305 2.0244 5.81747 2.13974 5.64464C2.25509 5.47182 2.37486 5.30176 2.49848 5.13501C2.62211 4.96771 2.75015 4.80427 2.88206 4.64359C3.01341 4.48292 3.14918 4.32555 3.28882 4.1715C3.42845 4.01745 3.57139 3.86672 3.71875 3.71984C3.86556 3.57297 4.01568 3.42941 4.16966 3.29027C4.32364 3.15058 4.48094 3.01475 4.64154 2.88278C4.80215 2.75082 4.96606 2.62327 5.13274 2.49904C5.29997 2.37535 5.4694 2.25609 5.64215 2.14014C5.8149 2.02474 5.9904 1.91376 6.16867 1.80664C6.34693 1.70007 6.52796 1.59737 6.71119 1.49964C6.89443 1.40136 7.07987 1.30805 7.26752 1.21915C7.45516 1.13025 7.64502 1.04633 7.83708 0.966817C8.02915 0.887307 8.22287 0.812215 8.41879 0.742091C8.61417 0.67252 8.8112 0.606814 9.01044 0.54663C9.20912 0.486445 9.40947 0.43123 9.61091 0.380432C9.81236 0.330186 10.0149 0.284358 10.2186 0.244051C10.4228 0.203192 10.627 0.167854 10.8328 0.137486C11.0381 0.106565 11.2446 0.0811662 11.451 0.0607366C11.6579 0.0408592 11.8649 0.025399 12.0724 0.0149081C12.2799 0.00496943 12.488 0 12.6955 0C12.9036 0 13.1111 0.00496943 13.3186 0.0149081C13.5261 0.025399 13.7331 0.0408592 13.9401 0.0607366C14.1465 0.0811662 14.3529 0.106565 14.5582 0.137486C14.7641 0.167854 14.9683 0.203192 15.1725 0.244051C15.3761 0.284358 15.5787 0.330186 15.7801 0.380432C15.9816 0.43123 16.1819 0.486445 16.3806 0.54663C16.5798 0.606814 16.7769 0.67252 16.9723 0.742091C17.1682 0.812215 17.3619 0.887307 17.554 0.966817C17.746 1.04633 17.9359 1.13025 18.1235 1.21915C18.3112 1.30805 18.4972 1.40136 18.6804 1.49964C18.8636 1.59737 19.0441 1.70007 19.2224 1.80664C19.4006 1.91376 19.5762 2.02474 19.7489 2.14014C19.9216 2.25609 20.0911 2.37535 20.2583 2.49904C20.425 2.62327 20.5889 2.75082 20.7495 2.88278C20.9101 3.01475 21.0674 3.15058 21.2214 3.29027C21.3754 3.42941 21.5255 3.57297 21.6728 3.71984C21.8197 3.86672 21.9626 4.01745 22.1022 4.1715C22.2419 4.32555 22.3776 4.48292 22.509 4.64359C22.6409 4.80427 22.7689 4.96771 22.8926 5.13501C23.0162 5.30176 23.136 5.47182 23.2513 5.64464C23.3667 5.81747 23.4781 5.99305 23.5847 6.17139C23.6917 6.34974 23.7938 6.53029 23.8921 6.71361C23.9898 6.89692 24.083 7.08244 24.1719 7.27073C24.2607 7.45846 24.3452 7.6484 24.4247 7.84055C24.5041 8.0327 24.5786 8.2265 24.6487 8.42196C24.7188 8.61798 24.7839 8.81509 24.8441 9.01387C24.9048 9.21264 24.96 9.41308 25.0108 9.61461C25.061 9.81615 25.1063 10.0193 25.1471 10.2231C25.1874 10.4268 25.2233 10.6317 25.2536 10.8371C25.284 11.043 25.3094 11.249 25.3298 11.456C25.3502 11.6625 25.3657 11.8701 25.3756 12.0778C25.3861 12.2854 25.391 12.493 25.391 12.7011Z" fill="white"/>
</mask>
<g mask="url(#mask1_9_3)">
<path d="M0 0V25.4017H25.391V0H0Z" fill="url(#paint0_linear_9_3)"/>
</g>
</g>
<path d="M16.1019 20.3658H9.33385C6.98714 20.3658 5.07809 18.4559 5.07809 16.1082V9.33716C5.07809 6.98942 6.98714 5.08008 9.33385 5.08008H16.1019C18.4486 5.08008 20.3571 6.98942 20.3571 9.33716V16.1082C20.3571 18.4559 18.4486 20.3658 16.1019 20.3658ZM9.33385 6.11481C7.55781 6.11481 6.11237 7.56034 6.11237 9.33716V16.1082C6.11237 17.885 7.55781 19.3311 9.33385 19.3311H16.1019C17.8779 19.3311 19.3228 17.885 19.3228 16.1082V9.33716C19.3228 7.56034 17.8779 6.11481 16.1019 6.11481H9.33385Z" fill="white"/>
<path d="M12.7182 16.5097C10.6314 16.5097 8.93378 14.8113 8.93378 12.7236C8.93378 10.6359 10.6314 8.9375 12.7182 8.9375C14.805 8.9375 16.5021 10.6359 16.5021 12.7236C16.5021 14.8113 14.805 16.5097 12.7182 16.5097ZM12.7182 9.97223C11.2016 9.97223 9.96805 11.2063 9.96805 12.7236C9.96805 14.2404 11.2021 15.4744 12.7182 15.4744C14.2343 15.4744 15.4678 14.2404 15.4678 12.7236C15.4678 11.2063 14.2343 9.97223 12.7182 9.97223Z" fill="white"/>
<defs>
<linearGradient id="paint0_linear_9_3" x1="0.00424432" y1="25.4061" x2="25.4064" y2="0.0152416" gradientUnits="userSpaceOnUse">
<stop stop-color="#FEC053"/>
<stop offset="0.125" stop-color="#FEC053"/>
<stop offset="0.140625" stop-color="#FEC053"/>
<stop offset="0.144531" stop-color="#FEC053"/>
<stop offset="0.148438" stop-color="#FEBF53"/>
<stop offset="0.152344" stop-color="#FEBD52"/>
<stop offset="0.15625" stop-color="#FEBB52"/>
<stop offset="0.160156" stop-color="#FDB952"/>
<stop offset="0.164062" stop-color="#FDB852"/>
<stop offset="0.167969" stop-color="#FDB652"/>
<stop offset="0.171875" stop-color="#FDB451"/>
<stop offset="0.175781" stop-color="#FDB251"/>
<stop offset="0.179687" stop-color="#FDB051"/>
<stop offset="0.183594" stop-color="#FDAE51"/>
<stop offset="0.1875" stop-color="#FCAC50"/>
<stop offset="0.191406" stop-color="#FCAA50"/>
<stop offset="0.195312" stop-color="#FCA950"/>
<stop offset="0.199219" stop-color="#FCA750"/>
<stop offset="0.203125" stop-color="#FCA54F"/>
<stop offset="0.207031" stop-color="#FCA34F"/>
<stop offset="0.210938" stop-color="#FCA14F"/>
<stop offset="0.214844" stop-color="#FC9F4F"/>
<stop offset="0.21875" stop-color="#FB9D4E"/>
<stop offset="0.222656" stop-color="#FB9B4E"/>
<stop offset="0.226562" stop-color="#FB9A4E"/>
<stop offset="0.230469" stop-color="#FB984E"/>
<stop offset="0.234375" stop-color="#FB964D"/>
<stop offset="0.238281" stop-color="#FB944D"/>
<stop offset="0.242187" stop-color="#FB924D"/>
<stop offset="0.246094" stop-color="#FA904D"/>
<stop offset="0.25" stop-color="#FA8E4C"/>
<stop offset="0.253906" stop-color="#FA8C4C"/>
<stop offset="0.257812" stop-color="#FA8B4C"/>
<stop offset="0.261719" stop-color="#FA894C"/>
<stop offset="0.265625" stop-color="#FA874B"/>
<stop offset="0.269531" stop-color="#FA854B"/>
<stop offset="0.273437" stop-color="#F9834B"/>
<stop offset="0.277344" stop-color="#F9814B"/>
<stop offset="0.28125" stop-color="#F97F4A"/>
<stop offset="0.285156" stop-color="#F97D4A"/>
<stop offset="0.289062" stop-color="#F97C4A"/>
<stop offset="0.292969" stop-color="#F97A4A"/>
<stop offset="0.296875" stop-color="#F97849"/>
<stop offset="0.300781" stop-color="#F87649"/>
<stop offset="0.304687" stop-color="#F87449"/>
<stop offset="0.308594" stop-color="#F87249"/>
<stop offset="0.3125" stop-color="#F87048"/>
<stop offset="0.316406" stop-color="#F86E48"/>
<stop offset="0.320312" stop-color="#F86D48"/>
<stop offset="0.324219" stop-color="#F86B48"/>
<stop offset="0.328125" stop-color="#F76947"/>
<stop offset="0.332031" stop-color="#F76747"/>
<stop offset="0.335938" stop-color="#F76547"/>
<stop offset="0.339844" stop-color="#F76347"/>
<stop offset="0.34375" stop-color="#F76147"/>
<stop offset="0.347656" stop-color="#F75F46"/>
<stop offset="0.351562" stop-color="#F75E46"/>
<stop offset="0.355469" stop-color="#F65C46"/>
<stop offset="0.359375" stop-color="#F65A46"/>
<stop offset="0.363281" stop-color="#F65845"/>
<stop offset="0.367187" stop-color="#F65645"/>
<stop offset="0.371094" stop-color="#F65445"/>
<stop offset="0.375" stop-color="#F65245"/>
<stop offset="0.378906" stop-color="#F65044"/>
<stop offset="0.382813" stop-color="#F54E44"/>
<stop offset="0.386719" stop-color="#F54D44"/>
<stop offset="0.390625" stop-color="#F54B44"/>
<stop offset="0.394531" stop-color="#F54943"/>
<stop offset="0.398438" stop-color="#F54743"/>
<stop offset="0.402344" stop-color="#F54543"/>
<stop offset="0.40625" stop-color="#F54343"/>
<stop offset="0.410156" stop-color="#F44142"/>
<stop offset="0.414062" stop-color="#F43F42"/>
<stop offset="0.417969" stop-color="#F43E42"/>
<stop offset="0.421875" stop-color="#F43C42"/>
<stop offset="0.425781" stop-color="#F43A41"/>
<stop offset="0.429688" stop-color="#F43841"/>
<stop offset="0.433594" stop-color="#F43641"/>
<stop offset="0.4375" stop-color="#F43441"/>
<stop offset="0.441406" stop-color="#F33240"/>
<stop offset="0.445312" stop-color="#F33040"/>
<stop offset="0.449219" stop-color="#F32F40"/>
<stop offset="0.453125" stop-color="#F32D40"/>
<stop offset="0.457031" stop-color="#F32B3F"/>
<stop offset="0.460937" stop-color="#F3293F"/>
<stop offset="0.464844" stop-color="#F3273F"/>
<stop offset="0.46875" stop-color="#F2253F"/>
<stop offset="0.472656" stop-color="#F2233E"/>
<stop offset="0.476562" stop-color="#F2213E"/>
<stop offset="0.480469" stop-color="#F1213F"/>
<stop offset="0.484375" stop-color="#F02041"/>
<stop offset="0.488281" stop-color="#EF2043"/>
<stop offset="0.492188" stop-color="#EE2046"/>
<stop offset="0.496094" stop-color="#EC2048"/>
<stop offset="0.5" stop-color="#EB204A"/>
<stop offset="0.503906" stop-color="#EA204D"/>
<stop offset="0.507812" stop-color="#E8204F"/>
<stop offset="0.511719" stop-color="#E72052"/>
<stop offset="0.515625" stop-color="#E62054"/>
<stop offset="0.519531" stop-color="#E42057"/>
<stop offset="0.523437" stop-color="#E32059"/>
<stop offset="0.527344" stop-color="#E2205B"/>
<stop offset="0.53125" stop-color="#E0205E"/>
<stop offset="0.535156" stop-color="#DF2060"/>
<stop offset="0.539062" stop-color="#DE2063"/>
<stop offset="0.542969" stop-color="#DC2065"/>
<stop offset="0.546875" stop-color="#DB2068"/>
<stop offset="0.550781" stop-color="#D9206A"/>
<stop offset="0.554688" stop-color="#D8206D"/>
<stop offset="0.558594" stop-color="#D7206F"/>
<stop offset="0.5625" stop-color="#D52071"/>
<stop offset="0.566406" stop-color="#D41F74"/>
<stop offset="0.570312" stop-color="#D31F76"/>
<stop offset="0.574219" stop-color="#D11F79"/>
<stop offset="0.578125" stop-color="#D01F7B"/>
<stop offset="0.582031" stop-color="#CF1F7E"/>
<stop offset="0.585938" stop-color="#CD1F80"/>
<stop offset="0.589844" stop-color="#CC1F82"/>
<stop offset="0.59375" stop-color="#CB1F85"/>
<stop offset="0.597656" stop-color="#C91F87"/>
<stop offset="0.601562" stop-color="#C81F8A"/>
<stop offset="0.605469" stop-color="#C71F8C"/>
<stop offset="0.609375" stop-color="#C51F8F"/>
<stop offset="0.613281" stop-color="#C41F91"/>
<stop offset="0.617188" stop-color="#C31F93"/>
<stop offset="0.621094" stop-color="#C11F96"/>
<stop offset="0.625" stop-color="#C01F98"/>
<stop offset="0.628906" stop-color="#BE1F9B"/>
<stop offset="0.632812" stop-color="#BD1F9D"/>
<stop offset="0.636719" stop-color="#BC1FA0"/>
<stop offset="0.640625" stop-color="#BA1FA2"/>
<stop offset="0.644531" stop-color="#B91FA4"/>
<stop offset="0.648438" stop-color="#B81FA7"/>
<stop offset="0.652344" stop-color="#B620A8"/>
<stop offset="0.65625" stop-color="#B421A9"/>
<stop offset="0.660156" stop-color="#B222AA"/>
<stop offset="0.664062" stop-color="#B023AB"/>
<stop offset="0.667969" stop-color="#AE23AC"/>
<stop offset="0.671875" stop-color="#AC24AD"/>
<stop offset="0.675781" stop-color="#AA25AE"/>
<stop offset="0.679687" stop-color="#A926AF"/>
<stop offset="0.683594" stop-color="#A727B0"/>
<stop offset="0.6875" stop-color="#A528B0"/>
<stop offset="0.691406" stop-color="#A329B1"/>
<stop offset="0.695312" stop-color="#A12AB2"/>
<stop offset="0.699219" stop-color="#9F2BB3"/>
<stop offset="0.703125" stop-color="#9D2CB4"/>
<stop offset="0.707031" stop-color="#9B2DB5"/>
<stop offset="0.710938" stop-color="#992EB6"/>
<stop offset="0.714844" stop-color="#972FB7"/>
<stop offset="0.71875" stop-color="#9530B8"/>
<stop offset="0.722656" stop-color="#9331B8"/>
<stop offset="0.726562" stop-color="#9132B9"/>
<stop offset="0.730469" stop-color="#8F33BA"/>
<stop offset="0.734375" stop-color="#8E34BB"/>
<stop offset="0.738281" stop-color="#8C35BC"/>
<stop offset="0.742187" stop-color="#8A36BD"/>
<stop offset="0.746094" stop-color="#8837BE"/>
<stop offset="0.75" stop-color="#8638BF"/>
<stop offset="0.753906" stop-color="#8439BF"/>
<stop offset="0.757812" stop-color="#823AC0"/>
<stop offset="0.761719" stop-color="#803BC1"/>
<stop offset="0.765625" stop-color="#7E3CC2"/>
<stop offset="0.769531" stop-color="#7C3CC3"/>
<stop offset="0.773438" stop-color="#7A3DC4"/>
<stop offset="0.777344" stop-color="#783EC5"/>
<stop offset="0.78125" stop-color="#763FC6"/>
<stop offset="0.785156" stop-color="#7440C7"/>
<stop offset="0.789062" stop-color="#7341C7"/>
<stop offset="0.792969" stop-color="#7142C8"/>
<stop offset="0.796875" stop-color="#6F43C9"/>
<stop offset="0.800781" stop-color="#6D44CA"/>
<stop offset="0.804688" stop-color="#6B45CB"/>
<stop offset="0.808594" stop-color="#6946CC"/>
<stop offset="0.8125" stop-color="#6747CD"/>
<stop offset="0.816406" stop-color="#6548CE"/>
<stop offset="0.820312" stop-color="#6349CF"/>
<stop offset="0.824219" stop-color="#614ACF"/>
<stop offset="0.828125" stop-color="#5F4BD0"/>
<stop offset="0.832031" stop-color="#5D4CD1"/>
<stop offset="0.835937" stop-color="#5B4DD2"/>
<stop offset="0.839844" stop-color="#594ED3"/>
<stop offset="0.84375" stop-color="#574FD4"/>
<stop offset="0.847656" stop-color="#5650D5"/>
<stop offset="0.851562" stop-color="#5451D6"/>
<stop offset="0.859375" stop-color="#5351D6"/>
<stop offset="0.875" stop-color="#5351D6"/>
<stop offset="1" stop-color="#5351D6"/>
</linearGradient>
</defs>
</svg>
