<svg width="26" height="26" viewBox="0 0 26 26" fill="none" xmlns="http://www.w3.org/2000/svg">
<mask id="mask0_9_31" style="mask-type:luminance" maskUnits="userSpaceOnUse" x="0" y="0" width="26" height="26">
<path d="M0 0H25.3798V25.391H0V0Z" fill="white"/>
</mask>
<g mask="url(#mask0_9_31)">
<mask id="mask1_9_31" style="mask-type:luminance" maskUnits="userSpaceOnUse" x="0" y="0" width="26" height="26">
<path d="M12.6899 0C5.68157 0 0 5.68408 0 12.6955C0 19.707 5.68157 25.391 12.6899 25.391C19.6982 25.391 25.3798 19.707 25.3798 12.6955C25.3798 5.68408 19.6982 0 12.6899 0Z" fill="white"/>
</mask>
<g mask="url(#mask1_9_31)">
<path d="M0 0H25.3798V25.391H0V0Z" fill="#2097BD"/>
</g>
</g>
<mask id="mask2_9_31" style="mask-type:luminance" maskUnits="userSpaceOnUse" x="6" y="4" width="16" height="17">
<path d="M6.31602 4.8623H21.1389V20.5092H6.31602V4.8623Z" fill="white"/>
</mask>
<g mask="url(#mask2_9_31)">
<path d="M22.4912 17.3881C22.4912 19.1126 21.0932 20.5106 19.3694 20.5106H5.07081C3.34704 20.5106 1.94963 19.1126 1.94963 17.3881V3.08252C1.94963 1.35799 3.34704 -0.0400391 5.07081 -0.0400391H19.3694C21.0938 -0.0400391 22.4912 1.35799 22.4912 3.08252V17.3881Z" fill="#2197BD"/>
</g>
<path d="M10.0717 7.29241C10.0717 7.39292 10.0619 7.49282 10.0424 7.59212C10.023 7.6908 9.99373 7.78644 9.95537 7.87964C9.9164 7.97284 9.86952 8.06117 9.8135 8.14524C9.75748 8.2293 9.69355 8.30666 9.62231 8.37793C9.55106 8.44921 9.47374 8.51256 9.38971 8.5686C9.30629 8.62465 9.218 8.67216 9.12484 8.71054C9.03168 8.74952 8.93548 8.77815 8.83684 8.79826C8.73819 8.81775 8.63834 8.8275 8.53726 8.8275C8.43679 8.8275 8.33693 8.81775 8.23829 8.79826C8.13905 8.77815 8.04345 8.74952 7.95029 8.71054C7.85713 8.67216 7.76884 8.62465 7.68481 8.5686C7.60139 8.51256 7.52346 8.44921 7.45222 8.37793C7.38098 8.30666 7.31765 8.2293 7.26163 8.14524C7.20561 8.06117 7.15812 7.97284 7.11976 7.87964C7.0814 7.78644 7.05217 7.6908 7.03269 7.59212C7.0126 7.49282 7.00285 7.39292 7.00285 7.29241C7.00285 7.19129 7.0126 7.092 7.03269 6.9927C7.05217 6.89402 7.0814 6.79777 7.11976 6.70457C7.15812 6.61198 7.20561 6.52304 7.26163 6.43958C7.31765 6.35552 7.38098 6.27816 7.45222 6.20689C7.52346 6.13561 7.60139 6.07165 7.68481 6.01561C7.76884 5.96017 7.85713 5.91266 7.95029 5.87428C8.04345 5.8353 8.13905 5.80606 8.23829 5.78656C8.33693 5.76707 8.43679 5.75732 8.53726 5.75732C8.63834 5.75732 8.73819 5.76707 8.83684 5.78656C8.93548 5.80606 9.03168 5.8353 9.12484 5.87428C9.218 5.91266 9.30629 5.96017 9.38971 6.01561C9.47374 6.07165 9.55106 6.13561 9.62231 6.20689C9.69355 6.27816 9.75748 6.35552 9.8135 6.43958C9.86952 6.52304 9.9164 6.61198 9.95537 6.70457C9.99373 6.79777 10.023 6.89402 10.0424 6.9927C10.0619 7.092 10.0717 7.19129 10.0717 7.29241Z" fill="white"/>
<path d="M7.21472 9.95947H9.85061V18.4439H7.21472V9.95947Z" fill="white"/>
<path d="M11.5087 9.95947H14.0179V18.4439H11.5087V9.95947Z" fill="white"/>
<path d="M14.1263 14.4762C14.1263 14.4762 14.0873 13.3755 14.3772 12.8035C14.3772 12.8035 14.6676 12.0987 15.5791 12.0944C15.5791 12.0944 16.6489 11.908 16.9558 12.9698C16.9558 12.9698 17.0715 13.5582 17.0715 13.8074C17.0715 14.0559 17.08 18.4437 17.08 18.4437H19.708V13.5832C19.708 13.5832 19.8986 10.8377 18.2515 10.086C18.2515 10.086 15.5432 8.86952 14.0733 11.1033C14.0733 11.1033 13.753 11.3244 13.7086 10.7049C13.6641 10.086 13.2885 11.6564 13.2775 11.6893C13.2665 11.7228 13.7086 14.8192 13.7086 14.8192L14.1263 14.4762Z" fill="white"/>
</svg>
