<svg xmlns="http://www.w3.org/2000/svg" xmlns:xlink="http://www.w3.org/1999/xlink" width="700" zoomAndPan="magnify" viewBox="0 0 525 525.000007" height="700" preserveAspectRatio="xMidYMid meet" version="1.0"><defs><clipPath id="4aabcac5dd"><path d="M 34.113281 160 L 263 160 L 263 503.898438 L 34.113281 503.898438 Z M 34.113281 160 " clip-rule="nonzero"/></clipPath><clipPath id="29459dab42"><path d="M 271 301 L 490.742188 301 L 490.742188 503.898438 L 271 503.898438 Z M 271 301 " clip-rule="nonzero"/></clipPath><clipPath id="66a49a7f1b"><path d="M 78 20.320312 L 245 20.320312 L 245 144 L 78 144 Z M 78 20.320312 " clip-rule="nonzero"/></clipPath></defs><path fill="#69ce96" d="M 420.667969 204.875 C 420.667969 205.738281 420.625 206.597656 420.539062 207.457031 C 420.457031 208.316406 420.328125 209.167969 420.160156 210.015625 C 419.992188 210.863281 419.78125 211.699219 419.53125 212.523438 C 419.28125 213.351562 418.992188 214.164062 418.660156 214.960938 C 418.332031 215.757812 417.960938 216.539062 417.554688 217.296875 C 417.148438 218.058594 416.703125 218.800781 416.226562 219.515625 C 415.746094 220.234375 415.230469 220.925781 414.683594 221.59375 C 414.136719 222.261719 413.558594 222.902344 412.949219 223.511719 C 412.335938 224.121094 411.699219 224.699219 411.03125 225.246094 C 410.363281 225.796875 409.671875 226.308594 408.953125 226.789062 C 408.234375 227.269531 407.496094 227.710938 406.734375 228.117188 C 405.972656 228.523438 405.195312 228.894531 404.398438 229.222656 C 403.601562 229.554688 402.789062 229.84375 401.960938 230.09375 C 401.136719 230.347656 400.300781 230.554688 399.453125 230.722656 C 398.605469 230.890625 397.753906 231.019531 396.894531 231.101562 C 396.035156 231.1875 395.175781 231.230469 394.3125 231.230469 C 393.449219 231.230469 392.585938 231.1875 391.726562 231.101562 C 390.871094 231.019531 390.015625 230.890625 389.167969 230.722656 C 388.324219 230.554688 387.488281 230.347656 386.660156 230.09375 C 385.835938 229.84375 385.023438 229.554688 384.226562 229.222656 C 383.429688 228.894531 382.648438 228.523438 381.886719 228.117188 C 381.125 227.710938 380.386719 227.269531 379.667969 226.789062 C 378.953125 226.308594 378.257812 225.796875 377.589844 225.246094 C 376.925781 224.699219 376.285156 224.121094 375.675781 223.511719 C 375.066406 222.902344 374.484375 222.261719 373.9375 221.59375 C 373.390625 220.925781 372.878906 220.234375 372.398438 219.515625 C 371.917969 218.800781 371.476562 218.058594 371.066406 217.296875 C 370.660156 216.539062 370.292969 215.757812 369.960938 214.960938 C 369.632812 214.164062 369.339844 213.351562 369.089844 212.523438 C 368.839844 211.699219 368.628906 210.863281 368.460938 210.015625 C 368.292969 209.167969 368.167969 208.316406 368.082031 207.457031 C 368 206.597656 367.957031 205.738281 367.957031 204.875 C 367.957031 204.011719 368 203.148438 368.082031 202.292969 C 368.167969 201.433594 368.292969 200.578125 368.460938 199.734375 C 368.628906 198.886719 368.839844 198.050781 369.089844 197.222656 C 369.339844 196.398438 369.632812 195.585938 369.960938 194.789062 C 370.292969 193.992188 370.660156 193.210938 371.066406 192.449219 C 371.476562 191.6875 371.917969 190.949219 372.398438 190.230469 C 372.878906 189.515625 373.390625 188.820312 373.9375 188.15625 C 374.484375 187.488281 375.066406 186.847656 375.675781 186.238281 C 376.285156 185.628906 376.925781 185.050781 377.589844 184.5 C 378.257812 183.953125 378.953125 183.441406 379.667969 182.960938 C 380.386719 182.480469 381.125 182.039062 381.886719 181.632812 C 382.648438 181.222656 383.429688 180.855469 384.226562 180.523438 C 385.023438 180.195312 385.835938 179.90625 386.660156 179.652344 C 387.488281 179.402344 388.324219 179.195312 389.167969 179.023438 C 390.015625 178.855469 390.871094 178.730469 391.726562 178.644531 C 392.585938 178.5625 393.449219 178.519531 394.3125 178.519531 C 395.175781 178.519531 396.035156 178.5625 396.894531 178.644531 C 397.753906 178.730469 398.605469 178.855469 399.453125 179.023438 C 400.300781 179.195312 401.136719 179.402344 401.960938 179.652344 C 402.789062 179.90625 403.601562 180.195312 404.398438 180.523438 C 405.195312 180.855469 405.972656 181.222656 406.734375 181.632812 C 407.496094 182.039062 408.234375 182.480469 408.953125 182.960938 C 409.671875 183.441406 410.363281 183.953125 411.03125 184.5 C 411.699219 185.050781 412.335938 185.628906 412.949219 186.238281 C 413.558594 186.847656 414.136719 187.488281 414.683594 188.15625 C 415.230469 188.820312 415.746094 189.515625 416.226562 190.230469 C 416.703125 190.949219 417.148438 191.6875 417.554688 192.449219 C 417.960938 193.210938 418.332031 193.992188 418.660156 194.789062 C 418.992188 195.585938 419.28125 196.398438 419.53125 197.222656 C 419.78125 198.050781 419.992188 198.886719 420.160156 199.734375 C 420.328125 200.578125 420.457031 201.433594 420.539062 202.292969 C 420.625 203.148438 420.667969 204.011719 420.667969 204.875 Z M 420.667969 204.875 " fill-opacity="1" fill-rule="nonzero"/><path fill="#69ce96" d="M 447.015625 138.988281 C 447.011719 139.855469 446.929688 140.710938 446.761719 141.558594 C 446.59375 142.410156 446.34375 143.230469 446.011719 144.03125 C 445.679688 144.832031 445.273438 145.589844 444.792969 146.308594 C 444.3125 147.027344 443.765625 147.691406 443.15625 148.304688 C 442.542969 148.917969 441.878906 149.460938 441.160156 149.941406 C 440.441406 150.421875 439.679688 150.828125 438.882812 151.160156 C 438.082031 151.492188 437.257812 151.742188 436.410156 151.910156 C 435.5625 152.078125 434.707031 152.164062 433.839844 152.164062 C 432.976562 152.164062 432.117188 152.078125 431.269531 151.910156 C 430.421875 151.742188 429.597656 151.492188 428.800781 151.160156 C 428 150.828125 427.242188 150.421875 426.523438 149.941406 C 425.800781 149.460938 425.136719 148.917969 424.527344 148.304688 C 423.914062 147.691406 423.367188 147.027344 422.886719 146.308594 C 422.40625 145.589844 422 144.832031 421.667969 144.03125 C 421.339844 143.230469 421.089844 142.410156 420.921875 141.558594 C 420.75 140.710938 420.667969 139.855469 420.667969 138.988281 C 420.667969 138.125 420.75 137.269531 420.921875 136.421875 C 421.089844 135.570312 421.339844 134.746094 421.667969 133.949219 C 422 133.148438 422.40625 132.390625 422.886719 131.671875 C 423.367188 130.953125 423.914062 130.285156 424.527344 129.675781 C 425.136719 129.0625 425.800781 128.515625 426.523438 128.035156 C 427.242188 127.554688 428 127.152344 428.800781 126.820312 C 429.597656 126.488281 430.421875 126.238281 431.269531 126.070312 C 432.117188 125.902344 432.976562 125.816406 433.839844 125.816406 C 434.707031 125.816406 435.5625 125.902344 436.410156 126.070312 C 437.257812 126.238281 438.082031 126.488281 438.882812 126.820312 C 439.679688 127.152344 440.441406 127.554688 441.160156 128.035156 C 441.878906 128.515625 442.542969 129.0625 443.15625 129.675781 C 443.765625 130.285156 444.3125 130.953125 444.792969 131.671875 C 445.273438 132.390625 445.679688 133.148438 446.011719 133.949219 C 446.34375 134.746094 446.59375 135.570312 446.761719 136.421875 C 446.929688 137.269531 447.011719 138.125 447.015625 138.988281 Z M 447.015625 138.988281 " fill-opacity="1" fill-rule="nonzero"/><g clip-path="url(#4aabcac5dd)"><path fill="#69ce96" d="M 236.203125 196.085938 L 192.28125 196.085938 L 192.28125 169.730469 C 192.28125 164.878906 188.34375 160.941406 183.492188 160.941406 L 113.222656 160.941406 C 108.375 160.941406 104.4375 164.878906 104.4375 169.730469 L 104.4375 196.085938 L 60.511719 196.085938 C 45.960938 196.085938 34.15625 207.878906 34.15625 222.441406 L 34.15625 477.183594 C 34.15625 491.734375 45.960938 503.539062 60.511719 503.539062 L 236.195312 503.539062 C 250.75 503.539062 262.550781 491.746094 262.550781 477.183594 L 262.550781 222.441406 C 262.550781 207.890625 250.75 196.085938 236.195312 196.085938 Z M 179.035156 240.007812 C 186.078125 240.007812 192.28125 246.84375 192.28125 258.226562 C 192.28125 274.6875 184.664062 292.710938 170.164062 292.710938 C 162.363281 292.710938 157.148438 285.75 157.148438 275.261719 C 157.148438 259.148438 164.5 240 179.035156 240 Z M 117.691406 240.007812 C 132.226562 240.007812 139.578125 259.15625 139.578125 275.273438 C 139.578125 285.75 134.363281 292.71875 126.5625 292.71875 C 112.0625 292.71875 104.445312 274.707031 104.445312 258.234375 C 104.445312 246.84375 110.648438 240.019531 117.691406 240.019531 Z M 69.308594 301.5 C 69.308594 291.796875 77.175781 283.933594 86.878906 283.933594 C 96.578125 283.933594 104.445312 291.796875 104.445312 301.5 C 104.445312 311.203125 96.578125 319.066406 86.878906 319.066406 C 77.175781 319.066406 69.308594 311.203125 69.308594 301.5 Z M 148.367188 380.558594 C 119.261719 380.558594 95.664062 364.828125 95.664062 345.421875 C 95.664062 326.019531 119.261719 310.289062 148.367188 310.289062 C 177.472656 310.289062 201.070312 326.019531 201.070312 345.421875 C 201.070312 364.828125 177.472656 380.558594 148.367188 380.558594 Z M 209.859375 319.066406 C 200.15625 319.066406 192.292969 311.203125 192.292969 301.5 C 192.292969 291.796875 200.15625 283.933594 209.859375 283.933594 C 219.558594 283.933594 227.425781 291.796875 227.425781 301.5 C 227.425781 311.203125 219.558594 319.066406 209.859375 319.066406 Z M 209.859375 319.066406 " fill-opacity="1" fill-rule="nonzero"/></g><g clip-path="url(#29459dab42)"><path fill="#69ce96" d="M 482.15625 301.5 L 280.128906 301.5 L 280.128906 477.183594 C 280.128906 487.105469 276.691406 496.175781 271.121094 503.539062 L 388.335938 503.539062 C 399.785156 503.539062 410.582031 498.046875 417.085938 488.621094 C 431.445312 467.792969 454.988281 424.433594 464.597656 354.210938 L 403.109375 354.210938 C 398.257812 354.210938 394.320312 350.273438 394.320312 345.421875 C 394.320312 340.570312 398.257812 336.632812 403.109375 336.632812 L 482.167969 336.632812 C 487.019531 336.632812 490.953125 332.695312 490.953125 327.847656 L 490.953125 310.277344 C 490.953125 305.429688 487.019531 301.492188 482.167969 301.492188 Z M 482.15625 301.5 " fill-opacity="1" fill-rule="nonzero"/></g><path fill="#69ce96" d="M 341.609375 231.230469 C 312.503906 231.230469 288.90625 254.828125 288.90625 283.933594 L 394.3125 283.933594 C 394.3125 254.828125 370.714844 231.230469 341.609375 231.230469 Z M 341.609375 231.230469 " fill-opacity="1" fill-rule="nonzero"/><path fill="#69ce96" d="M 455.800781 283.933594 C 455.800781 264.527344 440.070312 248.796875 420.667969 248.796875 C 414.828125 248.796875 409.402344 250.359375 404.550781 252.882812 C 409.203125 262.261719 411.878906 272.777344 411.878906 283.933594 Z M 455.800781 283.933594 " fill-opacity="1" fill-rule="nonzero"/><g clip-path="url(#66a49a7f1b)"><path fill="#69ce96" d="M 227.417969 20.414062 L 102.890625 20.414062 C 89.1875 20.414062 78.082031 31.519531 78.082031 45.222656 L 78.082031 65.878906 C 78.082031 79.582031 89.1875 90.691406 102.890625 90.691406 C 103.925781 90.691406 104.949219 90.628906 105.96875 90.5 L 130.792969 87.394531 L 130.792969 143.394531 L 165.925781 143.394531 L 165.925781 83 L 229.589844 75.042969 C 238.378906 73.945312 244.984375 66.472656 244.984375 57.613281 L 244.984375 37.988281 C 244.984375 28.285156 237.117188 20.421875 227.417969 20.421875 Z M 227.417969 20.414062 " fill-opacity="1" fill-rule="nonzero"/></g></svg>