<svg width="154" height="196" viewBox="0 0 154 196" fill="none" xmlns="http://www.w3.org/2000/svg">
<path d="M38.8711 16.4183C38.8711 16.4183 39.5273 10.7412 50.22 7.47035C60.9179 4.19952 66.3763 2.45473 70.5169 0.48598C74.6627 -1.47756 77.944 2.88702 78.595 6.81931C79.2461 10.7516 78.595 17.2933 78.595 17.2933C78.595 17.2933 84.9284 17.5172 86.8919 19.9131C86.8919 19.9131 91.6992 11.8349 104.142 10.5329C116.585 9.21515 117.236 5.72556 123.788 5.94431C130.34 6.16827 133.611 9.43911 133.835 22.7516C134.053 36.0693 131.439 46.111 125.98 50.9079C120.517 55.7151 118.553 57.0172 117.47 59.8558C116.376 62.6943 112.663 65.3141 112.663 65.3141C112.663 65.3141 114.408 75.7881 110.694 82.7724C110.694 82.7724 115.059 88.4495 112.887 95.2151C112.887 95.2151 119.866 112.017 128.819 123.158C137.767 134.298 146.72 149.137 150.21 160.481C153.699 171.83 155.892 181.653 151.736 188.205C147.579 194.762 139.512 194.97 128.819 194.97C118.121 194.97 39.9804 195.621 35.8398 194.97C31.694 194.314 22.5221 183.84 20.7773 177.512C19.0325 171.179 19.2513 159.179 30.3815 162.45C30.3815 162.45 24.4909 112.684 28.4127 103.085C28.4127 103.085 23.8242 98.2776 22.3034 95.8766C22.3034 95.8766 12.2565 91.2933 11.1784 84.7516C11.1784 84.7516 0.256483 79.2933 0.0481494 69.2464C-0.160184 59.2047 1.14711 50.6995 9.00127 46.3349C8.97523 46.3349 13.3398 23.6266 38.8711 16.4183Z" fill="#F07142"/>
<path d="M96.3918 179.579C96.3918 179.579 91.5845 178.382 91.2564 174.017C90.9335 169.652 93.6574 168.783 93.6574 168.783C93.6574 168.783 95.9491 162.892 100.861 165.069C100.861 165.069 105.772 161.798 109.913 166.71C109.913 166.71 114.605 165.944 115.595 170.303C116.574 174.668 111.454 178.163 111.454 178.163C111.454 178.163 115.814 190.71 110.579 193.991C105.34 197.262 95.9491 194.095 96.3918 179.579ZM21.522 179.152C23.7095 185.59 31.8918 192.689 31.8918 192.689C37.1262 186.579 30.2512 178.173 30.2512 178.173C32.4387 175.454 32.647 168.897 29.8085 167.257C26.9647 165.616 25.9907 167.361 25.9907 167.361C24.2407 163.324 21.298 165.173 21.298 165.173C18.0272 172.272 21.522 179.152 21.522 179.152ZM19.4491 81.6888C22.9387 75.8034 24.9074 63.7878 33.2043 65.9805C41.5064 68.168 44.121 88.4649 64.1991 93.0482C84.2772 97.6367 91.6991 86.069 92.5741 79.0847C93.4491 72.1003 95.1939 60.9649 81.6574 55.0742C68.121 49.1836 67.897 33.2253 47.8241 31.7044C27.746 30.1784 23.1626 39.1263 18.3553 43.2721C13.548 47.4128 8.97512 46.3346 8.97512 46.3346C1.10533 50.6992 -0.196756 59.2044 0.0219936 69.2461C0.245952 79.293 11.1522 84.7513 11.1522 84.7513C11.1522 84.7513 15.9595 87.5794 19.4491 81.6888Z" fill="white"/>
<path d="M85.5898 38.5796C85.97 43.3764 83.9127 48.3243 80.8606 52.0639C79.8971 53.2514 78.8294 54.3452 77.6158 55.1785C72.7721 58.5535 66.1783 57.0796 62.6731 52.6368C62.0117 51.7931 61.4388 50.8556 61.0742 49.7983C60.6054 48.4441 60.5013 46.9598 60.5273 45.4754C60.6315 40.7046 62.2721 35.7254 65.5169 32.3139C68.7981 28.8608 73.569 27.8608 77.6419 28.965C81.7721 30.1108 85.1888 33.4337 85.5898 38.5796ZM20.4023 20.1837C16.3346 19.0639 11.569 20.0691 8.27209 23.5327C5.0273 26.9493 3.38667 31.9233 3.28251 36.6941C3.25647 38.1785 3.36063 39.6733 3.82938 41.0171C4.19397 42.0743 4.76688 43.0118 5.42834 43.8556C8.93355 48.2983 15.5273 49.7723 20.3763 46.3973C21.5846 45.5535 22.6523 44.4546 23.6158 43.2827C26.6679 39.5327 28.7252 34.5952 28.345 29.7983C27.9544 24.6421 24.5273 21.3191 20.4023 20.1837Z" fill="white"/>
<path d="M41.7669 29.4233C44.4908 29.3713 48.6419 30.0327 48.5794 33.564C48.4856 38.3088 40.9179 39.4546 38.194 39.715C37.5325 39.7775 36.8658 39.6473 36.2669 39.3348C35.1471 38.7358 33.3346 37.5275 32.5273 35.6369C31.8919 34.1108 32.1367 32.9546 32.8919 32.0692C34.7044 29.9702 39.4075 29.4598 41.7669 29.4233ZM74.2565 33.9963C74.0898 31.8869 73.345 30.1108 72.2356 28.7306C69.7773 29.1629 67.3919 30.3348 65.5013 32.3296C62.2565 35.741 60.6158 40.7202 60.5117 45.4858C60.4856 46.9702 60.5898 48.4702 61.0585 49.8088C61.1263 49.991 61.2044 50.1733 61.2825 50.3608C63.3138 50.491 65.371 49.991 67.1835 48.741C68.2669 48.0015 69.2148 47.0223 70.0638 45.9806C72.7721 42.6473 74.595 38.2567 74.2565 33.9963ZM17.0273 25.1994C16.8554 23.09 16.1158 21.3192 15.0065 19.939C12.5429 20.366 10.1575 21.5431 8.27209 23.5327C5.0273 26.9494 3.38667 31.9233 3.28251 36.6942C3.25647 38.1785 3.36063 39.6733 3.82938 41.0171C3.89188 41.1994 3.97001 41.3817 4.04813 41.564C6.08459 41.6942 8.14188 41.1994 9.94917 39.9494C11.0325 39.2046 11.9856 38.2306 12.8294 37.189C15.5273 33.8504 17.3502 29.4598 17.0273 25.1994Z" fill="#592C28"/>
<path d="M21.9646 95.72C22.0532 95.5533 22.2615 95.4752 22.4334 95.5637C22.5219 95.6054 31.449 99.9439 39.3813 101.871C39.5636 101.923 39.6834 102.105 39.6417 102.298C39.6052 102.454 39.4594 102.574 39.3032 102.574C39.2771 102.574 39.2511 102.574 39.225 102.559C31.199 100.605 22.225 96.2564 22.1313 96.2043C21.949 96.1106 21.8865 95.8918 21.9646 95.72ZM28.6469 102.835C28.5011 102.704 28.2823 102.689 28.1521 102.835C28.0063 102.975 28.0063 103.199 28.1521 103.329C28.2823 103.46 31.3292 106.47 36.5792 108.215C36.6209 108.23 36.6573 108.23 36.699 108.23C36.8396 108.23 36.9854 108.137 37.0375 107.996C37.1 107.809 36.9959 107.616 36.8136 107.548C31.7094 105.845 28.6729 102.861 28.6469 102.835ZM39.0011 16.746C39.0948 16.7096 48.423 13.0846 57.6052 14.1523C66.8709 15.2356 78.4125 17.621 78.5323 17.6471C78.5584 17.6471 78.5844 17.6575 78.6104 17.6575C78.7771 17.6575 78.923 17.5429 78.949 17.371C78.9855 17.1783 78.8709 16.996 78.6729 16.9543C78.6104 16.9439 75.0375 16.1991 70.2979 15.3658C71.0532 14.4127 72.4177 11.9804 70.8448 7.78247C70.7771 7.60018 70.5688 7.51164 70.3865 7.57414C70.2042 7.64184 70.1157 7.85018 70.1782 8.03247C71.8865 12.5793 69.8657 14.8293 69.475 15.22C65.8032 14.5846 61.5427 13.9075 57.6729 13.4491C48.3188 12.371 38.8188 16.0533 38.7302 16.095C38.5479 16.1575 38.4542 16.3658 38.5323 16.5481C38.6104 16.7356 38.8188 16.8241 39.0011 16.746ZM110.772 49.6523C110.788 49.7825 110.892 49.9023 111.022 49.9387C111.058 49.9543 111.084 49.9543 111.126 49.9543C111.23 49.9543 111.319 49.9127 111.386 49.8346C111.48 49.7304 120.855 39.1002 119.11 28.1575C119.084 27.9648 118.902 27.8346 118.709 27.871C118.511 27.8971 118.381 28.0793 118.423 28.2773C119.892 37.4596 113.251 46.4491 111.36 48.7929C109.277 36.9908 98.7875 29.1106 98.6834 29.0325C98.5271 28.9127 98.3084 28.9543 98.1886 29.1106C98.074 29.2668 98.1105 29.4856 98.2667 29.6054C98.3605 29.6679 109.069 37.7096 110.772 49.6523ZM110.788 82.4439C110.605 82.3814 110.407 82.4856 110.345 82.6679C110.319 82.746 107.923 90.0689 104.09 94.3293C103.959 94.47 103.975 94.6939 104.116 94.8241C104.183 94.8866 104.272 94.9127 104.35 94.9127C104.444 94.9127 104.548 94.8762 104.61 94.7981C108.548 90.4335 110.918 83.1887 111.006 82.8866C111.074 82.7043 110.98 82.5116 110.788 82.4439ZM108.939 101.465C109.017 101.465 109.095 101.439 109.147 101.387C112.038 99.1627 113.147 95.4752 113.199 95.3189C113.251 95.1366 113.147 94.9387 112.965 94.8762C112.782 94.8241 112.584 94.9283 112.522 95.1106C112.506 95.1471 111.423 98.746 108.715 100.829C108.558 100.944 108.532 101.168 108.652 101.324C108.73 101.413 108.834 101.465 108.939 101.465ZM113.876 57.6262C113.85 57.4335 113.668 57.3033 113.485 57.3293C113.288 57.3554 113.157 57.5377 113.183 57.72C113.808 62.3293 112.366 65.121 112.35 65.1471C112.261 65.3137 112.324 65.5377 112.496 65.6262C112.548 65.6523 112.6 65.6679 112.663 65.6679C112.793 65.6679 112.913 65.6002 112.975 65.4856C113.027 65.3658 114.527 62.4856 113.876 57.6262ZM71.5584 194.225C42.8084 178.345 38.6 141.605 38.5584 141.241C38.5323 141.043 38.3657 140.913 38.1677 140.928C37.975 140.954 37.8292 141.121 37.8552 141.319C37.8969 141.699 42.1417 178.788 71.2094 194.85C71.2615 194.876 71.324 194.892 71.3761 194.892C71.5063 194.892 71.6261 194.824 71.6886 194.71C71.7927 194.538 71.7302 194.314 71.5584 194.225ZM85.6313 188.559C83.1834 189.965 83.4802 194.798 83.4959 194.996C83.5063 195.178 83.6625 195.319 83.8448 195.319C83.8605 195.319 83.8605 195.319 83.8709 195.319C84.0688 195.309 84.2094 195.137 84.199 194.944C84.199 194.892 83.9125 190.345 85.9802 189.157C86.1521 189.064 86.2042 188.845 86.1105 188.673C86.0063 188.517 85.798 188.454 85.6313 188.559ZM42.7302 188.559C40.2823 189.965 40.5792 194.798 40.5948 194.996C40.6052 195.178 40.7615 195.319 40.9438 195.319C40.9594 195.319 40.9594 195.319 40.9698 195.319C41.1677 195.309 41.3084 195.137 41.2979 194.944C41.2979 194.892 41.0115 190.345 43.0792 189.157C43.2511 189.064 43.3032 188.845 43.2094 188.673C43.1209 188.517 42.8969 188.454 42.7302 188.559ZM49.1261 188.715C46.6782 190.121 46.975 194.954 46.9907 195.152C47.0011 195.335 47.1573 195.475 47.3396 195.475C47.3552 195.475 47.3552 195.475 47.3657 195.475C47.5636 195.465 47.7042 195.293 47.6938 195.1C47.6938 195.048 47.4073 190.501 49.4802 189.314C49.6469 189.22 49.699 189.001 49.6104 188.829C49.5063 188.673 49.2979 188.621 49.1261 188.715ZM55.9907 188.559C53.5427 189.965 53.8448 194.798 53.8552 194.996C53.8709 195.178 54.0271 195.319 54.2094 195.319C54.2198 195.319 54.2198 195.319 54.2354 195.319C54.4282 195.309 54.574 195.137 54.5584 194.944C54.5584 194.892 54.2719 190.345 56.3448 189.157C56.5115 189.064 56.5636 188.845 56.475 188.673C56.3813 188.517 56.1625 188.454 55.9907 188.559ZM93.1625 188.23C90.7094 189.642 91.0115 194.475 91.0219 194.668C91.0375 194.85 91.1938 194.996 91.3761 194.996C91.3865 194.996 91.3865 194.996 91.4021 194.996C91.5948 194.98 91.7407 194.814 91.725 194.616C91.725 194.564 91.4386 190.017 93.5115 188.829C93.6834 188.741 93.7355 188.517 93.6417 188.35C93.5375 188.194 93.3292 188.126 93.1625 188.23ZM79.4021 188.559C77.3032 189.756 77.2146 193.444 77.2511 194.631C74.975 193.949 73.5011 192.907 73.1104 191.684C72.8604 190.892 73.0844 190.032 73.7511 189.184C75.6521 186.814 76.2094 174.876 72.3657 166.657C68.6313 158.647 69.449 142.543 69.449 142.376C69.4646 142.178 69.3084 142.012 69.1104 142.012C68.9282 142.012 68.7459 142.152 68.7459 142.35C68.7094 143.012 67.9125 158.788 71.7302 166.96C75.6 175.256 74.7407 186.814 73.1886 188.741C72.3657 189.772 72.1052 190.85 72.4334 191.892C72.7563 192.923 73.8292 194.355 77.0688 195.309C77.1104 195.319 77.1365 195.319 77.1729 195.319C77.2511 195.319 77.3292 195.293 77.3969 195.241C77.4594 195.293 77.5271 195.319 77.6157 195.319C77.6313 195.319 77.6313 195.319 77.6417 195.319C77.8396 195.309 77.9855 195.137 77.9698 194.944C77.9698 194.892 77.6834 190.345 79.7563 189.157C79.9229 189.064 79.975 188.845 79.8865 188.673C79.7927 188.517 79.574 188.454 79.4021 188.559ZM129.314 163.621C123.058 164.157 120.636 168.548 119.892 170.387C118.11 166.647 114.97 161.928 110.017 160.366C107.506 159.569 104.923 159.272 102.491 159.428C102.293 158.465 100.808 150.84 101.209 143.793C101.225 143.6 101.069 143.428 100.886 143.418C100.704 143.402 100.522 143.559 100.506 143.741C100.105 150.71 101.538 158.215 101.782 159.465C99.4802 159.715 97.3188 160.376 95.4646 161.46C92.1677 163.402 89.9959 166.579 89.1625 170.647C88.2771 174.954 90.1105 180.298 94.6052 186.512C97.9282 191.111 101.564 194.512 101.59 194.553C101.652 194.616 101.746 194.642 101.824 194.642C101.918 194.642 102.006 194.605 102.084 194.527C102.215 194.381 102.215 194.157 102.074 194.027C101.928 193.897 87.8344 180.626 89.8396 170.788C90.6313 166.918 92.6938 163.907 95.8188 162.074C99.6105 159.845 104.834 159.454 109.798 161.017C117.834 163.559 122.761 176.105 122.866 186.772C122.866 186.97 123.022 187.126 123.215 187.126C123.413 187.126 123.569 186.97 123.569 186.772C123.517 181.522 122.319 175.949 120.298 171.324C120.454 170.788 122.251 164.923 129.366 164.314C129.558 164.298 129.704 164.131 129.689 163.934C129.678 163.751 129.506 163.595 129.314 163.621ZM30.6157 162.204C30.4854 162.059 30.2615 162.059 30.1209 162.189C29.975 162.319 29.975 162.543 30.1052 162.684C30.1573 162.736 35.2927 168.298 36.8917 178.215C38.4698 188.012 36.0219 190.996 35.9959 191.022C35.8657 191.163 35.8761 191.387 36.0219 191.517C36.0844 191.579 36.1782 191.605 36.2563 191.605C36.3448 191.605 36.449 191.569 36.5167 191.491C36.6313 191.361 39.225 188.298 37.5844 178.111C35.9438 167.975 30.6677 162.267 30.6157 162.204ZM111.621 177.861C110.293 177.095 109.043 176.585 107.855 176.246C106.319 168.314 109.965 167.064 110.017 167.048C110.199 166.996 110.303 166.803 110.251 166.605C110.199 166.423 110.006 166.319 109.808 166.371C109.642 166.423 105.6 167.725 107.1 176.053C105.694 175.725 104.402 175.673 103.246 175.793C103.282 175.673 103.272 175.543 103.194 175.439C98.7094 170.137 101.053 165.434 101.157 165.236C101.251 165.069 101.183 164.845 101.001 164.767C100.834 164.678 100.61 164.741 100.532 164.913C100.506 164.965 99.8448 166.267 99.7667 168.272C99.699 170.111 100.142 172.923 102.631 175.871C101.225 176.09 100.011 176.559 99.048 177.079C99.0219 177.053 98.9959 177.017 98.9594 177.001C94.0584 173.98 93.9959 168.835 93.9959 168.793C93.9959 168.6 93.8396 168.444 93.6417 168.444C93.449 168.444 93.2927 168.6 93.2927 168.793C93.2927 169.017 93.3552 174.225 98.3865 177.47C96.9125 178.397 96.1157 179.345 96.0896 179.371C95.975 179.527 95.9855 179.751 96.1417 179.866C96.2094 179.918 96.2875 179.944 96.3657 179.944C96.4698 179.944 96.574 179.907 96.6365 179.814C96.8605 179.543 102.136 173.236 111.256 178.486C111.423 178.579 111.636 178.527 111.741 178.355C111.855 178.173 111.793 177.954 111.621 177.861ZM30.3917 177.835C30.3552 177.824 28.3344 176.975 26.0427 177.236C27.6677 170.814 26.3813 167.361 26.3136 167.22C26.2511 167.038 26.0427 166.96 25.8604 167.022C25.6782 167.09 25.5844 167.298 25.6625 167.48C25.6782 167.517 26.9646 170.986 25.2875 177.366C23.9959 177.668 22.6938 178.355 21.6782 179.803C21.5584 179.96 21.6 180.184 21.7563 180.298C21.8188 180.34 21.8865 180.366 21.9646 180.366C22.0688 180.366 22.1834 180.314 22.2511 180.22C23.1625 178.944 24.2927 178.319 25.4282 178.043C25.4438 178.043 25.4542 178.059 25.4698 178.069C25.4959 178.085 25.5323 178.085 25.5584 178.085C25.6521 178.085 25.7407 178.043 25.8084 177.965C27.9698 177.6 29.975 178.434 30.1052 178.486C30.2875 178.564 30.4959 178.486 30.5636 178.303C30.6521 178.121 30.574 177.913 30.3917 177.835ZM31.6677 65.8866C31.6834 65.8866 31.7094 65.8866 31.7354 65.8866C31.9282 65.8606 32.0584 65.6783 32.0219 65.4856C31.9959 65.3137 29.2979 48.7825 36.2823 42.2304C36.4229 42.1002 36.4229 41.8762 36.2927 41.7356C36.1625 41.5898 35.9438 41.5898 35.7979 41.72C31.9959 45.3033 30.9802 51.621 30.8084 56.2877C30.6157 61.3137 31.3292 65.5637 31.3292 65.6002C31.3552 65.7721 31.5011 65.8866 31.6677 65.8866Z" fill="#592C28"/>
</svg>
