<svg xmlns="http://www.w3.org/2000/svg" xmlns:xlink="http://www.w3.org/1999/xlink" width="700" zoomAndPan="magnify" viewBox="0 0 525 525.000007" height="700" preserveAspectRatio="xMidYMid meet" version="1.0"><defs><clipPath id="ffd3c88ecb"><path d="M 80 92.191406 L 444 92.191406 L 444 240 L 80 240 Z M 80 92.191406 " clip-rule="nonzero"/></clipPath></defs><path fill="#69ce96" d="M 465.691406 214.171875 C 467.640625 223.871094 469.601562 233.566406 471.527344 243.269531 C 480.058594 286.234375 488.539062 329.210938 497.140625 372.164062 C 498.898438 380.945312 496.382812 387.933594 489.515625 393.542969 C 480.464844 400.9375 469.75 404.984375 458.863281 408.53125 C 432.765625 417.035156 405.804688 421.375 378.644531 424.730469 C 336.21875 429.980469 293.628906 431.875 250.914062 431.40625 C 199.234375 430.835938 147.851562 427.050781 97.140625 416.589844 C 77.914062 412.621094 58.976562 407.511719 41.582031 397.945312 C 38.167969 396.0625 35.148438 393.691406 32.460938 390.867188 C 27.527344 385.691406 26.226562 379.578125 27.578125 372.714844 C 33.207031 344.144531 38.859375 315.578125 44.4375 286.996094 C 49.105469 263.089844 53.683594 239.164062 58.308594 215.25 C 58.414062 214.710938 58.570312 214.179688 58.859375 213.019531 C 61.089844 216.183594 62.789062 219.082031 64.960938 221.566406 C 70.972656 228.453125 78.8125 232.703125 87.117188 236.136719 C 105.65625 243.804688 125.207031 247.519531 144.898438 250.574219 C 194.769531 258.308594 245.015625 258.636719 295.285156 257.640625 C 333.363281 256.886719 371.222656 253.542969 408.492188 245.226562 C 419.808594 242.703125 430.90625 239.390625 441.441406 234.441406 C 451.144531 229.878906 459.953125 224.269531 465.691406 214.171875 Z M 306.636719 381.945312 C 306.582031 377.339844 305.265625 372.96875 302.453125 369.472656 C 295.019531 360.226562 287.703125 350.816406 279.480469 342.292969 C 268.949219 331.382812 253.890625 331.726562 243.578125 342.980469 C 235.777344 351.488281 228.871094 360.824219 221.636719 369.847656 C 220.246094 371.578125 219.386719 373.652344 218.699219 375.792969 C 214.734375 388.066406 223.5625 400.03125 236.425781 399.851562 C 241.527344 399.78125 246.039062 397.910156 250.203125 395.292969 C 258.375 390.15625 266.386719 390.355469 274.519531 395.261719 C 277.578125 397.105469 280.859375 398.519531 284.335938 399.371094 C 296.289062 402.296875 306.753906 394.09375 306.636719 381.945312 Z M 257.582031 305.042969 C 257.660156 300.589844 256.582031 296.453125 254.480469 292.597656 C 251.710938 287.519531 247.542969 284.425781 241.613281 284.492188 C 235.605469 284.558594 231.480469 287.960938 229.148438 293.15625 C 225.203125 301.945312 225.835938 310.546875 231.582031 318.464844 C 235.421875 323.753906 242.964844 325.4375 248.746094 322.339844 C 255.652344 318.632812 257.183594 312.097656 257.582031 305.042969 Z M 297.667969 303.519531 C 297.699219 300.054688 297.152344 296.660156 295.605469 293.585938 C 292.984375 288.378906 288.953125 284.730469 282.863281 284.558594 C 276.785156 284.386719 272.4375 287.523438 269.773438 292.886719 C 266.214844 300.054688 265.792969 307.484375 269.214844 314.738281 C 271.738281 320.085938 275.8125 323.933594 282.28125 323.824219 C 288.605469 323.71875 292.714844 320.265625 295.335938 314.734375 C 297.027344 311.175781 297.574219 307.398438 297.667969 303.519531 Z M 198.492188 334.046875 C 198.304688 339.363281 200.128906 344.078125 203.570312 347.9375 C 207.476562 352.316406 212.53125 354.207031 218.433594 352.585938 C 224.257812 350.984375 227.257812 346.855469 228.097656 341.058594 C 228.953125 335.1875 227.605469 329.824219 223.890625 325.160156 C 219.644531 319.828125 213.339844 317.722656 207.671875 319.636719 C 202.140625 321.503906 198.519531 327.179688 198.492188 334.046875 Z M 325.4375 335.03125 C 325.671875 323.191406 316.066406 315.785156 306.351562 320.316406 C 299.101562 323.699219 294.210938 333.347656 296.085938 341.140625 C 297.445312 346.769531 300.449219 351.164062 306.542969 352.621094 C 312.355469 354.011719 317.058594 351.914062 320.859375 347.710938 C 324.054688 344.171875 325.417969 339.804688 325.4375 335.03125 Z M 325.4375 335.03125 " fill-opacity="1" fill-rule="nonzero"/><g clip-path="url(#ffd3c88ecb)"><path fill="#69ce96" d="M 256.359375 239.207031 C 213.195312 239.558594 171.617188 236.007812 130.347656 229.03125 C 118.039062 226.949219 105.914062 223.863281 94.476562 218.59375 C 91.21875 217.089844 88.125 215.359375 85.472656 212.90625 C 78.886719 206.820312 78.789062 199.351562 85.308594 193.125 C 90.707031 187.972656 97.253906 184.808594 104.398438 183.003906 C 106.414062 182.496094 107.285156 181.660156 108.0625 179.84375 C 115.804688 161.773438 132.628906 152.449219 152.011719 155.621094 C 155.105469 156.125 156.042969 155.433594 156.703125 152.390625 C 162.582031 125.347656 189.613281 113.035156 213.972656 126.246094 C 215.765625 127.21875 216.992188 127.375 218.800781 126.304688 C 222.671875 124.015625 227.492188 123.84375 231.289062 121.882812 C 235.019531 119.953125 234.90625 114.496094 237.226562 110.886719 C 245.375 98.191406 257.125 92.210938 271.824219 92.808594 C 287.375 93.441406 298.660156 101.445312 305.6875 115.320312 C 307.074219 118.0625 307.429688 122 309.570312 123.433594 C 310.902344 124.324219 314.625 121.34375 317.386719 120.453125 C 339.238281 113.410156 361.199219 125.5 367.78125 148.371094 C 368.71875 151.628906 369.710938 152.359375 373.144531 151.929688 C 393.054688 149.425781 410.601562 160.167969 418.328125 179.363281 C 419.167969 181.453125 420.195312 182.644531 422.339844 183.488281 C 427.734375 185.605469 432.996094 188.082031 437.445312 191.933594 C 446.472656 199.75 445.984375 208.273438 436.0625 214.914062 C 428.804688 219.765625 420.664062 222.535156 412.304688 224.796875 C 384.894531 232.203125 356.765625 234.65625 328.632812 237.101562 C 304.15625 239.226562 279.617188 239.351562 256.359375 239.207031 Z M 374.652344 176.414062 C 364.617188 176.359375 356.652344 184.246094 356.492188 194.386719 C 356.335938 204.285156 364.765625 212.800781 374.832031 212.910156 C 384.46875 213.015625 392.960938 204.824219 393.054688 195.339844 C 393.15625 185.074219 384.789062 176.46875 374.652344 176.414062 Z M 175.335938 196.828125 C 175.25 186.945312 167.019531 178.972656 156.980469 179.050781 C 146.695312 179.132812 138.585938 187.101562 138.78125 196.933594 C 138.976562 206.816406 147.933594 215.511719 157.796875 215.402344 C 167.726562 215.289062 175.429688 207.132812 175.335938 196.828125 Z M 188.6875 178.941406 C 188.476562 188.808594 196.957031 197.683594 206.777344 197.871094 C 216.5 198.0625 224.800781 189.804688 225.03125 179.726562 C 225.25 170.078125 216.773438 161.46875 206.953125 161.367188 C 197.214844 161.265625 188.894531 169.273438 188.6875 178.941406 Z M 239.292969 192.96875 C 238.933594 202.972656 246.882812 211.386719 257.179688 211.902344 C 266.820312 212.386719 275.230469 204.53125 275.613281 194.683594 C 276.003906 184.617188 267.980469 175.898438 258.007812 175.554688 C 247.941406 175.210938 239.652344 182.921875 239.292969 192.96875 Z M 325.765625 196.988281 C 335.738281 197.070312 343.695312 188.964844 343.679688 178.738281 C 343.660156 169.023438 335.257812 160.667969 325.375 160.542969 C 315.644531 160.417969 307.667969 168.363281 307.460938 178.382812 C 307.257812 188.324219 315.695312 196.90625 325.765625 196.988281 Z M 279.832031 163.320312 C 290.253906 163.53125 297.824219 156.335938 297.964844 146.078125 C 298.101562 135.941406 290.242188 127.480469 280.453125 127.226562 C 270.179688 126.960938 261.910156 134.675781 261.765625 144.652344 C 261.621094 154.988281 269.480469 163.105469 279.832031 163.320312 Z M 279.832031 163.320312 " fill-opacity="1" fill-rule="nonzero"/></g></svg>