<svg xmlns="http://www.w3.org/2000/svg" xmlns:xlink="http://www.w3.org/1999/xlink" width="700" zoomAndPan="magnify" viewBox="0 0 525 525.000007" height="700" preserveAspectRatio="xMidYMid meet" version="1.0"><defs><clipPath id="44337a3e06"><path d="M 6.324219 36 L 518.347656 36 L 518.347656 246 L 6.324219 246 Z M 6.324219 36 " clip-rule="nonzero"/></clipPath><clipPath id="24d06f75e8"><path d="M 64 90 L 461 90 L 461 488.066406 L 64 488.066406 Z M 64 90 " clip-rule="nonzero"/></clipPath></defs><g clip-path="url(#44337a3e06)"><path fill="#69ce96" d="M 517.1875 208.722656 L 460.34375 182.402344 L 466.132812 168.4375 C 466.625 167.21875 466.078125 165.84375 464.910156 165.296875 L 405.265625 137.679688 L 410.921875 123.976562 C 411.417969 122.757812 410.871094 121.378906 409.703125 120.835938 L 353.222656 94.699219 L 358.648438 81.589844 C 359.140625 80.371094 358.597656 78.96875 357.402344 78.421875 L 263.496094 36.246094 C 262.84375 35.960938 262.117188 35.960938 261.496094 36.246094 L 167.640625 78.398438 C 166.445312 78.941406 165.875 80.34375 166.394531 81.5625 L 171.820312 94.671875 L 115.3125 120.808594 C 114.117188 121.355469 113.574219 122.757812 114.09375 123.949219 L 119.75 137.65625 L 60.105469 165.273438 C 58.910156 165.816406 58.367188 167.21875 58.886719 168.414062 L 64.671875 182.375 L 7.832031 208.722656 C 7.179688 209.03125 6.6875 209.605469 6.507812 210.304688 C 6.324219 211.003906 6.453125 211.734375 6.84375 212.328125 L 28.878906 244.152344 C 29.242188 244.695312 29.816406 245.058594 30.464844 245.164062 C 31.113281 245.265625 31.761719 245.136719 32.304688 244.75 L 48.917969 233.015625 C 48.945312 232.992188 48.96875 232.992188 48.996094 232.964844 L 262.535156 71.207031 L 475.734375 232.730469 C 475.839844 232.835938 475.96875 232.9375 476.097656 233.042969 L 492.710938 244.773438 C 493.125 245.058594 493.617188 245.214844 494.109375 245.214844 C 494.242188 245.214844 494.398438 245.214844 494.527344 245.191406 C 495.175781 245.085938 495.746094 244.722656 496.109375 244.175781 L 517.914062 212.71875 C 518.378906 212.25 518.664062 211.601562 518.640625 210.929688 C 518.585938 209.941406 518.042969 209.109375 517.1875 208.722656 Z M 517.1875 208.722656 " fill-opacity="1" fill-rule="nonzero"/></g><g clip-path="url(#24d06f75e8)"><path fill="#69ce96" d="M 459.433594 240.308594 L 263.988281 91.273438 C 263.105469 90.597656 261.910156 90.597656 261.027344 91.273438 L 65.554688 240.308594 C 64.855469 240.828125 64.519531 241.683594 64.621094 242.542969 L 94.417969 485.878906 C 94.574219 487.097656 95.613281 488.03125 96.832031 488.03125 L 165.25 488.03125 C 166.601562 488.03125 167.691406 486.941406 167.691406 485.589844 L 167.691406 368.816406 C 167.691406 319.242188 210.207031 278.90625 262.480469 278.90625 C 314.757812 278.90625 357.273438 319.242188 357.273438 368.816406 L 357.273438 485.589844 C 357.273438 486.941406 358.363281 488.03125 359.710938 488.03125 L 428.132812 488.03125 C 429.378906 488.03125 430.414062 487.121094 430.546875 485.878906 L 460.34375 242.542969 C 460.5 241.683594 460.136719 240.828125 459.433594 240.308594 Z M 174.464844 223.28125 C 175.167969 222.398438 175.167969 221.128906 174.464844 220.246094 C 171.429688 216.378906 169.792969 211.734375 169.792969 206.800781 C 169.792969 194.808594 179.554688 185.074219 191.519531 185.074219 C 196.96875 185.074219 202.1875 187.101562 206.183594 190.785156 C 209.636719 193.953125 211.945312 198.054688 212.828125 202.648438 C 213.0625 203.789062 214.046875 204.621094 215.214844 204.621094 L 309.253906 204.621094 C 310.421875 204.621094 311.433594 203.789062 311.640625 202.648438 C 312.523438 198.054688 314.835938 193.953125 318.285156 190.785156 C 322.308594 187.101562 327.5 185.074219 332.953125 185.074219 C 344.945312 185.074219 354.675781 194.835938 354.675781 206.800781 C 354.675781 211.734375 353.066406 216.378906 350.003906 220.246094 C 349.304688 221.128906 349.304688 222.398438 350.003906 223.28125 C 353.042969 227.148438 354.675781 231.796875 354.675781 236.726562 C 354.675781 248.71875 344.917969 258.453125 332.953125 258.453125 C 328.019531 258.453125 323.191406 256.738281 319.351562 253.652344 C 316.054688 251.003906 313.613281 247.472656 312.292969 243.449219 C 311.953125 242.4375 311.019531 241.761719 309.980469 241.761719 L 214.515625 241.761719 C 213.453125 241.761719 212.515625 242.4375 212.207031 243.449219 C 210.882812 247.472656 208.441406 251.003906 205.144531 253.652344 C 201.304688 256.738281 196.476562 258.453125 191.546875 258.453125 C 179.554688 258.453125 169.820312 248.695312 169.820312 236.726562 C 169.792969 231.769531 171.402344 227.125 174.464844 223.28125 Z M 174.464844 223.28125 " fill-opacity="1" fill-rule="nonzero"/></g></svg>