<svg xmlns="http://www.w3.org/2000/svg" xmlns:xlink="http://www.w3.org/1999/xlink" width="700" zoomAndPan="magnify" viewBox="0 0 525 525.000007" height="700" preserveAspectRatio="xMidYMid meet" version="1.0"><defs><clipPath id="e254a32fe5"><path d="M 170 15.109375 L 282 15.109375 L 282 127 L 170 127 Z M 170 15.109375 " clip-rule="nonzero"/></clipPath></defs><path fill="#69ce96" d="M 148.894531 227.917969 C 148.492188 202.535156 152.753906 178.125 161.070312 154.210938 C 166.230469 139.398438 158.214844 127.4375 143.773438 127.4375 C 134.601562 127.683594 128.914062 132.527344 125.777344 141.003906 C 117.511719 163.328125 112.769531 186.480469 111.359375 210.148438 C 108.476562 258.171875 119.96875 301.917969 152.078125 338.964844 C 160.9375 349.179688 172.261719 350.714844 180.894531 343.449219 C 189.605469 336.140625 189.664062 324.835938 180.671875 314.421875 C 159.199219 289.554688 149.421875 260.570312 148.894531 227.917969 " fill-opacity="1" fill-rule="nonzero"/><g clip-path="url(#e254a32fe5)"><path fill="#69ce96" d="M 225.742188 126.574219 C 256.320312 126.574219 281.109375 101.785156 281.109375 71.207031 C 281.109375 40.621094 256.320312 15.832031 225.742188 15.832031 C 195.167969 15.832031 170.378906 40.621094 170.378906 71.207031 C 170.378906 101.785156 195.167969 126.574219 225.742188 126.574219 " fill-opacity="1" fill-rule="nonzero"/></g><path fill="#69ce96" d="M 162.070312 351.96875 C 147.617188 346.421875 140.609375 333.683594 133.390625 321.867188 C 97.097656 262.441406 100.042969 200.214844 122.210938 137.179688 C 126.617188 124.65625 140.171875 119.296875 151.734375 123.625 C 164.941406 128.558594 170.9375 140.835938 166.105469 154.355469 C 161.566406 167.050781 157.707031 179.988281 156.160156 193.242188 C 154.917969 203.871094 149.835938 215.105469 155.8125 225.519531 C 175.839844 260.445312 207.34375 276.738281 246.53125 279.316406 C 255.378906 279.886719 261.980469 274.976562 264.234375 265.773438 C 266.421875 256.847656 263.886719 249.324219 255.8125 244.894531 C 251.65625 242.617188 246.484375 241.855469 241.652344 241.171875 C 211.402344 236.832031 190.976562 220.933594 182.363281 191.121094 C 177.710938 175 175.804688 158.664062 178.25 141.800781 C 181.421875 120.058594 172.542969 107.175781 151.394531 102.007812 C 129.867188 96.773438 112.230469 104.855469 97.769531 119.890625 C 74.277344 144.332031 55.453125 171.984375 42.875 203.746094 C 42.851562 203.792969 42.839844 203.847656 42.816406 203.902344 C 41.832031 206.605469 28.554688 243.371094 32.042969 267.867188 C 37.324219 279.238281 45.53125 288.050781 57.238281 293.847656 C 58.46875 294.464844 59.90625 295.226562 60.601562 296.324219 C 73.84375 317.214844 86.925781 338.179688 100.191406 359.046875 C 103.070312 363.574219 99.339844 366.367188 97.703125 369.382812 C 81.902344 398.558594 65.714844 427.527344 49.914062 456.703125 C 39.21875 476.457031 44.386719 492.277344 64.246094 502.203125 C 64.246094 502.203125 88.371094 508.433594 101.445312 485.933594 C 120.585938 450.078125 140.25 414.5 159.859375 378.890625 C 162.628906 373.855469 164.625 368.566406 165.679688 363.035156 C 166.464844 358.988281 166.679688 353.742188 162.070312 351.96875 " fill-opacity="1" fill-rule="nonzero"/><path fill="#69ce96" d="M 494.644531 313.679688 C 495.382812 309.957031 496.492188 305.070312 490.820312 303.667969 C 485.449219 302.347656 483.722656 306.539062 482.332031 310.40625 C 479.585938 318.019531 477.0625 325.699219 474.507812 333.382812 C 472.421875 339.613281 468.597656 342.371094 461.636719 341.6875 C 439.511719 339.515625 417.371094 337.183594 395.167969 336.09375 C 375.492188 335.128906 357.957031 329.792969 343.3125 316.351562 C 343.078125 316.136719 342.855469 315.96875 342.628906 315.777344 C 340.679688 314.117188 334.804688 308.691406 329.433594 299.746094 C 329.109375 299.105469 328.726562 298.421875 328.234375 297.671875 C 318.320312 282.566406 306.671875 268.472656 301.101562 250.792969 C 299.84375 246.789062 296.46875 243.652344 291.78125 244.894531 C 286.546875 246.285156 284.011719 251.746094 285.121094 255.714844 C 287.960938 265.761719 281.535156 269.664062 275.335938 274.382812 C 271.464844 277.332031 267.824219 280.59375 264.257812 283.890625 C 260.277344 287.578125 255.835938 289.226562 250.296875 289.207031 C 240.183594 289.171875 237.851562 292.46875 240.183594 302.257812 C 242.808594 313.253906 249.1875 318.683594 262.351562 319.769531 C 263.078125 319.757812 265.804688 320.441406 267.878906 319.578125 C 276.445312 315.992188 284.371094 314.027344 291.019531 323.179688 C 291.019531 323.179688 293.644531 332.113281 293.597656 357.667969 C 293.410156 361.109375 293.351562 364.539062 293.453125 367.96875 C 293.441406 368.160156 293.441406 368.328125 293.441406 368.519531 L 293.476562 368.507812 C 293.734375 376.378906 294.6875 384.226562 296.167969 392.066406 C 300.304688 413.960938 299.136719 435.714844 296.347656 457.578125 C 295.742188 462.308594 293.621094 464.910156 288.902344 465.71875 C 284.875 466.414062 281.636719 468.25 281.804688 473.082031 C 281.960938 478.007812 285.886719 479.183594 289.519531 480.082031 C 303.667969 483.566406 311.066406 478.21875 312.167969 463.566406 C 313.242188 448.933594 315.664062 434.515625 318.746094 419.949219 C 320.394531 432.25 322.324219 444.527344 323.570312 456.882812 C 324.027344 461.46875 321.070312 464.921875 316.886719 467.199219 C 314.082031 468.722656 311.257812 470.394531 312.324219 474.597656 C 313.320312 478.566406 315.945312 480.394531 319.632812 481.257812 C 334.691406 484.777344 341.417969 478.710938 340.722656 462.992188 C 340.074219 447.84375 339.925781 432.664062 339.839844 417.503906 C 339.792969 410.980469 342.304688 406.652344 349.804688 405.363281 C 366.824219 402.414062 383.734375 398.949219 399.96875 392.59375 C 411.394531 388.117188 420.195312 394.5 420.039062 406.496094 C 419.871094 419.46875 424.039062 431.519531 427.953125 443.539062 C 430.691406 451.960938 430.050781 459.160156 424.992188 466.535156 C 421.371094 471.828125 417.300781 477.085938 415.742188 483.542969 C 413.835938 491.515625 417.449219 494.734375 425.273438 493.199219 C 443.078125 489.699219 445.074219 474.273438 449.414062 461.074219 C 451.464844 454.832031 450.847656 447.699219 451.566406 439.570312 C 455.503906 442.621094 455.613281 445.636719 455.871094 448.449219 C 457.183594 462.960938 456.296875 477.109375 449.132812 490.304688 C 447.699219 492.960938 444.863281 495.945312 447.832031 499.1875 C 450.738281 502.347656 454.503906 503.570312 458.855469 502.738281 C 464.628906 501.628906 468.753906 498.1875 471.199219 493.121094 C 479.058594 476.804688 483.429688 459.988281 476.222656 442.21875 C 472.308594 432.5625 473.585938 424.085938 477.601562 414.308594 C 485.011719 396.214844 490.742188 377.1875 479.585938 358.082031 C 478.296875 355.882812 479.417969 354.527344 480.539062 353.023438 C 489.25 341.351562 491.90625 327.472656 494.644531 313.679688 " fill-opacity="1" fill-rule="nonzero"/></svg>