<svg xmlns="http://www.w3.org/2000/svg" xmlns:xlink="http://www.w3.org/1999/xlink" width="700" zoomAndPan="magnify" viewBox="0 0 525 525.000007" height="700" preserveAspectRatio="xMidYMid meet" version="1.0"><defs><clipPath id="ff7c54b841"><path d="M 28 322 L 136 322 L 136 508.660156 L 28 508.660156 Z M 28 322 " clip-rule="nonzero"/></clipPath><clipPath id="55f0dd0ee7"><path d="M 88 15.347656 L 192 15.347656 L 192 119 L 88 119 Z M 88 15.347656 " clip-rule="nonzero"/></clipPath><clipPath id="e3ad19f0c6"><path d="M 8 134 L 518 134 L 518 508.660156 L 8 508.660156 Z M 8 134 " clip-rule="nonzero"/></clipPath></defs><g clip-path="url(#ff7c54b841)"><path fill="#69ce96" d="M 106.394531 333.023438 C 101.457031 329.699219 96.113281 326.128906 91.082031 322.214844 C 91.082031 322.308594 91.050781 322.398438 91.050781 322.492188 C 88.847656 340.074219 86.082031 361.90625 82.199219 369.734375 C 70.523438 393.277344 31.730469 473.101562 31.324219 473.875 C 25.515625 485.835938 30.488281 500.246094 42.445312 506.054688 C 45.828125 507.699219 49.433594 508.507812 52.972656 508.507812 C 61.886719 508.507812 70.460938 503.507812 74.621094 494.933594 C 75.027344 494.160156 113.757812 414.523438 125.34375 391.105469 C 129.9375 381.847656 132.796875 369.578125 135.0625 355.820312 C 127.175781 348.488281 119.101562 341.75 112.234375 336.964844 C 110.433594 335.722656 108.476562 334.421875 106.394531 333.023438 Z M 106.394531 333.023438 " fill-opacity="1" fill-rule="nonzero"/></g><g clip-path="url(#55f0dd0ee7)"><path fill="#69ce96" d="M 139.519531 118.910156 C 167.945312 119.390625 191.378906 96.730469 191.855469 68.300781 C 192.332031 39.871094 169.675781 16.441406 141.246094 15.964844 C 112.816406 15.484375 89.382812 38.144531 88.90625 66.574219 C 88.433594 95.003906 111.089844 118.433594 139.519531 118.910156 Z M 139.519531 118.910156 " fill-opacity="1" fill-rule="nonzero"/></g><g clip-path="url(#e3ad19f0c6)"><path fill="#69ce96" d="M 512.535156 311.886719 L 470.605469 292.660156 C 467.375 291.199219 464.519531 288.960938 462.28125 286.199219 L 453.304688 275.171875 C 450.570312 271.851562 445.261719 272.78125 443.863281 276.851562 C 439.246094 290.3125 430.800781 314.515625 427.089844 322.894531 L 424.828125 321.945312 C 422.90625 321.144531 420.785156 321.132812 418.859375 321.925781 C 417.648438 322.417969 416.632812 323.21875 415.824219 324.199219 C 405.085938 322.523438 322.59375 308.757812 285.429688 276.652344 C 288.804688 269.105469 286.851562 259.957031 280.105469 254.535156 C 265.242188 242.59375 241.597656 221.429688 235.570312 211.789062 C 234.050781 209.359375 231.925781 204.777344 229.675781 199.929688 C 219.179688 177.304688 199.671875 135.25 156.070312 135.25 C 155.921875 135.25 132.652344 134.757812 125.441406 134.636719 C 76.03125 133.773438 43.816406 177.226562 36.445312 192.503906 C 29.011719 207.90625 12.347656 257.492188 9.351562 268.226562 C 6.582031 278.140625 12.371094 288.417969 22.285156 291.1875 C 23.960938 291.660156 25.648438 291.882812 27.308594 291.882812 C 35.460938 291.882812 42.945312 286.492188 45.246094 278.253906 C 48.117188 267.988281 64.226562 220.683594 70.007812 208.707031 C 71.6875 205.226562 77.234375 196.820312 85.71875 188.917969 C 77.367188 223.800781 80.347656 271.191406 82.320312 291.320312 C 83.617188 304.519531 106.128906 317.601562 119.332031 326.78125 C 140.558594 341.53125 173.183594 374.292969 180.253906 389.472656 C 185.472656 401.242188 207.867188 464.585938 218.980469 493.148438 C 222.6875 502.667969 231.785156 508.496094 241.421875 508.496094 C 244.324219 508.496094 247.273438 507.96875 250.144531 506.851562 C 262.53125 502.03125 268.667969 488.078125 263.847656 475.6875 C 262.519531 472.277344 231.230469 385.679688 224.265625 369.960938 C 218.328125 356.574219 194.132812 326.730469 178.109375 309.566406 C 177.78125 309.214844 177.464844 308.890625 177.136719 308.539062 C 176.816406 300.21875 177 239.792969 186.671875 197.285156 C 189.820312 202.871094 192.832031 209.074219 195.867188 215.617188 C 198.738281 221.804688 201.214844 227.148438 203.96875 231.546875 C 215.464844 249.9375 249.957031 278.125 256.757812 283.589844 C 260.199219 286.355469 264.320312 287.699219 268.417969 287.699219 C 271.339844 287.699219 274.238281 286.992188 276.875 285.652344 C 315.28125 319.0625 393.910156 333.277344 411.734375 336.136719 C 411.988281 337.699219 412.699219 339.171875 413.8125 340.320312 C 407.730469 346.03125 400.652344 350.738281 394.574219 351.484375 C 382.832031 352.945312 303.691406 356.921875 303.691406 356.921875 L 285.679688 343.78125 C 282.324219 341.328125 277.632812 342.011719 275.117188 345.335938 C 274.0625 346.703125 273.535156 348.347656 273.535156 349.964844 C 273.535156 352.078125 274.433594 354.1875 276.113281 355.679688 L 291.484375 369.3125 C 291.484375 369.3125 288.195312 380.121094 287.449219 397.578125 C 286.703125 415.035156 299.066406 439.695312 300.867188 449.507812 C 302.636719 459.292969 301.394531 484.886719 301.796875 493.457031 C 302.234375 502 307.046875 508.519531 312.542969 508.519531 L 332.265625 508.519531 C 337.890625 508.519531 342.207031 503.519531 341.367188 497.960938 L 340.964844 495.042969 C 340.28125 490.570312 336.707031 487.121094 332.207031 486.59375 L 325.621094 485.816406 L 333.105469 469.015625 C 336.707031 460.847656 338.695312 452.023438 338.945312 443.109375 L 339.378906 426.433594 C 348.292969 426.121094 357.703125 426.183594 366.679688 426.960938 C 383.109375 428.359375 406.871094 428.328125 426.96875 427.921875 L 430.507812 458.859375 L 429.140625 492.121094 C 428.769531 501.066406 435.910156 508.519531 444.859375 508.519531 L 461.132812 508.519531 C 467.53125 508.519531 472.34375 502.652344 471.101562 496.378906 C 470.605469 493.984375 469.796875 491.84375 468.492188 490.570312 C 464.144531 486.46875 454.269531 485.816406 454.269531 485.816406 C 454.269531 485.816406 462.902344 436.058594 465.449219 422.425781 C 468.027344 408.820312 466.535156 375.679688 467.746094 364.53125 C 467.792969 364.113281 467.875 363.660156 467.933594 363.230469 C 468.164062 363.253906 468.394531 363.300781 468.621094 363.300781 C 471.671875 363.300781 474.578125 361.496094 475.835938 358.507812 L 478.242188 352.761719 C 479.042969 350.835938 479.050781 348.71875 478.261719 346.789062 C 477.46875 344.863281 475.972656 343.355469 474.050781 342.550781 L 473.089844 342.148438 C 473.703125 340.308594 474.117188 339.183594 474.117188 339.183594 L 505.238281 342.882812 C 509.988281 343.441406 514.367188 340.210938 515.238281 335.488281 L 517.691406 321.699219 C 518.40625 317.628906 516.292969 313.59375 512.535156 311.886719 Z M 472.507812 350.363281 L 470.105469 356.109375 C 469.757812 356.917969 468.816406 357.304688 468.019531 356.964844 L 418.800781 336.363281 C 417.988281 336.023438 417.605469 335.085938 417.945312 334.277344 L 420.351562 328.527344 C 420.566406 328 420.984375 327.765625 421.210938 327.671875 C 421.605469 327.511719 422.035156 327.507812 422.433594 327.679688 L 471.65625 348.285156 C 472.464844 348.621094 472.847656 349.554688 472.507812 350.363281 Z M 472.507812 350.363281 " fill-opacity="1" fill-rule="nonzero"/></g></svg>