<svg xmlns="http://www.w3.org/2000/svg" xmlns:xlink="http://www.w3.org/1999/xlink" width="700" zoomAndPan="magnify" viewBox="0 0 525 525.000007" height="700" preserveAspectRatio="xMidYMid meet" version="1.0"><path fill="#69ce96" d="M 445.566406 78.929688 C 444.183594 77.550781 442.773438 76.207031 441.324219 74.898438 C 439.878906 73.589844 438.402344 72.316406 436.894531 71.078125 C 435.382812 69.839844 433.847656 68.640625 432.277344 67.480469 C 430.710938 66.316406 429.117188 65.195312 427.492188 64.109375 C 425.871094 63.027344 424.222656 61.984375 422.546875 60.980469 C 420.875 59.980469 419.175781 59.019531 417.457031 58.097656 C 415.734375 57.179688 413.992188 56.304688 412.230469 55.46875 C 410.464844 54.636719 408.679688 53.84375 406.878906 53.097656 C 405.074219 52.351562 403.253906 51.652344 401.417969 50.992188 C 399.582031 50.335938 397.730469 49.726562 395.863281 49.160156 C 393.996094 48.59375 392.113281 48.074219 390.222656 47.597656 C 388.328125 47.125 386.425781 46.699219 384.511719 46.316406 C 382.597656 45.9375 380.675781 45.605469 378.746094 45.316406 C 376.816406 45.03125 374.878906 44.792969 372.9375 44.601562 C 370.996094 44.410156 369.050781 44.265625 367.101562 44.171875 C 365.152344 44.074219 363.203125 44.027344 361.253906 44.027344 C 359.300781 44.027344 357.351562 44.074219 355.402344 44.171875 C 353.453125 44.265625 351.507812 44.410156 349.566406 44.601562 C 347.625 44.792969 345.6875 45.03125 343.757812 45.316406 C 341.828125 45.605469 339.90625 45.9375 337.992188 46.316406 C 336.078125 46.699219 334.175781 47.125 332.285156 47.597656 C 330.390625 48.074219 328.511719 48.59375 326.644531 49.160156 C 324.777344 49.726562 322.925781 50.335938 321.085938 50.992188 C 319.25 51.652344 317.429688 52.351562 315.625 53.097656 C 313.824219 53.84375 312.039062 54.636719 310.277344 55.46875 C 308.511719 56.304688 306.769531 57.179688 305.050781 58.097656 C 303.328125 59.019531 301.628906 59.980469 299.957031 60.980469 C 298.28125 61.984375 296.632812 63.027344 295.011719 64.109375 C 293.390625 65.195312 291.792969 66.316406 290.226562 67.480469 C 288.660156 68.640625 287.121094 69.839844 285.613281 71.078125 C 284.101562 72.316406 282.625 73.589844 281.179688 74.898438 C 279.734375 76.207031 278.320312 77.550781 276.941406 78.929688 L 79.429688 276.410156 C 78.050781 277.792969 76.707031 279.207031 75.394531 280.652344 C 74.082031 282.097656 72.808594 283.574219 71.570312 285.082031 C 70.332031 286.59375 69.132812 288.128906 67.96875 289.699219 C 66.808594 291.265625 65.683594 292.859375 64.597656 294.484375 C 63.515625 296.105469 62.472656 297.753906 61.46875 299.429688 C 60.464844 301.101562 59.503906 302.800781 58.582031 304.523438 C 57.664062 306.242188 56.785156 307.984375 55.949219 309.75 C 55.117188 311.515625 54.324219 313.296875 53.578125 315.101562 C 52.832031 316.90625 52.128906 318.726562 51.472656 320.5625 C 50.816406 322.398438 50.203125 324.253906 49.636719 326.121094 C 49.070312 327.988281 48.550781 329.867188 48.074219 331.761719 C 47.601562 333.65625 47.171875 335.558594 46.792969 337.472656 C 46.410156 339.386719 46.078125 341.308594 45.792969 343.242188 C 45.503906 345.171875 45.265625 347.109375 45.074219 349.050781 C 44.882812 350.992188 44.742188 352.9375 44.644531 354.886719 C 44.550781 356.835938 44.5 358.789062 44.5 360.738281 C 44.5 362.691406 44.550781 364.640625 44.644531 366.589844 C 44.742188 368.539062 44.882812 370.484375 45.074219 372.429688 C 45.265625 374.371094 45.503906 376.308594 45.792969 378.238281 C 46.078125 380.167969 46.410156 382.089844 46.792969 384.003906 C 47.171875 385.917969 47.601562 387.824219 48.074219 389.714844 C 48.550781 391.609375 49.070312 393.488281 49.636719 395.359375 C 50.203125 397.226562 50.816406 399.078125 51.472656 400.914062 C 52.128906 402.753906 52.832031 404.574219 53.578125 406.375 C 54.324219 408.179688 55.117188 409.964844 55.949219 411.726562 C 56.785156 413.492188 57.664062 415.234375 58.582031 416.957031 C 59.503906 418.675781 60.464844 420.375 61.46875 422.050781 C 62.472656 423.722656 63.515625 425.371094 64.597656 426.996094 C 65.683594 428.617188 66.808594 430.210938 67.96875 431.78125 C 69.132812 433.347656 70.332031 434.886719 71.570312 436.394531 C 72.808594 437.902344 74.082031 439.382812 75.394531 440.828125 C 76.707031 442.273438 78.050781 443.6875 79.429688 445.066406 C 80.8125 446.445312 82.222656 447.792969 83.667969 449.101562 C 85.117188 450.414062 86.59375 451.6875 88.101562 452.925781 C 89.609375 454.164062 91.148438 455.363281 92.714844 456.527344 C 94.285156 457.691406 95.878906 458.8125 97.503906 459.898438 C 99.125 460.980469 100.773438 462.027344 102.449219 463.027344 C 104.121094 464.03125 105.820312 464.996094 107.539062 465.914062 C 109.261719 466.835938 111.003906 467.710938 112.769531 468.546875 C 114.535156 469.378906 116.316406 470.171875 118.121094 470.917969 C 119.921875 471.664062 121.742188 472.367188 123.582031 473.023438 C 125.417969 473.683594 127.273438 474.292969 129.140625 474.859375 C 131.007812 475.425781 132.886719 475.949219 134.78125 476.421875 C 136.675781 476.894531 138.578125 477.324219 140.492188 477.703125 C 142.40625 478.085938 144.328125 478.417969 146.257812 478.707031 C 148.191406 478.992188 150.125 479.230469 152.070312 479.421875 C 154.011719 479.613281 155.957031 479.757812 157.90625 479.851562 C 159.855469 479.949219 161.804688 479.996094 163.757812 479.996094 C 165.710938 479.996094 167.660156 479.949219 169.609375 479.851562 C 171.558594 479.757812 173.503906 479.613281 175.445312 479.421875 C 177.390625 479.230469 179.324219 478.992188 181.257812 478.707031 C 183.1875 478.417969 185.109375 478.085938 187.023438 477.703125 C 188.9375 477.324219 190.839844 476.894531 192.734375 476.421875 C 194.628906 475.949219 196.507812 475.425781 198.375 474.859375 C 200.242188 474.292969 202.097656 473.683594 203.933594 473.023438 C 205.773438 472.367188 207.59375 471.664062 209.394531 470.917969 C 211.199219 470.171875 212.980469 469.378906 214.746094 468.546875 C 216.511719 467.710938 218.253906 466.835938 219.976562 465.914062 C 221.695312 464.996094 223.394531 464.03125 225.066406 463.027344 C 226.742188 462.027344 228.390625 460.980469 230.011719 459.898438 C 231.636719 458.8125 233.230469 457.691406 234.800781 456.527344 C 236.367188 455.363281 237.90625 454.164062 239.414062 452.925781 C 240.921875 451.6875 242.398438 450.414062 243.847656 449.101562 C 245.292969 447.792969 246.703125 446.445312 248.085938 445.066406 L 445.566406 247.585938 C 446.945312 246.207031 448.289062 244.792969 449.601562 243.347656 C 450.910156 241.898438 452.183594 240.421875 453.421875 238.914062 C 454.660156 237.402344 455.859375 235.867188 457.019531 234.296875 C 458.183594 232.730469 459.304688 231.132812 460.390625 229.511719 C 461.472656 227.886719 462.515625 226.238281 463.519531 224.566406 C 464.523438 222.890625 465.484375 221.195312 466.402344 219.472656 C 467.324219 217.75 468.199219 216.007812 469.035156 214.246094 C 469.867188 212.480469 470.65625 210.695312 471.40625 208.894531 C 472.152344 207.089844 472.851562 205.269531 473.511719 203.433594 C 474.167969 201.59375 474.777344 199.742188 475.34375 197.875 C 475.910156 196.007812 476.429688 194.125 476.90625 192.234375 C 477.378906 190.339844 477.808594 188.4375 478.1875 186.523438 C 478.566406 184.609375 478.902344 182.6875 479.1875 180.753906 C 479.472656 178.824219 479.710938 176.890625 479.902344 174.945312 C 480.09375 173.003906 480.238281 171.058594 480.332031 169.109375 C 480.429688 167.160156 480.476562 165.210938 480.476562 163.257812 C 480.476562 161.308594 480.429688 159.355469 480.332031 157.40625 C 480.238281 155.457031 480.09375 153.511719 479.902344 151.570312 C 479.710938 149.628906 479.472656 147.691406 479.1875 145.761719 C 478.902344 143.832031 478.566406 141.910156 478.1875 139.996094 C 477.808594 138.082031 477.378906 136.175781 476.90625 134.285156 C 476.429688 132.390625 475.910156 130.511719 475.34375 128.644531 C 474.777344 126.777344 474.167969 124.921875 473.511719 123.085938 C 472.851562 121.246094 472.152344 119.425781 471.40625 117.625 C 470.65625 115.820312 469.867188 114.039062 469.035156 112.273438 C 468.199219 110.507812 467.324219 108.765625 466.402344 107.046875 C 465.484375 105.324219 464.523438 103.625 463.519531 101.953125 C 462.515625 100.277344 461.472656 98.628906 460.390625 97.007812 C 459.304688 95.382812 458.183594 93.789062 457.019531 92.21875 C 455.859375 90.652344 454.660156 89.113281 453.421875 87.605469 C 452.183594 86.097656 450.910156 84.617188 449.601562 83.171875 C 448.289062 81.726562 446.945312 80.3125 445.566406 78.929688 Z M 227.628906 424.449219 C 226.585938 425.492188 225.515625 426.507812 224.421875 427.5 C 223.328125 428.492188 222.210938 429.453125 221.070312 430.390625 C 219.929688 431.324219 218.765625 432.230469 217.582031 433.109375 C 216.394531 433.988281 215.191406 434.839844 213.964844 435.65625 C 212.734375 436.476562 211.488281 437.265625 210.222656 438.023438 C 208.957031 438.78125 207.675781 439.507812 206.371094 440.203125 C 205.070312 440.898438 203.753906 441.5625 202.417969 442.195312 C 201.085938 442.824219 199.738281 443.421875 198.375 443.984375 C 197.011719 444.550781 195.632812 445.082031 194.246094 445.578125 C 192.855469 446.074219 191.453125 446.539062 190.042969 446.964844 C 188.632812 447.394531 187.210938 447.785156 185.777344 448.144531 C 184.347656 448.503906 182.90625 448.824219 181.460938 449.113281 C 180.011719 449.402344 178.558594 449.652344 177.101562 449.871094 C 175.640625 450.085938 174.175781 450.265625 172.707031 450.410156 C 171.238281 450.554688 169.769531 450.664062 168.296875 450.734375 C 166.820312 450.808594 165.347656 450.84375 163.871094 450.84375 C 162.394531 450.84375 160.921875 450.808594 159.449219 450.734375 C 157.972656 450.660156 156.503906 450.554688 155.035156 450.410156 C 153.566406 450.261719 152.101562 450.082031 150.640625 449.867188 C 149.183594 449.648438 147.730469 449.398438 146.28125 449.109375 C 144.835938 448.820312 143.394531 448.5 141.964844 448.140625 C 140.535156 447.78125 139.113281 447.386719 137.699219 446.960938 C 136.289062 446.53125 134.886719 446.066406 133.5 445.570312 C 132.109375 445.074219 130.734375 444.542969 129.371094 443.976562 C 128.007812 443.414062 126.65625 442.816406 125.324219 442.183594 C 123.992188 441.554688 122.671875 440.890625 121.371094 440.195312 C 120.070312 439.5 118.785156 438.773438 117.519531 438.015625 C 116.257812 437.253906 115.007812 436.464844 113.78125 435.648438 C 112.554688 434.828125 111.351562 433.976562 110.164062 433.097656 C 108.980469 432.21875 107.816406 431.3125 106.675781 430.375 C 105.535156 429.441406 104.417969 428.476562 103.324219 427.484375 C 102.230469 426.496094 101.164062 425.476562 100.121094 424.433594 C 99.078125 423.390625 98.058594 422.324219 97.070312 421.230469 C 96.078125 420.136719 95.113281 419.019531 94.179688 417.878906 C 93.242188 416.738281 92.335938 415.578125 91.457031 414.390625 C 90.578125 413.207031 89.726562 412 88.90625 410.773438 C 88.085938 409.546875 87.296875 408.300781 86.539062 407.035156 C 85.78125 405.769531 85.054688 404.488281 84.359375 403.183594 C 83.660156 401.882812 83 400.566406 82.367188 399.234375 C 81.738281 397.898438 81.136719 396.550781 80.574219 395.1875 C 80.007812 393.824219 79.476562 392.449219 78.980469 391.058594 C 78.484375 389.671875 78.019531 388.269531 77.589844 386.859375 C 77.164062 385.445312 76.769531 384.023438 76.410156 382.59375 C 76.050781 381.160156 75.730469 379.722656 75.441406 378.277344 C 75.152344 376.828125 74.898438 375.375 74.683594 373.914062 C 74.464844 372.457031 74.285156 370.992188 74.140625 369.523438 C 73.996094 368.054688 73.886719 366.585938 73.8125 365.109375 C 73.742188 363.636719 73.703125 362.164062 73.703125 360.6875 C 73.703125 359.210938 73.738281 357.738281 73.8125 356.261719 C 73.882812 354.789062 73.992188 353.320312 74.136719 351.851562 C 74.28125 350.382812 74.460938 348.917969 74.675781 347.457031 C 74.894531 346 75.144531 344.546875 75.433594 343.097656 C 75.71875 341.652344 76.042969 340.210938 76.402344 338.78125 C 76.757812 337.347656 77.152344 335.925781 77.578125 334.515625 C 78.007812 333.101562 78.46875 331.703125 78.964844 330.3125 C 79.464844 328.921875 79.992188 327.546875 80.558594 326.183594 C 81.121094 324.820312 81.71875 323.472656 82.351562 322.136719 C 82.980469 320.804688 83.644531 319.484375 84.339844 318.183594 C 85.03125 316.882812 85.761719 315.597656 86.519531 314.332031 C 87.277344 313.066406 88.066406 311.820312 88.882812 310.59375 C 89.703125 309.367188 90.550781 308.160156 91.429688 306.976562 C 92.308594 305.789062 93.214844 304.625 94.152344 303.484375 C 95.085938 302.34375 96.050781 301.226562 97.039062 300.132812 C 98.03125 299.039062 99.046875 297.972656 100.089844 296.925781 L 188.398438 208.503906 L 315.996094 336.097656 Z M 227.628906 424.449219 " fill-opacity="1" fill-rule="evenodd"/></svg>