<svg width="300" height="14" viewBox="0 0 300 14" fill="none" xmlns="http://www.w3.org/2000/svg">
<path d="M208.196 4.56139C210.532 4.56139 214.197 5.51334 217.7 5.27746C213.866 6.45686 222.702 6.92863 223.539 5.9851C222.202 5.9851 223.202 5.27746 223.87 5.74922C223.37 7.40039 225.368 6.22098 226.368 6.69275C226.037 6.92863 226.368 7.16451 225.868 7.40039C226.037 7.88058 226.205 7.40039 226.037 7.88058C226.536 7.88058 228.872 8.35234 227.872 7.6447C228.372 6.69275 227.036 8.35234 226.368 7.6447C226.705 7.40039 227.036 7.6447 227.373 7.40039C227.036 7.16451 226.536 7.40039 226.536 6.92863C227.373 6.69275 226.368 6.92863 226.368 6.45686C226.368 6.22098 226.536 5.74922 226.037 5.74922C228.872 4.56139 233.536 7.40039 235.872 5.03315C236.04 6.45686 238.038 5.27746 238.875 5.9851C241.873 5.51334 239.044 7.40039 241.042 6.92863C240.711 5.74922 242.541 6.22098 243.04 6.22098C242.878 6.22098 242.541 6.45686 242.378 6.45686C242.378 7.40039 242.878 6.92863 243.377 6.92863C243.04 6.92863 243.209 5.9851 243.54 6.22098C243.877 6.45686 245.376 5.74922 245.207 6.45686C244.876 6.92863 245.544 7.40039 245.713 6.92863C245.045 6.22098 246.212 7.16451 246.543 7.16451C247.711 6.92863 248.879 7.16451 249.709 7.6447C249.878 6.22098 253.212 7.88058 254.549 7.16451C255.879 7.40039 256.378 6.92863 257.715 7.40039C259.881 7.16451 258.046 6.92863 256.878 6.69275C257.377 6.22098 257.883 6.92863 258.214 6.22098C260.381 6.92863 263.216 6.22098 265.714 6.45686C265.714 5.9851 265.882 6.22098 266.051 6.22098C264.715 5.9851 265.052 5.74922 266.219 5.9851C266.219 5.03315 267.718 4.56139 267.05 5.9851C266.55 4.79727 266.051 6.69275 267.05 6.69275C267.381 6.92863 267.549 5.9851 267.718 6.45686C267.718 6.92863 267.887 6.69275 268.049 6.69275C268.549 5.27746 269.554 6.45686 270.216 5.51334C270.053 5.9851 270.053 6.69275 270.384 6.22098C270.384 6.45686 270.216 6.69275 270.216 6.69275C270.553 6.45686 271.552 6.22098 271.384 6.92863C272.72 4.56139 271.721 7.40039 272.383 6.69275C272.72 5.9851 274.05 5.51334 273.219 6.69275C273.888 6.69275 273.888 6.92863 273.888 5.9851C274.387 6.22098 275.555 5.27746 275.386 6.45686C276.385 5.74922 275.386 7.16451 276.554 6.22098C276.722 5.51334 277.222 6.45686 277.385 5.9851C277.722 5.51334 277.385 6.22098 277.553 6.45686C277.722 5.9851 278.053 5.74922 278.053 6.69275C278.39 6.69275 278.39 5.9851 278.552 6.45686C278.721 5.51334 278.39 6.22098 278.053 5.9851C278.552 5.27746 279.22 5.9851 279.888 5.74922C280.388 6.92863 280.719 5.9851 281.387 5.74922C281.219 5.9851 281.219 6.22098 281.056 6.45686C281.887 6.92863 281.556 5.03315 281.887 6.45686C282.386 4.56139 282.723 7.6447 283.391 6.22098C283.554 5.74922 284.054 6.22098 284.391 5.9851C284.722 5.9851 284.054 7.16451 284.89 6.45686C285.059 5.74922 286.726 5.9851 286.557 6.69275C287.888 5.74922 289.392 5.9851 290.891 5.9851C291.222 6.45686 291.222 5.27746 290.56 5.51334C290.891 5.03315 291.222 5.51334 291.559 5.27746C291.06 5.03315 290.891 4.79727 290.56 5.27746C290.223 4.56139 289.224 5.03315 288.724 5.27746C289.555 5.27746 289.555 5.9851 288.724 5.51334C286.888 2.91022 281.887 5.51334 278.889 4.08962C278.053 4.56139 275.717 3.85374 273.888 4.08962C273.051 4.32551 272.551 4.56139 271.883 4.32551C270.884 4.79727 270.384 4.32551 269.048 4.32551C269.217 4.08962 269.385 4.32551 269.385 4.08962C268.386 3.61786 267.549 4.79727 267.218 4.08962C266.881 4.56139 266.55 4.32551 266.219 4.32551C265.882 4.79727 265.551 4.08962 265.882 3.85374C265.214 3.61786 265.214 4.32551 264.215 4.32551C264.552 3.61786 262.379 4.08962 263.216 4.32551C262.716 5.03315 261.717 2.91022 261.549 3.85374C261.38 4.56139 260.712 3.85374 260.712 3.61786C260.381 4.32551 259.881 3.85374 259.55 4.56139C259.045 4.56139 259.713 3.85374 258.882 4.08962C258.545 4.32551 258.545 3.85374 258.882 3.85374C259.382 3.61786 257.715 3.85374 257.377 3.61786C255.048 2.67433 254.549 4.79727 251.714 4.08962C251.714 3.61786 250.714 3.61786 249.878 3.61786C249.878 3.1461 249.047 3.1461 248.211 3.1461C247.711 2.91022 247.043 3.38198 246.712 3.38198C246.874 2.91022 246.375 3.1461 246.212 3.38198C245.875 3.38198 245.207 3.1461 244.208 3.1461C245.376 4.08962 243.54 3.61786 242.878 3.38198C243.209 3.38198 243.54 3.38198 243.877 3.1461C242.541 3.1461 241.373 3.1461 240.043 3.1461C241.21 3.61786 239.044 2.91022 239.706 3.85374C239.543 3.61786 238.038 3.61786 238.538 3.1461C237.539 4.32551 238.038 3.1461 237.039 3.1461C236.54 3.38198 236.871 4.08962 236.371 3.1461C236.371 3.61786 234.204 3.61786 235.372 3.1461C234.872 3.38198 234.373 3.1461 233.873 3.1461C234.541 4.08962 232.375 2.67433 231.706 2.91022C231.207 2.67433 229.702 3.61786 230.208 2.91022C222.371 2.19415 210.532 1.4865 204.699 1.4865C142.343 2.43003 78.9868 -3.24798 13.3017 2.91022C9.13053 4.32551 3.29813 2.19415 0.132146 4.56139C-1.03554 14.2662 5.79601 13.0868 10.4667 12.6151C23.9733 10.9555 38.9787 11.1913 51.3116 10.0119C51.8111 10.7196 52.6478 10.0119 53.6469 10.4837C53.4784 10.0119 56.8129 10.4837 57.8181 10.2478C58.8172 9.76763 59.8164 10.9555 60.4845 9.53175C60.8155 10.7196 62.4828 10.2478 63.1509 9.76763C64.9867 9.76763 68.1527 10.7196 69.8199 9.53175C71.9868 10.9555 77.6566 9.53175 79.3239 10.2478C80.6541 10.0119 82.4899 10.7196 83.3265 10.2478C82.8209 10.0119 83.6576 9.53175 83.489 10.2478C83.9886 9.76763 84.1571 10.2478 84.4882 10.2478C84.8252 9.53175 85.9929 10.9555 86.1554 9.76763C86.1554 9.53175 86.4925 10.0119 86.661 9.76763C87.1606 10.9555 88.1598 9.29587 88.9904 9.53175C88.1598 9.05999 88.8279 9.29587 89.1589 8.82411C88.1598 9.53175 87.4917 9.05999 86.661 9.05999C86.8235 9.05999 86.8235 9.05999 86.8235 9.05999C78.3247 9.29587 70.3195 9.05999 63.3194 8.58822C64.15 9.29587 59.1483 9.05999 58.4802 9.05999C60.316 7.6447 63.4819 9.05999 65.3177 7.88058C66.1544 9.05999 79.4924 8.11646 72.9859 7.88058C73.654 7.40039 74.4907 7.6447 75.1527 7.40039C74.8217 7.40039 74.4907 6.92863 74.3221 7.16451C74.3221 7.6447 74.1536 7.40039 73.9851 7.40039C73.323 7.6447 73.323 6.92863 72.8234 6.92863C71.9868 7.16451 70.488 6.92863 68.8208 6.69275C69.3204 6.45686 70.8191 5.03315 71.1561 6.22098C70.9876 6.69275 71.8182 5.74922 72.3178 5.74922C71.8182 5.51334 69.9885 6.22098 70.151 5.51334C76.1579 4.32551 94.9973 6.92863 100.83 4.56139C101.997 4.32551 102.997 6.22098 103.996 4.56139C103.665 4.56139 103.328 4.56139 103.165 4.32551C106.331 4.56139 109.834 5.74922 112.332 4.56139C112.001 4.56139 112.001 4.56139 111.832 4.08962C112.332 4.79727 114.836 5.27746 113.331 4.56139C113.5 4.32551 115.504 4.32551 114.667 4.56139C114.499 4.32551 113.837 5.03315 114.168 5.03315C114.836 5.03315 118.17 5.27746 116.335 4.32551C116.834 4.08962 119.501 4.32551 118.002 3.85374C117.334 2.91022 118.832 3.61786 119.17 3.38198C120.668 6.22098 118.333 3.61786 117.502 4.79727C118.67 4.79727 122.504 5.51334 122.167 4.56139C121.836 4.32551 122.673 4.32551 122.835 4.32551C123.004 5.03315 123.004 5.27746 123.672 5.03315C123.503 5.03315 123.503 4.79727 123.172 4.56139C124.003 4.08962 124.839 4.56139 125.502 4.56139C124.171 4.79727 125.502 5.27746 125.839 5.9851C126.17 5.74922 125.67 5.74922 125.67 5.27746C125.67 5.03315 126.007 5.27746 126.007 4.79727C126.838 5.03315 127.674 4.79727 128.505 5.03315C129.005 4.79727 128.674 4.08962 129.504 4.32551C130.172 4.08962 129.504 4.79727 129.673 5.03315C130.004 5.27746 131.009 5.27746 130.341 4.56139C131.171 4.08962 133.838 4.79727 132.008 3.85374C132.839 3.1461 132.839 3.85374 133.507 3.85374C133.838 4.08962 134.506 3.1461 134.506 3.85374C131.34 4.32551 134.506 4.08962 136.011 4.56139C135.505 5.51334 136.51 4.79727 136.673 5.27746C137.01 4.32551 137.672 5.51334 138.009 5.27746C137.84 4.56139 137.01 5.03315 136.51 4.79727C137.509 4.08962 138.34 5.03315 138.84 5.27746C139.008 5.9851 139.676 5.03315 139.676 5.74922C139.339 6.45686 138.34 4.79727 138.177 5.9851C138.677 6.22098 138.84 6.69275 139.008 6.22098C139.845 5.9851 139.508 6.92863 140.007 6.69275C140.007 5.9851 140.507 6.45686 140.507 6.22098C140.176 5.9851 139.845 5.9851 139.845 5.51334C140.007 5.74922 140.507 5.74922 140.675 5.51334C140.844 5.03315 139.508 5.27746 140.176 5.03315C141.006 5.51334 142.343 4.32551 142.511 5.9851C142.674 5.51334 143.179 4.79727 143.011 5.74922C143.179 5.51334 143.342 5.74922 143.342 5.74922C143.179 4.56139 143.841 5.9851 143.679 5.9851C144.178 5.74922 144.341 5.51334 144.847 5.9851C144.847 5.51334 145.178 5.9851 145.346 5.74922C145.178 5.51334 145.178 5.51334 145.509 5.51334C145.677 5.03315 145.677 5.9851 145.846 6.22098C146.177 5.9851 146.845 6.22098 147.013 5.74922C145.509 5.03315 148.013 5.74922 148.512 5.51334C149.012 4.79727 149.012 5.9851 149.18 5.9851C149.68 5.9851 150.011 5.74922 150.51 5.74922C152.846 4.32551 152.515 6.92863 153.682 6.69275C151.678 5.9851 157.348 4.79727 154.013 6.92863C154.513 7.88058 154.682 6.69275 155.013 7.16451C155.35 8.11646 155.849 7.6447 155.512 6.92863C155.35 6.22098 157.017 6.45686 157.516 6.22098C157.017 5.9851 156.511 5.27746 157.516 5.74922C157.348 4.79727 157.179 4.79727 157.848 4.79727C158.516 5.27746 158.347 5.51334 157.679 5.51334C157.516 5.9851 158.179 5.9851 158.179 5.51334C158.516 6.22098 158.347 6.45686 159.184 6.22098C157.348 4.08962 160.682 5.27746 161.513 5.03315C162.35 5.51334 160.014 5.9851 162.681 6.22098C161.351 6.22098 161.85 6.92863 162.849 6.92863C162.019 8.35234 162.681 8.11646 163.686 7.16451C163.349 7.16451 163.18 6.69275 163.018 6.45686C163.517 6.69275 164.186 5.9851 164.517 6.92863C163.349 7.16451 165.684 7.88058 166.184 7.6447C166.015 7.16451 164.517 7.40039 164.848 6.69275C164.685 6.69275 164.517 6.69275 164.517 6.45686C164.848 6.22098 165.353 6.45686 165.684 6.22098C165.353 6.22098 165.185 6.22098 165.016 5.9851C165.516 5.51334 165.853 5.51334 166.184 5.9851C165.853 5.9851 165.516 6.45686 166.015 6.45686C166.683 6.45686 167.02 6.22098 167.352 5.74922C167.52 6.45686 168.02 6.69275 168.519 6.45686C168.351 6.22098 168.02 6.69275 167.683 6.22098C168.351 6.22098 168.85 6.45686 169.687 5.9851C169.019 5.74922 168.519 6.22098 167.851 5.9851C168.351 5.74922 168.688 5.51334 169.019 5.27746C168.688 5.03315 167.183 5.51334 167.851 4.79727C168.182 4.79727 168.688 5.27746 168.85 4.56139C170.355 5.51334 168.351 5.27746 169.35 5.74922C169.687 5.74922 170.355 5.51334 170.517 5.27746C170.355 5.03315 169.187 5.27746 169.849 4.79727C170.517 4.79727 173.184 4.79727 171.354 5.03315C171.685 5.27746 171.186 5.9851 171.517 5.9851C171.685 5.9851 171.685 5.9851 171.517 6.22098C171.685 6.92863 171.517 6.69275 172.022 6.69275C171.854 6.22098 172.022 5.74922 171.685 5.51334C171.854 5.03315 173.352 5.51334 172.353 4.79727C173.184 4.56139 174.352 4.32551 175.188 4.56139C174.851 5.51334 173.184 4.79727 172.853 5.27746C172.853 5.74922 173.852 5.9851 173.689 5.27746C174.189 5.74922 174.352 5.27746 174.689 5.27746C174.689 5.74922 174.851 5.51334 175.02 5.51334C175.688 4.79727 180.353 5.74922 177.855 4.79727C179.022 3.85374 181.021 4.56139 181.689 5.51334C181.021 5.74922 180.353 5.27746 180.858 5.9851C181.021 5.51334 181.689 5.9851 182.02 5.27746C182.02 4.56139 182.02 4.56139 182.525 4.79727C183.025 6.69275 183.687 4.56139 184.692 4.56139C184.193 4.56139 183.856 4.56139 183.525 4.56139C184.524 4.08962 185.691 4.32551 186.69 4.08962C187.359 3.1461 187.022 4.32551 187.359 4.32551C189.026 3.85374 187.858 5.03315 186.859 4.56139C186.191 5.27746 189.194 5.27746 189.694 4.56139C189.357 4.56139 189.026 4.56139 188.689 4.56139C189.694 3.85374 190.525 4.56139 191.524 4.08962C191.692 3.61786 192.36 3.85374 192.529 4.08962C192.529 2.91022 193.028 4.56139 193.191 3.85374C193.691 3.38198 193.859 4.32551 194.527 3.85374C195.027 4.08962 195.695 3.85374 196.194 4.32551C194.359 4.79727 196.863 5.03315 197.362 4.79727C197.025 4.56139 200.697 5.27746 199.529 4.79727C199.36 3.38198 200.697 4.08962 199.86 4.56139C200.197 4.79727 200.197 5.03315 200.697 4.79727C203.032 5.03315 203.694 5.03315 200.859 4.08962C201.527 3.38198 202.195 4.32551 202.864 4.08962C203.032 3.85374 204.194 3.85374 204.531 4.08962C204.699 4.56139 204.862 3.38198 205.03 4.08962C205.361 4.56139 205.861 3.85374 206.029 3.85374C206.866 5.03315 208.196 4.08962 208.196 4.56139ZM283.554 5.74922C283.391 6.22098 283.223 5.9851 283.223 5.74922C283.391 5.74922 283.554 5.51334 283.554 5.74922ZM280.557 4.56139C280.388 4.79727 280.219 5.03315 280.219 5.27746C279.888 5.03315 280.057 4.79727 280.557 4.56139ZM267.887 5.03315C268.049 4.79727 268.386 5.27746 268.218 5.51334C267.887 5.74922 267.549 5.27746 267.887 5.03315ZM266.219 5.27746C266.382 5.03315 266.55 5.03315 266.881 5.03315C266.719 5.51334 265.882 5.74922 266.219 5.27746ZM265.052 5.51334C265.052 5.27746 265.214 5.27746 265.383 5.27746C265.551 5.74922 265.052 5.74922 265.052 5.51334ZM259.045 4.56139C258.714 4.56139 258.383 4.56139 258.214 4.56139C258.383 4.32551 258.714 4.32551 259.045 4.56139ZM256.547 6.92863C256.047 7.16451 256.547 6.22098 256.715 6.69275C256.715 6.92863 256.715 6.92863 256.547 6.92863ZM257.046 4.56139C256.878 4.56139 256.547 4.79727 256.378 4.56139C256.715 4.32551 256.878 4.32551 257.046 4.56139ZM256.047 4.32551C255.879 4.32551 255.71 4.56139 255.379 4.32551C255.71 4.08962 255.879 4.32551 256.047 4.32551ZM254.549 4.32551C254.88 4.79727 254.043 4.56139 253.88 4.56139C254.043 4.08962 254.211 4.32551 254.549 4.32551ZM249.21 6.69275C251.545 6.22098 253.212 6.22098 255.548 6.69275C254.38 6.69275 254.211 7.88058 253.543 6.69275C252.713 8.11646 250.877 6.45686 250.046 6.69275C249.709 7.88058 248.71 6.69275 249.21 6.69275ZM248.379 4.32551C248.211 4.56139 248.042 4.32551 247.879 4.32551C248.042 4.08962 248.211 4.32551 248.379 4.32551ZM245.713 6.45686C245.875 5.9851 246.212 6.69275 246.375 6.22098C246.712 7.16451 248.211 5.9851 248.542 6.92863C249.21 6.22098 248.542 7.88058 248.042 7.16451C247.879 6.92863 247.711 7.88058 247.542 6.92863C247.38 7.16451 247.043 6.92863 246.712 7.16451C247.211 6.22098 245.875 7.16451 245.713 6.45686ZM243.04 4.32551C243.708 4.32551 244.545 4.08962 245.207 4.32551C244.376 4.32551 243.708 4.56139 243.04 4.32551ZM242.541 4.08962C242.878 4.32551 241.873 4.32551 241.71 4.08962C242.041 4.08962 242.378 4.08962 242.541 4.08962ZM241.21 3.38198C241.373 3.38198 241.541 3.85374 241.21 3.85374C240.873 3.85374 240.873 3.38198 241.21 3.38198ZM241.71 4.32551C241.373 4.56139 241.042 4.32551 240.711 4.32551C241.042 4.08962 241.373 4.08962 241.71 4.32551ZM240.374 5.9851C240.374 6.22098 239.874 5.9851 239.706 5.74922C239.874 5.51334 240.374 5.74922 240.374 5.9851ZM239.206 4.08962C239.706 4.08962 240.043 4.08962 240.542 4.08962C240.205 4.56139 238.538 4.32551 239.206 4.08962ZM237.208 4.08962C237.707 4.08962 238.207 4.08962 238.707 4.08962C238.375 4.32551 236.871 4.32551 237.208 4.08962ZM237.208 5.51334C237.376 5.51334 237.539 5.9851 237.208 5.74922C236.871 5.9851 236.871 5.51334 237.208 5.51334ZM226.368 5.74922C226.368 6.45686 226.037 6.22098 225.706 6.22098C225.706 5.74922 226.037 5.9851 226.368 5.74922ZM225.706 2.67433C225.868 2.67433 225.868 3.1461 225.706 3.1461C225.368 3.1461 225.537 2.67433 225.706 2.67433ZM224.869 5.9851C225.206 5.51334 225.206 5.9851 225.537 5.9851C225.368 6.69275 224.201 6.45686 224.869 5.9851ZM221.366 5.51334C221.703 5.74922 222.702 5.03315 222.702 5.9851C222.534 6.69275 221.035 6.22098 221.366 5.51334ZM220.036 5.51334C220.204 5.03315 220.704 5.51334 221.035 5.74922C220.704 5.9851 219.867 6.22098 220.036 5.51334ZM219.368 5.51334C219.536 5.51334 219.699 5.51334 219.867 5.74922C219.536 5.9851 219.199 5.9851 219.368 5.51334ZM218.2 5.51334C218.537 5.27746 219.037 5.9851 218.368 5.9851C218.031 5.9851 217.532 5.51334 218.2 5.51334ZM214.035 2.19415C214.035 1.95826 214.366 1.95826 214.366 2.19415C214.366 2.43003 214.035 2.67433 214.035 2.19415ZM209.195 3.38198C209.195 4.08962 209.701 3.1461 209.195 3.38198V3.38198ZM29.4747 7.6447C29.4747 7.40039 29.8057 7.40039 29.9743 7.6447C29.8057 7.6447 29.6372 7.6447 29.4747 7.6447ZM32.3096 7.40039C32.4721 7.40039 32.6407 7.40039 32.8092 7.40039C32.6407 7.6447 32.4721 7.6447 32.3096 7.40039ZM33.1402 7.40039C33.4773 6.92863 33.9769 7.6447 34.4765 7.16451C35.1446 7.40039 33.8083 7.6447 33.1402 7.40039ZM35.6441 7.6447C35.4756 7.6447 35.3071 7.6447 35.1446 7.40039C35.4756 7.16451 36.3062 7.16451 35.6441 7.6447ZM36.6433 6.45686C36.6433 6.22098 36.9743 5.9851 36.9743 6.45686C36.8118 6.45686 36.6433 6.45686 36.6433 6.45686ZM37.6424 7.6447C37.4739 7.6447 36.8118 7.88058 36.9743 7.40039C37.1429 7.16451 37.811 7.16451 37.6424 7.6447ZM80.9912 9.76763C81.1537 9.76763 81.6593 10.0119 81.3222 10.0119C81.1537 10.2478 80.6541 9.76763 80.9912 9.76763ZM68.1527 9.76763C68.3212 9.76763 68.3212 9.76763 68.6522 9.76763C68.4837 10.0119 68.1527 10.0119 68.1527 9.76763ZM72.1553 7.16451H72.3178C72.3178 7.88058 71.4872 7.16451 72.1553 7.16451ZM69.6514 7.88058C69.9885 7.88058 70.488 7.88058 70.8191 7.88058C70.8191 8.11646 69.4889 8.35234 69.6514 7.88058ZM69.1518 5.74922C68.9833 5.27746 68.6522 5.74922 68.3212 5.51334C68.6522 5.03315 68.9833 5.27746 69.1518 5.74922ZM65.9858 5.74922C66.3169 5.51334 67.6531 4.79727 67.316 5.74922C67.1535 5.9851 65.8173 5.9851 65.9858 5.74922ZM63.4819 5.27746C63.819 5.27746 65.9858 5.03315 65.1492 5.51334C65.3177 5.51334 65.4863 5.51334 65.6488 5.74922C65.1492 5.74922 64.6496 5.9851 64.15 5.74922C63.9815 5.74922 63.1509 5.9851 63.4819 5.27746ZM59.8164 5.51334C59.9849 5.51334 60.1474 5.27746 60.316 5.51334C60.1474 5.74922 59.8164 5.74922 59.8164 5.51334ZM56.6504 5.74922C56.8129 5.9851 56.9814 5.74922 57.3185 5.9851C56.6504 6.45686 56.3133 5.74922 55.6512 5.74922C55.9823 5.74922 56.3133 5.27746 56.6504 5.74922ZM53.8154 5.74922C54.1465 5.74922 54.315 6.22098 54.6461 5.9851C54.1465 6.45686 53.8155 5.74922 53.3159 5.74922C53.4784 5.74922 53.6469 5.74922 53.8154 5.74922ZM50.1439 5.74922C50.6495 5.51334 50.1439 6.45686 49.9814 5.9851C50.1439 5.9851 50.1439 5.74922 50.1439 5.74922ZM48.1456 6.69275C48.6451 6.92863 50.812 6.92863 49.6443 6.45686C50.1439 6.92863 51.3116 6.69275 51.3116 7.40039C50.4809 6.92863 47.1464 8.11646 48.1456 6.69275ZM49.6443 8.35234C49.6443 8.58822 48.8137 8.58822 48.8137 8.35234C48.9822 8.35234 49.4818 8.11646 49.6443 8.35234ZM47.4775 5.9851C47.977 5.51334 47.4775 6.92863 47.1464 6.45686C47.3149 6.22098 47.3149 5.9851 47.4775 5.9851ZM44.8111 6.45686C44.48 6.45686 44.1429 6.45686 43.8119 6.45686C44.1429 6.22098 44.48 6.22098 44.8111 6.45686ZM42.6442 6.45686C42.1446 6.69275 41.8136 6.45686 41.308 6.45686C41.8136 6.22098 42.3132 6.45686 42.6442 6.45686ZM40.3089 6.22098C40.4774 6.22098 40.4774 6.22098 40.6459 6.45686C40.8084 6.69275 39.9778 6.45686 40.3089 6.22098ZM40.3089 6.45686C40.1463 6.45686 39.8093 6.45686 39.4782 6.45686C39.8093 6.22098 40.1463 6.22098 40.3089 6.45686ZM40.6459 9.76763C40.1463 9.53175 40.8084 9.05999 40.8084 9.53175C40.8084 9.76763 40.6459 9.53175 40.6459 9.76763ZM40.977 7.6447C39.9778 7.6447 38.9787 8.11646 38.142 7.40039C39.3097 7.16451 39.9778 7.16451 41.308 7.16451C41.1455 7.6447 41.1455 7.6447 40.977 7.6447ZM42.6442 9.76763C42.4757 9.76763 42.4757 9.29587 42.4757 9.05999C42.9753 9.53175 43.4748 9.53175 42.6442 9.76763ZM44.48 9.53175C44.3115 9.76763 44.3115 9.05999 44.48 9.29587C44.8111 9.29587 44.6425 9.53175 44.48 9.53175ZM44.9796 9.53175C44.8111 9.53175 44.8111 9.29587 44.8111 9.29587C44.8111 8.82411 45.3106 9.53175 44.9796 9.53175ZM42.9753 7.6447C38.9787 7.6447 44.3115 6.69275 45.3106 7.6447C44.6425 7.6447 43.8119 7.40039 42.9753 7.6447ZM46.3098 9.29587C46.3098 9.53175 45.8102 9.53175 45.9787 9.29587C45.8102 9.05999 46.4783 8.82411 46.3098 9.29587ZM46.1473 6.92863C45.9787 6.92863 45.8102 6.92863 46.1473 7.40039C45.6477 7.6447 45.8102 7.16451 45.6477 6.92863C45.9787 6.69275 46.3098 7.16451 46.4783 6.69275C46.3098 6.92863 46.3098 6.92863 46.1473 6.92863ZM46.3098 5.74922C46.6468 5.74922 46.4783 5.9851 46.3098 6.22098C46.3098 6.22098 46.1473 5.9851 46.3098 5.74922ZM46.3098 7.40039C46.8094 7.16451 47.1464 7.40039 47.4775 7.16451C47.3149 7.6447 46.8094 7.40039 46.3098 7.40039ZM49.9814 9.29587C48.8137 9.53175 48.3141 8.82411 47.1464 9.53175C46.1473 8.82411 50.3124 8.35234 49.9814 9.29587ZM51.6486 9.29587C51.3116 9.53175 49.9814 9.76763 50.4809 8.82411C50.6495 8.82411 51.9797 8.58822 51.6486 9.29587ZM51.8111 6.22098C51.4801 6.22098 51.3116 5.74922 50.9805 5.9851C51.9797 5.74922 51.8111 5.51334 51.8111 6.22098ZM51.8111 7.16451C51.9797 6.92863 52.6478 6.92863 52.1482 6.69275C52.9788 6.45686 53.1473 5.9851 52.6478 7.16451C53.4784 6.22098 53.1473 7.40039 53.8154 6.92863C55.4827 6.92863 52.4792 7.6447 51.8111 7.16451ZM55.3142 9.29587C54.4836 9.29587 53.4784 9.29587 52.8163 9.29587C52.8163 8.58822 55.4827 8.58822 55.3142 9.29587ZM56.6504 8.82411C56.4819 9.29587 55.9823 9.05999 55.8138 9.29587C55.1456 9.05999 56.4819 8.35234 56.6504 8.82411ZM57.9806 8.82411C57.481 10.0119 57.8181 8.35234 57.3185 9.05999C56.4819 9.76763 57.481 7.88058 57.9806 8.82411ZM58.6487 8.82411C58.6487 9.05999 58.1491 9.29587 58.3176 8.82411C58.1491 8.58822 58.9858 8.35234 58.6487 8.82411ZM58.8172 6.22098C58.8172 7.6447 57.481 7.16451 56.1508 7.16451C56.4819 6.69275 56.9814 7.16451 57.15 6.69275C57.3185 7.16451 57.481 7.16451 58.3176 6.69275C57.8181 6.69275 57.8181 6.69275 57.8181 5.9851C58.1491 6.45686 58.9858 6.45686 58.3176 5.9851C58.3176 5.27746 58.9858 5.9851 59.3168 5.27746C59.3168 5.9851 58.6487 5.51334 58.8172 6.22098ZM63.1509 8.11646C62.9824 8.11646 62.9824 7.6447 63.1509 7.6447C63.3194 7.6447 63.4819 8.11646 63.1509 8.11646ZM64.9867 7.88058C64.6496 8.35234 63.819 8.11646 63.4819 7.88058C63.9815 8.11646 65.3177 7.16451 64.9867 7.88058ZM68.9833 6.45686C67.1535 7.6447 61.9832 7.16451 58.9858 6.92863C59.9849 6.69275 60.8155 6.92863 61.6522 6.69275C60.653 6.45686 58.1491 6.45686 60.9841 6.22098C61.6522 6.69275 62.1517 5.9851 61.3151 5.74922C61.9832 5.27746 62.6513 5.9851 63.4819 5.74922C63.1509 5.9851 62.9824 5.9851 62.6513 5.9851C63.4819 6.22098 63.4819 6.45686 62.6513 6.45686C61.9832 5.51334 62.1517 5.51334 61.9832 6.69275C62.6513 6.92863 63.3194 6.22098 63.9815 6.22098C63.3194 6.92863 64.3186 6.69275 64.4871 5.74922C64.4871 7.40039 67.6531 6.45686 64.9867 6.22098C65.3177 5.9851 67.4846 5.74922 66.6539 6.45686C67.316 7.16451 67.9841 5.51334 68.8208 5.9851C68.8208 5.27746 67.4846 6.22098 67.9841 5.27746C68.6522 5.27746 68.8208 6.22098 69.6514 6.22098C69.1518 6.22098 68.9833 6.45686 68.9833 6.45686ZM72.6549 4.79727C73.1544 4.56139 73.9851 4.56139 74.3221 4.79727C73.8225 4.79727 73.323 4.79727 72.6549 4.79727ZM75.1527 5.03315C74.8217 5.27746 74.8217 4.79727 74.4907 4.79727C74.8217 4.56139 75.4898 4.56139 75.1527 5.03315ZM77.4881 4.79727C77.8252 4.79727 78.1562 4.56139 78.3247 4.79727C78.1562 5.03315 77.8252 4.79727 77.4881 4.79727ZM83.158 5.03315C83.3265 4.56139 83.9886 4.79727 84.1571 5.27746C83.8261 4.79727 83.3265 5.03315 83.158 5.03315ZM87.4917 5.03315C87.6602 4.79727 87.8227 4.79727 87.9912 5.03315C87.8227 5.03315 87.6602 5.03315 87.4917 5.03315ZM88.4908 5.03315C88.3283 5.03315 88.1598 5.03315 87.9912 5.03315C88.1598 4.56139 88.8279 4.56139 88.4908 5.03315ZM91.4943 4.32551C91.3257 4.32551 91.3257 3.85374 91.4943 3.85374C91.6628 3.85374 91.6628 4.32551 91.4943 4.32551ZM92.8245 4.32551C92.662 4.32551 92.662 4.08962 92.4934 4.08962C92.662 3.85374 92.993 3.85374 92.8245 4.32551ZM96.9956 4.79727C96.6646 4.56139 97.3267 4.56139 97.4952 4.56139C97.4952 4.79727 97.3267 4.79727 96.9956 4.79727ZM98.4944 3.61786C98.8314 4.08962 98.1633 3.85374 97.9948 3.85374C98.1633 3.61786 98.3318 3.61786 98.4944 3.61786ZM98.4944 5.03315C97.9948 4.79727 98.8314 4.32551 98.8314 4.79727C98.6629 4.79727 98.6629 5.03315 98.4944 5.03315ZM100.998 3.85374C101.161 3.61786 101.329 3.1461 101.498 3.61786C101.498 3.85374 101.329 3.85374 100.998 3.85374ZM105.5 3.38198C105.5 3.61786 105.163 4.08962 104.995 3.61786C104.995 3.38198 105.5 3.1461 105.5 3.38198ZM107.168 4.56139C106.999 4.56139 106.662 4.56139 106.5 4.32551C106.662 4.08962 107.499 3.85374 107.168 4.56139ZM111.664 4.56139C111.333 4.79727 111.002 4.79727 110.833 4.32551C111.164 4.32551 112.001 4.08962 111.664 4.56139ZM113.169 3.85374C111.832 4.32551 113.331 2.91022 113.668 3.85374C113.5 3.85374 113.331 3.85374 113.169 3.85374ZM113.837 3.85374C113.668 3.38198 114.168 3.38198 114.336 3.85374C114.168 3.61786 113.999 4.08962 113.837 3.85374ZM116.004 4.56139C115.667 4.32551 115.335 4.56139 114.998 4.32551C115.167 4.08962 116.666 4.08962 116.004 4.56139ZM116.666 3.61786C116.503 3.85374 116.335 3.85374 116.166 3.61786C116.166 3.38198 116.666 3.38198 116.666 3.61786ZM116.834 3.85374C116.666 3.1461 117.502 3.61786 117.833 3.61786C117.671 3.85374 117.003 4.08962 116.834 3.85374ZM122.004 3.85374C121.836 4.32551 121.168 3.85374 120.837 3.85374C121.336 3.85374 121.667 3.85374 122.004 3.85374ZM120 3.85374C120 3.61786 120.5 3.61786 120.5 3.85374C120.337 4.08962 120 4.08962 120 3.85374ZM121.667 4.56139C121.168 4.56139 120.5 5.03315 120.169 4.32551C120.668 4.08962 121.168 4.56139 121.336 4.08962C121.336 4.56139 122.673 4.56139 121.667 4.56139ZM122.673 4.08962C122.504 4.08962 122.336 4.32551 122.336 4.08962C122.336 3.38198 123.335 4.08962 122.673 4.08962ZM123.834 4.08962C123.672 4.08962 123.335 4.32551 123.172 4.08962C123.172 3.85374 124.34 3.61786 123.834 4.08962ZM125.339 4.08962C124.502 3.38198 126.338 4.08962 126.669 3.85374C126.507 4.56139 125.67 3.85374 125.339 4.08962ZM128.174 4.79727C127.506 4.79727 126.338 5.27746 126.007 4.79727C126.17 4.32551 128.505 4.56139 128.174 4.79727ZM130.004 4.32551C129.673 4.32551 129.173 4.56139 128.836 4.32551C129.173 3.85374 130.672 3.38198 130.004 4.32551ZM131.84 4.32551C131.508 4.56139 130.004 4.08962 130.84 4.08962C131.171 3.85374 132.508 4.08962 131.84 4.32551ZM137.01 4.79727C136.841 4.79727 136.841 4.79727 136.673 4.79727C136.841 4.32551 137.509 4.79727 137.01 4.79727ZM138.84 4.79727C137.672 4.79727 138.509 4.79727 139.008 4.32551C139.008 4.56139 139.008 4.79727 138.84 4.79727ZM141.675 5.03315C141.343 5.03315 140.844 5.27746 140.507 5.03315C140.675 4.79727 142.012 4.32551 141.675 5.03315ZM143.342 5.27746C143.179 5.03315 142.343 5.51334 142.674 5.03315C142.674 4.79727 144.01 5.03315 143.342 5.27746ZM144.847 5.27746C144.678 5.27746 144.341 5.27746 144.341 5.27746C144.509 5.03315 144.847 4.79727 144.847 5.27746ZM146.514 5.74922C146.514 5.9851 146.177 5.9851 146.177 5.74922C146.008 5.74922 146.514 5.51334 146.514 5.74922ZM147.513 5.27746C146.845 5.03315 145.846 5.51334 145.178 4.79727C146.008 5.27746 147.513 4.56139 147.513 5.27746ZM148.344 5.51334C148.181 5.51334 147.513 5.51334 147.844 5.03315C148.013 4.56139 149.012 5.27746 148.344 5.51334ZM149.343 5.51334C149.18 5.27746 148.344 5.51334 148.681 4.79727C148.843 5.03315 149.68 5.03315 149.343 5.51334ZM150.011 5.27746C149.848 5.51334 149.68 5.51334 149.511 5.27746C149.68 5.03315 150.179 4.79727 150.011 5.27746ZM151.01 5.27746C150.847 5.51334 150.011 5.51334 150.348 5.03315C150.51 5.03315 151.347 4.79727 151.01 5.27746ZM152.677 5.27746C152.178 5.51334 151.678 5.27746 151.179 5.27746C151.347 4.32551 152.346 5.74922 152.515 4.56139C152.515 5.03315 152.846 5.03315 152.677 5.27746ZM154.513 5.27746C154.182 5.51334 152.515 5.51334 152.846 5.03315C153.514 5.03315 154.513 4.56139 154.513 5.27746ZM155.013 5.51334C154.682 5.51334 154.85 5.03315 155.013 4.79727C155.013 5.03315 155.181 5.27746 155.013 5.51334ZM156.848 5.27746C156.68 5.27746 155.849 5.74922 156.012 5.03315C156.18 4.79727 157.348 5.03315 156.848 5.27746ZM162.681 5.51334C162.518 5.51334 162.518 5.51334 162.518 5.27746C162.518 4.79727 163.18 5.51334 162.681 5.51334ZM163.686 6.22098C163.517 6.45686 163.349 5.9851 163.018 5.9851C163.349 5.51334 163.848 5.74922 163.686 6.22098ZM164.848 5.51334C164.186 5.74922 163.686 5.27746 163.018 5.51334C163.18 5.03315 165.684 5.03315 164.848 5.51334ZM166.352 5.27746C165.353 5.51334 165.185 5.27746 166.352 5.03315V5.27746ZM177.686 5.27746C177.355 5.27746 177.018 5.27746 176.687 5.27746C175.856 5.03315 178.354 4.56139 177.686 5.27746ZM181.689 5.03315C181.52 5.03315 181.358 5.03315 181.189 5.03315C181.358 4.56139 182.188 4.56139 181.689 5.03315ZM197.693 5.27746C196.194 5.03315 197.525 5.27746 198.03 4.56139C198.03 5.03315 197.862 5.03315 197.693 5.27746ZM199.029 5.51334C198.03 4.79727 198.193 5.27746 199.192 4.79727C199.029 4.79727 199.029 5.03315 199.029 5.51334ZM205.361 2.19415C205.361 1.95826 205.03 2.19415 205.199 1.95826C205.199 1.25062 205.861 1.95826 205.361 2.19415Z" fill="#69CE96"/>
<path d="M261.88 12.3792C262.548 10.012 258.045 12.6151 257.546 10.9555C257.546 12.3792 256.715 10.7196 256.378 11.1914C256.878 11.899 256.047 12.3792 256.047 11.4272C255.71 11.4272 255.379 11.4272 255.211 11.899C255.211 10.9555 254.548 11.899 254.548 10.9555C254.548 11.899 254.211 11.1914 253.88 11.1914C253.88 10.9555 254.38 10.7196 253.88 10.9555C252.713 11.899 251.876 10.9555 251.045 10.9555C251.214 10.9555 251.214 10.9555 251.376 11.1914C250.546 11.6631 250.209 11.1914 249.547 11.4272C249.709 10.4837 248.71 11.1914 249.047 10.4837C248.71 10.7196 248.379 12.1349 248.379 11.1914C248.879 10.9555 246.874 10.4837 247.211 11.4272C247.38 10.7196 248.042 11.1914 247.542 11.4272C247.711 11.899 248.379 11.1914 248.541 11.6631C247.879 11.899 247.043 11.4272 246.375 12.1349C245.544 12.1349 244.876 11.4272 244.045 11.4272C243.54 12.1349 241.872 12.3792 243.377 11.6631C243.04 11.6631 243.04 10.7196 243.04 11.4272C242.541 11.899 241.71 10.7196 241.872 12.1349C241.373 12.1349 239.874 12.1349 241.373 11.6631C239.706 11.4272 238.375 11.4272 236.871 11.4272C237.208 10.9555 237.539 11.1914 237.707 11.1914C236.708 10.7196 236.871 10.4837 236.54 11.4272C236.209 11.6631 236.04 11.1914 235.872 11.4272C235.709 11.6631 235.709 11.899 235.709 11.4272C235.203 11.4272 235.872 10.9555 235.041 10.9555C235.54 11.899 234.042 10.9555 233.873 10.9555C233.542 11.4272 233.374 10.9555 232.874 10.9555C233.205 11.4272 231.706 11.1914 232.537 10.2478C232.374 10.2478 231.538 11.4272 231.875 11.4272C232.206 11.4272 233.037 10.9555 232.874 11.6631C232.706 12.1349 232.874 11.899 233.205 12.1349C232.537 13.0868 233.873 12.6151 234.204 12.851C233.873 12.1349 234.373 11.4272 234.872 11.6631C234.373 14.5021 240.711 12.3792 242.709 12.851C242.21 12.3792 242.878 12.3792 243.04 12.6151C244.707 13.5586 247.38 12.6151 249.378 13.3227C251.045 13.3227 251.876 12.851 253.543 12.6151C253.212 13.5586 254.711 11.899 255.211 12.851C256.547 13.5586 258.545 13.0868 260.05 12.851C259.55 12.6151 258.545 12.851 258.214 12.3792C259.382 12.6151 260.88 11.899 261.88 12.3792ZM233.536 11.6631C233.374 11.6631 233.374 11.6631 233.374 11.4272C233.374 10.9555 233.873 11.6631 233.536 11.6631ZM236.871 12.3792C236.708 12.6151 236.209 12.3792 236.209 12.1349C236.54 12.3792 236.708 11.6631 236.871 12.3792ZM238.038 12.3792C238.038 12.1349 237.707 12.3792 237.707 12.1349C237.876 11.6631 238.538 12.3792 238.038 12.3792ZM238.375 11.6631C237.707 11.899 237.039 11.4272 236.371 11.6631C236.871 11.4272 238.207 10.9555 238.375 11.6631ZM239.375 12.1349C239.375 12.3792 239.044 12.6151 239.044 12.1349C239.044 12.1349 239.375 11.899 239.375 12.1349ZM239.044 11.4272C239.206 11.1914 239.375 11.1914 239.706 11.6631C239.375 11.6631 239.375 11.6631 239.044 11.4272ZM240.374 12.1349C240.374 12.3792 240.205 12.6151 240.205 12.1349C240.043 11.899 240.711 11.899 240.374 12.1349ZM244.045 12.6151C244.045 12.3792 244.208 11.899 244.376 12.1349C244.376 12.3792 244.208 12.3792 244.045 12.6151ZM244.376 11.6631C244.376 11.4272 244.707 11.4272 244.707 11.6631C244.707 11.899 244.376 11.899 244.376 11.6631ZM244.545 12.6151C244.376 12.6151 244.545 12.1349 244.707 12.1349C244.876 12.1349 244.707 12.6151 244.545 12.6151ZM244.876 12.6151C244.707 12.1349 245.375 12.3792 245.544 12.3792C245.375 12.6151 245.207 12.3792 244.876 12.6151ZM246.712 12.6151C246.044 12.3792 246.874 12.1349 247.211 12.1349C247.043 12.3792 246.874 12.3792 246.712 12.6151ZM255.71 12.3792C255.548 12.3792 255.048 12.6151 255.379 12.1349C255.379 12.1349 255.879 12.1349 255.71 12.3792ZM256.547 12.3792C256.378 12.3792 256.216 12.3792 256.047 12.1349C256.047 12.1349 256.547 12.1349 256.547 12.3792ZM257.046 12.3792C256.547 12.3792 257.215 11.899 257.215 12.1349C257.377 12.3792 257.215 12.3792 257.046 12.3792Z" fill="#69CE96"/>
<path d="M139.008 10.2478C138.509 10.7196 138.177 9.29589 137.84 9.76766C137.01 10.2478 135.343 9.06001 134.843 10.012C134.343 10.2478 134.843 9.53178 134.506 9.53178C134.006 10.012 132.171 8.58825 132.339 10.012C128.505 8.11648 123.834 9.76766 120.169 8.82413C119.001 7.8806 121.168 8.35237 121.667 8.11649C121.168 7.16454 120 7.8806 119.17 7.40042C120.337 6.69277 117.833 7.64472 117.334 7.40042C117.003 7.8806 118.17 7.64472 117.334 7.8806C118.002 8.35237 119.001 7.40042 119.17 8.35237C118.002 8.82413 116.335 8.11649 114.998 8.58825C115.335 8.58825 115.666 9.76766 115.666 8.82413C115.666 8.11649 116.166 9.53178 116.166 9.53178C117.003 10.2478 117.003 9.53178 117.171 9.53178C117.502 10.4837 118.67 9.53178 118.17 9.06001C119.338 8.35237 118.333 10.4837 119.17 10.012C120.5 9.29589 121.168 10.9555 121.667 9.06001C121.505 9.53178 121.836 9.53177 121.836 10.012C122.504 9.29589 122.504 9.53178 123.335 9.76766C123.172 9.76766 123.004 10.012 122.673 10.012C123.335 10.4837 123.503 9.53177 123.834 10.012C124.003 9.76766 123.834 9.06001 124.171 9.53178C124.003 11.1914 124.839 9.06001 124.671 10.2478C124.839 10.012 125.002 10.2478 125.17 10.2478C125.339 10.2478 125.501 10.4837 125.839 10.2478C125.67 10.012 125.839 9.76766 125.501 9.53178C126.007 9.53178 127.337 10.012 126.17 10.2478C126.669 10.7196 126.838 10.012 127.169 10.012C127.674 10.2478 128.673 10.4837 128.836 9.76766C129.841 10.012 130.672 9.76766 132.171 10.2478C132.008 10.2478 131.839 10.2478 131.671 10.4837C134.343 11.4273 136.173 9.06001 137.84 10.9555C138.009 10.2478 138.84 10.4837 139.177 10.9555C139.508 10.012 138.509 10.2478 139.508 10.012C139.339 9.76766 139.339 9.76766 139.008 10.2478ZM117.502 9.76766C117.334 9.76766 117.334 9.29589 117.502 9.29589C117.671 9.29589 117.671 9.76766 117.502 9.76766ZM125.501 10.012C124.671 9.76766 125.501 9.53178 125.839 9.76766C125.67 10.012 125.501 10.012 125.501 10.012ZM137.672 10.2478C137.509 9.76766 138.009 10.012 138.009 10.2478C137.84 10.2478 137.672 10.2478 137.672 10.2478Z" fill="#69CE96"/>
<path d="M115.167 9.05998C114.998 9.29586 114.836 9.05998 114.499 8.8241C110.502 8.35234 103.496 7.88057 99.8306 9.05998C97.9948 7.88057 95.4969 9.29586 93.3301 8.8241C92.662 8.58822 91.8253 9.29586 91.6628 9.05998C90.8262 8.58822 90.4952 8.8241 90.8262 9.76763C91.3258 9.53174 91.9939 9.76763 92.662 9.76763C92.8245 9.05998 93.8297 10.4837 94.1607 9.53174C93.6611 10.2478 92.4935 8.8241 93.3301 9.05998C93.1616 10.0119 94.3292 9.05998 94.8288 9.53174C95.1599 10.0119 95.6594 9.53174 95.9965 9.53174C96.4961 8.8241 96.4961 10.4837 96.4961 9.05998C96.9957 9.76763 97.6638 9.53174 98.1633 9.29586C98.4944 9.53174 98.6629 10.0119 99.1625 9.76763C99.331 8.8241 100.998 9.76763 101.829 9.53174C102.497 9.53174 103.833 8.58822 104.333 9.76763C105.332 9.29586 106.662 9.29586 107.667 9.05998C107.33 10.0119 108.498 9.53174 108.498 9.29586C106.999 8.8241 109.497 9.29586 109.834 9.05998C110.334 9.53174 111.002 8.8241 111.164 8.8241C111.501 9.53174 112.001 9.05998 112.501 8.8241C111.333 10.2478 116.004 10.2478 115.167 9.05998ZM92.662 9.53174C92.662 10.0119 92.3249 10.0119 92.3249 9.53174C92.3249 9.29586 92.8245 9.29586 92.662 9.53174ZM93.9922 9.53174C94.1607 9.29586 94.3292 9.29586 94.4918 9.53174C94.3292 9.53174 94.1607 9.53174 93.9922 9.53174ZM110.833 9.05998C110.665 9.05998 110.502 9.05998 110.334 9.05998C110.502 8.8241 111.164 8.8241 110.833 9.05998Z" fill="#69CE96"/>
<path d="M288.724 11.1913C286.558 10.2478 282.724 11.4272 280.719 10.7195C280.719 11.1913 280.888 11.899 280.557 11.6631C279.72 9.76759 277.553 11.6631 276.217 10.9554C276.386 12.615 277.884 10.9554 277.722 12.3791C278.053 11.899 278.552 11.6631 279.052 12.1348C279.052 11.899 279.052 11.6631 278.889 11.4272C280.057 11.6631 281.056 11.899 282.224 12.1348C281.219 11.4272 283.223 10.2478 282.386 11.6631C283.055 11.899 283.055 12.1348 283.723 11.4272C283.891 12.3791 284.89 11.4272 285.059 12.1348C285.39 11.6631 287.226 11.899 287.888 11.4272C288.387 10.9554 288.225 11.4272 288.556 11.899C288.724 11.4272 289.055 11.899 288.724 11.1913Z" fill="#69CE96"/>
<path d="M275.717 11.1914C273.887 10.7196 271.384 11.1914 269.217 10.9555C268.549 11.1914 269.217 12.3792 268.049 12.3792C269.716 13.0868 269.716 10.7196 270.884 12.6151C271.053 12.6151 271.053 12.1349 270.884 12.1349C270.053 11.4272 271.552 12.1349 271.721 11.4272C272.052 10.9555 271.552 12.1349 272.052 11.6631C272.551 11.1914 272.882 11.899 273.219 11.899C272.551 10.9555 276.722 11.4272 275.555 11.899C276.385 12.3792 275.886 12.1349 276.885 11.6631C276.722 11.6631 276.385 11.899 276.385 11.4272C276.554 10.7196 275.386 11.1914 276.217 10.2478C276.054 10.9555 275.717 10.7196 275.717 11.1914ZM269.217 12.3792C269.217 12.3792 269.048 12.3792 269.048 12.1349C269.048 11.6631 269.716 12.3792 269.217 12.3792ZM273.887 11.4272C273.887 11.6631 273.388 11.6631 273.219 11.4272C273.219 11.1914 273.887 11.4272 273.887 11.4272Z" fill="#69CE96"/>
<path d="M167.02 10.7196C166.852 10.2478 164.017 10.4837 163.018 10.4837C163.18 10.7196 163.517 10.4837 163.517 10.7196C163.349 10.9555 162.181 10.9555 162.849 10.4837C162.35 10.012 162.35 10.9555 161.682 10.9555C163.349 9.29588 158.684 11.899 160.351 10.4837C159.683 10.7196 159.346 10.2478 160.183 10.2478C159.184 10.4837 157.516 10.012 156.68 10.9555C157.516 11.6631 159.846 10.9555 161.013 11.4272C161.35 12.3792 162.518 10.4837 162.849 11.6631C163.349 10.7196 163.848 11.4272 164.516 10.9555C164.017 10.7196 164.516 10.7196 164.848 10.7196C165.016 10.9555 164.516 11.4272 165.016 11.1914C165.516 11.1914 165.684 11.4272 165.353 10.7196C166.015 10.7196 166.515 10.7196 167.02 10.7196ZM159.184 10.7196C159.346 10.7196 159.683 10.4837 160.014 10.7196C159.515 10.9555 159.346 10.7196 159.184 10.7196Z" fill="#69CE96"/>
<path d="M229.04 11.6631C228.871 11.4272 227.036 10.9554 226.368 11.4272C225.868 10.2478 228.203 11.4272 228.703 10.9554C228.372 10.0119 227.204 11.4272 226.873 10.4836C226.205 10.7195 225.368 10.4836 224.7 10.7195C224.869 10.9554 225.037 10.7195 225.037 10.9554C224.369 11.4272 223.202 10.4836 223.033 11.4272C222.702 10.0119 219.867 11.6631 221.703 11.1913C221.366 11.4272 221.703 11.8989 221.703 11.8989C221.871 11.8989 221.703 11.4272 221.871 11.4272C222.202 11.1913 222.87 11.4272 222.202 11.6631C223.37 11.8989 223.37 10.9554 224.369 11.1913C224.369 11.4272 224.201 12.1348 224.369 11.6631C224.538 11.4272 225.206 12.1348 225.537 11.8989C225.868 11.663 226.368 11.8989 226.705 11.8989C226.705 11.4272 226.705 11.1913 227.204 11.4272C227.204 12.8509 228.54 12.1348 229.202 12.1348C229.04 12.1348 229.04 11.8989 229.04 11.6631ZM225.206 11.4272C225.537 11.663 225.705 11.1913 225.868 11.6631C225.705 11.6631 225.537 11.8989 225.206 11.4272ZM225.206 11.1913C224.869 10.7195 225.705 10.9554 225.868 10.9554C225.705 11.4272 225.537 11.1913 225.206 11.1913Z" fill="#69CE96"/>
<path d="M77.6566 8.11648C78.9868 8.82412 82.6584 8.58824 84.4882 8.35236C83.9886 8.11648 83.9886 8.11648 84.1571 7.64471C83.6575 7.40041 83.8261 8.11648 83.489 8.35236C83.158 8.58824 83.3265 8.11648 83.3265 7.88059C82.9894 7.64471 83.158 8.35236 82.9894 8.35236C82.8209 8.11648 82.4899 7.64471 82.3213 7.64471C82.3213 9.29588 81.8217 7.40041 81.1536 7.40041C80.6541 7.40041 81.8217 7.64471 81.3222 7.88059C81.1536 8.11648 79.6549 8.35236 80.4916 7.64471C81.4907 7.40041 79.4924 7.40041 79.1553 7.16453C79.8234 6.45688 78.6558 7.40041 78.3247 7.16453C78.1562 7.64471 78.3247 7.16453 78.6558 7.16453C78.1562 6.92864 77.8251 7.88059 77.3195 7.64471C77.4881 7.64471 78.1562 7.88059 77.6566 8.11648ZM79.992 8.11648C79.8234 8.35236 79.4924 8.35236 79.3239 8.11648C79.6549 8.11648 79.8234 8.11648 79.992 8.11648Z" fill="#69CE96"/>
<path d="M268.549 11.4271C267.887 10.9554 266.051 10.7195 265.383 11.4271C265.052 10.7195 264.715 11.8989 264.384 11.1913C264.384 12.3791 263.884 12.3791 263.047 12.615C263.547 12.8509 267.05 12.8509 265.214 12.3791C265.714 11.8989 266.55 12.8509 266.881 11.8989C267.05 11.663 268.049 12.615 268.717 11.8989C268.549 11.8989 268.549 11.663 268.549 11.4271ZM264.384 12.3791C264.215 12.615 264.215 12.1348 264.215 11.8989C264.384 11.8989 264.552 12.3791 264.384 12.3791Z" fill="#69CE96"/>
<path d="M105.332 7.64471C105.332 8.58823 107.499 8.58823 107.499 7.88059C108.167 9.06 108.329 7.88059 108.835 7.88059C108.997 8.82412 113.169 8.11647 111.832 7.64471C111.002 8.35235 110.502 7.16452 109.665 7.16452C109.166 7.16452 109.166 8.11647 108.329 7.64471C109.166 7.16452 106.662 7.16452 106.662 7.64471C106.331 6.45688 105.831 8.11647 105.332 7.64471ZM107.33 7.4004C107.499 7.4004 107.499 7.16452 107.667 7.4004C107.83 7.64471 107.168 7.64471 107.33 7.4004Z" fill="#69CE96"/>
<path d="M220.204 10.0119C219.867 10.4837 220.036 10.2478 219.867 9.76761C219.699 10.7196 219.368 9.76761 218.868 10.0119C219.037 10.2478 219.037 10.2478 218.868 10.4837C219.867 10.9554 218.369 10.7196 218.2 10.7196C217.7 10.7196 217.869 11.6631 217.7 11.1913C217.869 10.0119 216.033 10.7196 215.365 10.4837C216.033 10.7196 217.201 11.899 218.2 11.4272C219.368 11.6631 220.704 12.1348 221.035 9.76761C220.535 10.0119 220.367 10.0119 220.204 10.0119ZM218.868 11.1913C218.7 10.9554 217.869 11.4272 218.369 10.9554C218.7 10.9554 219.536 10.9554 218.868 11.1913Z" fill="#69CE96"/>
<path d="M186.191 9.76762C187.359 9.76762 188.358 9.76762 189.525 9.76762C188.689 9.29586 186.022 10.2478 186.191 9.05997C186.859 9.76762 186.191 9.29586 187.19 8.82409C186.691 9.05997 186.022 8.35233 185.691 9.29586C186.191 9.05997 186.022 9.76762 185.691 9.76762C186.022 9.76762 186.022 10.2478 185.691 10.2478C184.692 10.4837 182.188 9.76762 182.856 10.9555C183.025 10.9555 184.193 10.0119 184.524 10.9555C182.525 10.7196 184.692 12.1349 185.354 10.9555C185.691 10.2478 185.86 11.6631 186.191 10.9555C186.359 10.7196 186.522 11.4272 186.859 11.1913C186.191 10.2478 188.526 10.9555 188.358 11.1913C189.194 9.05997 185.691 10.4837 186.191 9.76762ZM184.855 10.4837C184.692 10.4837 184.692 10.4837 184.692 10.2478C184.692 10.0119 185.192 10.4837 184.855 10.4837Z" fill="#69CE96"/>
<path d="M196.363 9.76762C201.196 9.29586 191.861 10.4837 193.859 8.8241C191.524 8.35233 194.527 9.53174 192.529 9.53174C194.196 10.2478 192.36 9.76762 192.023 10.0119C192.36 10.2478 192.86 9.53174 192.86 10.4837C191.524 10.2478 193.191 11.1913 193.691 10.4837C192.86 9.05998 195.027 9.53174 195.695 9.76762C195.027 10.4837 194.858 9.53174 194.19 10.0119C194.527 10.4837 194.19 10.2478 194.19 10.4837C194.527 10.7196 195.195 10.7196 195.526 10.4837C196.195 10.2478 197.362 10.7196 198.193 10.0119C197.693 9.76762 195.695 10.4837 196.363 9.76762Z" fill="#69CE96"/>
<path d="M131.839 8.11641C133.838 8.82406 136.673 9.05994 138.84 8.58818C138.009 8.3523 137.509 8.58818 136.673 8.11641C137.341 7.40035 135.342 8.58818 134.843 8.11641C135.842 8.11641 133.338 7.40035 133.675 7.64465C133.007 7.88053 132.339 8.11641 131.839 8.11641Z" fill="#69CE96"/>
<path d="M295.225 10.9554C293.726 10.9554 289.555 9.76754 289.892 11.663C290.391 10.7195 290.891 11.8989 291.89 11.4271C290.391 10.9554 295.724 11.8989 293.895 11.1913C294.725 11.1913 294.725 11.4271 295.724 11.4271C295.393 11.1913 295.393 11.1913 295.225 10.9554Z" fill="#69CE96"/>
<path d="M206.366 9.53172C206.029 9.53172 205.03 10.0119 205.03 9.29584C204.362 10.0119 203.862 9.29584 203.694 8.5882C202.863 8.5882 202.195 8.5882 201.864 9.05996C202.526 8.82408 203.862 8.5882 202.526 9.53172C203.531 9.29584 203.862 9.7676 204.194 10.7196C204.362 10.4837 204.699 9.29584 204.699 10.2478C205.03 10.2478 205.03 10.2478 205.199 10.7196C205.03 9.05996 205.698 11.1913 206.366 10.2478C206.029 9.7676 205.361 10.0119 204.699 9.7676C205.03 9.53172 206.697 10.2478 206.366 9.53172Z" fill="#69CE96"/>
<path d="M101.829 7.64467C101.161 7.88055 100.161 7.40036 101.161 8.35231C100.998 8.5882 100.998 8.82408 101.329 8.5882C102.328 7.88055 106.662 8.35231 103.665 7.64467C103.833 7.40036 104.164 7.40036 104.333 7.40036C103.833 7.16448 102.996 7.64467 102.665 6.69272C102.665 7.40036 102.166 6.9286 101.829 7.64467C102.166 7.64467 102.328 7.40036 102.665 7.64467C102.497 7.64467 102.166 7.64467 101.829 7.64467Z" fill="#69CE96"/>
<path d="M232.874 12.1348C232.537 12.1348 232.537 11.8989 232.706 11.663C231.207 11.4271 231.038 11.663 229.54 11.4271C229.04 11.4271 229.371 11.8989 229.702 11.8989C228.703 12.615 230.707 12.3791 231.038 12.615C231.369 12.1348 232.037 12.8508 232.206 11.8989C232.206 12.615 233.037 12.615 232.874 12.1348Z" fill="#69CE96"/>
<path d="M182.188 10.4837C181.189 9.05997 173.69 10.2478 176.856 10.7196C175.188 9.29585 179.853 11.1913 179.354 10.7196C177.855 10.0119 180.858 10.0119 181.358 10.4837C181.189 11.4272 183.025 10.4837 182.188 10.4837Z" fill="#69CE96"/>
<path d="M88.8279 8.11643C87.9912 8.35231 88.6593 7.88055 89.1589 7.88055C88.1598 7.16448 87.6602 9.53172 87.1606 8.11643C86.8236 8.82407 86.661 8.11643 86.324 8.35231C85.9929 8.58819 84.9938 8.35231 84.9938 8.11643C85.6559 7.40036 84.4882 7.64466 84.4882 8.35231C85.6559 9.05995 87.9912 9.05995 89.1589 8.11643C88.9904 8.58819 88.9904 8.11643 88.8279 8.11643Z" fill="#69CE96"/>
<path d="M127.674 7.64471C124.171 8.35236 130.172 9.53177 130.341 7.64471C130.172 7.64471 130.004 7.64471 129.841 7.64471C130.503 8.11648 127.837 8.11648 127.837 7.88059C128.505 7.64471 128.337 7.40041 127.674 7.64471Z" fill="#69CE96"/>
<path d="M172.185 10.4837C172.353 10.4837 172.522 10.7196 172.684 10.2478C171.017 10.0119 168.182 11.1913 167.352 9.76761C166.683 10.0119 167.352 10.0119 167.352 10.2478C167.352 10.9554 168.182 10.0119 168.519 10.7196C169.687 10.0119 169.518 11.1913 170.355 11.1913C171.017 11.1913 171.854 10.9554 172.353 11.4272C172.522 10.7196 171.186 10.9554 172.185 10.4837ZM171.517 10.9554C171.186 10.9554 170.186 11.6631 170.186 10.7196C170.355 10.4837 172.022 10.4837 171.517 10.9554Z" fill="#69CE96"/>
<path d="M143.841 10.2478C143.342 9.76756 143.51 10.2477 143.679 10.4836C143.179 10.2477 142.011 9.2958 141.674 10.2478C141.512 9.76756 140.507 9.2958 140.507 10.2478C140.675 10.4836 141.175 10.2478 140.675 10.7195C141.175 10.7195 141.674 10.7195 142.011 10.0119C142.174 11.1913 144.01 10.9554 143.841 10.2478Z" fill="#69CE96"/>
<path d="M155.512 10.4836C154.682 10.0119 154.682 11.1913 153.514 10.9554C153.514 10.4836 153.682 10.7195 153.845 10.4836C152.846 10.7195 152.346 10.2477 150.848 10.4836C151.01 11.8989 151.179 10.4836 151.678 10.7195C151.347 11.8989 152.677 9.76756 152.846 10.9554C154.013 11.1913 155.35 11.1913 155.512 10.4836Z" fill="#69CE96"/>
<path d="M93.8296 7.4004C93.1615 7.4004 93.6611 9.06 93.9921 7.88059C94.1606 8.82412 97.4952 7.88059 94.9973 7.64471C95.1598 7.4004 95.3283 7.64471 95.4969 7.16452C94.6602 7.16452 93.9921 8.11647 93.8296 7.4004ZM94.6602 7.64471C94.8288 7.4004 94.9973 7.88059 94.8287 8.11647C94.6602 8.11647 94.4917 7.88059 94.6602 7.64471Z" fill="#69CE96"/>
<path d="M299.396 10.9554C298.728 10.9554 297.061 10.7195 296.892 11.1913C297.229 11.8989 301.563 11.4272 299.396 10.9554Z" fill="#69CE96"/>
<path d="M190.525 9.53172C190.025 9.53172 189.194 9.29584 190.025 9.7676C189.694 9.53172 188.189 10.0119 188.689 10.4837C188.857 10.0119 189.026 10.7196 189.194 10.7196C189.357 10.4837 189.357 10.4837 189.194 10.2478C189.525 10.0119 191.193 9.7676 191.024 10.4837C192.36 10.2478 190.862 9.53172 190.194 9.7676C190.356 9.7676 190.525 9.7676 190.525 9.53172Z" fill="#69CE96"/>
<path d="M123.172 8.35234C124.671 8.35234 126.837 8.58822 124.171 7.64469C123.503 8.58822 123.172 6.92863 122.672 7.40039C123.672 8.11646 122.504 7.40039 122.504 7.88058C122.672 7.88058 122.835 8.35234 123.172 8.35234Z" fill="#69CE96"/>
<path d="M167.52 9.53168C171.854 9.2958 167.352 9.05991 165.516 9.29579C166.015 10.4836 167.352 8.82403 167.352 9.76756C167.52 9.76756 167.52 9.53168 167.52 9.53168Z" fill="#69CE96"/>
<path d="M262.548 12.1348C263.216 12.3791 264.552 12.1348 263.715 11.1913C263.047 11.4272 261.88 11.4272 262.548 12.1348ZM262.716 11.6631C262.885 11.6631 263.047 11.6631 263.216 11.899C263.047 11.899 262.379 11.899 262.716 11.6631Z" fill="#69CE96"/>
<path d="M215.702 5.74915C217.369 6.4568 215.202 5.03308 214.366 5.51327C214.534 5.74915 214.697 5.74915 214.865 5.74915C214.366 5.98503 214.035 5.27739 213.698 5.51327C212.53 6.22091 215.865 6.4568 215.702 5.74915Z" fill="#69CE96"/>
<path d="M77.3196 7.16453C77.1571 6.92865 76.9886 7.16453 76.6575 7.16453C76.82 7.16453 76.9886 7.16453 76.9886 7.40041C76.489 7.64472 76.3205 7.64472 76.1579 7.16453C76.1579 7.8806 75.4898 7.64472 76.1579 8.35236C75.9894 8.35236 75.8209 8.58824 75.4898 8.35236C75.4898 8.58824 77.3196 8.58824 76.9886 8.35236C76.6575 8.11648 76.6575 7.64472 76.9886 7.8806C77.4881 7.64472 77.4881 7.16453 77.3196 7.16453ZM76.6575 8.11648C76.489 8.11648 76.3205 8.11648 76.3205 7.8806C76.489 7.8806 76.9886 7.64472 76.6575 8.11648Z" fill="#69CE96"/>
<path d="M201.864 10.012C201.527 10.012 201.028 10.012 200.697 10.012C201.028 10.4837 200.528 10.2478 200.528 10.4837C201.028 10.4837 201.196 10.7196 201.527 10.7196C201.864 10.2478 202.195 10.9555 202.364 10.9555C202.863 10.7196 202.364 9.76765 201.864 10.012Z" fill="#69CE96"/>
<path d="M167.52 6.92856C167.02 6.69268 165.684 7.16444 166.515 7.88051C167.351 7.88051 167.851 7.40032 167.52 6.92856Z" fill="#69CE96"/>
<path d="M159.184 6.22096C160.183 5.7492 160.183 6.69272 161.182 6.22096C161.014 6.22096 160.683 5.98508 160.352 5.98508C160.514 5.7492 160.683 5.51331 160.851 5.51331C160.014 5.98508 159.515 4.56136 159.184 6.22096Z" fill="#69CE96"/>
<path d="M224.369 10.4837C224.038 10.0119 223.539 10.9554 223.37 10.2478C223.539 10.2478 223.701 10.2478 224.038 10.0119C223.539 9.7676 222.871 9.53172 223.202 10.4837C222.871 10.7195 222.871 9.7676 222.702 10.2478C223.033 10.4837 222.371 10.7196 222.871 10.7196C223.701 10.9554 224.038 10.9554 224.369 10.4837Z" fill="#69CE96"/>
<path d="M254.38 8.82403C254.88 8.58815 256.047 9.05991 256.216 8.35227C255.879 8.11638 253.543 8.11638 254.212 8.58815C254.212 8.58815 254.043 8.58815 254.043 8.82403C254.212 8.82403 254.38 8.82403 254.38 8.82403Z" fill="#69CE96"/>
<path d="M141.675 9.05998C140.176 8.58821 142.012 9.76762 142.674 9.53174C143.342 9.53174 142.842 8.82409 143.842 8.82409C142.674 8.35233 142.842 9.05998 141.675 9.05998Z" fill="#69CE96"/>
<path d="M146.008 10.7195C145.177 10.4836 146.177 10.4836 146.177 10.0119C141.175 9.76757 146.845 11.4272 146.008 10.7195Z" fill="#69CE96"/>
<path d="M112.669 8.11643C113.169 7.88055 113.999 8.58819 114.336 7.88055C113.5 7.88055 113.169 7.16448 112.17 7.64467C112.501 7.64467 112.501 8.11643 112.669 8.11643Z" fill="#69CE96"/>
<path d="M147.176 10.4837C149.012 12.1349 149.68 9.53174 147.176 10.4837V10.4837ZM147.345 10.4837C147.676 10.2478 147.844 10.4837 148.181 10.4837C147.844 10.9555 147.513 10.4837 147.345 10.4837Z" fill="#69CE96"/>
<path d="M90.158 9.29584C90.158 9.53172 90.158 9.7676 89.9955 9.53172C88.9904 9.05996 89.1589 11.1913 90.158 10.2478C89.9955 10.0119 89.1589 10.2478 89.827 10.0119C90.158 10.0119 90.8262 9.7676 90.158 9.29584Z" fill="#69CE96"/>
<path d="M243.54 8.11648C242.709 8.11648 241.872 7.64471 241.373 8.58824C242.209 8.35236 241.71 8.11648 242.54 8.58824C242.877 8.35236 244.545 8.11648 243.54 8.11648Z" fill="#69CE96"/>
<path d="M161.682 9.29587C162.518 9.76763 163.849 9.05999 164.685 9.53175C165.684 9.05999 162.181 9.05999 161.682 9.29587Z" fill="#69CE96"/>
<path d="M258.383 8.5882C257.883 8.82408 257.046 7.64467 256.547 8.35232C256.547 9.05996 257.883 8.82408 258.383 8.5882Z" fill="#69CE96"/>
<path d="M212.867 5.98504C213.866 5.51328 211.699 5.74916 211.368 5.51328C210.363 5.98504 212.53 5.98504 212.867 5.98504Z" fill="#69CE96"/>
<path d="M116.503 8.11646C117.171 8.35234 118.002 7.64469 116.834 7.40039C117.502 6.69274 115.835 7.40039 116.503 8.11646Z" fill="#69CE96"/>
<path d="M150.348 10.2478C150.011 10.2478 149.511 10.2478 149.18 10.4837C149.343 10.7196 149.343 10.7196 149.011 10.9555C149.343 10.9555 149.511 11.1914 149.68 10.9555C149.18 10.4837 149.68 10.2478 150.011 10.4837C149.343 11.899 151.178 10.4837 150.348 10.2478Z" fill="#69CE96"/>
<path d="M211.368 10.0119C211.2 9.05994 211.2 8.82406 210.363 9.05994C210.863 9.29582 210.363 9.76759 210.201 10.0119C210.863 10.2478 210.532 9.76759 210.863 9.53171C211.368 9.76759 211.031 10.2478 211.368 10.0119Z" fill="#69CE96"/>
<path d="M181.857 7.16444C182.02 7.16444 182.357 6.69268 182.357 7.16444C182.856 6.22092 181.857 7.16444 182.02 6.22092C181.857 7.16444 181.189 6.22092 180.858 6.69268C181.021 7.16444 181.689 6.69268 181.857 7.16444Z" fill="#69CE96"/>
<path d="M122.167 5.98507C120.837 5.03312 120.837 6.9286 122.167 6.45684C121.836 6.22096 122.005 6.22096 122.167 5.98507Z" fill="#69CE96"/>
<path d="M197.862 8.82412C197.025 8.58824 194.696 9.29588 196.363 9.06C196.694 9.06 198.53 9.06 197.862 8.82412Z" fill="#69CE96"/>
<path d="M198.361 7.16451C198.53 7.16451 198.861 7.64469 199.36 7.16451C199.192 7.16451 199.192 7.16451 199.029 6.92862C199.192 6.69274 199.36 6.45686 199.192 6.22098C199.029 6.22098 198.692 6.92862 198.861 6.22098C198.361 5.74922 198.861 7.40039 198.361 7.16451Z" fill="#69CE96"/>
<path d="M193.36 5.51334C193.691 5.74922 194.196 5.74922 194.359 5.03315C193.859 5.03315 193.191 4.79727 192.86 5.51334C193.029 5.51334 193.191 5.27745 193.36 5.51334Z" fill="#69CE96"/>
<path d="M153.345 9.29589C152.846 9.76765 154.681 9.29589 154.85 9.06001C154.182 8.82412 153.514 9.06001 152.677 9.06001C152.846 9.29589 153.183 9.06001 153.345 9.29589Z" fill="#69CE96"/>
<path d="M230.707 10.4836C231.038 10.2478 231.038 10.7195 231.207 10.7195C231.207 10.4836 231.37 10.0119 231.207 10.0119C230.039 10.2478 229.871 11.1913 231.207 10.9554C231.038 10.9554 230.37 10.9554 230.707 10.4836Z" fill="#69CE96"/>
<path d="M191.524 5.27744C191.692 5.7492 191.193 5.27744 191.024 5.51332C191.524 5.51332 191.193 5.98509 191.524 5.98509C191.692 5.27744 192.36 5.98508 192.691 5.03313C192.36 5.27744 191.524 5.27744 191.524 4.56137C191.361 4.79725 191.024 5.03313 191.524 5.27744Z" fill="#69CE96"/>
<path d="M135.174 6.22092C134.675 6.4568 136.51 6.69268 136.842 6.4568C136.342 5.98504 136.011 6.69268 135.174 6.22092Z" fill="#69CE96"/>
<path d="M183.025 8.82401C183.356 9.29577 184.355 9.05989 184.855 8.82401C184.193 8.35225 183.524 8.58813 183.025 8.82401Z" fill="#69CE96"/>
<path d="M135.842 5.27738C135.505 5.27738 135.006 4.79719 134.674 5.27738C134.843 5.74914 136.173 5.98503 135.842 5.27738Z" fill="#69CE96"/>
<path d="M92.6621 8.1164C92.6621 8.1164 92.6621 8.35229 92.6621 8.58817C93.8297 7.64464 92.9931 7.88052 91.994 8.1164C92.1625 8.35229 92.325 8.35229 92.6621 8.1164Z" fill="#69CE96"/>
<path d="M233.705 7.88053C233.205 7.64465 231.869 7.88053 232.874 7.88053C232.706 8.3523 232.206 7.88053 231.869 8.11641C232.537 8.82406 233.037 8.11641 233.705 7.88053Z" fill="#69CE96"/>
<path d="M232.874 6.92859C231.538 5.98506 232.375 7.88054 233.374 6.92859C233.374 6.92859 233.205 6.45683 232.874 6.92859Z" fill="#69CE96"/>
<path d="M87.1605 6.92856C87.8226 6.92856 88.4907 6.92856 89.1588 6.69268C88.4907 6.92856 87.9911 6.22092 87.323 6.22092C87.4916 6.4568 87.4916 6.4568 87.8226 6.4568C87.4916 6.69268 87.1605 6.4568 87.1605 6.92856Z" fill="#69CE96"/>
<path d="M214.865 10.7195C214.197 10.7195 214.035 10.7195 214.865 10.2478C214.366 9.76758 214.366 10.2478 214.035 10.4836C214.035 11.1913 215.034 11.1913 214.865 10.7195Z" fill="#69CE96"/>
<path d="M214.035 10.4837C213.698 9.29588 212.867 11.4272 213.367 9.29588C213.367 8.82412 212.699 9.29588 212.53 9.06C212.199 9.06 212.368 10.2478 211.7 10.0119C211.7 10.2478 212.031 10.012 212.031 10.2478C211.369 10.2478 212.031 10.7196 211.7 10.9555C211.531 10.7196 210.201 9.29588 210.363 10.7196C209.533 10.9555 210.201 10.2478 209.701 10.4837C209.033 10.9555 209.364 9.29588 208.534 10.0119C209.364 10.2478 208.034 10.2478 208.696 10.7196C208.696 10.9555 208.534 10.9555 208.534 10.9555C208.034 11.4272 208.197 8.82411 207.865 10.4837C207.865 11.899 210.532 11.1914 211.531 11.1914C212.199 11.1914 212.867 11.6631 213.367 10.7196C213.198 11.4272 213.698 11.4272 214.197 11.1914C213.367 11.1914 213.866 10.9555 214.035 10.4837ZM212.699 10.0119C212.031 9.76764 212.867 8.82412 213.03 9.76764C213.036 10.012 212.867 10.0119 212.699 10.0119Z" fill="#69CE96"/>
<path d="M232.038 6.92859C231.869 6.22095 231.039 6.69271 230.708 6.69271C231.207 6.69271 231.207 7.64466 232.038 6.92859Z" fill="#69CE96"/>
<path d="M219.368 6.69272C218.369 5.98508 217.532 7.88056 219.037 7.16449C218.868 7.16449 218.7 6.9286 218.537 6.9286C218.868 6.69272 219.199 6.9286 219.368 6.69272Z" fill="#69CE96"/>
<path d="M217.532 7.40035C217.369 6.92859 217.201 6.92859 216.87 6.92859C217.201 7.40035 217.532 8.3523 218.031 7.64466C217.7 7.64466 217.7 7.16447 217.532 7.40035Z" fill="#69CE96"/>
<path d="M245.875 8.58823C245.875 8.11646 245.376 7.6447 245.045 7.88058C245.207 7.88058 245.376 7.88058 245.544 7.88058C245.376 8.11646 244.376 7.88058 245.045 8.35235C245.207 8.82411 245.376 7.88058 245.875 8.58823Z" fill="#69CE96"/>
<path d="M261.049 7.16452C260.381 7.4004 259.382 7.88059 260.549 7.64471C260.88 8.11647 261.38 7.4004 261.217 7.16452C261.217 7.16452 260.88 7.64471 261.049 7.16452Z" fill="#69CE96"/>
<path d="M188.027 6.4568C188.526 6.92856 188.857 6.92856 189.026 6.22092C188.526 6.22092 188.526 6.22092 188.027 6.4568Z" fill="#69CE96"/>
<path d="M115.167 7.64467C114.667 8.35231 116.834 8.35231 116.004 7.40036C115.667 7.88055 115.667 7.88055 115.167 7.64467Z" fill="#69CE96"/>
<path d="M148.512 9.29582C148.512 9.05993 147.513 9.29582 147.344 9.29582C147.675 9.5317 148.512 9.5317 149.012 9.5317C148.843 9.29582 148.512 9.5317 148.512 9.29582Z" fill="#69CE96"/>
<path d="M176.855 10.9554C177.355 10.7196 178.023 11.1913 178.354 10.7196C178.023 10.7196 176.855 10.2478 176.855 10.9554Z" fill="#69CE96"/>
<path d="M215.202 6.92864C216.364 6.92864 215.365 6.45687 214.697 6.92864C214.865 7.4004 214.366 7.4004 214.197 7.16452C214.035 7.6447 215.034 7.6447 215.202 7.4004C215.202 7.4004 214.534 7.16452 215.202 6.92864Z" fill="#69CE96"/>
<path d="M98.8315 7.88057C99.1625 7.88057 99.4936 8.58821 99.8306 7.88057C99.3311 7.88057 98.994 7.64468 98.4944 7.64468C98.6629 7.88057 98.6629 7.88057 98.8315 7.88057Z" fill="#69CE96"/>
<path d="M223.37 7.88054C223.539 7.40035 223.87 7.64466 224.201 7.64466C224.038 6.92859 222.034 7.64466 223.37 7.88054Z" fill="#69CE96"/>
<path d="M180.021 9.05997C180.858 8.35233 179.353 8.82409 178.854 8.82409C179.353 9.29585 179.69 8.82409 180.021 9.05997Z" fill="#69CE96"/>
<path d="M157.017 7.88056C156.848 7.64468 156.511 7.88056 156.349 7.64468C157.017 7.16449 156.18 6.92861 156.012 7.16449C156.18 7.40037 156.511 7.16449 156.012 7.64468C156.349 7.88056 156.68 7.64468 157.017 7.88056Z" fill="#69CE96"/>
<path d="M230.208 6.45688C229.702 6.45688 229.371 6.45688 228.871 6.45688C229.371 7.16452 229.871 6.92864 230.208 6.45688Z" fill="#69CE96"/>
<path d="M144.678 9.06001C145.009 9.29589 145.508 9.29589 145.846 9.06001C145.346 9.06001 144.846 8.82412 144.678 9.06001Z" fill="#69CE96"/>
<path d="M78.8242 6.22097C79.3238 6.22097 80.8225 6.45685 80.1544 5.98509C79.6548 6.45685 79.3238 5.27744 78.8242 6.22097Z" fill="#69CE96"/>
<path d="M97.1643 8.11647C97.4953 7.88059 97.6639 9.06 97.8264 8.11647C97.8264 7.4004 96.4962 8.11647 97.1643 8.11647Z" fill="#69CE96"/>
<path d="M264.215 8.35233C263.715 8.35233 263.216 8.11645 262.716 8.35233C263.047 8.35233 263.884 8.8241 264.215 8.35233Z" fill="#69CE96"/>
<path d="M251.046 8.82401C251.377 9.05989 251.876 8.82401 252.213 8.82401C251.876 8.58813 250.546 8.35225 251.046 8.82401Z" fill="#69CE96"/>
<path d="M187.022 6.92856C186.859 7.64463 187.858 6.92856 187.858 6.22092C187.359 6.92856 187.022 6.22092 187.022 6.92856Z" fill="#69CE96"/>
<path d="M81.6594 5.74921C80.4917 6.22097 82.3214 6.45685 82.821 5.98509C82.49 5.98509 81.1538 6.22097 81.6594 5.74921Z" fill="#69CE96"/>
<path d="M291.222 4.32553C290.723 3.85377 289.723 4.56141 289.055 4.32553C289.723 4.56141 290.56 4.32553 291.222 4.32553Z" fill="#69CE96"/>
<path d="M173.69 10.2478C171.854 10.0119 174.021 11.1913 174.352 10.2478C174.189 10.2478 173.852 10.2478 173.69 10.2478Z" fill="#69CE96"/>
<path d="M116.834 5.74913C116.166 5.98501 117.833 6.45677 117.833 5.98501C117.671 5.51324 117.171 5.74913 116.834 5.74913Z" fill="#69CE96"/>
<path d="M281.887 6.69273C281.387 6.69273 281.556 6.45685 281.887 6.69273C281.556 7.16449 281.219 6.69273 281.056 7.16449C281.556 7.40037 281.887 7.16449 282.386 7.16449C282.224 6.92861 282.055 6.92861 281.887 6.69273Z" fill="#69CE96"/>
<path d="M173.69 10.7196C172.022 10.4837 173.69 11.6631 174.189 10.7196C174.021 10.7196 173.852 10.9554 173.69 10.7196Z" fill="#69CE96"/>
<path d="M195.857 6.92859C195.857 6.45683 196.026 6.69271 196.195 6.92859C196.526 5.98506 195.526 6.22095 195.526 7.16447C195.695 6.92859 195.857 7.16447 195.857 6.92859Z" fill="#69CE96"/>
<path d="M158.347 9.76764C159.015 9.53176 157.679 8.82412 157.847 9.53176C158.016 9.76764 158.178 9.53176 158.347 9.76764Z" fill="#69CE96"/>
<path d="M244.708 7.16447C244.545 7.40035 244.377 7.16447 244.377 6.92859C244.046 7.64466 245.207 7.40035 245.544 7.40035C244.876 7.16447 245.045 6.92859 244.708 7.16447Z" fill="#69CE96"/>
<path d="M216.364 7.40033C216.202 7.16445 216.202 5.98505 215.702 7.64464C216.202 7.64464 216.364 7.64464 216.364 7.40033Z" fill="#69CE96"/>
<path d="M225.537 7.64467C226.368 7.64467 225.037 6.9286 225.037 7.64467C225.037 8.35231 225.369 8.11643 225.537 7.64467Z" fill="#69CE96"/>
<path d="M286.058 8.11645C286.726 8.11645 287.388 8.35233 287.888 7.88056C287.388 7.88056 286.726 7.64468 286.058 8.11645Z" fill="#69CE96"/>
<path d="M108.997 5.74921C108.666 5.51333 108.329 5.51333 107.998 5.74921C108.329 5.98509 108.666 5.98509 108.997 5.74921Z" fill="#69CE96"/>
<path d="M198.361 9.53172C198.361 8.58819 198.53 9.53172 198.861 9.29584C198.361 9.05995 199.029 8.82407 199.36 9.05995C199.029 8.35231 198.03 8.58819 198.361 9.53172Z" fill="#69CE96"/>
<path d="M96.3274 7.40036C96.1589 7.40036 95.6593 7.40036 95.9964 7.64467C96.496 7.64467 95.8279 8.82407 96.6645 8.35231C96.1589 8.11643 96.496 7.64467 96.3274 7.40036Z" fill="#69CE96"/>
<path d="M132.171 6.221C132.676 6.45688 133.176 6.45688 133.507 6.45688C133.176 6.221 132.676 5.98511 132.171 6.221Z" fill="#69CE96"/>
<path d="M160.514 9.53168C161.35 9.05992 159.846 9.05992 159.683 9.53168C160.014 10.0119 160.514 8.82403 160.514 9.53168Z" fill="#69CE96"/>
<path d="M207.197 10.4836C206.866 10.4836 207.366 10.9554 207.029 11.1913C207.197 11.1913 207.366 11.1913 207.366 11.6631C207.366 10.9554 207.865 10.7195 207.197 10.4836Z" fill="#69CE96"/>
<path d="M180.69 5.27743C180.353 5.03313 179.853 5.27743 179.353 5.27743C179.522 5.27743 179.522 5.51332 179.69 5.51332C180.022 4.79725 180.521 5.7492 180.69 5.27743Z" fill="#69CE96"/>
<path d="M173.521 9.06C173.184 9.06 172.853 9.06 172.522 9.06C172.853 9.29588 174.021 9.76764 173.521 9.06Z" fill="#69CE96"/>
<path d="M130.503 6.22102C131.171 5.74926 129.841 5.74926 129.672 5.98514C129.841 6.22102 130.172 6.22102 130.503 6.22102Z" fill="#69CE96"/>
<path d="M144.01 9.29584C144.846 9.05996 143.841 8.82407 143.342 9.05996C143.51 9.29584 143.841 9.53172 144.01 9.29584Z" fill="#69CE96"/>
<path d="M142.511 6.92864C142.343 6.92864 142.343 6.92864 142.174 7.16452C142.511 6.92864 142.842 7.40041 143.18 7.16452C142.343 6.92864 143.342 6.69276 142.674 6.45688C143.011 6.69276 142.842 6.69276 142.511 6.92864Z" fill="#69CE96"/>
<path d="M262.379 12.3791C262.217 12.3791 261.88 12.3791 261.717 12.3791C261.88 13.0868 263.216 12.3791 262.379 12.3791Z" fill="#69CE96"/>
<path d="M151.516 9.06C151.179 9.29588 152.178 9.53176 152.346 9.29588C152.178 9.06 151.847 9.06 151.516 9.06Z" fill="#69CE96"/>
<path d="M201.527 9.76759C201.028 9.76759 200.528 9.53171 200.029 9.53171C200.528 9.76759 201.196 9.76759 201.527 9.76759Z" fill="#69CE96"/>
<path d="M190.862 8.82407C191.193 9.05995 191.524 9.05995 191.861 8.82407C191.524 8.58819 191.193 8.58819 190.862 8.82407Z" fill="#69CE96"/>
<path d="M242.21 10.4836C241.542 11.1913 242.541 10.7195 243.04 10.7195C242.709 10.2478 242.378 10.7195 242.21 10.4836Z" fill="#69CE96"/>
<path d="M185.86 5.03306C185.523 5.03306 185.192 4.79718 184.855 5.03306C185.192 5.27736 185.354 5.51325 185.86 5.03306Z" fill="#69CE96"/>
<path d="M195.358 5.74921C195.027 6.22098 196.026 5.9851 196.194 5.74921C196.026 5.51333 195.695 5.74921 195.358 5.74921Z" fill="#69CE96"/>
<path d="M204.531 5.7492C205.03 5.7492 204.699 5.27744 204.362 5.27744C203.694 5.27744 204.194 5.51332 204.531 5.7492Z" fill="#69CE96"/>
<path d="M277.884 7.16449C278.39 7.40037 278.721 7.16449 279.22 7.16449C278.721 6.92861 278.39 6.92861 277.884 7.16449Z" fill="#69CE96"/>
<path d="M194.527 9.2958C194.696 9.2958 195.195 9.2958 195.195 9.05992C195.027 8.35228 194.527 8.82404 194.527 9.2958Z" fill="#69CE96"/>
<path d="M222.202 7.64468C222.702 6.92862 222.371 7.1645 221.703 7.1645C222.034 7.40038 222.034 7.40038 221.871 7.88057C222.034 7.88057 222.371 8.11645 222.202 7.64468Z" fill="#69CE96"/>
<path d="M234.542 8.11641C234.542 8.58817 235.041 8.35229 235.204 8.35229C234.704 8.11641 234.704 8.11641 235.204 7.88052C234.873 7.88052 234.542 7.88052 234.542 8.11641Z" fill="#69CE96"/>
<path d="M203.194 10.0119C202.695 9.76761 203.363 10.2478 203.032 10.4837C202.863 10.9554 203.363 10.2478 203.363 10.9554C203.531 10.4837 203.531 10.2478 203.194 10.0119Z" fill="#69CE96"/>
<path d="M76.1578 5.98509C75.6522 5.98509 74.9901 5.74921 74.6531 6.22097C75.1527 5.98509 75.8208 6.22097 76.1578 5.98509Z" fill="#69CE96"/>
<path d="M171.854 9.29582C171.854 8.82406 171.354 8.82406 171.354 9.05994C171.354 9.5317 171.854 9.76758 171.854 9.29582Z" fill="#69CE96"/>
<path d="M245.544 10.7195C244.876 10.9554 245.544 12.1348 245.544 10.7195C245.544 10.9554 245.713 10.9554 245.544 10.7195Z" fill="#69CE96"/>
<path d="M296.392 10.7195C296.061 10.7195 295.893 10.7195 295.562 10.7195C295.724 10.9554 296.724 11.4272 296.392 10.7195Z" fill="#69CE96"/>
<path d="M167.183 10.9554C167.02 10.7195 166.184 10.9554 166.683 11.1913C166.852 11.4272 167.682 10.9554 167.183 10.9554Z" fill="#69CE96"/>
<path d="M219.867 7.64466C219.699 7.64466 219.536 7.64466 219.368 7.64466C219.699 7.88054 220.036 7.88054 220.367 7.88054C220.204 7.40035 220.036 7.40035 219.867 7.64466Z" fill="#69CE96"/>
<path d="M132.008 5.27744C132.339 5.51332 132.676 5.51332 133.007 5.27744C132.676 5.03313 132.339 5.03313 132.008 5.27744Z" fill="#69CE96"/>
<path d="M85.8244 6.69273C85.8244 7.40037 86.6611 6.69273 86.8236 6.69273C86.6611 6.69273 86.1555 6.45685 85.8244 6.69273Z" fill="#69CE96"/>
<path d="M262.548 4.08955C262.885 3.85367 263.216 3.61779 263.547 3.61779C263.047 3.38191 262.885 3.38191 262.548 4.08955Z" fill="#69CE96"/>
<path d="M174.352 10.0119C174.021 9.76757 173.689 9.76757 173.352 10.0119C173.521 10.0119 174.021 10.0119 174.352 10.0119Z" fill="#69CE96"/>
<path d="M214.197 9.76752C214.534 9.76752 214.697 9.05988 214.197 9.29576C214.035 9.29576 213.535 9.29576 213.866 9.53164C214.035 9.29576 214.197 9.29576 214.197 9.76752Z" fill="#69CE96"/>
<path d="M203.863 6.9286C204.194 6.9286 204.699 7.16448 204.862 6.69272C204.531 6.9286 204.031 6.45684 203.863 6.9286Z" fill="#69CE96"/>
<path d="M241.21 8.58816C241.373 8.11639 240.542 8.11639 240.374 8.11639C240.711 8.11639 240.873 8.35228 241.21 8.58816Z" fill="#69CE96"/>
<path d="M210.532 5.51328C210.363 5.51328 210.363 5.74916 210.363 5.74916C210.532 6.22093 210.7 6.22093 211.031 5.74916C210.7 5.74916 210.863 5.2774 210.532 5.51328Z" fill="#69CE96"/>
<path d="M155.849 9.06C155.681 9.06 155.35 9.06 155.181 9.06C155.35 9.29588 156.349 9.53176 155.849 9.06Z" fill="#69CE96"/>
<path d="M235.204 7.16452C234.704 6.69276 234.704 6.69276 234.704 7.16452C234.704 7.16452 234.873 7.4004 235.204 7.16452Z" fill="#69CE96"/>
<path d="M216.533 10.4837C216.87 10.4837 217.201 10.7195 217.7 10.4837C217.369 10.4837 216.701 10.0119 216.533 10.4837Z" fill="#69CE96"/>
<path d="M205.699 9.29583C205.861 8.82407 205.861 9.53171 206.03 9.29583C206.529 8.58818 205.199 8.82407 205.699 9.29583Z" fill="#69CE96"/>
<path d="M208.864 5.74912C209.195 5.985 209.701 5.74912 209.364 5.03305C209.195 5.27736 209.033 5.51324 208.864 5.74912Z" fill="#69CE96"/>
<path d="M73.1544 6.22092C72.9858 6.4568 72.6548 6.4568 72.4863 6.4568C72.8233 6.92856 73.8225 6.22092 73.1544 6.22092Z" fill="#69CE96"/>
<path d="M229.54 8.82408C229.702 8.82408 229.871 8.82408 230.208 8.5882C229.871 8.5882 228.871 8.5882 229.54 8.82408Z" fill="#69CE96"/>
<path d="M78.3249 6.6927C78.4874 7.16447 78.8244 6.6927 79.1555 6.6927C78.8244 6.6927 78.4874 6.22094 78.3249 6.6927Z" fill="#69CE96"/>
<path d="M249.547 10.7195C249.878 10.7195 250.209 10.9554 250.546 10.7195C250.209 10.4837 250.209 10.4837 249.547 10.7195Z" fill="#69CE96"/>
<path d="M221.703 7.64468C221.534 7.40038 221.203 7.64468 221.035 7.64468C221.203 7.88056 221.871 8.11645 221.703 7.64468Z" fill="#69CE96"/>
<path d="M263.047 7.40036C263.216 7.64467 263.547 7.40036 263.715 7.40036C263.384 6.9286 263.216 6.9286 263.047 7.40036Z" fill="#69CE96"/>
<path d="M231.37 8.11641C231.538 7.64464 230.707 8.11641 230.37 7.88052C230.707 8.11641 231.038 7.88052 231.37 8.11641Z" fill="#69CE96"/>
<path d="M246.874 8.35236C246.375 8.82412 247.38 9.06 247.711 8.82412C247.38 8.58824 247.043 8.82412 246.874 8.35236Z" fill="#69CE96"/>
<path d="M168.35 7.16452C168.182 7.16452 168.019 7.16452 167.682 7.16452C168.019 7.64471 168.688 7.64471 168.35 7.16452Z" fill="#69CE96"/>
<path d="M250.715 8.35233C251.046 8.35233 251.377 8.35233 251.714 8.35233C251.377 8.11645 251.046 8.35233 250.715 8.35233Z" fill="#69CE96"/>
<path d="M145.346 6.69272C144.846 6.69272 144.846 6.69272 144.678 7.16448C144.846 6.9286 145.009 7.16448 145.177 7.16448C145.009 6.9286 145.346 6.9286 145.346 6.69272Z" fill="#69CE96"/>
<path d="M185.023 9.53171C184.692 9.53171 184.524 9.53171 184.193 9.76759C184.524 9.53171 185.692 9.76759 185.023 9.53171Z" fill="#69CE96"/>
<path d="M185.192 6.45677C186.022 6.45677 184.855 5.98501 184.692 6.22089C184.692 6.22089 184.855 6.45677 185.192 6.45677Z" fill="#69CE96"/>
<path d="M105.501 5.51328C105.663 5.27739 106 5.74916 106.331 5.51328C105.832 5.27739 105.663 5.27739 105.501 5.51328Z" fill="#69CE96"/>
<path d="M155.849 10.4836C155.681 10.4836 155.681 10.9554 155.512 10.9554C155.681 11.4272 156.012 10.4836 155.849 10.4836Z" fill="#69CE96"/>
<path d="M275.218 6.45688C275.055 5.98512 274.887 5.74923 274.55 5.98512C274.718 5.98512 275.055 5.74923 274.718 6.221C274.887 6.45688 275.055 6.45688 275.218 6.45688Z" fill="#69CE96"/>
<path d="M129.173 7.64471C129.342 7.4004 129.342 7.4004 129.173 7.16452C129.173 7.88059 128.836 7.4004 128.505 7.64471C128.836 7.88059 129.005 7.88059 129.173 7.64471Z" fill="#69CE96"/>
<path d="M230.039 8.35229C229.87 8.11641 229.371 8.35229 229.539 7.88052C229.371 7.88052 229.371 8.35229 229.202 8.35229C229.539 8.35229 229.702 8.35229 230.039 8.35229Z" fill="#69CE96"/>
<path d="M179.69 9.53166C180.021 9.76754 180.19 9.76754 180.521 9.53166C180.352 9.29577 180.021 9.53166 179.69 9.53166Z" fill="#69CE96"/>
<path d="M93.1615 6.6927C93.6611 6.22094 92.662 6.6927 92.3249 6.6927C92.662 6.6927 92.8245 6.6927 93.1615 6.6927Z" fill="#69CE96"/>
<path d="M174.189 6.69273C174.021 5.98508 173.521 7.16449 174.352 7.16449C174.189 6.92861 174.021 6.92861 174.189 6.69273Z" fill="#69CE96"/>
<path d="M214.697 6.69273C214.366 6.69273 214.197 6.45685 214.035 6.69273C214.035 7.16449 214.697 7.16449 214.697 6.69273Z" fill="#69CE96"/>
<path d="M178.523 9.76761C178.523 9.53173 177.855 9.53173 177.686 9.76761C177.855 9.76761 178.186 9.76761 178.523 9.76761Z" fill="#69CE96"/>
<path d="M281.887 8.35233C281.556 8.11645 280.888 8.35233 280.719 8.35233C281.056 8.35233 281.556 8.35233 281.887 8.35233Z" fill="#69CE96"/>
<path d="M192.36 5.74916C191.692 5.98504 193.191 6.22092 192.86 5.51328C192.86 5.98504 192.529 5.74916 192.36 5.74916Z" fill="#69CE96"/>
<path d="M168.02 10.7195C167.851 11.4272 168.519 11.1913 168.519 10.7195C168.351 10.9554 168.182 10.9554 168.02 10.7195Z" fill="#69CE96"/>
<path d="M183.187 9.53171C183.524 9.76759 183.855 9.53171 184.193 9.53171C183.524 9.53171 183.524 9.53171 183.187 9.53171Z" fill="#69CE96"/>
<path d="M213.535 7.88052C213.367 7.64464 213.035 7.64464 212.698 7.88052C213.035 7.88052 213.367 7.88052 213.535 7.88052Z" fill="#69CE96"/>
<path d="M206.697 10.2478C206.198 10.7196 207.029 10.4837 207.197 10.4837C207.029 10.2478 206.866 10.0119 206.697 10.2478Z" fill="#69CE96"/>
<path d="M292.727 4.32545C292.39 4.32545 292.059 4.08957 291.722 4.32545C292.059 4.32545 292.39 4.32545 292.727 4.32545Z" fill="#69CE96"/>
<path d="M280.219 10.2478C280.388 10.0119 279.72 10.0119 279.389 10.0119C279.551 10.2478 279.888 10.2478 280.219 10.2478Z" fill="#69CE96"/>
<path d="M198.193 10.0119C198.53 10.2478 198.861 10.2478 199.192 10.0119C198.861 10.2478 198.53 10.0119 198.193 10.0119Z" fill="#69CE96"/>
<path d="M103.165 6.22093C102.828 5.98504 102.497 6.22093 102.166 6.22093C102.497 6.22093 102.828 6.22093 103.165 6.22093Z" fill="#69CE96"/>
<path d="M180.19 10.7196C180.352 10.012 179.853 10.7196 179.522 10.7196C179.853 10.9555 180.021 10.9555 180.19 10.7196Z" fill="#69CE96"/>
<path d="M147.844 6.22095C147.513 5.98507 146.845 5.98507 147.344 6.45683C147.513 5.98507 147.844 6.22095 147.844 6.22095Z" fill="#69CE96"/>
<path d="M150.179 9.29592C149.848 9.76769 150.51 9.29592 150.679 9.5318C150.51 8.82416 150.51 8.82416 150.179 9.29592Z" fill="#69CE96"/>
<path d="M131.34 8.5882C131.84 8.11643 131.171 8.11643 131.009 8.5882C131.009 8.5882 131.171 8.5882 131.34 8.5882Z" fill="#69CE96"/>
<path d="M72.655 8.82404C72.986 9.05993 73.3231 8.82404 73.6541 8.82404C73.4856 8.82404 73.1545 8.58816 72.655 8.82404Z" fill="#69CE96"/>
<path d="M189.856 8.82407C189.856 9.05995 190.524 9.05995 190.524 8.82407C190.356 8.58819 189.856 8.58819 189.856 8.82407Z" fill="#69CE96"/>
<path d="M233.536 10.2478C233.205 10.0119 233.374 10.2478 233.205 10.4837C233.536 10.4837 233.705 10.2478 233.873 10.2478C233.873 10.2478 233.705 10.4837 233.536 10.2478Z" fill="#69CE96"/>
<path d="M159.015 9.29584C158.516 9.29584 158.684 9.53173 159.184 9.53173C159.515 9.53173 159.346 9.05996 159.015 9.29584Z" fill="#69CE96"/>
<path d="M179.022 6.92858C179.022 7.16446 179.522 6.92858 179.522 6.92858C179.522 6.22094 179.022 6.45682 179.022 6.92858Z" fill="#69CE96"/>
<path d="M292.727 4.79719C292.558 5.03307 292.227 4.56131 292.227 4.79719C292.059 5.27738 293.058 5.03307 292.727 4.79719Z" fill="#69CE96"/>
<path d="M128.673 5.98511C128.505 5.98511 128.336 5.98511 128.174 5.98511C128.336 6.45687 129.173 6.45687 128.673 5.98511Z" fill="#69CE96"/>
<path d="M140.675 10.0119C140.344 10.0119 140.176 10.0119 140.007 10.2478C140.176 10.2478 140.344 10.2478 140.675 10.0119Z" fill="#69CE96"/>
<path d="M239.375 7.16452C239.044 7.4004 239.874 7.4004 240.043 7.16452C239.706 7.16452 239.543 7.16452 239.375 7.16452Z" fill="#69CE96"/>
<path d="M126.338 5.98511C126.669 6.22099 127.006 5.98511 127.169 5.98511C126.838 5.98511 126.669 5.98511 126.338 5.98511Z" fill="#69CE96"/>
<path d="M119.338 4.0896C119.338 3.61784 118.832 3.85372 118.832 4.0896C118.832 4.32548 119.169 4.32548 119.338 4.0896Z" fill="#69CE96"/>
<path d="M70.819 6.45683C70.4879 6.69271 70.1509 5.98506 70.1509 6.69271C70.3194 6.69271 71.3186 6.69271 70.819 6.45683Z" fill="#69CE96"/>
<path d="M189.526 8.58817C189.357 8.58817 189.026 8.35229 188.857 8.58817C189.026 8.82406 189.694 9.05994 189.526 8.58817Z" fill="#69CE96"/>
<path d="M74.4906 6.69269C74.4906 6.45681 73.985 6.45681 73.985 6.69269C74.1536 6.69269 74.4906 7.16445 74.4906 6.69269Z" fill="#69CE96"/>
<path d="M126.838 7.16453C127.006 7.64472 127.169 7.64472 127.169 7.16453C127.169 6.92865 127.006 7.16453 126.838 7.16453Z" fill="#69CE96"/>
<path d="M187.022 7.88053C186.69 7.88053 186.191 7.64465 185.86 7.88053C186.359 7.88053 186.69 8.11641 187.022 7.88053Z" fill="#69CE96"/>
<path d="M74.9902 6.45688C74.4907 6.69276 75.3213 6.92864 75.6523 6.69276C75.3213 6.45688 75.1527 6.69276 74.9902 6.45688Z" fill="#69CE96"/>
<path d="M210.2 5.51327C210.2 5.03308 209.863 5.27739 209.863 5.51327C209.863 5.98503 210.363 5.74915 210.2 5.51327Z" fill="#69CE96"/>
<path d="M223.701 8.11637C224.038 8.11637 224.201 8.11637 224.538 8.11637C224.201 7.88049 223.87 7.6446 223.701 8.11637Z" fill="#69CE96"/>
<path d="M218.031 6.69269C217.7 6.45681 217.369 6.45681 217.032 6.69269C217.532 6.92857 217.869 6.69269 218.031 6.69269Z" fill="#69CE96"/>
<path d="M86.3239 5.98505C86.3239 5.74917 85.9928 5.51329 85.9928 5.98505C85.9928 6.22093 86.3239 6.45681 86.3239 5.98505Z" fill="#69CE96"/>
<path d="M267.718 7.40036C267.886 7.40036 268.217 7.40036 268.548 7.40036C268.217 7.16448 268.217 7.16448 267.718 7.40036Z" fill="#69CE96"/>
<path d="M253.543 8.11639C253.044 8.11639 253.543 8.58816 253.712 8.58816C253.88 8.35228 253.88 8.11639 253.543 8.11639Z" fill="#69CE96"/>
<path d="M222.371 10.2478C222.203 10.0119 222.371 9.76761 222.203 9.76761C221.872 9.76761 221.872 10.2478 222.371 10.2478Z" fill="#69CE96"/>
<path d="M192.192 6.45687C191.861 6.22099 192.024 5.98511 191.861 5.98511C191.524 6.22099 191.861 6.45687 192.192 6.45687Z" fill="#69CE96"/>
<path d="M202.027 5.98511C202.195 6.69275 202.195 6.22099 202.526 5.98511C202.364 5.98511 202.195 5.98511 202.027 5.98511Z" fill="#69CE96"/>
<path d="M181.857 8.82404C181.689 8.58816 181.52 8.82404 181.358 8.82404C181.358 9.05993 181.857 9.05993 181.857 8.82404Z" fill="#69CE96"/>
<path d="M179.353 5.51328C178.854 5.51328 179.522 6.4568 179.522 5.74916C179.522 5.51328 179.522 5.51328 179.353 5.51328Z" fill="#69CE96"/>
<path d="M297.56 7.88053C297.229 7.88053 297.061 7.64465 296.724 7.88053C297.061 7.88053 297.392 8.11641 297.56 7.88053Z" fill="#69CE96"/>
<path d="M179.022 8.11643C179.353 8.11643 179.522 8.11643 179.69 8.11643C179.522 7.88054 179.353 7.88054 179.022 8.11643Z" fill="#69CE96"/>
<path d="M80.1546 6.69268C79.9921 7.16444 80.4917 6.69268 80.8228 6.92856C80.6542 6.69268 80.3232 6.45679 80.1546 6.69268Z" fill="#69CE96"/>
<path d="M161.682 6.92859C161.513 6.92859 161.513 7.16447 161.351 7.16447C161.682 7.64466 161.85 7.16447 161.682 6.92859Z" fill="#69CE96"/>
<path d="M195.027 5.74921C195.358 5.03314 195.027 5.03314 194.696 5.27744C194.858 5.27744 195.027 5.27744 195.027 5.74921Z" fill="#69CE96"/>
<path d="M121.667 7.88053C121.836 8.11641 122.167 8.35229 122.335 8.11641C122.167 8.11641 122.004 7.64465 121.667 7.88053Z" fill="#69CE96"/>
<path d="M112.501 6.92859C112.332 6.92859 112.332 6.92859 112.332 7.16447C112.332 7.64466 113 6.92859 112.501 6.92859Z" fill="#69CE96"/>
<path d="M279.888 7.88052C279.551 7.64464 279.389 7.64464 279.22 7.88052C279.389 8.11641 279.551 8.11641 279.888 7.88052Z" fill="#69CE96"/>
<path d="M154.513 7.64468C154.182 7.40038 153.845 7.64468 153.514 7.64468C153.845 7.88056 154.182 7.64468 154.513 7.64468Z" fill="#69CE96"/>
<path d="M189.525 5.51324C189.856 5.74912 189.856 5.03305 190.025 5.03305C189.856 5.03305 189.856 5.03305 189.525 5.51324Z" fill="#69CE96"/>
<path d="M281.724 7.88052C281.556 7.64464 281.219 7.64464 280.888 7.88052C281.219 7.88052 281.556 8.11641 281.724 7.88052Z" fill="#69CE96"/>
<path d="M176.356 9.2958C176.518 8.82404 176.187 8.82404 175.856 8.82404C176.187 9.05992 176.356 9.53168 176.356 9.2958Z" fill="#69CE96"/>
<path d="M195.857 8.11647C196.194 8.11647 196.363 8.35235 196.694 8.11647C196.525 8.11647 195.695 7.64471 195.857 8.11647Z" fill="#69CE96"/>
<path d="M170.854 9.29584C171.354 9.05996 170.854 8.82407 170.517 9.05996C170.686 9.29584 170.854 9.29584 170.854 9.29584Z" fill="#69CE96"/>
<path d="M283.891 6.92862C284.222 6.92862 284.391 7.1645 284.553 7.1645C284.222 6.69274 284.054 6.69274 283.891 6.92862Z" fill="#69CE96"/>
<path d="M277.054 6.92865C277.054 6.45688 276.723 7.16453 276.554 7.16453C276.723 7.16453 277.054 7.16453 277.054 6.92865Z" fill="#69CE96"/>
<path d="M269.554 5.98511C269.385 5.98511 269.217 6.22099 269.217 6.45687C269.217 6.69275 270.053 5.98511 269.554 5.98511Z" fill="#69CE96"/>
<path d="M186.359 6.45677C186.859 6.45677 186.359 5.98501 186.191 6.22089C186.191 6.69266 186.359 7.16442 186.359 6.45677Z" fill="#69CE96"/>
<path d="M242.041 6.9286C241.872 6.9286 241.71 6.69272 241.373 6.69272C241.71 7.16448 241.872 7.16448 242.041 6.9286Z" fill="#69CE96"/>
<path d="M246.543 10.4836C246.212 10.2477 246.375 10.9554 246.044 10.9554C246.212 11.1913 246.712 10.9554 246.543 10.4836Z" fill="#69CE96"/>
<path d="M236.871 8.1164C237.039 8.35228 237.208 8.1164 237.376 8.1164C237.208 8.1164 237.039 7.88052 236.871 8.1164Z" fill="#69CE96"/>
<path d="M125.838 8.11643C125.838 8.35231 126.338 8.58819 126.17 8.11643C126.17 7.88054 125.838 7.88054 125.838 8.11643Z" fill="#69CE96"/>
<path d="M276.385 3.61787C276.722 3.38199 276.722 3.85375 276.385 3.61787C276.054 3.38199 276.054 3.85375 276.385 3.61787Z" fill="#69CE96"/>
<path d="M208.533 6.92854C208.365 6.92854 207.865 6.69265 207.697 6.92854C208.034 7.16442 208.196 7.16442 208.533 6.92854Z" fill="#69CE96"/>
<path d="M250.715 9.06001C250.546 9.06001 250.209 8.82412 250.209 9.06001C250.209 9.53177 250.546 9.29589 250.715 9.06001Z" fill="#69CE96"/>
<path d="M200.029 8.82404C200.36 9.05992 200.029 9.2958 200.029 9.53168C200.197 9.2958 200.36 9.05992 200.528 8.82404C200.36 8.82404 200.36 8.82404 200.029 8.82404Z" fill="#69CE96"/>
<path d="M182.856 6.92853C183.187 6.92853 183.356 6.69265 183.525 6.92853C183.356 6.69265 183.025 6.45677 182.856 6.92853Z" fill="#69CE96"/>
<path d="M294.557 5.51326C294.894 5.74914 294.725 5.27738 294.894 5.27738C294.725 5.03307 294.226 5.03307 294.557 5.51326Z" fill="#69CE96"/>
<path d="M148.344 6.221C148.181 5.51335 148.181 6.45688 148.012 6.45688C148.181 6.69276 148.344 6.45688 148.344 6.221Z" fill="#69CE96"/>
<path d="M278.889 7.88052C278.552 7.64464 278.39 7.64464 278.053 7.88052C278.39 7.88052 278.552 7.88052 278.889 7.88052Z" fill="#69CE96"/>
<path d="M230.208 10.2478C230.208 10.012 229.702 10.012 229.702 10.2478C229.871 10.4837 230.039 10.2478 230.208 10.2478Z" fill="#69CE96"/>
<path d="M147.513 7.16446C147.513 6.6927 148.181 7.40034 147.513 7.16446C147.345 7.16446 147.513 7.40034 147.513 7.16446Z" fill="#69CE96"/>
<path d="M210.7 6.69269C210.863 6.69269 211.2 6.69269 211.368 6.69269C211.2 6.45681 210.863 6.45681 210.7 6.69269Z" fill="#69CE96"/>
<path d="M178.685 8.82415C178.523 8.58826 178.354 8.82415 178.186 9.06003C178.186 9.06003 178.685 9.29591 178.685 8.82415Z" fill="#69CE96"/>
<path d="M234.042 6.69276C233.873 6.69276 233.374 6.45688 233.536 6.92864C233.536 6.69276 234.373 7.16452 234.042 6.69276Z" fill="#69CE96"/>
<path d="M220.204 7.16447C220.367 7.16447 220.704 7.64465 220.866 7.16447C220.704 7.40035 220.367 6.92859 220.204 7.16447Z" fill="#69CE96"/>
<path d="M114.667 7.88052C114.499 8.11641 114.836 8.11641 114.836 7.88052C114.836 7.64464 114.499 7.64464 114.667 7.88052Z" fill="#69CE96"/>
<path d="M103.833 5.74924C104.164 5.51335 103.496 5.27747 103.496 5.51335C103.496 5.98512 103.833 5.51335 103.833 5.74924Z" fill="#69CE96"/>
<path d="M259.213 8.35231C259.045 8.11643 258.714 8.35231 258.714 8.5882C259.045 8.5882 259.213 8.5882 259.213 8.35231Z" fill="#69CE96"/>
<path d="M215.202 9.29582C215.034 9.05993 214.865 9.29582 214.697 9.29582C214.865 9.5317 215.202 9.76758 215.202 9.29582Z" fill="#69CE96"/>
<path d="M140.675 9.05992C141.175 8.82404 140.344 8.82404 140.176 8.82404C140.344 9.2958 140.507 9.05992 140.675 9.05992Z" fill="#69CE96"/>
<path d="M243.877 9.06C243.708 9.06 243.377 9.06 243.04 9.06C243.54 9.29588 243.708 9.06 243.877 9.06Z" fill="#69CE96"/>
<path d="M174.851 10.2478C175.188 10.2478 175.357 10.4837 175.688 10.2478C175.351 10.4837 175.02 10.0119 174.851 10.2478Z" fill="#69CE96"/>
<path d="M262.548 6.92859C262.048 6.92859 262.379 7.16447 262.548 7.40035C262.716 7.40035 262.716 7.16447 262.548 6.92859Z" fill="#69CE96"/>
<path d="M203.363 5.7492C203.531 5.7492 203.531 5.27744 203.363 5.27744C203.194 5.27744 203.194 5.7492 203.363 5.7492Z" fill="#69CE96"/>
<path d="M170.686 6.69269C171.186 6.45681 170.355 6.45681 170.186 6.69269C170.355 6.69269 170.518 6.69269 170.686 6.69269Z" fill="#69CE96"/>
<path d="M187.69 8.5882C187.19 8.82408 187.858 9.05996 188.027 8.5882C187.858 8.5882 187.69 8.5882 187.69 8.5882Z" fill="#69CE96"/>
<path d="M230.039 11.1913C229.702 10.9554 229.702 10.9554 229.539 11.1913C229.702 11.1913 229.702 11.1913 230.039 11.1913Z" fill="#69CE96"/>
<path d="M223.033 9.05992C222.702 9.05992 222.533 9.05992 222.202 8.82404C222.702 9.2958 222.871 9.2958 223.033 9.05992Z" fill="#69CE96"/>
<path d="M116.335 5.74921C116.004 5.74921 115.835 5.51333 115.667 5.74921C115.835 5.74921 115.835 5.74921 116.335 5.74921Z" fill="#69CE96"/>
<path d="M73.9851 5.98505C73.8226 5.74917 73.4855 5.74917 73.323 5.98505C73.6541 5.98505 73.8226 5.98505 73.9851 5.98505Z" fill="#69CE96"/>
<path d="M125.339 6.45686C125.501 6.69274 125.838 6.69274 126.169 6.45686C125.838 6.22097 125.501 6.45686 125.339 6.45686Z" fill="#69CE96"/>
<path d="M168.85 8.35236C168.519 8.35236 168.351 8.35236 168.182 8.35236C168.351 8.58824 168.519 8.58824 168.85 8.35236Z" fill="#69CE96"/>
<path d="M215.533 11.4272C215.365 11.6631 215.202 11.1913 215.202 11.4272C215.034 11.899 216.033 11.1913 215.533 11.4272Z" fill="#69CE96"/>
<path d="M143.011 9.76762C142.842 9.53174 142.674 9.76762 142.511 9.76762C142.674 9.76762 142.842 10.0119 143.011 9.76762Z" fill="#69CE96"/>
<path d="M124.839 4.79717C124.671 4.56129 124.502 5.03305 124.671 5.27736C124.671 5.03305 125.002 5.03305 124.839 4.79717Z" fill="#69CE96"/>
<path d="M75.8209 7.16452C75.4899 7.4004 76.158 7.4004 76.3205 7.16452C76.158 7.16452 75.9894 7.16452 75.8209 7.16452Z" fill="#69CE96"/>
<path d="M170.186 7.16448C170.355 7.40036 170.355 7.16448 170.518 7.16448C170.186 7.16448 170.186 7.16448 170.186 6.69272C170.186 6.9286 170.018 6.9286 170.186 7.16448Z" fill="#69CE96"/>
<path d="M147.014 10.4837C146.845 10.2478 146.677 10.2478 146.345 10.4837C146.677 10.4837 146.845 10.4837 147.014 10.4837Z" fill="#69CE96"/>
<path d="M231.706 8.35236C232.037 8.11648 231.538 8.11648 231.369 8.35236C231.369 8.58824 231.538 8.35236 231.706 8.35236Z" fill="#69CE96"/>
<path d="M202.695 7.16447C202.863 7.40035 203.032 7.16447 203.032 6.92859C202.863 6.92859 202.526 6.92859 202.695 7.16447Z" fill="#69CE96"/>
<path d="M137.672 6.45686C137.672 6.22097 137.341 6.45686 137.341 6.45686C137.341 6.92862 137.672 6.69274 137.672 6.45686Z" fill="#69CE96"/>
<path d="M257.046 10.7195C256.715 10.9554 257.046 11.1913 257.377 10.9554C257.046 10.9554 257.215 10.7195 257.046 10.7195Z" fill="#69CE96"/>
<path d="M214.534 7.88057C214.697 7.88057 215.034 8.11645 215.034 7.64468C214.866 7.88057 214.697 7.64468 214.534 7.88057Z" fill="#69CE96"/>
<path d="M140.007 8.35236C139.845 8.58824 140.344 8.82412 140.507 8.35236C140.344 8.35236 140.176 8.35236 140.007 8.35236Z" fill="#69CE96"/>
<path d="M248.541 8.11639C248.71 8.35228 249.047 8.11639 249.378 8.11639C249.047 8.11639 248.878 8.11639 248.541 8.11639Z" fill="#69CE96"/>
<path d="M197.693 6.4568C197.862 6.22092 198.03 6.69268 198.193 6.22092C198.03 6.22092 197.862 6.22092 197.693 6.4568Z" fill="#69CE96"/>
<path d="M146.676 9.2959C146.676 9.53178 146.676 9.53178 146.676 9.2959C146.676 8.82414 147.344 9.53178 146.676 9.2959Z" fill="#69CE96"/>
<path d="M146.008 9.29588C146.008 9.76764 146.345 9.29588 146.345 9.06C146.177 9.06 146.177 9.06 146.008 9.29588Z" fill="#69CE96"/>
<path d="M115.504 9.53171C115.336 9.76759 115.336 10.0119 115.667 10.0119C115.504 9.76759 115.504 9.76759 115.504 9.53171Z" fill="#69CE96"/>
<path d="M115.835 9.76761H115.667C115.667 10.0119 115.667 10.0119 115.835 9.76761Z" fill="#69CE96"/>
<path d="M227.704 6.69276C228.035 6.92864 228.035 6.69276 227.872 6.45688L227.704 6.69276Z" fill="#69CE96"/>
<path d="M218.368 10.4836C218.368 10.0119 218.031 10.2478 218.031 10.4836C218.2 10.4836 218.368 10.4836 218.368 10.4836Z" fill="#69CE96"/>
<path d="M89.9955 7.16452C89.827 7.4004 89.9955 7.88059 90.1581 7.64471C90.1581 7.64471 89.9955 7.4004 89.9955 7.16452Z" fill="#69CE96"/>
<path d="M86.3241 7.64471C86.1556 7.88059 86.6612 7.88059 86.6612 7.88059C86.6612 7.64471 86.4926 7.40041 86.3241 7.64471Z" fill="#69CE96"/>
<path d="M91.1573 8.35233C90.9948 8.35233 90.6577 8.11645 90.6577 8.35233C90.6577 8.58822 90.9948 8.35233 91.1573 8.35233Z" fill="#69CE96"/>
<path d="M90.8261 6.69269C91.1572 6.69269 91.3257 6.69269 91.6627 6.69269C91.3257 6.45681 90.9946 6.45681 90.8261 6.69269Z" fill="#69CE96"/>
<path d="M262.379 8.5882C262.379 8.82408 262.716 8.82408 262.716 8.5882C262.716 8.35231 262.379 8.35231 262.379 8.5882Z" fill="#69CE96"/>
<path d="M259.213 8.82407C259.382 8.82407 259.55 8.82407 259.713 8.82407C259.55 8.58819 258.882 8.58819 259.213 8.82407Z" fill="#69CE96"/>
<path d="M188.857 5.98505C189.026 5.98505 189.194 5.98505 189.357 5.98505C189.194 5.51329 189.026 5.74917 188.857 5.98505Z" fill="#69CE96"/>
<path d="M191.861 10.0119C191.692 10.0119 191.692 10.0119 191.524 10.2478C191.692 10.2478 192.023 10.4836 191.861 10.0119Z" fill="#69CE96"/>
<path d="M276.217 10.7195C276.386 10.7195 276.554 10.7195 276.723 10.7195C276.554 10.4837 276.386 10.4837 276.217 10.7195Z" fill="#69CE96"/>
<path d="M105.663 6.22092C105.832 6.4568 106 6.22092 106.163 6.22092C106 5.98504 106 5.98504 105.663 6.22092Z" fill="#69CE96"/>
<path d="M282.723 10.4836C282.886 10.7195 283.054 10.4836 283.223 10.7195C283.223 10.4836 283.054 10.4836 282.723 10.4836Z" fill="#69CE96"/>
<path d="M159.015 5.98509C159.515 5.74921 159.015 5.74921 158.684 5.74921C158.684 5.98509 158.847 5.98509 159.015 5.98509Z" fill="#69CE96"/>
<path d="M227.373 9.29584C226.873 9.29584 227.535 9.7676 227.704 9.29584C227.535 9.29584 227.535 9.29584 227.373 9.29584Z" fill="#69CE96"/>
<path d="M133.338 5.51324C133.507 5.51324 133.338 5.03305 133.176 5.03305C133.007 5.27736 133.176 5.51324 133.338 5.51324Z" fill="#69CE96"/>
<path d="M272.052 8.35236C271.883 8.35236 271.721 8.35236 271.552 8.58824C271.883 8.58824 271.883 8.58824 272.052 8.35236Z" fill="#69CE96"/>
<path d="M169.019 6.9286C169.35 6.69272 168.85 6.69272 168.688 6.69272C168.688 6.9286 168.85 6.69272 169.019 6.9286Z" fill="#69CE96"/>
<path d="M199.361 10.0119C199.361 10.2478 199.698 10.2478 199.86 10.2478C199.698 10.0119 199.529 10.0119 199.361 10.0119Z" fill="#69CE96"/>
<path d="M213.035 6.92859C213.035 7.16447 212.698 7.16447 212.698 7.40035C213.035 7.16447 213.035 7.16447 213.035 6.92859Z" fill="#69CE96"/>
<path d="M264.552 3.38196C264.215 3.38196 264.046 3.38196 263.884 3.61784C264.046 3.38196 264.215 3.85372 264.552 3.38196Z" fill="#69CE96"/>
<path d="M124.34 6.45686C124.502 6.45686 124.839 6.45686 125.002 6.45686C124.671 6.45686 124.502 6.22097 124.34 6.45686Z" fill="#69CE96"/>
<path d="M218.031 9.76759C218.031 9.53171 217.869 9.76759 217.869 9.53171C217.7 9.05995 217.7 10.0119 218.031 9.76759Z" fill="#69CE96"/>
<path d="M277.385 8.35236C277.222 8.11648 276.885 8.11648 276.723 8.35236C276.885 8.35236 277.222 8.35236 277.385 8.35236Z" fill="#69CE96"/>
<path d="M202.526 6.22092C202.364 6.69268 202.695 6.4568 202.863 6.22092C202.695 6.22092 202.526 6.22092 202.526 6.22092Z" fill="#69CE96"/>
<path d="M81.3222 7.40036C81.4908 7.40036 81.6593 7.40036 81.9903 7.40036C81.6593 7.16448 81.4908 7.16448 81.3222 7.40036Z" fill="#69CE96"/>
<path d="M140.176 8.82415C140.007 8.58826 139.676 8.82415 139.845 9.06003C140.007 9.06003 140.007 8.82415 140.176 8.82415Z" fill="#69CE96"/>
<path d="M209.701 6.92859C209.863 7.16447 210.032 7.16447 210.2 6.92859C210.032 7.16447 209.863 6.92859 209.701 6.92859Z" fill="#69CE96"/>
<path d="M177.355 6.45686C177.187 6.69274 177.686 6.69274 177.686 6.45686C177.686 6.45686 177.524 6.22097 177.355 6.45686Z" fill="#69CE96"/>
<path d="M277.884 10.4836C277.722 10.7195 277.384 10.4836 277.053 10.7195C277.222 10.4836 277.722 10.7195 277.884 10.4836Z" fill="#69CE96"/>
<path d="M152.015 7.40035C152.178 7.40035 152.178 7.16447 152.015 6.92859C152.015 6.92859 151.847 7.40035 152.015 7.40035Z" fill="#69CE96"/>
<path d="M262.048 7.16452C262.048 7.16452 261.88 7.16452 261.88 7.4004C261.88 7.64471 262.379 7.16452 262.048 7.16452Z" fill="#69CE96"/>
<path d="M128.336 6.45688C128.505 6.45688 128.673 6.69276 128.836 6.45688C128.673 6.45688 128.505 6.45688 128.336 6.45688Z" fill="#69CE96"/>
<path d="M146.676 10.7196C146.676 10.9555 147.013 10.9555 147.176 10.7196C147.013 10.7196 146.845 10.4838 146.676 10.7196Z" fill="#69CE96"/>
<path d="M192.023 6.92856C192.192 6.92856 192.36 6.92856 192.529 6.92856C192.192 6.69268 192.192 6.69268 192.023 6.92856Z" fill="#69CE96"/>
<path d="M287.057 10.4836C287.057 10.2477 286.726 10.4836 286.726 10.7195C286.888 10.7195 287.057 10.7195 287.057 10.4836Z" fill="#69CE96"/>
<path d="M157.348 9.06C157.179 9.06 157.017 9.06 156.848 9.06C156.848 9.29588 157.179 9.29588 157.348 9.06Z" fill="#69CE96"/>
<path d="M287.725 6.92859C287.557 6.92859 287.388 6.92859 287.388 6.92859C287.557 7.16447 287.725 7.16447 287.725 6.92859Z" fill="#69CE96"/>
<path d="M181.021 9.53171C181.358 9.53171 181.52 9.76759 181.689 9.53171C181.52 9.53171 181.358 9.53171 181.021 9.53171Z" fill="#69CE96"/>
<path d="M248.878 8.82411C249.047 9.06 249.21 8.82411 249.378 8.82411C249.21 8.82411 248.878 8.35235 248.878 8.82411Z" fill="#69CE96"/>
<path d="M278.221 12.3792C278.221 12.6151 278.552 12.3792 278.721 12.3792C278.552 12.1349 278.053 11.899 278.221 12.3792Z" fill="#69CE96"/>
<path d="M172.853 6.92862C172.185 6.69274 172.522 7.40039 172.853 6.92862V6.92862Z" fill="#69CE96"/>
<path d="M68.1527 6.69274C68.9833 6.69274 67.9842 6.22097 67.6531 6.45685C67.6531 6.69274 67.9842 6.69274 68.1527 6.69274Z" fill="#69CE96"/>
</svg>
