<svg xmlns="http://www.w3.org/2000/svg" xmlns:xlink="http://www.w3.org/1999/xlink" width="700" zoomAndPan="magnify" viewBox="0 0 525 525.000007" height="700" preserveAspectRatio="xMidYMid meet" version="1.0"><defs><g/><clipPath id="627f2f05db"><path d="M 117.441406 52.464844 L 129.5625 52.464844 L 129.5625 64.738281 L 117.441406 64.738281 Z M 117.441406 52.464844 " clip-rule="nonzero"/></clipPath><clipPath id="8af5a11304"><path d="M 129.527344 56.65625 C 127.914062 63.203125 126.964844 63.679688 126.113281 64.058594 C 125.257812 64.53125 124.308594 64.816406 123.265625 64.625 C 121.746094 64.34375 119.28125 62.824219 118.332031 61.6875 C 117.667969 60.832031 117.382812 59.882812 117.480469 58.839844 C 117.574219 57.320312 118.429688 54.664062 119.753906 53.621094 C 121.082031 52.578125 123.929688 52.292969 125.449219 52.578125 C 126.492188 52.769531 127.914062 54.097656 127.914062 54.097656 " clip-rule="nonzero"/></clipPath><clipPath id="96fa06ccab"><path d="M 0.441406 0.464844 L 12.535156 0.464844 L 12.535156 12.738281 L 0.441406 12.738281 Z M 0.441406 0.464844 " clip-rule="nonzero"/></clipPath><clipPath id="3d1842ebed"><path d="M 12.527344 4.65625 C 10.914062 11.203125 9.964844 11.679688 9.113281 12.058594 C 8.257812 12.53125 7.308594 12.816406 6.265625 12.625 C 4.746094 12.34375 2.28125 10.824219 1.332031 9.6875 C 0.667969 8.832031 0.382812 7.882812 0.480469 6.839844 C 0.574219 5.320312 1.429688 2.664062 2.753906 1.621094 C 4.082031 0.578125 6.929688 0.292969 8.449219 0.578125 C 9.492188 0.769531 10.914062 2.097656 10.914062 2.097656 " clip-rule="nonzero"/></clipPath><clipPath id="7fe9bc0e99"><rect x="0" width="13" y="0" height="13"/></clipPath><clipPath id="892a5f749a"><path d="M 4 9.347656 L 90.957031 9.347656 L 90.957031 36 L 4 36 Z M 4 9.347656 " clip-rule="nonzero"/></clipPath><clipPath id="90a4200cd4"><path d="M 13.507812 10.175781 C 28.878906 16.4375 30.679688 17.003906 33.90625 17.386719 C 39.027344 18.050781 46.523438 17.289062 53.921875 17.953125 C 63.40625 18.714844 81.050781 20.136719 86.269531 22.316406 C 88.167969 23.171875 89.019531 24.023438 89.777344 25.164062 C 90.441406 26.398438 90.824219 28.292969 90.824219 29.527344 C 90.726562 30.382812 90.632812 30.949219 90.253906 31.710938 C 89.683594 32.753906 88.453125 34.367188 87.21875 35.03125 C 85.984375 35.695312 84.183594 35.976562 82.855469 35.789062 C 81.429688 35.597656 79.722656 34.554688 78.871094 33.796875 C 78.207031 33.226562 77.828125 32.753906 77.542969 31.992188 C 77.066406 30.855469 76.78125 28.671875 76.972656 27.535156 C 77.066406 26.679688 77.257812 26.113281 77.730469 25.449219 C 78.394531 24.40625 80.007812 22.980469 81.148438 22.414062 C 81.90625 22.035156 82.476562 21.9375 83.328125 21.9375 C 84.46875 21.9375 86.554688 22.507812 87.597656 23.078125 C 88.355469 23.457031 88.832031 23.835938 89.304688 24.59375 C 89.96875 25.542969 90.824219 27.34375 90.824219 28.769531 C 90.824219 30.191406 90.253906 31.898438 89.496094 33.039062 C 88.640625 34.175781 87.503906 35.125 85.796875 35.597656 C 82.949219 36.453125 77.636719 35.695312 73.273438 35.125 C 68.246094 34.460938 63.027344 32.375 57.335938 31.710938 C 51.171875 31.046875 44.625 32.375 37.699219 31.234375 C 29.445312 30 16.734375 25.921875 11.328125 23.550781 C 8.765625 22.414062 7.25 21.558594 6.015625 20.230469 C 4.972656 19.09375 4.214844 17.574219 4.023438 16.152344 C 3.929688 14.730469 4.496094 12.925781 5.257812 11.882812 C 6.109375 10.746094 7.722656 9.699219 9.050781 9.417969 C 10.472656 9.132812 13.507812 10.175781 13.507812 10.175781 " clip-rule="nonzero"/></clipPath><clipPath id="892a081841"><path d="M 0 0.347656 L 86.957031 0.347656 L 86.957031 27 L 0 27 Z M 0 0.347656 " clip-rule="nonzero"/></clipPath><clipPath id="f0306cd637"><path d="M 9.507812 1.175781 C 24.878906 7.4375 26.679688 8.003906 29.90625 8.386719 C 35.027344 9.050781 42.523438 8.289062 49.921875 8.953125 C 59.40625 9.714844 77.050781 11.136719 82.269531 13.316406 C 84.167969 14.171875 85.019531 15.023438 85.777344 16.164062 C 86.441406 17.398438 86.824219 19.292969 86.824219 20.527344 C 86.726562 21.382812 86.632812 21.949219 86.253906 22.710938 C 85.683594 23.753906 84.453125 25.367188 83.21875 26.03125 C 81.984375 26.695312 80.183594 26.976562 78.855469 26.789062 C 77.429688 26.597656 75.722656 25.554688 74.871094 24.796875 C 74.207031 24.226562 73.828125 23.753906 73.542969 22.992188 C 73.066406 21.855469 72.78125 19.671875 72.972656 18.535156 C 73.066406 17.679688 73.257812 17.113281 73.730469 16.449219 C 74.394531 15.40625 76.007812 13.980469 77.148438 13.414062 C 77.90625 13.035156 78.476562 12.9375 79.328125 12.9375 C 80.46875 12.9375 82.554688 13.507812 83.597656 14.078125 C 84.355469 14.457031 84.832031 14.835938 85.304688 15.59375 C 85.96875 16.542969 86.824219 18.34375 86.824219 19.769531 C 86.824219 21.191406 86.253906 22.898438 85.496094 24.039062 C 84.640625 25.175781 83.503906 26.125 81.796875 26.597656 C 78.949219 27.453125 73.636719 26.695312 69.273438 26.125 C 64.246094 25.460938 59.027344 23.375 53.335938 22.710938 C 47.171875 22.046875 40.625 23.375 33.699219 22.234375 C 25.445312 21 12.734375 16.921875 7.328125 14.550781 C 4.765625 13.414062 3.25 12.558594 2.015625 11.230469 C 0.972656 10.09375 0.214844 8.574219 0.0234375 7.152344 C -0.0703125 5.730469 0.496094 3.925781 1.257812 2.882812 C 2.109375 1.746094 3.722656 0.699219 5.050781 0.417969 C 6.472656 0.132812 9.507812 1.175781 9.507812 1.175781 " clip-rule="nonzero"/></clipPath><clipPath id="4adae41c73"><rect x="0" width="87" y="0" height="27"/></clipPath><clipPath id="6f8778cb6c"><path d="M 42.78125 17.441406 L 98.757812 17.441406 L 98.757812 34.785156 L 42.78125 34.785156 Z M 42.78125 17.441406 " clip-rule="nonzero"/></clipPath><clipPath id="f66d2bea29"><path d="M 49.9375 17.480469 C 83.992188 21.273438 90.917969 20.324219 94.144531 21.558594 C 95.851562 22.222656 96.800781 23.078125 97.558594 24.214844 C 98.316406 25.351562 98.695312 26.964844 98.601562 28.292969 C 98.601562 29.621094 98.03125 31.234375 96.988281 32.277344 C 95.753906 33.511719 93.003906 34.746094 91.203125 34.554688 C 89.304688 34.269531 86.933594 32.375 86.078125 30.949219 C 85.320312 29.71875 85.035156 28.105469 85.414062 26.679688 C 85.796875 25.070312 87.597656 22.507812 89.210938 21.75 C 90.917969 20.988281 93.953125 21.179688 95.472656 22.222656 C 97.082031 23.171875 98.601562 25.734375 98.695312 27.628906 C 98.695312 29.433594 97.273438 32.089844 95.945312 33.226562 C 94.902344 34.175781 93.761719 34.269531 91.867188 34.554688 C 88.355469 35.03125 81.8125 34.554688 75.550781 33.890625 C 67.105469 33.039062 49.558594 31.234375 45.476562 28.957031 C 44.246094 28.292969 43.960938 27.726562 43.484375 26.679688 C 43.011719 25.542969 42.632812 23.644531 43.011719 22.222656 C 43.296875 20.894531 44.433594 19.378906 45.574219 18.617188 C 46.710938 17.765625 49.9375 17.480469 49.9375 17.480469 " clip-rule="nonzero"/></clipPath><clipPath id="2de0346a03"><path d="M 0.78125 0.46875 L 56.757812 0.46875 L 56.757812 17.785156 L 0.78125 17.785156 Z M 0.78125 0.46875 " clip-rule="nonzero"/></clipPath><clipPath id="6cb5752a98"><path d="M 7.9375 0.480469 C 41.992188 4.273438 48.917969 3.324219 52.144531 4.558594 C 53.851562 5.222656 54.800781 6.078125 55.558594 7.214844 C 56.316406 8.351562 56.695312 9.964844 56.601562 11.292969 C 56.601562 12.621094 56.03125 14.234375 54.988281 15.277344 C 53.753906 16.511719 51.003906 17.746094 49.203125 17.554688 C 47.304688 17.269531 44.933594 15.375 44.078125 13.949219 C 43.320312 12.71875 43.035156 11.105469 43.414062 9.679688 C 43.796875 8.070312 45.597656 5.507812 47.210938 4.75 C 48.917969 3.988281 51.953125 4.179688 53.472656 5.222656 C 55.082031 6.171875 56.601562 8.734375 56.695312 10.628906 C 56.695312 12.433594 55.273438 15.089844 53.945312 16.226562 C 52.902344 17.175781 51.761719 17.269531 49.867188 17.554688 C 46.355469 18.03125 39.8125 17.554688 33.550781 16.890625 C 25.105469 16.039062 7.558594 14.234375 3.476562 11.957031 C 2.246094 11.292969 1.960938 10.726562 1.484375 9.679688 C 1.011719 8.542969 0.632812 6.644531 1.011719 5.222656 C 1.296875 3.894531 2.433594 2.378906 3.574219 1.617188 C 4.710938 0.765625 7.9375 0.480469 7.9375 0.480469 " clip-rule="nonzero"/></clipPath><clipPath id="fd325b1e98"><rect x="0" width="57" y="0" height="18"/></clipPath><clipPath id="dbaf1ae2ac"><path d="M 36.648438 15.480469 L 111.304688 15.480469 L 111.304688 43.238281 L 36.648438 43.238281 Z M 36.648438 15.480469 " clip-rule="nonzero"/></clipPath><clipPath id="56575432a2"><path d="M 45.859375 16.058594 C 71.660156 24.027344 76.117188 23.171875 79.722656 24.121094 C 82.476562 24.785156 83.707031 26.492188 86.742188 27.34375 C 91.675781 28.671875 103.15625 27.914062 106.855469 29.527344 C 108.65625 30.382812 109.511719 31.234375 110.269531 32.46875 C 111.027344 33.703125 111.3125 35.503906 111.21875 36.925781 C 111.027344 38.253906 110.269531 39.867188 109.226562 40.910156 C 108.277344 41.953125 106.476562 42.714844 105.242188 42.996094 C 104.386719 43.1875 103.820312 43.1875 102.964844 42.902344 C 101.828125 42.617188 99.929688 41.574219 99.074219 40.816406 C 98.410156 40.246094 98.128906 39.679688 97.84375 38.917969 C 97.464844 37.78125 97.082031 35.789062 97.367188 34.460938 C 97.746094 33.039062 98.695312 31.519531 99.738281 30.664062 C 100.878906 29.71875 102.777344 29.148438 103.914062 29.054688 C 104.765625 28.957031 105.335938 28.957031 106.191406 29.335938 C 107.328125 29.71875 109.035156 30.761719 109.890625 31.898438 C 110.648438 33.039062 111.21875 34.746094 111.21875 36.167969 C 111.21875 37.496094 110.648438 39.203125 109.699219 40.339844 C 108.847656 41.480469 107.707031 42.429688 106 42.808594 C 103.34375 43.472656 98.792969 42.523438 94.808594 41.859375 C 90.160156 41.003906 84.65625 38.539062 79.722656 37.78125 C 74.980469 37.023438 70.996094 38.253906 65.683594 37.117188 C 58.09375 35.503906 42.726562 29.90625 38.933594 26.585938 C 37.414062 25.257812 36.941406 24.027344 36.75 22.601562 C 36.5625 21.273438 36.941406 19.378906 37.699219 18.238281 C 38.457031 17.101562 40.070312 15.960938 41.398438 15.582031 C 42.726562 15.296875 45.859375 16.058594 45.859375 16.058594 " clip-rule="nonzero"/></clipPath><clipPath id="f00390b9ca"><path d="M 0.648438 0.480469 L 75.304688 0.480469 L 75.304688 28.238281 L 0.648438 28.238281 Z M 0.648438 0.480469 " clip-rule="nonzero"/></clipPath><clipPath id="42e1b81e53"><path d="M 9.859375 1.058594 C 35.660156 9.027344 40.117188 8.171875 43.722656 9.121094 C 46.476562 9.785156 47.707031 11.492188 50.742188 12.34375 C 55.675781 13.671875 67.15625 12.914062 70.855469 14.527344 C 72.65625 15.382812 73.511719 16.234375 74.269531 17.46875 C 75.027344 18.703125 75.3125 20.503906 75.21875 21.925781 C 75.027344 23.253906 74.269531 24.867188 73.226562 25.910156 C 72.277344 26.953125 70.476562 27.714844 69.242188 27.996094 C 68.386719 28.1875 67.820312 28.1875 66.964844 27.902344 C 65.828125 27.617188 63.929688 26.574219 63.074219 25.816406 C 62.410156 25.246094 62.128906 24.679688 61.84375 23.917969 C 61.464844 22.78125 61.082031 20.789062 61.367188 19.460938 C 61.746094 18.039062 62.695312 16.519531 63.738281 15.664062 C 64.878906 14.71875 66.777344 14.148438 67.914062 14.054688 C 68.765625 13.957031 69.335938 13.957031 70.191406 14.335938 C 71.328125 14.71875 73.035156 15.761719 73.890625 16.898438 C 74.648438 18.039062 75.21875 19.746094 75.21875 21.167969 C 75.21875 22.496094 74.648438 24.203125 73.699219 25.339844 C 72.847656 26.480469 71.707031 27.429688 70 27.808594 C 67.34375 28.472656 62.792969 27.523438 58.808594 26.859375 C 54.160156 26.003906 48.65625 23.539062 43.722656 22.78125 C 38.980469 22.023438 34.996094 23.253906 29.683594 22.117188 C 22.09375 20.503906 6.726562 14.90625 2.933594 11.585938 C 1.414062 10.257812 0.941406 9.027344 0.75 7.601562 C 0.5625 6.273438 0.941406 4.378906 1.699219 3.238281 C 2.457031 2.101562 4.070312 0.960938 5.398438 0.582031 C 6.726562 0.296875 9.859375 1.058594 9.859375 1.058594 " clip-rule="nonzero"/></clipPath><clipPath id="9e1d748785"><rect x="0" width="76" y="0" height="29"/></clipPath><clipPath id="cbb94fe634"><path d="M 46.875 20.511719 L 145.09375 20.511719 L 145.09375 40.472656 L 46.875 40.472656 Z M 46.875 20.511719 " clip-rule="nonzero"/></clipPath><clipPath id="a5f30cf3e3"><path d="M 54.492188 20.609375 C 91.867188 26.398438 109.132812 25.921875 116.71875 25.921875 C 120.230469 25.921875 122.03125 26.398438 124.402344 25.828125 C 126.777344 25.351562 128.484375 23.644531 131.042969 22.980469 C 134.082031 22.128906 141.667969 21.558594 141.667969 21.558594 C 141.667969 21.558594 135.027344 22.222656 135.027344 22.222656 C 135.027344 22.316406 138.632812 21.558594 140.152344 22.035156 C 141.667969 22.601562 143.28125 23.929688 144.136719 25.351562 C 144.894531 26.679688 145.273438 28.769531 144.894531 30.382812 C 144.609375 31.898438 143.09375 33.796875 142.144531 34.648438 C 141.667969 35.125 140.71875 35.597656 140.71875 35.503906 C 140.53125 35.3125 144.703125 30.664062 144.800781 30.761719 C 144.894531 30.855469 143.375 33.703125 142.238281 34.554688 C 141.101562 35.503906 139.390625 36.074219 137.875 36.074219 C 136.453125 36.074219 134.746094 35.503906 133.511719 34.648438 C 132.371094 33.796875 131.425781 31.992188 130.949219 30.855469 C 130.664062 30 130.570312 29.433594 130.664062 28.578125 C 130.855469 27.34375 131.425781 25.351562 132.371094 24.308594 C 133.320312 23.171875 134.839844 22.222656 136.261719 21.84375 C 137.683594 21.558594 139.582031 21.75 140.816406 22.316406 C 142.144531 22.980469 143.566406 24.214844 144.230469 25.449219 C 144.894531 26.777344 145.179688 28.578125 144.988281 30 C 144.800781 31.425781 143.945312 33.039062 142.902344 34.082031 C 141.765625 35.125 139.867188 35.789062 138.726562 36.074219 C 137.875 36.167969 137.117188 36.074219 136.355469 35.882812 C 135.597656 35.789062 134.933594 35.597656 134.175781 35.125 C 133.226562 34.367188 131.804688 32.65625 131.234375 31.613281 C 130.855469 30.855469 130.570312 30.285156 130.664062 29.335938 C 130.949219 27.535156 133.796875 23.265625 135.027344 22.222656 C 135.691406 21.84375 136.070312 21.84375 136.734375 21.75 C 137.683594 21.652344 139.011719 21.652344 140.152344 22.035156 C 141.574219 22.601562 143.28125 23.929688 144.136719 25.351562 C 144.894531 26.679688 145.273438 28.769531 144.894531 30.382812 C 144.609375 31.898438 143.09375 33.796875 142.144531 34.648438 C 141.667969 35.125 141.382812 35.503906 140.71875 35.503906 C 139.109375 35.503906 132.941406 30.761719 133.035156 30.570312 C 133.132812 30.382812 139.296875 32.375 139.296875 33.511719 C 139.296875 35.3125 128.671875 39.203125 124.402344 40.058594 C 121.464844 40.722656 120.230469 40.152344 116.71875 40.058594 C 109.035156 39.867188 91.582031 39.773438 80.292969 38.445312 C 70.238281 37.304688 56.386719 34.554688 51.929688 33.039062 C 50.507812 32.65625 49.9375 32.375 49.179688 31.804688 C 48.417969 31.140625 47.753906 30.382812 47.375 29.335938 C 46.902344 28.105469 46.710938 26.207031 47.1875 24.878906 C 47.660156 23.550781 48.796875 22.035156 50.03125 21.371094 C 51.265625 20.707031 54.492188 20.609375 54.492188 20.609375 " clip-rule="nonzero"/></clipPath><clipPath id="9cb45e0692"><path d="M 0.875 0.582031 L 99.09375 0.582031 L 99.09375 20.472656 L 0.875 20.472656 Z M 0.875 0.582031 " clip-rule="nonzero"/></clipPath><clipPath id="4271a94b6d"><path d="M 8.492188 0.609375 C 45.867188 6.398438 63.132812 5.921875 70.71875 5.921875 C 74.230469 5.921875 76.03125 6.398438 78.402344 5.828125 C 80.777344 5.351562 82.484375 3.644531 85.042969 2.980469 C 88.082031 2.128906 95.667969 1.558594 95.667969 1.558594 C 95.667969 1.558594 89.027344 2.222656 89.027344 2.222656 C 89.027344 2.316406 92.632812 1.558594 94.152344 2.035156 C 95.667969 2.601562 97.28125 3.929688 98.136719 5.351562 C 98.894531 6.679688 99.273438 8.769531 98.894531 10.382812 C 98.609375 11.898438 97.09375 13.796875 96.144531 14.648438 C 95.667969 15.125 94.71875 15.597656 94.71875 15.503906 C 94.53125 15.3125 98.703125 10.664062 98.800781 10.761719 C 98.894531 10.855469 97.375 13.703125 96.238281 14.554688 C 95.101562 15.503906 93.390625 16.074219 91.875 16.074219 C 90.453125 16.074219 88.746094 15.503906 87.511719 14.648438 C 86.371094 13.796875 85.425781 11.992188 84.949219 10.855469 C 84.664062 10 84.570312 9.433594 84.664062 8.578125 C 84.855469 7.34375 85.425781 5.351562 86.371094 4.308594 C 87.320312 3.171875 88.839844 2.222656 90.261719 1.84375 C 91.683594 1.558594 93.582031 1.75 94.816406 2.316406 C 96.144531 2.980469 97.566406 4.214844 98.230469 5.449219 C 98.894531 6.777344 99.179688 8.578125 98.988281 10 C 98.800781 11.425781 97.945312 13.039062 96.902344 14.082031 C 95.765625 15.125 93.867188 15.789062 92.726562 16.074219 C 91.875 16.167969 91.117188 16.074219 90.355469 15.882812 C 89.597656 15.789062 88.933594 15.597656 88.175781 15.125 C 87.226562 14.367188 85.804688 12.65625 85.234375 11.613281 C 84.855469 10.855469 84.570312 10.285156 84.664062 9.335938 C 84.949219 7.535156 87.796875 3.265625 89.027344 2.222656 C 89.691406 1.84375 90.070312 1.84375 90.734375 1.75 C 91.683594 1.652344 93.011719 1.652344 94.152344 2.035156 C 95.574219 2.601562 97.28125 3.929688 98.136719 5.351562 C 98.894531 6.679688 99.273438 8.769531 98.894531 10.382812 C 98.609375 11.898438 97.09375 13.796875 96.144531 14.648438 C 95.667969 15.125 95.382812 15.503906 94.71875 15.503906 C 93.109375 15.503906 86.941406 10.761719 87.035156 10.570312 C 87.132812 10.382812 93.296875 12.375 93.296875 13.511719 C 93.296875 15.3125 82.671875 19.203125 78.402344 20.058594 C 75.464844 20.722656 74.230469 20.152344 70.71875 20.058594 C 63.035156 19.867188 45.582031 19.773438 34.292969 18.445312 C 24.238281 17.304688 10.386719 14.554688 5.929688 13.039062 C 4.507812 12.65625 3.9375 12.375 3.179688 11.804688 C 2.417969 11.140625 1.753906 10.382812 1.375 9.335938 C 0.902344 8.105469 0.710938 6.207031 1.1875 4.878906 C 1.660156 3.550781 2.796875 2.035156 4.03125 1.371094 C 5.265625 0.707031 8.492188 0.609375 8.492188 0.609375 " clip-rule="nonzero"/></clipPath><clipPath id="830f3ca0b4"><rect x="0" width="100" y="0" height="21"/></clipPath><clipPath id="5f5726628a"><path d="M 18.792969 4.359375 L 135.128906 4.359375 L 135.128906 33.160156 L 18.792969 33.160156 Z M 18.792969 4.359375 " clip-rule="nonzero"/></clipPath><clipPath id="6081dc078a"><path d="M 128.671875 31.140625 C 103.34375 29.90625 102.585938 28.578125 99.171875 27.535156 C 92.625 25.636719 79.820312 23.644531 69.289062 22.222656 C 57.527344 20.609375 35.898438 22.699219 31.722656 18.714844 C 30.015625 17.101562 29.542969 13.496094 30.871094 12.261719 C 34.09375 9.226562 64.640625 16.722656 69.859375 20.136719 C 71.566406 21.371094 72.039062 22.601562 72.324219 23.929688 C 72.703125 25.351562 72.609375 27.15625 72.136719 28.484375 C 71.566406 29.90625 70.332031 31.234375 69.097656 31.992188 C 67.867188 32.753906 65.875 33.039062 64.640625 32.941406 C 63.785156 32.941406 63.121094 32.753906 62.363281 32.277344 C 61.320312 31.710938 59.800781 30.191406 59.136719 29.148438 C 58.664062 28.390625 58.472656 27.820312 58.378906 26.964844 C 58.285156 25.734375 58.664062 23.550781 59.136719 22.414062 C 59.519531 21.652344 59.898438 21.179688 60.5625 20.609375 C 61.511719 19.851562 63.3125 18.808594 64.734375 18.714844 C 66.160156 18.523438 68.054688 19.1875 69.195312 19.757812 C 69.953125 20.136719 70.425781 20.515625 70.902344 21.179688 C 71.660156 22.222656 72.515625 24.023438 72.609375 25.449219 C 72.703125 26.964844 71.945312 28.863281 71.375 29.90625 C 70.902344 30.664062 70.523438 31.140625 69.761719 31.519531 C 68.71875 32.183594 66.917969 32.753906 65.398438 33.039062 C 63.976562 33.226562 63.027344 33.132812 60.847656 32.941406 C 55.4375 32.375 39.121094 29.335938 32.480469 27.0625 C 28.6875 25.828125 26.125 24.972656 23.851562 22.980469 C 21.574219 21.085938 19.105469 18.144531 18.917969 15.394531 C 18.632812 12.453125 20.71875 7.804688 23.089844 6 C 25.273438 4.292969 28.214844 4.578125 32.199219 4.484375 C 40.070312 4.199219 55.914062 6.285156 66.824219 7.992188 C 76.59375 9.605469 87.976562 13.117188 94.425781 14.160156 C 97.84375 14.632812 99.835938 14.160156 102.300781 14.824219 C 104.578125 15.394531 106 17.101562 108.847656 17.859375 C 113.875 18.996094 126.113281 17.289062 130.191406 18.617188 C 132.089844 19.28125 133.132812 20.042969 133.890625 21.179688 C 134.746094 22.316406 135.21875 24.214844 135.027344 25.542969 C 134.839844 26.964844 133.984375 28.671875 132.941406 29.527344 C 131.898438 30.476562 128.671875 31.140625 128.671875 31.140625 " clip-rule="nonzero"/></clipPath><clipPath id="b2e4221253"><path d="M 0.792969 0.359375 L 117.128906 0.359375 L 117.128906 29.160156 L 0.792969 29.160156 Z M 0.792969 0.359375 " clip-rule="nonzero"/></clipPath><clipPath id="82fbe42e38"><path d="M 110.671875 27.140625 C 85.34375 25.90625 84.585938 24.578125 81.171875 23.535156 C 74.625 21.636719 61.820312 19.644531 51.289062 18.222656 C 39.527344 16.609375 17.898438 18.699219 13.722656 14.714844 C 12.015625 13.101562 11.542969 9.496094 12.871094 8.261719 C 16.09375 5.226562 46.640625 12.722656 51.859375 16.136719 C 53.566406 17.371094 54.039062 18.601562 54.324219 19.929688 C 54.703125 21.351562 54.609375 23.15625 54.136719 24.484375 C 53.566406 25.90625 52.332031 27.234375 51.097656 27.992188 C 49.867188 28.753906 47.875 29.039062 46.640625 28.941406 C 45.785156 28.941406 45.121094 28.753906 44.363281 28.277344 C 43.320312 27.710938 41.800781 26.191406 41.136719 25.148438 C 40.664062 24.390625 40.472656 23.820312 40.378906 22.964844 C 40.285156 21.734375 40.664062 19.550781 41.136719 18.414062 C 41.519531 17.652344 41.898438 17.179688 42.5625 16.609375 C 43.511719 15.851562 45.3125 14.808594 46.734375 14.714844 C 48.160156 14.523438 50.054688 15.1875 51.195312 15.757812 C 51.953125 16.136719 52.425781 16.515625 52.902344 17.179688 C 53.660156 18.222656 54.515625 20.023438 54.609375 21.449219 C 54.703125 22.964844 53.945312 24.863281 53.375 25.90625 C 52.902344 26.664062 52.523438 27.140625 51.761719 27.519531 C 50.71875 28.183594 48.917969 28.753906 47.398438 29.039062 C 45.976562 29.226562 45.027344 29.132812 42.847656 28.941406 C 37.4375 28.375 21.121094 25.335938 14.480469 23.0625 C 10.6875 21.828125 8.125 20.972656 5.851562 18.980469 C 3.574219 17.085938 1.105469 14.144531 0.917969 11.394531 C 0.632812 8.453125 2.71875 3.804688 5.089844 2 C 7.273438 0.292969 10.214844 0.578125 14.199219 0.484375 C 22.070312 0.199219 37.914062 2.285156 48.824219 3.992188 C 58.59375 5.605469 69.976562 9.117188 76.425781 10.160156 C 79.84375 10.632812 81.835938 10.160156 84.300781 10.824219 C 86.578125 11.394531 88 13.101562 90.847656 13.859375 C 95.875 14.996094 108.113281 13.289062 112.191406 14.617188 C 114.089844 15.28125 115.132812 16.042969 115.890625 17.179688 C 116.746094 18.316406 117.21875 20.214844 117.027344 21.542969 C 116.839844 22.964844 115.984375 24.671875 114.941406 25.527344 C 113.898438 26.476562 110.671875 27.140625 110.671875 27.140625 " clip-rule="nonzero"/></clipPath><clipPath id="c3dd76cbda"><rect x="0" width="118" y="0" height="30"/></clipPath><clipPath id="a915df48eb"><path d="M 84.179688 8.84375 L 125.851562 8.84375 L 125.851562 27.421875 L 84.179688 27.421875 Z M 84.179688 8.84375 " clip-rule="nonzero"/></clipPath><clipPath id="61c81edf32"><path d="M 120.230469 27.0625 C 112.167969 27.628906 109.035156 27.25 105.429688 26.492188 C 100.214844 25.449219 89.96875 23.265625 86.839844 20.894531 C 85.414062 19.851562 84.847656 18.617188 84.5625 17.386719 C 84.183594 16.058594 84.183594 14.347656 84.75 13.117188 C 85.605469 11.597656 87.789062 9.511719 89.589844 9.132812 C 91.390625 8.753906 94.238281 9.511719 95.566406 10.839844 C 96.894531 12.074219 97.84375 14.917969 97.558594 16.722656 C 97.179688 18.617188 95.375 20.988281 93.667969 21.75 C 92.054688 22.507812 89.019531 22.316406 87.503906 21.273438 C 85.890625 20.324219 84.371094 17.765625 84.277344 15.960938 C 84.183594 14.066406 85.699219 11.410156 86.933594 10.269531 C 88.070312 9.320312 89.304688 9.132812 91.011719 8.941406 C 93.574219 8.753906 97.464844 9.699219 100.878906 10.648438 C 104.863281 11.597656 109.984375 14.539062 113.589844 15.011719 C 116.152344 15.394531 118.617188 14.160156 120.324219 14.445312 C 121.558594 14.632812 122.316406 15.011719 123.171875 15.582031 C 123.929688 16.152344 124.6875 16.910156 125.164062 17.859375 C 125.636719 18.996094 125.921875 21.085938 125.636719 22.316406 C 125.449219 23.363281 124.972656 24.214844 124.214844 24.972656 C 123.265625 25.921875 120.230469 27.0625 120.230469 27.0625 " clip-rule="nonzero"/></clipPath><clipPath id="b40c71fdc3"><path d="M 0.179688 0.84375 L 41.851562 0.84375 L 41.851562 19.421875 L 0.179688 19.421875 Z M 0.179688 0.84375 " clip-rule="nonzero"/></clipPath><clipPath id="fd6914092b"><path d="M 36.230469 19.0625 C 28.167969 19.628906 25.035156 19.25 21.429688 18.492188 C 16.214844 17.449219 5.96875 15.265625 2.839844 12.894531 C 1.414062 11.851562 0.847656 10.617188 0.5625 9.386719 C 0.183594 8.058594 0.183594 6.347656 0.75 5.117188 C 1.605469 3.597656 3.789062 1.511719 5.589844 1.132812 C 7.390625 0.753906 10.238281 1.511719 11.566406 2.839844 C 12.894531 4.074219 13.84375 6.917969 13.558594 8.722656 C 13.179688 10.617188 11.375 12.988281 9.667969 13.75 C 8.054688 14.507812 5.019531 14.316406 3.503906 13.273438 C 1.890625 12.324219 0.371094 9.765625 0.277344 7.960938 C 0.183594 6.066406 1.699219 3.410156 2.933594 2.269531 C 4.070312 1.320312 5.304688 1.132812 7.011719 0.941406 C 9.574219 0.753906 13.464844 1.699219 16.878906 2.648438 C 20.863281 3.597656 25.984375 6.539062 29.589844 7.011719 C 32.152344 7.394531 34.617188 6.160156 36.324219 6.445312 C 37.558594 6.632812 38.316406 7.011719 39.171875 7.582031 C 39.929688 8.152344 40.6875 8.910156 41.164062 9.859375 C 41.636719 10.996094 41.921875 13.085938 41.636719 14.316406 C 41.449219 15.363281 40.972656 16.214844 40.214844 16.972656 C 39.265625 17.921875 36.230469 19.0625 36.230469 19.0625 " clip-rule="nonzero"/></clipPath><clipPath id="02cb04b033"><rect x="0" width="42" y="0" height="20"/></clipPath><clipPath id="95606c2235"><path d="M 16.414062 9.589844 L 28.535156 9.589844 L 28.535156 21.859375 L 16.414062 21.859375 Z M 16.414062 9.589844 " clip-rule="nonzero"/></clipPath><clipPath id="4e65410a5a"><path d="M 28.496094 13.78125 C 26.886719 20.324219 26.03125 20.894531 25.179688 21.273438 C 24.230469 21.652344 23.28125 21.9375 22.238281 21.75 C 20.8125 21.558594 18.253906 20.042969 17.304688 18.808594 C 16.640625 17.953125 16.355469 17.101562 16.449219 15.960938 C 16.546875 14.539062 17.492188 11.789062 18.820312 10.746094 C 20.148438 9.699219 22.996094 9.511719 24.417969 9.699219 C 25.460938 9.984375 26.980469 11.3125 26.980469 11.3125 " clip-rule="nonzero"/></clipPath><clipPath id="4c0c3dcd79"><path d="M 0.414062 0.589844 L 12.535156 0.589844 L 12.535156 12.859375 L 0.414062 12.859375 Z M 0.414062 0.589844 " clip-rule="nonzero"/></clipPath><clipPath id="637b02c9b9"><path d="M 12.496094 4.78125 C 10.886719 11.324219 10.03125 11.894531 9.179688 12.273438 C 8.230469 12.652344 7.28125 12.9375 6.238281 12.75 C 4.8125 12.558594 2.253906 11.042969 1.304688 9.808594 C 0.640625 8.953125 0.355469 8.101562 0.449219 6.960938 C 0.546875 5.539062 1.492188 2.789062 2.820312 1.746094 C 4.148438 0.699219 6.996094 0.511719 8.417969 0.699219 C 9.460938 0.984375 10.980469 2.3125 10.980469 2.3125 " clip-rule="nonzero"/></clipPath><clipPath id="3b2d602638"><rect x="0" width="13" y="0" height="13"/></clipPath><clipPath id="2cc9b56b9e"><path d="M 9.136719 5.140625 L 22.808594 5.140625 L 22.808594 17.789062 L 9.136719 17.789062 Z M 9.136719 5.140625 " clip-rule="nonzero"/></clipPath><clipPath id="b974ab4770"><path d="M 15.5 17.765625 C 9.527344 13.96875 9.050781 12.546875 9.242188 11.21875 C 9.527344 9.605469 10.757812 7.140625 12.277344 6.191406 C 13.699219 5.335938 16.546875 5.242188 18.0625 5.90625 C 19.675781 6.664062 21.289062 8.847656 21.574219 10.554688 C 21.859375 12.261719 21.003906 14.917969 19.769531 16.058594 C 18.539062 17.195312 15.785156 17.953125 14.171875 17.574219 C 12.464844 17.289062 10.378906 15.488281 9.714844 13.875 C 9.050781 12.261719 9.527344 9.511719 10.378906 8.089844 C 10.949219 6.949219 12.371094 6.097656 13.507812 5.621094 C 14.554688 5.242188 15.785156 5.054688 17.019531 5.242188 C 18.347656 5.527344 20.054688 6.191406 21.003906 7.140625 C 21.953125 8.183594 22.710938 9.890625 22.804688 11.3125 C 22.804688 12.640625 22.238281 14.445312 21.382812 15.488281 C 20.53125 16.625 17.492188 17.765625 17.492188 17.765625 " clip-rule="nonzero"/></clipPath><clipPath id="3b8e25927b"><path d="M 0.136719 0.140625 L 13.808594 0.140625 L 13.808594 12.789062 L 0.136719 12.789062 Z M 0.136719 0.140625 " clip-rule="nonzero"/></clipPath><clipPath id="5a29120d34"><path d="M 6.5 12.765625 C 0.527344 8.96875 0.0507812 7.546875 0.242188 6.21875 C 0.527344 4.605469 1.757812 2.140625 3.277344 1.191406 C 4.699219 0.335938 7.546875 0.242188 9.0625 0.90625 C 10.675781 1.664062 12.289062 3.847656 12.574219 5.554688 C 12.859375 7.261719 12.003906 9.917969 10.769531 11.058594 C 9.539062 12.195312 6.785156 12.953125 5.171875 12.574219 C 3.464844 12.289062 1.378906 10.488281 0.714844 8.875 C 0.0507812 7.261719 0.527344 4.511719 1.378906 3.089844 C 1.949219 1.949219 3.371094 1.097656 4.507812 0.621094 C 5.554688 0.242188 6.785156 0.0546875 8.019531 0.242188 C 9.347656 0.527344 11.054688 1.191406 12.003906 2.140625 C 12.953125 3.183594 13.710938 4.890625 13.804688 6.3125 C 13.804688 7.640625 13.238281 9.445312 12.382812 10.488281 C 11.53125 11.625 8.492188 12.765625 8.492188 12.765625 " clip-rule="nonzero"/></clipPath><clipPath id="b15d1759c8"><rect x="0" width="14" y="0" height="13"/></clipPath><clipPath id="ebefecdd3b"><path d="M 35.765625 16.625 L 105.699219 16.625 L 105.699219 37.59375 L 35.765625 37.59375 Z M 35.765625 16.625 " clip-rule="nonzero"/></clipPath><clipPath id="1168268233"><path d="M 42.917969 16.625 C 103.914062 26.113281 104.957031 27.726562 105.429688 29.335938 C 105.90625 30.664062 105.621094 32.277344 105.148438 33.511719 C 104.578125 34.746094 103.535156 35.976562 102.394531 36.640625 C 101.164062 37.304688 99.644531 37.6875 98.222656 37.402344 C 96.609375 37.023438 94.144531 35.3125 93.289062 33.890625 C 92.53125 32.65625 92.433594 31.046875 92.71875 29.71875 C 92.910156 28.390625 93.574219 26.871094 94.710938 26.015625 C 96.039062 25.070312 98.886719 24.121094 100.6875 24.59375 C 102.394531 24.972656 104.578125 27.15625 105.242188 28.671875 C 105.8125 29.90625 105.8125 31.613281 105.429688 32.847656 C 104.957031 34.082031 104.007812 35.503906 102.964844 36.261719 C 101.921875 37.023438 100.972656 37.402344 98.980469 37.496094 C 93.382812 37.875 77.066406 33.226562 66.824219 31.710938 C 57.429688 30.382812 44.148438 30.664062 39.691406 28.578125 C 37.792969 27.726562 37.035156 26.777344 36.371094 25.542969 C 35.800781 24.308594 35.613281 22.507812 35.992188 21.179688 C 36.277344 19.851562 37.414062 18.332031 38.554688 17.574219 C 39.691406 16.816406 42.917969 16.625 42.917969 16.625 " clip-rule="nonzero"/></clipPath><clipPath id="f8d6adaa49"><path d="M 0.765625 0.625 L 70.699219 0.625 L 70.699219 21.59375 L 0.765625 21.59375 Z M 0.765625 0.625 " clip-rule="nonzero"/></clipPath><clipPath id="33aeabeef5"><path d="M 7.917969 0.625 C 68.914062 10.113281 69.957031 11.726562 70.429688 13.335938 C 70.90625 14.664062 70.621094 16.277344 70.148438 17.511719 C 69.578125 18.746094 68.535156 19.976562 67.394531 20.640625 C 66.164062 21.304688 64.644531 21.6875 63.222656 21.402344 C 61.609375 21.023438 59.144531 19.3125 58.289062 17.890625 C 57.53125 16.65625 57.433594 15.046875 57.71875 13.71875 C 57.910156 12.390625 58.574219 10.871094 59.710938 10.015625 C 61.039062 9.070312 63.886719 8.121094 65.6875 8.59375 C 67.394531 8.972656 69.578125 11.15625 70.242188 12.671875 C 70.8125 13.90625 70.8125 15.613281 70.429688 16.847656 C 69.957031 18.082031 69.007812 19.503906 67.964844 20.261719 C 66.921875 21.023438 65.972656 21.402344 63.980469 21.496094 C 58.382812 21.875 42.066406 17.226562 31.824219 15.710938 C 22.429688 14.382812 9.148438 14.664062 4.691406 12.578125 C 2.792969 11.726562 2.035156 10.777344 1.371094 9.542969 C 0.800781 8.308594 0.613281 6.507812 0.992188 5.179688 C 1.277344 3.851562 2.414062 2.332031 3.554688 1.574219 C 4.691406 0.816406 7.917969 0.625 7.917969 0.625 " clip-rule="nonzero"/></clipPath><clipPath id="1f09cb40b9"><rect x="0" width="71" y="0" height="22"/></clipPath><clipPath id="5f5ce0db5d"><rect x="0" width="149" y="0" height="69"/></clipPath><clipPath id="ad0932e67d"><path d="M 1.046875 178.113281 L 191.691406 178.113281 L 191.691406 264 L 1.046875 264 Z M 1.046875 178.113281 " clip-rule="nonzero"/></clipPath><clipPath id="12b1c8bce2"><path d="M 404 0.0703125 L 487.457031 0.0703125 L 487.457031 93 L 404 93 Z M 404 0.0703125 " clip-rule="nonzero"/></clipPath><clipPath id="7e9d7fe398"><path d="M 423.144531 0.117188 L 488.289062 16.636719 L 469.070312 92.417969 L 403.929688 75.898438 Z M 423.144531 0.117188 " clip-rule="nonzero"/></clipPath><clipPath id="df5b9e2e28"><path d="M 5 2 L 54 2 L 54 82 L 5 82 Z M 5 2 " clip-rule="nonzero"/></clipPath><clipPath id="bd30b771dc"><path d="M 19.144531 0.117188 L 84.289062 16.636719 L 65.070312 92.417969 L -0.0703125 75.898438 Z M 19.144531 0.117188 " clip-rule="nonzero"/></clipPath><clipPath id="8c86df5b2e"><path d="M 83.933594 16.546875 L 18.789062 0.0273438 L -0.425781 75.808594 L 64.71875 92.328125 Z M 83.933594 16.546875 " clip-rule="nonzero"/></clipPath><clipPath id="1062f53a5a"><path d="M 7 29 L 75 29 L 75 68 L 7 68 Z M 7 29 " clip-rule="nonzero"/></clipPath><clipPath id="4e8fb400f1"><path d="M 19.144531 0.117188 L 84.289062 16.636719 L 65.070312 92.417969 L -0.0703125 75.898438 Z M 19.144531 0.117188 " clip-rule="nonzero"/></clipPath><clipPath id="09ab624d29"><path d="M 83.933594 16.546875 L 18.789062 0.0273438 L -0.425781 75.808594 L 64.71875 92.328125 Z M 83.933594 16.546875 " clip-rule="nonzero"/></clipPath><clipPath id="5c3c933ee2"><rect x="0" width="84" y="0" height="93"/></clipPath><clipPath id="cfca25cae9"><rect x="0" width="488" y="0" height="297"/></clipPath></defs><g transform="matrix(1, 0, 0, 1, 42, 304)"><g clip-path="url(#5f5ce0db5d)"><g clip-path="url(#627f2f05db)"><g clip-path="url(#8af5a11304)"><g transform="matrix(1, 0, 0, 1, 117, 52)"><g clip-path="url(#7fe9bc0e99)"><g clip-path="url(#96fa06ccab)"><g clip-path="url(#3d1842ebed)"><rect x="-350.1" width="907.2" fill="#00497d" y="-547.100003" height="907.200012" fill-opacity="1"/></g></g></g></g></g></g><g clip-path="url(#892a5f749a)"><g clip-path="url(#90a4200cd4)"><g transform="matrix(1, 0, 0, 1, 4, 9)"><g clip-path="url(#4adae41c73)"><g clip-path="url(#892a081841)"><g clip-path="url(#f0306cd637)"><rect x="-237.1" width="907.2" fill="#00497d" y="-504.100003" height="907.200012" fill-opacity="1"/></g></g></g></g></g></g><g clip-path="url(#6f8778cb6c)"><g clip-path="url(#f66d2bea29)"><g transform="matrix(1, 0, 0, 1, 42, 17)"><g clip-path="url(#fd325b1e98)"><g clip-path="url(#2de0346a03)"><g clip-path="url(#6cb5752a98)"><rect x="-275.1" width="907.2" fill="#00497d" y="-512.100003" height="907.200012" fill-opacity="1"/></g></g></g></g></g></g><g clip-path="url(#dbaf1ae2ac)"><g clip-path="url(#56575432a2)"><g transform="matrix(1, 0, 0, 1, 36, 15)"><g clip-path="url(#9e1d748785)"><g clip-path="url(#f00390b9ca)"><g clip-path="url(#42e1b81e53)"><rect x="-269.1" width="907.2" fill="#00497d" y="-510.100003" height="907.200012" fill-opacity="1"/></g></g></g></g></g></g><g clip-path="url(#cbb94fe634)"><g clip-path="url(#a5f30cf3e3)"><g transform="matrix(1, 0, 0, 1, 46, 20)"><g clip-path="url(#830f3ca0b4)"><g clip-path="url(#9cb45e0692)"><g clip-path="url(#4271a94b6d)"><rect x="-279.1" width="907.2" fill="#00497d" y="-515.100003" height="907.200012" fill-opacity="1"/></g></g></g></g></g></g><g clip-path="url(#5f5726628a)"><g clip-path="url(#6081dc078a)"><g transform="matrix(1, 0, 0, 1, 18, 4)"><g clip-path="url(#c3dd76cbda)"><g clip-path="url(#b2e4221253)"><g clip-path="url(#82fbe42e38)"><rect x="-251.1" width="907.2" fill="#00497d" y="-499.100003" height="907.200012" fill-opacity="1"/></g></g></g></g></g></g><g clip-path="url(#a915df48eb)"><g clip-path="url(#61c81edf32)"><g transform="matrix(1, 0, 0, 1, 84, 8)"><g clip-path="url(#02cb04b033)"><g clip-path="url(#b40c71fdc3)"><g clip-path="url(#fd6914092b)"><rect x="-317.1" width="907.2" fill="#00497d" y="-503.100003" height="907.200012" fill-opacity="1"/></g></g></g></g></g></g><g clip-path="url(#95606c2235)"><g clip-path="url(#4e65410a5a)"><g transform="matrix(1, 0, 0, 1, 16, 9)"><g clip-path="url(#3b2d602638)"><g clip-path="url(#4c0c3dcd79)"><g clip-path="url(#637b02c9b9)"><rect x="-249.1" width="907.2" fill="#00497d" y="-504.100003" height="907.200012" fill-opacity="1"/></g></g></g></g></g></g><g clip-path="url(#2cc9b56b9e)"><g clip-path="url(#b974ab4770)"><g transform="matrix(1, 0, 0, 1, 9, 5)"><g clip-path="url(#b15d1759c8)"><g clip-path="url(#3b8e25927b)"><g clip-path="url(#5a29120d34)"><rect x="-242.1" width="907.2" fill="#00497d" y="-500.100003" height="907.200012" fill-opacity="1"/></g></g></g></g></g></g><g clip-path="url(#ebefecdd3b)"><g clip-path="url(#1168268233)"><g transform="matrix(1, 0, 0, 1, 35, 16)"><g clip-path="url(#1f09cb40b9)"><g clip-path="url(#f8d6adaa49)"><g clip-path="url(#33aeabeef5)"><rect x="-268.1" width="907.2" fill="#00497d" y="-511.100003" height="907.200012" fill-opacity="1"/></g></g></g></g></g></g></g></g><g transform="matrix(1, 0, 0, 1, 18, 130)"><g clip-path="url(#cfca25cae9)"><g clip-path="url(#ad0932e67d)"><path fill="#00497d" d="M 185.066406 245.054688 C 184.644531 246.976562 183.957031 248.804688 182.441406 250.128906 C 181 251.390625 179.050781 252.078125 177.214844 252.5 C 172.542969 253.578125 167.746094 254.3125 163.003906 255 C 153.4375 256.394531 143.769531 257.160156 134.105469 257.363281 C 114.550781 257.777344 94.980469 255.800781 75.910156 251.464844 C 56.84375 247.128906 38.269531 240.558594 20.832031 231.703125 C 18.667969 230.601562 16.519531 229.46875 14.386719 228.300781 C 12.425781 227.226562 10.207031 226.300781 8.554688 224.761719 C 5.414062 221.839844 7.289062 216.394531 8.433594 212.933594 C 11.132812 204.769531 16.234375 197.375 22.722656 191.75 C 23.027344 191.484375 23.335938 191.230469 23.648438 190.976562 C 24.035156 192.222656 24.722656 193.390625 25.605469 194.417969 C 27.3125 196.394531 29.808594 197.808594 32.101562 198.996094 C 34.625 200.300781 77.089844 212.710938 93.796875 214.816406 C 105.019531 216.230469 116.347656 217.140625 127.652344 217.542969 C 138.78125 217.9375 150.261719 217.527344 160.914062 213.964844 C 163.5625 213.078125 166.179688 212.011719 168.660156 210.726562 C 170.742188 209.65625 172.707031 208.164062 173.640625 205.984375 C 174.539062 206.988281 175.394531 208.027344 176.183594 209.113281 C 178.667969 212.527344 180.800781 216.296875 182.3125 220.210938 C 183.800781 224.066406 184.914062 228.265625 185.355469 232.28125 C 185.808594 236.445312 185.960938 240.9375 185.066406 245.054688 Z M 29.453125 188.53125 C 29.46875 188.460938 29.484375 188.390625 29.507812 188.320312 C 29.527344 188.265625 29.578125 188.136719 29.605469 188.085938 C 29.652344 187.988281 29.683594 187.925781 29.703125 187.882812 C 29.832031 187.734375 29.976562 187.597656 30.113281 187.457031 C 30.960938 186.570312 32.671875 185.90625 34.234375 185.5 C 36.339844 184.953125 38.140625 184.929688 40.535156 184.792969 C 46.152344 184.472656 51.777344 184.285156 57.40625 184.222656 C 79.996094 183.980469 102.632812 185.8125 124.875 189.78125 C 136.042969 191.773438 147.113281 194.285156 158.046875 197.316406 C 161.40625 198.246094 166.917969 199.171875 168.667969 202.609375 C 168.871094 203.011719 168.992188 203.347656 168.78125 203.890625 C 168.476562 204.664062 167.730469 205.164062 167.050781 205.574219 C 164.976562 206.828125 162.671875 207.757812 160.394531 208.570312 C 150.675781 212.027344 140.269531 212.613281 130.042969 212.386719 C 119.554688 212.15625 109.050781 211.175781 98.605469 210.214844 C 68.90625 207.480469 41.699219 196.316406 38.175781 194.914062 C 36.867188 194.308594 35.566406 193.699219 34.273438 193.078125 C 32.703125 192.25 30.878906 191.269531 29.878906 189.875 C 29.605469 189.492188 29.507812 189.230469 29.4375 188.820312 C 29.523438 189.328125 29.546875 188.210938 29.453125 188.53125 Z M 190.445312 224.449219 C 188.160156 215.21875 183.40625 206.550781 176.8125 199.695312 C 175.105469 197.914062 167.410156 194.707031 167.003906 194.523438 C 164.523438 193.375 161.875 192.703125 159.25 191.964844 C 156.335938 191.144531 153.40625 190.363281 150.472656 189.613281 C 144.515625 188.097656 138.519531 186.734375 132.496094 185.519531 C 108.480469 180.679688 83.980469 178.203125 59.484375 178.214844 C 53.421875 178.21875 47.363281 178.375 41.3125 178.683594 C 36.621094 178.921875 25.203125 183.59375 24.433594 184.808594 C 16.703125 189.648438 10.320312 196.542969 6.152344 204.667969 C 4.003906 208.855469 2.132812 213.53125 1.453125 218.214844 C 1.054688 220.972656 1.167969 223.710938 2.394531 226.261719 C 3.546875 228.660156 5.644531 230.355469 7.855469 231.742188 C 16.777344 237.324219 26.632812 241.710938 36.351562 245.695312 C 45.925781 249.625 55.753906 252.925781 65.757812 255.566406 C 86.101562 260.933594 107.183594 263.703125 128.226562 263.742188 C 138.648438 263.765625 149.078125 263.121094 159.410156 261.753906 C 164.660156 261.058594 169.886719 260.21875 175.078125 259.183594 C 179.703125 258.261719 184.914062 256.914062 188.003906 253.074219 C 191.257812 249.027344 191.855469 243.539062 192.019531 238.519531 C 192.171875 233.804688 191.578125 229.023438 190.445312 224.449219 " fill-opacity="1" fill-rule="nonzero"/></g><path fill="#00497d" d="M 67.585938 222.925781 C 66.410156 225.644531 63.5625 225.769531 60.945312 225.1875 C 61.566406 223.9375 62.230469 222.710938 62.9375 221.507812 C 63.679688 221.644531 64.511719 221.398438 65.085938 220.585938 C 65.453125 220.070312 66.457031 220.257812 67.054688 220.640625 C 67.832031 221.140625 67.984375 222.003906 67.585938 222.925781 Z M 67.984375 216.226562 C 66.378906 215.714844 64.585938 215.851562 63.195312 216.679688 C 62.339844 216.320312 61.253906 216.449219 60.585938 217.4375 C 59.136719 219.582031 57.835938 221.808594 56.679688 224.109375 C 55.871094 224.320312 55.144531 225.027344 54.9375 225.789062 C 54.761719 226.414062 54.855469 226.980469 55.125 227.453125 C 53.578125 231.070312 52.386719 234.847656 51.570312 238.742188 C 50.984375 241.546875 55.300781 242.742188 55.875 239.925781 C 56.601562 236.363281 57.652344 232.867188 59.011719 229.496094 C 61.617188 230.226562 64.394531 230.429688 66.941406 229.398438 C 69.839844 228.226562 72.136719 225.519531 72.332031 222.332031 C 72.503906 219.480469 70.65625 217.074219 67.984375 216.226562 " fill-opacity="1" fill-rule="nonzero"/><path fill="#00497d" d="M 96.972656 222.425781 C 93.433594 222.6875 90.039062 222.617188 86.59375 221.671875 C 85.9375 221.492188 85.382812 221.597656 84.957031 221.871094 C 84.089844 221.402344 82.953125 221.496094 82.328125 222.628906 C 78.453125 229.652344 76.050781 237.1875 75.035156 245.136719 C 74.921875 246.03125 75.828125 247.238281 76.734375 247.367188 C 81.355469 248.046875 86.589844 248.242188 91.0625 246.648438 C 92.117188 246.273438 92.851562 245.332031 92.679688 244.175781 C 92.53125 243.183594 91.585938 242.066406 90.460938 242.214844 C 88.28125 242.503906 86.140625 242.960938 83.9375 243.078125 C 82.613281 243.144531 81.28125 243.136719 79.953125 243.058594 C 80.300781 240.824219 80.78125 238.601562 81.378906 236.410156 C 83.9375 237.03125 86.691406 237.832031 89.320312 237.882812 C 91.84375 237.9375 92.113281 234.429688 89.890625 233.660156 C 87.632812 232.875 85.03125 232.671875 82.617188 232.414062 C 83.410156 230.125 84.335938 227.882812 85.386719 225.714844 C 85.414062 225.726562 85.441406 225.738281 85.472656 225.75 C 89.324219 227.109375 93.539062 227.542969 97.546875 226.652344 C 99.878906 226.132812 99.414062 222.246094 96.972656 222.425781 " fill-opacity="1" fill-rule="nonzero"/><path fill="#00497d" d="M 128.535156 231.230469 C 125.199219 230.464844 121.824219 229.820312 118.4375 229.210938 C 117.773438 228.46875 116.519531 228.257812 115.621094 228.714844 C 113.054688 228.265625 110.488281 227.824219 107.929688 227.359375 C 105.347656 226.886719 104.222656 230.816406 106.835938 231.332031 C 109.257812 231.808594 111.683594 232.3125 114.109375 232.808594 C 113.765625 234.871094 113.492188 236.949219 113.179688 239.011719 C 112.71875 242.023438 112.027344 245.09375 112 248.140625 C 111.980469 250.621094 115.621094 251.09375 116.296875 248.722656 C 117.128906 245.820312 117.324219 242.703125 117.730469 239.714844 C 118 237.714844 118.316406 235.710938 118.566406 233.699219 C 121.511719 234.277344 124.464844 234.820312 127.425781 235.265625 C 128.550781 235.4375 129.660156 234.984375 130 233.804688 C 130.300781 232.753906 129.636719 231.484375 128.535156 231.230469 " fill-opacity="1" fill-rule="nonzero"/><path fill="#00497d" d="M 170.945312 233.214844 C 170.515625 229.507812 167.816406 226.515625 163.96875 226.339844 C 161.03125 226.203125 158.136719 227.679688 155.792969 229.558594 C 154.867188 228.203125 153.796875 226.945312 152.34375 226.148438 C 149.128906 224.390625 145.511719 225.773438 143.5 228.628906 C 141.242188 231.828125 141.902344 235.757812 143.539062 239.0625 C 145.066406 242.136719 147.292969 245.496094 150.082031 247.546875 C 151.363281 248.488281 152.886719 249.195312 154.484375 249.304688 C 156.25 249.421875 158.277344 248.742188 159.824219 247.957031 C 161.269531 247.226562 162.589844 246.21875 163.886719 245.257812 C 165.292969 244.21875 166.703125 243.136719 167.871094 241.824219 C 169.992188 239.4375 171.316406 236.453125 170.945312 233.214844 " fill-opacity="1" fill-rule="nonzero"/><g clip-path="url(#12b1c8bce2)"><g clip-path="url(#7e9d7fe398)"><g transform="matrix(1, 0, 0, 1, 404, 0.000000000000113687)"><g clip-path="url(#5c3c933ee2)"><g clip-path="url(#df5b9e2e28)"><g clip-path="url(#bd30b771dc)"><g clip-path="url(#8c86df5b2e)"><path fill="#eb4f26" d="M 20.808594 5.875 C 23.152344 8.589844 27.023438 8.398438 29.835938 12.886719 C 33.691406 18.410156 35.234375 25.3125 35.113281 32.046875 C 34.992188 38.78125 33.296875 45.394531 31.140625 51.777344 C 29.183594 57.566406 26.734375 63.390625 22.414062 67.714844 C 18.097656 72.042969 11.523438 74.589844 5.722656 72.664062 C 5.230469 73.632812 5.007812 74.101562 5.691406 74.949219 C 5.925781 75.203125 6.191406 75.417969 6.488281 75.59375 C 7.769531 76.476562 9.15625 77.144531 10.644531 77.597656 C 12.28125 78.101562 13.707031 78.996094 15.351562 79.394531 C 19.269531 80.339844 23.183594 81.511719 27.210938 81.542969 C 30.976562 81.574219 34.953125 80.433594 37.484375 77.695312 C 37.59375 77.578125 37.625 77.445312 37.574219 77.292969 C 37.519531 77.140625 37.414062 77.054688 37.257812 77.027344 C 36.207031 76.878906 35.222656 76.53125 34.308594 75.988281 C 36.949219 75.507812 39.3125 74.414062 41.390625 72.714844 C 41.511719 72.613281 41.539062 72.488281 41.472656 72.34375 C 41.410156 72.199219 41.296875 72.140625 41.140625 72.164062 C 40.414062 72.273438 39.6875 72.265625 38.960938 72.144531 C 41.289062 70.863281 43.132812 69.078125 44.492188 66.792969 C 44.582031 66.636719 44.578125 66.476562 44.484375 66.320312 C 44.386719 66.164062 44.246094 66.089844 44.0625 66.097656 C 43.523438 66.109375 43.027344 65.976562 42.570312 65.695312 C 44.246094 63.582031 45.871094 61.429688 47.4375 59.234375 C 47.601562 59.003906 47.609375 58.765625 47.464844 58.519531 C 47.320312 58.277344 47.109375 58.171875 46.828125 58.199219 L 45.71875 58.324219 C 45.792969 56.316406 47.277344 54.691406 48.429688 53.046875 C 52.625 47.058594 53.570312 42.789062 53.429688 35.816406 C 53.40625 35.28125 53.207031 34.828125 52.824219 34.457031 C 52.167969 33.796875 51.113281 32.148438 50.46875 32.003906 C 51.28125 29.445312 51.527344 26.835938 51.195312 24.171875 C 51.105469 23.464844 50.324219 23.039062 49.714844 23.40625 C 49.382812 23.605469 49.035156 23.765625 48.664062 23.882812 C 48.871094 18.921875 46.652344 14.035156 43.21875 10.449219 C 39.78125 6.863281 35.21875 4.5 30.453125 3.105469 C 27.476562 2.234375 24.300781 1.71875 21.285156 2.515625 C 20.851562 2.621094 20.492188 2.847656 20.214844 3.199219 C 19.503906 4.125 20.160156 5.125 20.808594 5.875 Z M 20.808594 5.875 " fill-opacity="1" fill-rule="nonzero"/></g></g></g><g clip-path="url(#1062f53a5a)"><g clip-path="url(#4e8fb400f1)"><g clip-path="url(#09ab624d29)"><path fill="#00497d" d="M 64.113281 65.464844 C 63.023438 66.890625 64.863281 68.867188 66.160156 67.476562 C 70.335938 63 73.46875 57.664062 74.246094 51.523438 C 74.503906 49.480469 71.710938 48.664062 71.078125 50.722656 C 69.476562 55.960938 67.457031 61.074219 64.113281 65.464844 Z M 65.925781 43.890625 C 66.550781 41.894531 69.710938 42.675781 69.09375 44.695312 C 67.402344 50.242188 64.761719 55.773438 60.390625 59.683594 C 59.332031 60.632812 57.375 59.414062 58.273438 58.085938 C 61.355469 53.554688 64.273438 49.171875 65.925781 43.890625 Z M 19.839844 29.863281 C 23.570312 34.835938 25.417969 44.585938 19.964844 49.078125 C 18.96875 49.894531 17.328125 49.195312 17.671875 47.789062 C 18.335938 45.074219 19.554688 42.5625 19.652344 39.71875 C 19.757812 36.722656 18.886719 33.902344 17.246094 31.410156 C 16.15625 29.757812 18.699219 28.34375 19.839844 29.863281 Z M 10.671875 35.460938 C 10.628906 33.859375 13.046875 33.828125 13.148438 35.410156 C 13.523438 41.359375 13 48.789062 9.519531 53.847656 C 8.765625 54.945312 6.875 54.355469 7.246094 52.929688 C 7.972656 50.132812 9.179688 47.503906 9.824219 44.675781 C 10.492188 41.640625 10.777344 38.570312 10.671875 35.460938 Z M 10.671875 35.460938 " fill-opacity="1" fill-rule="nonzero"/></g></g></g></g></g></g></g><g fill="#eb4f26" fill-opacity="1"><g transform="translate(62.861682, 195.793725)"><g><path d="M -1.15625 -124.875 C -0.269531 -125.207031 1.328125 -125.425781 3.640625 -125.53125 C 5.953125 -125.644531 8.484375 -125.726562 11.234375 -125.78125 C 13.984375 -125.84375 16.566406 -125.898438 18.984375 -125.953125 C 21.410156 -126.003906 23.125 -126.195312 24.125 -126.53125 L 26.4375 -113.984375 L 27.421875 -108.203125 L 28.578125 -102.25 L 30.890625 -90.6875 L 31.71875 -85.890625 L 32.875 -80.109375 L 34.03125 -74.171875 L 35.1875 -68.390625 L 35.6875 -65.578125 L 36.015625 -63.59375 L 38.328125 -52.03125 L 39.3125 -46.09375 L 40.3125 -41.296875 L 41.46875 -35.515625 C 41.46875 -35.398438 41.492188 -35.257812 41.546875 -35.09375 C 41.597656 -34.9375 41.625 -34.75 41.625 -34.53125 L 41.796875 -34.6875 L 42.453125 -37 C 42.671875 -38.101562 43 -39.175781 43.4375 -40.21875 C 43.882812 -41.269531 44.21875 -42.34375 44.4375 -43.4375 L 45.59375 -47.25 L 47.40625 -54.015625 C 47.84375 -55.222656 48.117188 -56.269531 48.234375 -57.15625 L 48.890625 -59.96875 L 50.546875 -68.0625 L 51.53125 -72.84375 L 51.875 -75.328125 L 52.859375 -80.28125 L 54.1875 -87.21875 L 55.34375 -93.328125 C 55.78125 -95.535156 57.265625 -96.71875 59.796875 -96.875 C 62.328125 -97.039062 65.191406 -97.125 68.390625 -97.125 C 70.921875 -97.125 73.175781 -97.125 75.15625 -97.125 C 77.144531 -97.125 79.019531 -97.179688 80.78125 -97.296875 C 80.78125 -97.078125 80.722656 -96.828125 80.609375 -96.546875 C 80.503906 -96.273438 80.453125 -95.972656 80.453125 -95.640625 L 79.78125 -91.515625 L 78.625 -84.578125 L 75.65625 -71.203125 L 74 -64.09375 L 70.703125 -50.875 L 69.046875 -44.59375 L 67.5625 -39.640625 L 66.734375 -36.671875 L 65.75 -33.703125 L 64.09375 -28.078125 L 62.28125 -22.625 L 61.28125 -19.984375 L 60.296875 -17.515625 L 56 -5.953125 L 55 -3.640625 L 53.03125 0.828125 L 50.046875 7.265625 C 47.847656 7.265625 45.835938 7.289062 44.015625 7.34375 C 42.203125 7.40625 40.414062 7.4375 38.65625 7.4375 C 35.90625 7.320312 33.507812 7.070312 31.46875 6.6875 C 29.425781 6.300781 28.242188 5.554688 27.921875 4.453125 L 27.59375 3.46875 L 26.265625 -2.140625 C 26.148438 -3.140625 25.925781 -4.242188 25.59375 -5.453125 C 25.269531 -6.660156 25 -7.867188 24.78125 -9.078125 L 23.953125 -13.046875 L 22.796875 -18.171875 L 21.640625 -24.78125 L 20.484375 -30.71875 L 19.328125 -36.84375 L 18 -43.28125 L 17.015625 -48.734375 L 14.53125 -61.28125 L 13.21875 -68.0625 C 13.101562 -68.613281 12.960938 -69.191406 12.796875 -69.796875 C 12.628906 -70.398438 12.492188 -70.976562 12.390625 -71.53125 L 11.734375 -75 L 11.234375 -77.3125 L 9.90625 -83.09375 C 9.800781 -83.644531 9.71875 -84.222656 9.65625 -84.828125 C 9.601562 -85.429688 9.46875 -86.007812 9.25 -86.5625 L 7.921875 -92.171875 L 6.609375 -97.625 L 4.953125 -104.234375 L 3.296875 -110.515625 L 1.8125 -115.46875 L 0 -121.25 C -0.113281 -121.90625 -0.28125 -122.535156 -0.5 -123.140625 C -0.71875 -123.753906 -0.9375 -124.332031 -1.15625 -124.875 Z M -1.15625 -124.875 "/></g></g></g><g fill="#eb4f26" fill-opacity="1"><g transform="translate(147.10539, 195.793725)"><g><path d="M 64.921875 -15.6875 C 64.804688 -15.6875 64.664062 -15.660156 64.5 -15.609375 C 64.34375 -15.554688 64.148438 -15.53125 63.921875 -15.53125 C 62.609375 -15.3125 61.289062 -15.144531 59.96875 -15.03125 C 58.644531 -14.914062 57.210938 -14.804688 55.671875 -14.703125 L 53.359375 -14.703125 C 52.585938 -14.703125 51.867188 -14.671875 51.203125 -14.609375 C 50.546875 -14.554688 49.832031 -14.53125 49.0625 -14.53125 C 47.851562 -14.53125 46.613281 -14.503906 45.34375 -14.453125 C 44.070312 -14.398438 42.832031 -14.375 41.625 -14.375 L 33.53125 -14.375 C 33.09375 -14.375 32.625 -14.398438 32.125 -14.453125 C 31.632812 -14.503906 31.113281 -14.53125 30.5625 -14.53125 L 26.265625 -14.53125 C 25.378906 -14.53125 24.441406 -14.503906 23.453125 -14.453125 C 22.460938 -14.398438 21.53125 -14.316406 20.65625 -14.203125 L 13.703125 -13.546875 C 12.609375 -13.429688 11.425781 -13.289062 10.15625 -13.125 C 8.894531 -12.96875 7.601562 -12.890625 6.28125 -12.890625 C 5.507812 -12.890625 5.148438 -13.242188 5.203125 -13.953125 C 5.253906 -14.671875 5.28125 -15.25 5.28125 -15.6875 L 5.28125 -22.46875 C 5.28125 -23.019531 5.304688 -23.566406 5.359375 -24.109375 C 5.421875 -24.660156 5.453125 -25.210938 5.453125 -25.765625 C 5.453125 -26.535156 5.476562 -27.25 5.53125 -27.90625 C 5.582031 -28.570312 5.609375 -29.289062 5.609375 -30.0625 L 5.953125 -36.671875 C 5.953125 -37.222656 5.976562 -37.773438 6.03125 -38.328125 C 6.082031 -38.878906 6.164062 -39.425781 6.28125 -39.96875 L 6.609375 -42.125 C 6.941406 -44 7.109375 -45.867188 7.109375 -47.734375 L 7.109375 -51.203125 C 7.109375 -53.847656 7.050781 -56.492188 6.9375 -59.140625 C 6.820312 -61.785156 6.765625 -64.484375 6.765625 -67.234375 L 6.765625 -69.546875 C 6.765625 -69.984375 6.789062 -70.335938 6.84375 -70.609375 C 6.90625 -70.890625 6.9375 -71.25 6.9375 -71.6875 L 6.9375 -79.78125 C 6.9375 -80.550781 6.960938 -81.296875 7.015625 -82.015625 C 7.078125 -82.734375 7.109375 -83.476562 7.109375 -84.25 C 7.109375 -87.113281 7.21875 -89.894531 7.4375 -92.59375 C 7.65625 -95.289062 7.765625 -98.015625 7.765625 -100.765625 L 7.765625 -105.71875 C 7.765625 -106.15625 7.816406 -106.488281 7.921875 -106.71875 C 7.484375 -106.820312 6.878906 -106.875 6.109375 -106.875 L 5.609375 -106.875 C 4.398438 -106.875 2.394531 -106.816406 -0.40625 -106.703125 C -3.21875 -106.597656 -6.109375 -106.488281 -9.078125 -106.375 C -12.054688 -106.269531 -14.316406 -106.21875 -15.859375 -106.21875 C -17.398438 -106.21875 -18.195312 -106.628906 -18.25 -107.453125 C -18.300781 -108.273438 -18.328125 -109.238281 -18.328125 -110.34375 L -18.328125 -119.09375 C -18.328125 -121.851562 -18.160156 -123.585938 -17.828125 -124.296875 C -17.503906 -125.015625 -16.898438 -125.347656 -16.015625 -125.296875 C -15.140625 -125.242188 -13.984375 -125.269531 -12.546875 -125.375 L -6.109375 -125.375 C -5.335938 -125.375 -4.617188 -125.398438 -3.953125 -125.453125 C -3.296875 -125.515625 -2.582031 -125.546875 -1.8125 -125.546875 L 6.109375 -125.546875 C 6.660156 -125.546875 7.210938 -125.515625 7.765625 -125.453125 C 8.316406 -125.398438 8.8125 -125.375 9.25 -125.375 L 12.546875 -125.046875 C 12.660156 -124.929688 12.773438 -124.875 12.890625 -124.875 C 13.984375 -124.875 15.492188 -124.957031 17.421875 -125.125 C 19.347656 -125.289062 21.332031 -125.425781 23.375 -125.53125 C 25.414062 -125.644531 27.039062 -125.703125 28.25 -125.703125 C 28.800781 -125.703125 29.269531 -125.59375 29.65625 -125.375 C 30.039062 -125.15625 30.453125 -125.046875 30.890625 -125.046875 C 31.546875 -125.046875 32.175781 -125.128906 32.78125 -125.296875 C 33.394531 -125.460938 34.03125 -125.546875 34.6875 -125.546875 L 35.6875 -125.546875 C 36.125 -125.546875 36.535156 -125.429688 36.921875 -125.203125 C 37.304688 -124.984375 37.71875 -124.875 38.15625 -124.875 L 39.3125 -124.875 C 40.632812 -124.875 41.898438 -124.929688 43.109375 -125.046875 C 44.328125 -125.160156 45.484375 -125.21875 46.578125 -125.21875 C 46.910156 -125.21875 47.238281 -125.1875 47.5625 -125.125 C 47.894531 -125.070312 48.226562 -125.046875 48.5625 -125.046875 L 51.375 -124.71875 C 51.707031 -124.71875 52.066406 -124.660156 52.453125 -124.546875 C 52.835938 -124.441406 53.191406 -124.390625 53.515625 -124.390625 L 55.828125 -124.390625 C 56.378906 -124.390625 56.984375 -124.414062 57.640625 -124.46875 C 58.304688 -124.519531 58.914062 -124.546875 59.46875 -124.546875 C 60.570312 -124.546875 61.617188 -124.570312 62.609375 -124.625 C 63.597656 -124.6875 64.585938 -124.71875 65.578125 -124.71875 L 67.234375 -124.546875 L 67.234375 -121.90625 C 67.117188 -119.488281 67.0625 -117.285156 67.0625 -115.296875 C 67.0625 -113.316406 66.953125 -111.28125 66.734375 -109.1875 C 66.734375 -107.863281 66.398438 -106.984375 65.734375 -106.546875 C 65.078125 -106.109375 64.144531 -105.890625 62.9375 -105.890625 C 61.945312 -105.890625 60.84375 -105.914062 59.625 -105.96875 C 58.414062 -106.019531 57.148438 -106.046875 55.828125 -106.046875 C 55.054688 -106.046875 54.3125 -106.046875 53.59375 -106.046875 C 52.882812 -106.046875 52.085938 -106.101562 51.203125 -106.21875 L 48.890625 -106.21875 C 48.453125 -106.21875 48.066406 -106.242188 47.734375 -106.296875 C 47.410156 -106.347656 47.082031 -106.375 46.75 -106.375 C 45.425781 -106.375 44.128906 -106.398438 42.859375 -106.453125 C 41.597656 -106.515625 40.304688 -106.546875 38.984375 -106.546875 C 38.210938 -106.546875 37.46875 -106.570312 36.75 -106.625 C 36.039062 -106.6875 35.300781 -106.71875 34.53125 -106.71875 L 33.375 -106.71875 L 33.375 -105.5625 C 33.375 -103.90625 33.257812 -102.195312 33.03125 -100.4375 C 32.8125 -98.675781 32.703125 -96.96875 32.703125 -95.3125 C 32.703125 -94.757812 32.675781 -94.207031 32.625 -93.65625 C 32.570312 -93.101562 32.546875 -92.554688 32.546875 -92.015625 C 32.546875 -91.242188 32.515625 -90.5 32.453125 -89.78125 C 32.398438 -89.0625 32.375 -88.316406 32.375 -87.546875 C 32.375 -85.785156 32.398438 -83.910156 32.453125 -81.921875 C 32.515625 -79.941406 32.546875 -78.070312 32.546875 -76.3125 C 33.097656 -76.3125 33.617188 -76.285156 34.109375 -76.234375 C 34.609375 -76.179688 35.1875 -76.15625 35.84375 -76.15625 L 41.296875 -76.15625 C 42.179688 -76.15625 43.0625 -76.015625 43.9375 -75.734375 C 44.820312 -75.460938 45.703125 -75.328125 46.578125 -75.328125 L 49.890625 -75.328125 C 51.753906 -75.328125 53.566406 -75.410156 55.328125 -75.578125 C 57.097656 -75.742188 58.863281 -75.828125 60.625 -75.828125 C 61.175781 -75.828125 61.695312 -75.796875 62.1875 -75.734375 C 62.6875 -75.679688 63.15625 -75.65625 63.59375 -75.65625 C 63.488281 -73.894531 63.40625 -71.941406 63.34375 -69.796875 C 63.289062 -67.648438 62.988281 -65.253906 62.4375 -62.609375 C 62.21875 -62.171875 61.664062 -61.867188 60.78125 -61.703125 C 59.90625 -61.535156 58.863281 -61.34375 57.65625 -61.125 C 56.65625 -61.007812 55.578125 -60.921875 54.421875 -60.859375 C 53.265625 -60.804688 52.082031 -60.78125 50.875 -60.78125 C 49.550781 -60.78125 48.253906 -60.753906 46.984375 -60.703125 C 45.722656 -60.648438 44.488281 -60.625 43.28125 -60.625 L 32.046875 -60.125 L 31.0625 -60.125 L 31.0625 -58.96875 L 30.890625 -57.8125 L 30.890625 -55.5 C 30.890625 -52.632812 30.78125 -49.796875 30.5625 -46.984375 C 30.34375 -44.179688 30.234375 -41.347656 30.234375 -38.484375 C 30.234375 -37.710938 30.203125 -36.96875 30.140625 -36.25 C 30.085938 -35.539062 30.0625 -34.800781 30.0625 -34.03125 L 30.0625 -30.71875 C 30.726562 -30.613281 31.832031 -30.503906 33.375 -30.390625 C 34.914062 -30.285156 36.675781 -30.234375 38.65625 -30.234375 C 39.09375 -30.234375 39.53125 -30.257812 39.96875 -30.3125 C 40.414062 -30.363281 40.859375 -30.390625 41.296875 -30.390625 L 43.28125 -30.390625 C 43.71875 -30.390625 44.128906 -30.363281 44.515625 -30.3125 C 44.898438 -30.257812 45.3125 -30.234375 45.75 -30.234375 C 45.53125 -30.335938 46.21875 -30.5 47.8125 -30.71875 C 49.414062 -30.945312 50.820312 -31.0625 52.03125 -31.0625 L 57.984375 -31.0625 C 59.523438 -31.0625 61.34375 -30.835938 63.4375 -30.390625 C 65.53125 -29.953125 66.578125 -29.289062 66.578125 -28.40625 C 66.578125 -26.425781 66.410156 -24.472656 66.078125 -22.546875 C 65.742188 -20.617188 65.359375 -18.332031 64.921875 -15.6875 Z M 64.921875 -15.6875 "/></g></g></g><g fill="#eb4f26" fill-opacity="1"><g transform="translate(214.335182, 195.793725)"><g><path d="M 52.859375 -98.953125 L 77.46875 -97.625 C 77.6875 -96.519531 77.820312 -94.726562 77.875 -92.25 C 77.9375 -89.78125 78.023438 -86.835938 78.140625 -83.421875 L 78.140625 -75.984375 C 78.140625 -75.328125 78.164062 -74.664062 78.21875 -74 C 78.269531 -73.34375 78.296875 -72.679688 78.296875 -72.015625 C 78.296875 -68.710938 78.320312 -65.078125 78.375 -61.109375 C 78.4375 -57.148438 78.46875 -53.519531 78.46875 -50.21875 C 78.46875 -46.914062 78.46875 -44.601562 78.46875 -43.28125 L 78.46875 -38.8125 C 78.46875 -37.820312 78.4375 -36.941406 78.375 -36.171875 C 78.320312 -35.398438 78.296875 -34.6875 78.296875 -34.03125 L 78.296875 -31.875 C 78.296875 -30.445312 78.296875 -29.734375 78.296875 -29.734375 C 78.296875 -29.734375 78.269531 -29.894531 78.21875 -30.21875 C 78.164062 -30.550781 78.109375 -30.632812 78.046875 -30.46875 C 77.992188 -30.3125 77.910156 -29.40625 77.796875 -27.75 C 77.691406 -26.101562 77.53125 -23.238281 77.3125 -19.15625 L 77.3125 -17.015625 C 77.3125 -16.242188 77.28125 -15.441406 77.21875 -14.609375 C 77.164062 -13.785156 77.140625 -12.878906 77.140625 -11.890625 L 77.140625 0.828125 C 77.140625 2.585938 77.054688 4.429688 76.890625 6.359375 C 76.722656 8.285156 76.421875 10.128906 75.984375 11.890625 L 67.390625 11.890625 C 66.296875 11.890625 64.945312 11.914062 63.34375 11.96875 C 61.75 12.03125 60.234375 11.8125 58.796875 11.3125 C 57.367188 10.820312 56.328125 9.804688 55.671875 8.265625 L 54.671875 6.109375 L 52.359375 1.15625 L 49.390625 -5.28125 L 48.234375 -7.59375 L 47.078125 -10.078125 L 44.265625 -16.359375 C 43.828125 -17.234375 43.382812 -18.140625 42.9375 -19.078125 C 42.5 -20.015625 42.0625 -20.976562 41.625 -21.96875 L 40.3125 -24.9375 L 39.3125 -26.921875 L 38 -30.0625 L 37 -32.21875 L 35.515625 -35.34375 L 31.546875 -44.4375 L 29.078125 -50.375 L 28.578125 -51.53125 L 28.578125 -44.765625 C 28.578125 -44.109375 28.546875 -43.445312 28.484375 -42.78125 C 28.429688 -42.125 28.40625 -41.460938 28.40625 -40.796875 L 28.40625 -17.015625 C 28.40625 -14.921875 28.429688 -12.878906 28.484375 -10.890625 C 28.546875 -8.910156 28.578125 -6.878906 28.578125 -4.796875 L 28.578125 10.734375 C 28.578125 11.503906 28.578125 12.328125 28.578125 13.203125 C 28.578125 14.085938 28.46875 14.972656 28.25 15.859375 C 28.132812 17.835938 27.800781 19.65625 27.25 21.3125 C 27.03125 22.414062 26.007812 23.160156 24.1875 23.546875 C 22.375 23.929688 20.363281 24.148438 18.15625 24.203125 C 15.957031 24.253906 14.144531 24.390625 12.71875 24.609375 C 11.832031 24.609375 11.171875 24.554688 10.734375 24.453125 L 8.921875 23.953125 C 8.703125 23.835938 8.476562 23.671875 8.25 23.453125 C 8.03125 23.234375 7.8125 23.070312 7.59375 22.96875 L 7.59375 20.15625 C 7.59375 18.71875 7.566406 17.335938 7.515625 16.015625 C 7.460938 14.703125 7.4375 13.328125 7.4375 11.890625 L 7.4375 7.921875 C 7.4375 7.378906 7.40625 6.882812 7.34375 6.4375 C 7.289062 6 7.265625 5.5625 7.265625 5.125 L 7.265625 -11.890625 C 7.265625 -12.441406 7.238281 -12.960938 7.1875 -13.453125 C 7.132812 -13.953125 7.109375 -14.421875 7.109375 -14.859375 L 7.109375 -32.21875 C 7.109375 -33.3125 7.078125 -34.351562 7.015625 -35.34375 C 6.960938 -36.34375 6.9375 -37.390625 6.9375 -38.484375 L 6.9375 -42.625 C 6.9375 -48.34375 6.796875 -54.066406 6.515625 -59.796875 C 6.242188 -65.523438 6.109375 -71.253906 6.109375 -76.984375 C 6.109375 -77.640625 6.082031 -78.296875 6.03125 -78.953125 C 5.976562 -79.617188 5.953125 -80.226562 5.953125 -80.78125 C 5.953125 -82.757812 5.894531 -84.738281 5.78125 -86.71875 C 5.664062 -88.707031 5.609375 -90.691406 5.609375 -92.671875 L 5.609375 -97.296875 C 7.378906 -97.515625 9.144531 -97.625 10.90625 -97.625 C 12.664062 -97.625 14.425781 -97.625 16.1875 -97.625 L 26.921875 -97.625 C 28.140625 -97.625 29.296875 -96.359375 30.390625 -93.828125 L 32.375 -88.875 L 33.859375 -85.078125 C 34.410156 -83.640625 34.960938 -82.125 35.515625 -80.53125 C 36.066406 -78.9375 36.726562 -77.367188 37.5 -75.828125 L 38.484375 -73.015625 L 41.296875 -64.75 L 42.953125 -60.125 L 45.59375 -53.359375 L 49.21875 -44.765625 L 50.21875 -42.125 L 52.53125 -37 C 52.53125 -36.894531 52.582031 -36.8125 52.6875 -36.75 C 52.800781 -36.695312 52.859375 -36.613281 52.859375 -36.5 C 52.972656 -36.394531 53.03125 -36.257812 53.03125 -36.09375 C 53.03125 -35.925781 53.082031 -35.789062 53.1875 -35.6875 L 53.1875 -41.125 C 53.1875 -41.675781 53.160156 -42.171875 53.109375 -42.609375 C 53.054688 -43.054688 53.03125 -43.5 53.03125 -43.9375 L 53.03125 -48.40625 C 53.03125 -48.945312 53 -49.519531 52.9375 -50.125 C 52.882812 -50.738281 52.859375 -51.375 52.859375 -52.03125 C 52.859375 -52.363281 52.828125 -52.691406 52.765625 -53.015625 C 52.710938 -53.347656 52.6875 -53.738281 52.6875 -54.1875 L 52.6875 -57.484375 C 52.6875 -58.367188 52.660156 -59.222656 52.609375 -60.046875 C 52.554688 -60.867188 52.53125 -61.722656 52.53125 -62.609375 C 52.53125 -63.160156 52.5 -63.738281 52.4375 -64.34375 C 52.382812 -64.945312 52.359375 -65.578125 52.359375 -66.234375 L 52.359375 -70.375 C 52.359375 -71.144531 52.332031 -71.914062 52.28125 -72.6875 C 52.226562 -73.457031 52.203125 -74.226562 52.203125 -75 C 52.203125 -75.875 52.171875 -76.722656 52.109375 -77.546875 C 52.054688 -78.378906 52.03125 -79.234375 52.03125 -80.109375 C 52.03125 -82.972656 51.972656 -85.753906 51.859375 -88.453125 C 51.753906 -91.148438 51.703125 -94.039062 51.703125 -97.125 C 51.703125 -98.007812 52.085938 -98.617188 52.859375 -98.953125 Z M 52.859375 -98.953125 "/></g></g></g><g fill="#eb4f26" fill-opacity="1"><g transform="translate(299.239627, 195.793725)"><g><path d="M 46.578125 -113.8125 L 48.890625 -113.8125 C 50.210938 -113.8125 51.453125 -113.726562 52.609375 -113.5625 C 53.765625 -113.394531 54.894531 -113.203125 56 -112.984375 C 65.46875 -112.984375 72.679688 -109.898438 77.640625 -103.734375 L 79.453125 -100.4375 L 80.109375 -93.828125 C 80.660156 -91.617188 81.128906 -89.332031 81.515625 -86.96875 C 81.898438 -84.601562 82.09375 -82.207031 82.09375 -79.78125 L 82.265625 -73.171875 C 82.265625 -71.628906 81.4375 -70.5 79.78125 -69.78125 C 78.132812 -69.070312 76.097656 -68.660156 73.671875 -68.546875 C 71.253906 -68.441406 68.804688 -68.523438 66.328125 -68.796875 C 63.847656 -69.078125 61.78125 -69.4375 60.125 -69.875 C 58.476562 -70.3125 57.597656 -70.695312 57.484375 -71.03125 C 56.597656 -74.769531 56.179688 -77.46875 56.234375 -79.125 C 56.296875 -80.78125 56.382812 -82.488281 56.5 -84.25 C 56.601562 -86.007812 56.546875 -87.742188 56.328125 -89.453125 C 56.109375 -91.160156 55.390625 -92.5625 54.171875 -93.65625 C 52.960938 -94.757812 50.925781 -95.3125 48.0625 -95.3125 L 43.109375 -95.484375 C 40.691406 -95.484375 38.546875 -94.929688 36.671875 -93.828125 L 35.84375 -93.171875 C 34.632812 -91.953125 33.726562 -90.625 33.125 -89.1875 C 32.519531 -87.757812 31.992188 -86.003906 31.546875 -83.921875 C 31.109375 -82.265625 30.804688 -80.523438 30.640625 -78.703125 C 30.472656 -76.890625 30.390625 -75.101562 30.390625 -73.34375 L 30.390625 -68.890625 C 30.390625 -68.441406 30.414062 -68.050781 30.46875 -67.71875 C 30.53125 -67.394531 30.5625 -67.015625 30.5625 -66.578125 C 30.5625 -66.023438 30.585938 -65.441406 30.640625 -64.828125 C 30.691406 -64.222656 30.71875 -63.648438 30.71875 -63.109375 C 31.164062 -59.359375 31.390625 -55.304688 31.390625 -50.953125 C 31.390625 -46.609375 31.390625 -42.398438 31.390625 -38.328125 L 32.046875 -31.390625 C 32.265625 -28.742188 32.648438 -26.265625 33.203125 -23.953125 C 33.753906 -21.640625 34.632812 -19.546875 35.84375 -17.671875 L 37.328125 -16.015625 C 39.421875 -13.929688 42.007812 -12.890625 45.09375 -12.890625 C 50.269531 -12.890625 53.957031 -14.046875 56.15625 -16.359375 C 58.363281 -18.671875 59.710938 -21.722656 60.203125 -25.515625 C 60.703125 -29.316406 60.953125 -33.363281 60.953125 -37.65625 C 60.835938 -38.425781 61.71875 -39.003906 63.59375 -39.390625 C 65.46875 -39.773438 67.644531 -39.910156 70.125 -39.796875 C 72.601562 -39.691406 74.832031 -39.304688 76.8125 -38.640625 C 78.789062 -37.984375 79.835938 -37.050781 79.953125 -35.84375 L 80.28125 -28.90625 L 80.28125 -27.921875 C 80.28125 -25.828125 80.25 -23.59375 80.1875 -21.21875 C 80.132812 -18.851562 79.671875 -16.238281 78.796875 -13.375 L 78.140625 -11.5625 C 77.691406 -10.457031 77.164062 -9.351562 76.5625 -8.25 C 75.957031 -7.15625 75.210938 -6.113281 74.328125 -5.125 L 72.1875 -3.140625 C 68.445312 -0.0546875 64.316406 1.921875 59.796875 2.796875 C 55.285156 3.679688 50.441406 4.125 45.265625 4.125 C 42.398438 4.125 39.316406 4.015625 36.015625 3.796875 C 32.710938 3.578125 29.628906 2.914062 26.765625 1.8125 L 22.796875 0.171875 C 21.804688 -0.273438 20.757812 -0.800781 19.65625 -1.40625 C 18.550781 -2.007812 17.613281 -2.695312 16.84375 -3.46875 L 16.1875 -4.125 L 13.703125 -6.9375 L 12.0625 -9.421875 C 11.507812 -10.410156 10.929688 -11.535156 10.328125 -12.796875 C 9.722656 -14.066406 9.253906 -15.253906 8.921875 -16.359375 L 7.265625 -22.296875 C 7.046875 -23.734375 6.796875 -25.191406 6.515625 -26.671875 C 6.242188 -28.160156 6.109375 -29.625 6.109375 -31.0625 C 6.109375 -32.050781 6.050781 -33.039062 5.9375 -34.03125 C 5.832031 -35.019531 5.78125 -36.007812 5.78125 -37 L 5.453125 -43.9375 C 5.453125 -44.488281 5.421875 -45.066406 5.359375 -45.671875 C 5.304688 -46.273438 5.28125 -46.851562 5.28125 -47.40625 C 5.28125 -48.613281 5.253906 -49.769531 5.203125 -50.875 C 5.148438 -51.976562 5.125 -53.082031 5.125 -54.1875 L 5.125 -66.90625 C 5.125 -68.226562 5.175781 -69.519531 5.28125 -70.78125 C 5.394531 -72.050781 5.453125 -73.347656 5.453125 -74.671875 L 5.453125 -76.8125 C 5.453125 -77.695312 5.535156 -78.601562 5.703125 -79.53125 C 5.867188 -80.46875 5.953125 -81.378906 5.953125 -82.265625 L 6.609375 -86.890625 L 7.59375 -93.171875 L 8.421875 -97.125 C 8.535156 -97.125 8.59375 -97.179688 8.59375 -97.296875 C 10.238281 -101.484375 12.269531 -104.484375 14.6875 -106.296875 C 17.113281 -108.117188 19.984375 -109.632812 23.296875 -110.84375 L 26.59375 -111.828125 C 29.457031 -112.597656 32.566406 -113.117188 35.921875 -113.390625 C 39.285156 -113.671875 42.835938 -113.8125 46.578125 -113.8125 Z M 46.578125 -113.8125 "/></g></g></g><g fill="#eb4f26" fill-opacity="1"><g transform="translate(383.813703, 195.793725)"><g><path d="M 3.46875 -95.96875 L 5.609375 -95.96875 C 7.816406 -95.96875 10.019531 -96.078125 12.21875 -96.296875 C 14.425781 -96.523438 16.628906 -96.640625 18.828125 -96.640625 L 24.453125 -97.125 C 25.003906 -97.125 25.550781 -97.148438 26.09375 -97.203125 C 26.644531 -97.265625 27.195312 -97.296875 27.75 -97.296875 L 34.53125 -97.296875 C 34.96875 -97.296875 35.347656 -97.296875 35.671875 -97.296875 C 36.003906 -97.296875 36.394531 -97.347656 36.84375 -97.453125 L 45.59375 -97.953125 C 47.789062 -97.953125 50.179688 -98.144531 52.765625 -98.53125 C 55.359375 -98.914062 58.085938 -99.109375 60.953125 -99.109375 L 63.765625 -99.109375 C 66.179688 -99.109375 69.066406 -99.21875 72.421875 -99.4375 C 75.785156 -99.65625 79.007812 -99.765625 82.09375 -99.765625 C 82.757812 -99.765625 83.203125 -98.800781 83.421875 -96.875 C 83.640625 -94.945312 83.75 -92.882812 83.75 -90.6875 C 83.75 -88.488281 83.75 -86.890625 83.75 -85.890625 C 83.75 -85.117188 83.71875 -84.375 83.65625 -83.65625 C 83.601562 -82.945312 83.25 -82.425781 82.59375 -82.09375 C 82.375 -81.988281 81.988281 -81.9375 81.4375 -81.9375 L 78.140625 -81.4375 C 77.585938 -81.320312 77.003906 -81.265625 76.390625 -81.265625 C 75.785156 -81.265625 75.210938 -81.265625 74.671875 -81.265625 C 74.117188 -81.265625 73.566406 -81.238281 73.015625 -81.1875 C 72.460938 -81.132812 71.910156 -81.109375 71.359375 -81.109375 L 68.0625 -81.109375 C 67.726562 -81.109375 67.367188 -81.078125 66.984375 -81.015625 C 66.597656 -80.960938 66.238281 -80.9375 65.90625 -80.9375 L 67.0625 -76.640625 L 68.890625 -70.046875 L 69.875 -66.90625 L 70.859375 -63.59375 C 71.085938 -62.820312 71.335938 -62.078125 71.609375 -61.359375 C 71.878906 -60.648438 72.070312 -59.910156 72.1875 -59.140625 L 73.84375 -52.359375 L 75.65625 -44.4375 L 76.8125 -38 C 77.03125 -37.113281 77.25 -36.226562 77.46875 -35.34375 C 77.6875 -34.46875 77.910156 -33.585938 78.140625 -32.703125 L 78.796875 -30.5625 L 80.9375 -24.125 L 82.09375 -20.484375 C 82.644531 -19.160156 83.113281 -17.890625 83.5 -16.671875 C 83.882812 -15.460938 84.296875 -14.253906 84.734375 -13.046875 L 86.0625 -9.578125 C 86.5 -8.585938 86.882812 -7.488281 87.21875 -6.28125 L 90.03125 1.65625 C 90.25 2.09375 90.410156 2.503906 90.515625 2.890625 C 90.628906 3.273438 90.742188 3.6875 90.859375 4.125 L 91.1875 5.609375 C 91.1875 6.054688 91.15625 6.550781 91.09375 7.09375 C 91.039062 7.644531 91.015625 8.195312 91.015625 8.75 C 91.015625 8.863281 91.039062 9.003906 91.09375 9.171875 C 91.15625 9.335938 91.1875 9.53125 91.1875 9.75 L 91.671875 11.890625 L 92.828125 16.6875 C 92.941406 17.125 93.132812 17.585938 93.40625 18.078125 C 93.6875 18.578125 93.878906 19.046875 93.984375 19.484375 C 93.328125 20.148438 92.0625 20.726562 90.1875 21.21875 C 88.320312 21.71875 86.285156 22.132812 84.078125 22.46875 C 81.878906 22.800781 79.898438 23.128906 78.140625 23.453125 C 77.804688 23.453125 77.472656 23.425781 77.140625 23.375 C 76.804688 23.320312 76.421875 23.296875 75.984375 23.296875 L 74 23.78125 L 71.03125 24.609375 C 70.476562 23.617188 70.035156 22.6875 69.703125 21.8125 L 68.546875 18.828125 C 68.441406 18.492188 68.359375 18.160156 68.296875 17.828125 C 68.242188 17.503906 68.109375 17.175781 67.890625 16.84375 L 66.734375 13.546875 L 65.578125 10.078125 L 64.59375 6.4375 C 64.59375 5.113281 64.285156 3.488281 63.671875 1.5625 C 63.066406 -0.363281 62.546875 -2.039062 62.109375 -3.46875 C 61.773438 -3.46875 61.441406 -3.4375 61.109375 -3.375 C 60.785156 -3.320312 60.457031 -3.296875 60.125 -3.296875 C 59.789062 -3.296875 59.457031 -3.269531 59.125 -3.21875 C 58.800781 -3.164062 58.421875 -3.140625 57.984375 -3.140625 L 48.5625 -3.140625 C 46.03125 -3.140625 43.25 -3.191406 40.21875 -3.296875 C 37.195312 -3.410156 34.414062 -3.140625 31.875 -2.484375 C 31.4375 -1.265625 30.941406 0.5 30.390625 2.8125 L 29.734375 6.28125 C 29.617188 6.832031 29.476562 7.4375 29.3125 8.09375 C 29.15625 8.75 29.019531 9.410156 28.90625 10.078125 L 28.25 13.875 C 27.695312 18.28125 26.84375 21.195312 25.6875 22.625 C 24.53125 24.0625 22.628906 24.78125 19.984375 24.78125 C 18.773438 24.78125 16.875 24.640625 14.28125 24.359375 C 11.695312 24.085938 9.359375 23.617188 7.265625 22.953125 C 5.171875 22.296875 4.125 21.53125 4.125 20.65625 L 4.125 19.65625 C 4.125 18.113281 4.34375 16.488281 4.78125 14.78125 C 5.226562 13.070312 5.671875 11.335938 6.109375 9.578125 L 6.609375 6.765625 C 6.828125 5.671875 7.097656 4.546875 7.421875 3.390625 C 7.753906 2.234375 7.976562 1.101562 8.09375 0 L 9.578125 -7.109375 L 11.0625 -14.53125 L 12.546875 -21.3125 C 12.773438 -22.519531 12.96875 -23.703125 13.125 -24.859375 C 13.289062 -26.015625 13.539062 -27.144531 13.875 -28.25 L 14.703125 -31.875 L 17.015625 -43.109375 L 18.5 -49.21875 L 22.140625 -62.4375 L 23.78125 -69.046875 C 24.007812 -69.597656 24.148438 -70.148438 24.203125 -70.703125 C 24.253906 -71.253906 24.335938 -71.75 24.453125 -72.1875 L 25.109375 -75.328125 C 25.109375 -75.546875 25.132812 -75.738281 25.1875 -75.90625 C 25.25 -76.070312 25.28125 -76.207031 25.28125 -76.3125 C 24.507812 -76.863281 23.488281 -77.113281 22.21875 -77.0625 C 20.945312 -77.007812 19.707031 -76.984375 18.5 -76.984375 C 17.945312 -76.984375 17.367188 -76.925781 16.765625 -76.8125 C 16.160156 -76.695312 15.523438 -76.640625 14.859375 -76.640625 C 12.441406 -76.535156 10.019531 -76.398438 7.59375 -76.234375 C 5.175781 -76.066406 3.25 -75.984375 1.8125 -75.984375 L 1.8125 -85.734375 C 2.03125 -87.378906 2.222656 -89.222656 2.390625 -91.265625 C 2.554688 -93.304688 2.914062 -94.875 3.46875 -95.96875 Z M 59.625 -17.515625 C 59.40625 -17.953125 59.238281 -18.414062 59.125 -18.90625 C 59.019531 -19.40625 58.914062 -19.875 58.8125 -20.3125 L 57.484375 -25.109375 C 57.265625 -25.992188 57.070312 -26.820312 56.90625 -27.59375 C 56.738281 -28.363281 56.546875 -29.132812 56.328125 -29.90625 L 55.828125 -31.71875 C 55.722656 -32.269531 55.585938 -32.765625 55.421875 -33.203125 C 55.253906 -33.640625 55.113281 -34.082031 55 -34.53125 L 53.6875 -40.3125 C 53.570312 -40.96875 53.375 -41.597656 53.09375 -42.203125 C 52.820312 -42.804688 52.6875 -43.441406 52.6875 -44.109375 L 51.375 -49.71875 C 51.257812 -50.269531 51.117188 -50.765625 50.953125 -51.203125 C 50.796875 -51.648438 50.660156 -52.09375 50.546875 -52.53125 L 50.046875 -54.515625 L 49.390625 -57.3125 L 48.734375 -60.296875 C 48.617188 -60.847656 48.476562 -61.34375 48.3125 -61.78125 C 48.144531 -62.21875 48.007812 -62.660156 47.90625 -63.109375 L 47.578125 -65.078125 C 47.460938 -66.078125 47.15625 -67.566406 46.65625 -69.546875 C 46.164062 -71.523438 45.476562 -72.957031 44.59375 -73.84375 C 44.488281 -73.070312 44.296875 -72.269531 44.015625 -71.4375 C 43.742188 -70.613281 43.5 -69.765625 43.28125 -68.890625 L 42.78125 -67.0625 L 40.796875 -59.625 L 39.15625 -53.1875 C 38.707031 -51.425781 38.179688 -49.550781 37.578125 -47.5625 C 36.972656 -45.582031 36.671875 -43.660156 36.671875 -41.796875 L 34.859375 -34.1875 L 33.859375 -29.40625 C 33.753906 -28.96875 33.617188 -28.5 33.453125 -28 C 33.285156 -27.5 33.203125 -27.03125 33.203125 -26.59375 L 31.546875 -17.671875 L 34.03125 -17.671875 C 35.019531 -17.671875 35.984375 -17.644531 36.921875 -17.59375 C 37.859375 -17.539062 38.875 -17.515625 39.96875 -17.515625 Z M 59.625 -17.515625 "/></g></g></g><g fill="#eb4f26" fill-opacity="1"><g transform="translate(473.849861, 195.793725)"><g/></g></g></g></g></svg>