<svg xmlns="http://www.w3.org/2000/svg" xmlns:xlink="http://www.w3.org/1999/xlink" width="805" zoomAndPan="magnify" viewBox="0 0 603.75 382.499989" height="510" preserveAspectRatio="xMidYMid meet" version="1.0"><defs><g/><clipPath id="f3512bd132"><path d="M 141.652344 226.5625 L 153.78125 226.5625 L 153.78125 238.839844 L 141.652344 238.839844 Z M 141.652344 226.5625 " clip-rule="nonzero"/></clipPath><clipPath id="dd907c290b"><path d="M 153.746094 230.753906 C 152.132812 237.304688 151.183594 237.78125 150.328125 238.160156 C 149.472656 238.632812 148.523438 238.917969 147.480469 238.730469 C 145.960938 238.445312 143.492188 236.925781 142.542969 235.785156 C 141.878906 234.933594 141.59375 233.984375 141.691406 232.9375 C 141.785156 231.417969 142.640625 228.761719 143.96875 227.71875 C 145.296875 226.675781 148.144531 226.390625 149.664062 226.675781 C 150.707031 226.863281 152.132812 228.191406 152.132812 228.191406 " clip-rule="nonzero"/></clipPath><clipPath id="6a68619294"><path d="M 0.652344 0.5625 L 12.746094 0.5625 L 12.746094 12.839844 L 0.652344 12.839844 Z M 0.652344 0.5625 " clip-rule="nonzero"/></clipPath><clipPath id="67277f17cd"><path d="M 12.746094 4.753906 C 11.132812 11.304688 10.183594 11.78125 9.328125 12.160156 C 8.472656 12.632812 7.523438 12.917969 6.480469 12.730469 C 4.960938 12.445312 2.492188 10.925781 1.542969 9.785156 C 0.878906 8.933594 0.59375 7.984375 0.691406 6.9375 C 0.785156 5.417969 1.640625 2.761719 2.96875 1.71875 C 4.296875 0.675781 7.144531 0.390625 8.664062 0.675781 C 9.707031 0.863281 11.132812 2.191406 11.132812 2.191406 " clip-rule="nonzero"/></clipPath><clipPath id="3741ac6cac"><rect x="0" width="13" y="0" height="13"/></clipPath><clipPath id="7043fd5f81"><path d="M 28.097656 183.414062 L 115.152344 183.414062 L 115.152344 210.171875 L 28.097656 210.171875 Z M 28.097656 183.414062 " clip-rule="nonzero"/></clipPath><clipPath id="5c75c6dd6e"><path d="M 37.660156 184.246094 C 53.035156 190.507812 54.839844 191.078125 58.066406 191.457031 C 63.191406 192.125 70.691406 191.363281 78.09375 192.027344 C 87.585938 192.789062 105.242188 194.210938 110.460938 196.394531 C 112.359375 197.25 113.214844 198.101562 113.972656 199.242188 C 114.636719 200.476562 115.019531 202.375 115.019531 203.609375 C 114.921875 204.460938 114.828125 205.03125 114.449219 205.792969 C 113.878906 206.835938 112.644531 208.449219 111.410156 209.113281 C 110.175781 209.777344 108.375 210.0625 107.042969 209.875 C 105.621094 209.683594 103.914062 208.640625 103.058594 207.878906 C 102.394531 207.308594 102.015625 206.835938 101.730469 206.078125 C 101.253906 204.9375 100.96875 202.753906 101.160156 201.613281 C 101.253906 200.761719 101.445312 200.191406 101.917969 199.527344 C 102.582031 198.484375 104.195312 197.058594 105.335938 196.488281 C 106.09375 196.109375 106.664062 196.015625 107.519531 196.015625 C 108.65625 196.015625 110.746094 196.585938 111.789062 197.152344 C 112.550781 197.535156 113.023438 197.914062 113.5 198.671875 C 114.164062 199.621094 115.019531 201.425781 115.019531 202.847656 C 115.019531 204.273438 114.449219 205.980469 113.6875 207.121094 C 112.835938 208.257812 111.695312 209.207031 109.988281 209.683594 C 107.140625 210.539062 101.824219 209.777344 97.457031 209.207031 C 92.425781 208.542969 87.207031 206.457031 81.511719 205.792969 C 75.339844 205.128906 68.792969 206.457031 61.863281 205.316406 C 53.605469 204.082031 40.886719 200 35.476562 197.628906 C 32.914062 196.488281 31.394531 195.636719 30.160156 194.304688 C 29.117188 193.167969 28.355469 191.648438 28.167969 190.226562 C 28.070312 188.800781 28.640625 186.996094 29.402344 185.953125 C 30.253906 184.816406 31.867188 183.769531 33.195312 183.484375 C 34.621094 183.199219 37.660156 184.246094 37.660156 184.246094 " clip-rule="nonzero"/></clipPath><clipPath id="77cc5cbc2a"><path d="M 0.0976562 0.414062 L 87.152344 0.414062 L 87.152344 27.171875 L 0.0976562 27.171875 Z M 0.0976562 0.414062 " clip-rule="nonzero"/></clipPath><clipPath id="d6aab16dd7"><path d="M 9.660156 1.246094 C 25.035156 7.507812 26.839844 8.078125 30.066406 8.457031 C 35.191406 9.125 42.691406 8.363281 50.09375 9.027344 C 59.585938 9.789062 77.242188 11.210938 82.460938 13.394531 C 84.359375 14.25 85.214844 15.101562 85.972656 16.242188 C 86.636719 17.476562 87.019531 19.375 87.019531 20.609375 C 86.921875 21.460938 86.828125 22.03125 86.449219 22.792969 C 85.878906 23.835938 84.644531 25.449219 83.410156 26.113281 C 82.175781 26.777344 80.375 27.0625 79.042969 26.875 C 77.621094 26.683594 75.914062 25.640625 75.058594 24.878906 C 74.394531 24.308594 74.015625 23.835938 73.730469 23.078125 C 73.253906 21.9375 72.96875 19.753906 73.160156 18.613281 C 73.253906 17.761719 73.445312 17.191406 73.917969 16.527344 C 74.582031 15.484375 76.195312 14.058594 77.335938 13.488281 C 78.09375 13.109375 78.664062 13.015625 79.519531 13.015625 C 80.65625 13.015625 82.746094 13.585938 83.789062 14.152344 C 84.550781 14.535156 85.023438 14.914062 85.5 15.671875 C 86.164062 16.621094 87.019531 18.425781 87.019531 19.847656 C 87.019531 21.273438 86.449219 22.980469 85.6875 24.121094 C 84.835938 25.257812 83.695312 26.207031 81.988281 26.683594 C 79.140625 27.539062 73.824219 26.777344 69.457031 26.207031 C 64.425781 25.542969 59.207031 23.457031 53.511719 22.792969 C 47.339844 22.128906 40.792969 23.457031 33.863281 22.316406 C 25.605469 21.082031 12.886719 17 7.476562 14.628906 C 4.914062 13.488281 3.394531 12.636719 2.160156 11.304688 C 1.117188 10.167969 0.355469 8.648438 0.167969 7.226562 C 0.0703125 5.800781 0.640625 3.996094 1.402344 2.953125 C 2.253906 1.816406 3.867188 0.769531 5.195312 0.484375 C 6.621094 0.199219 9.660156 1.246094 9.660156 1.246094 " clip-rule="nonzero"/></clipPath><clipPath id="731bd51f1b"><rect x="0" width="88" y="0" height="28"/></clipPath><clipPath id="e46b4f3ccf"><path d="M 67 191.515625 L 122.957031 191.515625 L 122.957031 208.871094 L 67 208.871094 Z M 67 191.515625 " clip-rule="nonzero"/></clipPath><clipPath id="b074a9f723"><path d="M 74.109375 191.554688 C 108.183594 195.351562 115.113281 194.402344 118.339844 195.636719 C 120.046875 196.300781 120.996094 197.152344 121.757812 198.292969 C 122.515625 199.433594 122.894531 201.046875 122.800781 202.375 C 122.800781 203.703125 122.230469 205.316406 121.1875 206.359375 C 119.953125 207.59375 117.199219 208.828125 115.398438 208.640625 C 113.5 208.355469 111.125 206.457031 110.273438 205.03125 C 109.511719 203.796875 109.226562 202.183594 109.605469 200.761719 C 109.988281 199.148438 111.789062 196.585938 113.402344 195.824219 C 115.113281 195.066406 118.148438 195.253906 119.667969 196.300781 C 121.28125 197.25 122.800781 199.8125 122.894531 201.710938 C 122.894531 203.511719 121.472656 206.171875 120.144531 207.308594 C 119.097656 208.257812 117.960938 208.355469 116.0625 208.640625 C 112.550781 209.113281 106 208.640625 99.734375 207.976562 C 91.289062 207.121094 73.726562 205.316406 69.644531 203.039062 C 68.414062 202.375 68.128906 201.804688 67.652344 200.761719 C 67.179688 199.621094 66.796875 197.722656 67.179688 196.300781 C 67.464844 194.972656 68.601562 193.453125 69.742188 192.691406 C 70.878906 191.839844 74.109375 191.554688 74.109375 191.554688 " clip-rule="nonzero"/></clipPath><clipPath id="358edf7a30"><path d="M 0 0.515625 L 55.957031 0.515625 L 55.957031 17.871094 L 0 17.871094 Z M 0 0.515625 " clip-rule="nonzero"/></clipPath><clipPath id="7534009eeb"><path d="M 7.109375 0.554688 C 41.183594 4.351562 48.113281 3.402344 51.339844 4.636719 C 53.046875 5.300781 53.996094 6.152344 54.757812 7.292969 C 55.515625 8.433594 55.894531 10.046875 55.800781 11.375 C 55.800781 12.703125 55.230469 14.316406 54.1875 15.359375 C 52.953125 16.59375 50.199219 17.828125 48.398438 17.640625 C 46.5 17.355469 44.125 15.457031 43.273438 14.03125 C 42.511719 12.796875 42.226562 11.183594 42.605469 9.761719 C 42.988281 8.148438 44.789062 5.585938 46.402344 4.824219 C 48.113281 4.066406 51.148438 4.253906 52.667969 5.300781 C 54.28125 6.25 55.800781 8.8125 55.894531 10.710938 C 55.894531 12.511719 54.472656 15.171875 53.144531 16.308594 C 52.097656 17.257812 50.960938 17.355469 49.0625 17.640625 C 45.550781 18.113281 39 17.640625 32.734375 16.976562 C 24.289062 16.121094 6.726562 14.316406 2.644531 12.039062 C 1.414062 11.375 1.128906 10.804688 0.652344 9.761719 C 0.179688 8.621094 -0.203125 6.722656 0.179688 5.300781 C 0.464844 3.972656 1.601562 2.453125 2.742188 1.691406 C 3.878906 0.839844 7.109375 0.554688 7.109375 0.554688 " clip-rule="nonzero"/></clipPath><clipPath id="ead0003b88"><rect x="0" width="56" y="0" height="18"/></clipPath><clipPath id="642a477903"><path d="M 60.8125 189.550781 L 135.511719 189.550781 L 135.511719 217.328125 L 60.8125 217.328125 Z M 60.8125 189.550781 " clip-rule="nonzero"/></clipPath><clipPath id="167729b50d"><path d="M 70.027344 190.128906 C 95.84375 198.101562 100.304688 197.25 103.914062 198.199219 C 106.664062 198.863281 107.898438 200.570312 110.9375 201.425781 C 115.871094 202.753906 127.355469 201.996094 131.058594 203.609375 C 132.863281 204.460938 133.714844 205.316406 134.476562 206.550781 C 135.234375 207.785156 135.519531 209.589844 135.425781 211.011719 C 135.234375 212.339844 134.476562 213.953125 133.433594 215 C 132.484375 216.042969 130.679688 216.800781 129.445312 217.085938 C 128.589844 217.277344 128.023438 217.277344 127.167969 216.992188 C 126.027344 216.707031 124.128906 215.664062 123.277344 214.902344 C 122.609375 214.335938 122.328125 213.765625 122.042969 213.003906 C 121.660156 211.867188 121.28125 209.875 121.566406 208.542969 C 121.945312 207.121094 122.894531 205.601562 123.941406 204.746094 C 125.078125 203.796875 126.976562 203.230469 128.117188 203.132812 C 128.972656 203.039062 129.539062 203.039062 130.394531 203.417969 C 131.535156 203.796875 133.242188 204.84375 134.097656 205.980469 C 134.855469 207.121094 135.425781 208.828125 135.425781 210.253906 C 135.425781 211.582031 134.855469 213.289062 133.90625 214.429688 C 133.050781 215.570312 131.914062 216.519531 130.203125 216.898438 C 127.546875 217.5625 122.992188 216.613281 119.003906 215.949219 C 114.351562 215.09375 108.847656 212.625 103.914062 211.867188 C 99.167969 211.105469 95.179688 212.339844 89.863281 211.203125 C 82.269531 209.589844 66.894531 203.988281 63.097656 200.667969 C 61.578125 199.335938 61.105469 198.101562 60.914062 196.679688 C 60.722656 195.351562 61.105469 193.453125 61.863281 192.3125 C 62.621094 191.175781 64.234375 190.035156 65.566406 189.65625 C 66.894531 189.371094 70.027344 190.128906 70.027344 190.128906 " clip-rule="nonzero"/></clipPath><clipPath id="093e8aa11d"><path d="M 0.8125 0.550781 L 75.511719 0.550781 L 75.511719 28.328125 L 0.8125 28.328125 Z M 0.8125 0.550781 " clip-rule="nonzero"/></clipPath><clipPath id="6a94b16a3c"><path d="M 10.027344 1.128906 C 35.84375 9.101562 40.304688 8.25 43.914062 9.199219 C 46.664062 9.863281 47.898438 11.570312 50.9375 12.425781 C 55.871094 13.753906 67.355469 12.996094 71.058594 14.609375 C 72.863281 15.460938 73.714844 16.316406 74.476562 17.550781 C 75.234375 18.785156 75.519531 20.589844 75.425781 22.011719 C 75.234375 23.339844 74.476562 24.953125 73.433594 26 C 72.484375 27.042969 70.679688 27.800781 69.445312 28.085938 C 68.589844 28.277344 68.023438 28.277344 67.167969 27.992188 C 66.027344 27.707031 64.128906 26.664062 63.277344 25.902344 C 62.609375 25.335938 62.328125 24.765625 62.042969 24.003906 C 61.660156 22.867188 61.28125 20.875 61.566406 19.542969 C 61.945312 18.121094 62.894531 16.601562 63.941406 15.746094 C 65.078125 14.796875 66.976562 14.230469 68.117188 14.132812 C 68.972656 14.039062 69.539062 14.039062 70.394531 14.417969 C 71.535156 14.796875 73.242188 15.84375 74.097656 16.980469 C 74.855469 18.121094 75.425781 19.828125 75.425781 21.253906 C 75.425781 22.582031 74.855469 24.289062 73.90625 25.429688 C 73.050781 26.570312 71.914062 27.519531 70.203125 27.898438 C 67.546875 28.5625 62.992188 27.613281 59.003906 26.949219 C 54.351562 26.09375 48.847656 23.625 43.914062 22.867188 C 39.167969 22.105469 35.179688 23.339844 29.863281 22.203125 C 22.269531 20.589844 6.894531 14.988281 3.097656 11.667969 C 1.578125 10.335938 1.105469 9.101562 0.914062 7.679688 C 0.722656 6.351562 1.105469 4.453125 1.863281 3.3125 C 2.621094 2.175781 4.234375 1.035156 5.566406 0.65625 C 6.894531 0.371094 10.027344 1.128906 10.027344 1.128906 " clip-rule="nonzero"/></clipPath><clipPath id="4a48d25a56"><rect x="0" width="76" y="0" height="29"/></clipPath><clipPath id="4ba2e67668"><path d="M 71.046875 194.589844 L 169.320312 194.589844 L 169.320312 214.558594 L 71.046875 214.558594 Z M 71.046875 194.589844 " clip-rule="nonzero"/></clipPath><clipPath id="3d751ba50e"><path d="M 78.664062 194.6875 C 116.0625 200.476562 133.335938 200 140.929688 200 C 144.441406 200 146.246094 200.476562 148.617188 199.90625 C 150.992188 199.433594 152.699219 197.722656 155.261719 197.058594 C 158.300781 196.203125 165.894531 195.636719 165.894531 195.636719 C 165.894531 195.636719 159.25 196.300781 159.25 196.300781 C 159.25 196.394531 162.855469 195.636719 164.375 196.109375 C 165.894531 196.679688 167.507812 198.007812 168.363281 199.433594 C 169.121094 200.761719 169.5 202.847656 169.121094 204.460938 C 168.835938 205.980469 167.316406 207.878906 166.367188 208.734375 C 165.894531 209.207031 164.945312 209.683594 164.945312 209.589844 C 164.753906 209.398438 168.933594 204.746094 169.027344 204.84375 C 169.121094 204.9375 167.601562 207.785156 166.464844 208.640625 C 165.324219 209.589844 163.617188 210.15625 162.097656 210.15625 C 160.675781 210.15625 158.964844 209.589844 157.730469 208.734375 C 156.59375 207.878906 155.644531 206.078125 155.167969 204.9375 C 154.882812 204.082031 154.789062 203.511719 154.882812 202.660156 C 155.074219 201.425781 155.644531 199.433594 156.59375 198.386719 C 157.542969 197.25 159.058594 196.300781 160.484375 195.921875 C 161.90625 195.636719 163.804688 195.824219 165.039062 196.394531 C 166.367188 197.058594 167.792969 198.292969 168.457031 199.527344 C 169.121094 200.855469 169.40625 202.660156 169.214844 204.082031 C 169.027344 205.507812 168.171875 207.121094 167.128906 208.164062 C 165.988281 209.207031 164.089844 209.875 162.953125 210.15625 C 162.097656 210.253906 161.339844 210.15625 160.578125 209.96875 C 159.820312 209.875 159.15625 209.683594 158.394531 209.207031 C 157.445312 208.449219 156.023438 206.742188 155.453125 205.695312 C 155.074219 204.9375 154.789062 204.367188 154.882812 203.417969 C 155.167969 201.617188 158.015625 197.34375 159.25 196.300781 C 159.914062 195.921875 160.292969 195.921875 160.957031 195.824219 C 161.90625 195.730469 163.238281 195.730469 164.375 196.109375 C 165.800781 196.679688 167.507812 198.007812 168.363281 199.433594 C 169.121094 200.761719 169.5 202.847656 169.121094 204.460938 C 168.835938 205.980469 167.316406 207.878906 166.367188 208.734375 C 165.894531 209.207031 165.609375 209.589844 164.945312 209.589844 C 163.332031 209.589844 157.160156 204.84375 157.257812 204.652344 C 157.351562 204.460938 163.519531 206.457031 163.519531 207.59375 C 163.519531 209.398438 152.890625 213.289062 148.617188 214.144531 C 145.675781 214.808594 144.441406 214.238281 140.929688 214.144531 C 133.242188 213.953125 115.777344 213.859375 104.480469 212.53125 C 94.421875 211.390625 80.5625 208.640625 76.101562 207.121094 C 74.675781 206.742188 74.109375 206.457031 73.347656 205.886719 C 72.589844 205.222656 71.925781 204.460938 71.542969 203.417969 C 71.070312 202.183594 70.878906 200.285156 71.355469 198.957031 C 71.828125 197.628906 72.96875 196.109375 74.203125 195.445312 C 75.4375 194.78125 78.664062 194.6875 78.664062 194.6875 " clip-rule="nonzero"/></clipPath><clipPath id="bddeba49e9"><path d="M 0.046875 0.589844 L 98.320312 0.589844 L 98.320312 20.558594 L 0.046875 20.558594 Z M 0.046875 0.589844 " clip-rule="nonzero"/></clipPath><clipPath id="409b805e24"><path d="M 7.664062 0.6875 C 45.0625 6.476562 62.335938 6 69.929688 6 C 73.441406 6 75.246094 6.476562 77.617188 5.90625 C 79.992188 5.433594 81.699219 3.722656 84.261719 3.058594 C 87.300781 2.203125 94.894531 1.636719 94.894531 1.636719 C 94.894531 1.636719 88.25 2.300781 88.25 2.300781 C 88.25 2.394531 91.855469 1.636719 93.375 2.109375 C 94.894531 2.679688 96.507812 4.007812 97.363281 5.433594 C 98.121094 6.761719 98.5 8.847656 98.121094 10.460938 C 97.835938 11.980469 96.316406 13.878906 95.367188 14.734375 C 94.894531 15.207031 93.945312 15.683594 93.945312 15.589844 C 93.753906 15.398438 97.933594 10.746094 98.027344 10.84375 C 98.121094 10.9375 96.601562 13.785156 95.464844 14.640625 C 94.324219 15.589844 92.617188 16.15625 91.097656 16.15625 C 89.675781 16.15625 87.964844 15.589844 86.730469 14.734375 C 85.59375 13.878906 84.644531 12.078125 84.167969 10.9375 C 83.882812 10.082031 83.789062 9.511719 83.882812 8.660156 C 84.074219 7.425781 84.644531 5.433594 85.59375 4.386719 C 86.542969 3.25 88.058594 2.300781 89.484375 1.921875 C 90.90625 1.636719 92.804688 1.824219 94.039062 2.394531 C 95.367188 3.058594 96.792969 4.292969 97.457031 5.527344 C 98.121094 6.855469 98.40625 8.660156 98.214844 10.082031 C 98.027344 11.507812 97.171875 13.121094 96.128906 14.164062 C 94.988281 15.207031 93.089844 15.875 91.953125 16.15625 C 91.097656 16.253906 90.339844 16.15625 89.578125 15.96875 C 88.820312 15.875 88.15625 15.683594 87.394531 15.207031 C 86.445312 14.449219 85.023438 12.742188 84.453125 11.695312 C 84.074219 10.9375 83.789062 10.367188 83.882812 9.417969 C 84.167969 7.617188 87.015625 3.34375 88.25 2.300781 C 88.914062 1.921875 89.292969 1.921875 89.957031 1.824219 C 90.90625 1.730469 92.238281 1.730469 93.375 2.109375 C 94.800781 2.679688 96.507812 4.007812 97.363281 5.433594 C 98.121094 6.761719 98.5 8.847656 98.121094 10.460938 C 97.835938 11.980469 96.316406 13.878906 95.367188 14.734375 C 94.894531 15.207031 94.609375 15.589844 93.945312 15.589844 C 92.332031 15.589844 86.160156 10.84375 86.257812 10.652344 C 86.351562 10.460938 92.519531 12.457031 92.519531 13.59375 C 92.519531 15.398438 81.890625 19.289062 77.617188 20.144531 C 74.675781 20.808594 73.441406 20.238281 69.929688 20.144531 C 62.242188 19.953125 44.777344 19.859375 33.480469 18.53125 C 23.421875 17.390625 9.5625 14.640625 5.101562 13.121094 C 3.675781 12.742188 3.109375 12.457031 2.347656 11.886719 C 1.589844 11.222656 0.925781 10.460938 0.542969 9.417969 C 0.0703125 8.183594 -0.121094 6.285156 0.355469 4.957031 C 0.828125 3.628906 1.96875 2.109375 3.203125 1.445312 C 4.4375 0.78125 7.664062 0.6875 7.664062 0.6875 " clip-rule="nonzero"/></clipPath><clipPath id="b50c6b443b"><rect x="0" width="99" y="0" height="21"/></clipPath><clipPath id="55ea63be89"><path d="M 43 178.425781 L 159.347656 178.425781 L 159.347656 207.246094 L 43 207.246094 Z M 43 178.425781 " clip-rule="nonzero"/></clipPath><clipPath id="0d076b744a"><path d="M 152.890625 205.222656 C 127.546875 203.988281 126.789062 202.660156 123.371094 201.617188 C 116.820312 199.71875 104.007812 197.722656 93.472656 196.300781 C 81.699219 194.6875 60.058594 196.773438 55.882812 192.789062 C 54.175781 191.175781 53.699219 187.566406 55.027344 186.332031 C 58.257812 183.296875 88.820312 190.792969 94.039062 194.210938 C 95.75 195.445312 96.222656 196.679688 96.507812 198.007812 C 96.886719 199.433594 96.792969 201.234375 96.320312 202.5625 C 95.75 203.988281 94.515625 205.316406 93.28125 206.078125 C 92.046875 206.835938 90.054688 207.121094 88.820312 207.027344 C 87.964844 207.027344 87.300781 206.835938 86.542969 206.359375 C 85.496094 205.792969 83.980469 204.273438 83.316406 203.230469 C 82.839844 202.46875 82.648438 201.898438 82.554688 201.046875 C 82.460938 199.8125 82.839844 197.628906 83.316406 196.488281 C 83.695312 195.730469 84.074219 195.253906 84.738281 194.6875 C 85.6875 193.925781 87.492188 192.882812 88.914062 192.789062 C 90.339844 192.597656 92.238281 193.261719 93.375 193.832031 C 94.136719 194.210938 94.609375 194.589844 95.085938 195.253906 C 95.84375 196.300781 96.699219 198.101562 96.792969 199.527344 C 96.886719 201.046875 96.128906 202.945312 95.558594 203.988281 C 95.085938 204.746094 94.703125 205.222656 93.945312 205.601562 C 92.902344 206.265625 91.097656 206.835938 89.578125 207.121094 C 88.15625 207.308594 87.207031 207.214844 85.023438 207.027344 C 79.613281 206.457031 63.285156 203.417969 56.640625 201.140625 C 52.84375 199.90625 50.28125 199.050781 48.003906 197.058594 C 45.726562 195.160156 43.257812 192.21875 43.070312 189.464844 C 42.785156 186.523438 44.871094 181.871094 47.246094 180.070312 C 49.429688 178.359375 52.371094 178.644531 56.359375 178.550781 C 64.234375 178.265625 80.085938 180.351562 91.003906 182.0625 C 100.78125 183.675781 112.171875 187.1875 118.625 188.230469 C 122.042969 188.707031 124.035156 188.230469 126.503906 188.894531 C 128.78125 189.464844 130.203125 191.175781 133.050781 191.933594 C 138.082031 193.074219 150.328125 191.363281 154.410156 192.691406 C 156.308594 193.355469 157.351562 194.117188 158.109375 195.253906 C 158.964844 196.394531 159.441406 198.292969 159.25 199.621094 C 159.058594 201.046875 158.207031 202.753906 157.160156 203.609375 C 156.117188 204.558594 152.890625 205.222656 152.890625 205.222656 " clip-rule="nonzero"/></clipPath><clipPath id="ecd52c0464"><path d="M 0 0.425781 L 116.347656 0.425781 L 116.347656 29.246094 L 0 29.246094 Z M 0 0.425781 " clip-rule="nonzero"/></clipPath><clipPath id="5a27681bf7"><path d="M 109.890625 27.222656 C 84.546875 25.988281 83.789062 24.660156 80.371094 23.617188 C 73.820312 21.71875 61.007812 19.722656 50.472656 18.300781 C 38.699219 16.6875 17.058594 18.773438 12.882812 14.789062 C 11.175781 13.175781 10.699219 9.566406 12.027344 8.332031 C 15.257812 5.296875 45.820312 12.792969 51.039062 16.210938 C 52.75 17.445312 53.222656 18.679688 53.507812 20.007812 C 53.886719 21.433594 53.792969 23.234375 53.320312 24.5625 C 52.75 25.988281 51.515625 27.316406 50.28125 28.078125 C 49.046875 28.835938 47.054688 29.121094 45.820312 29.027344 C 44.964844 29.027344 44.300781 28.835938 43.542969 28.359375 C 42.496094 27.792969 40.980469 26.273438 40.316406 25.230469 C 39.839844 24.46875 39.648438 23.898438 39.554688 23.046875 C 39.460938 21.8125 39.839844 19.628906 40.316406 18.488281 C 40.695312 17.730469 41.074219 17.253906 41.738281 16.6875 C 42.6875 15.925781 44.492188 14.882812 45.914062 14.789062 C 47.339844 14.597656 49.238281 15.261719 50.375 15.832031 C 51.136719 16.210938 51.609375 16.589844 52.085938 17.253906 C 52.84375 18.300781 53.699219 20.101562 53.792969 21.527344 C 53.886719 23.046875 53.128906 24.945312 52.558594 25.988281 C 52.085938 26.746094 51.703125 27.222656 50.945312 27.601562 C 49.902344 28.265625 48.097656 28.835938 46.578125 29.121094 C 45.15625 29.308594 44.207031 29.214844 42.023438 29.027344 C 36.613281 28.457031 20.285156 25.417969 13.640625 23.140625 C 9.84375 21.90625 7.28125 21.050781 5.003906 19.058594 C 2.726562 17.160156 0.257812 14.21875 0.0703125 11.464844 C -0.214844 8.523438 1.871094 3.871094 4.246094 2.070312 C 6.429688 0.359375 9.371094 0.644531 13.359375 0.550781 C 21.234375 0.265625 37.085938 2.351562 48.003906 4.0625 C 57.78125 5.675781 69.171875 9.1875 75.625 10.230469 C 79.042969 10.707031 81.035156 10.230469 83.503906 10.894531 C 85.78125 11.464844 87.203125 13.175781 90.050781 13.933594 C 95.082031 15.074219 107.328125 13.363281 111.410156 14.691406 C 113.308594 15.355469 114.351562 16.117188 115.109375 17.253906 C 115.964844 18.394531 116.441406 20.292969 116.25 21.621094 C 116.058594 23.046875 115.207031 24.753906 114.160156 25.609375 C 113.117188 26.558594 109.890625 27.222656 109.890625 27.222656 " clip-rule="nonzero"/></clipPath><clipPath id="16ddd2ca53"><rect x="0" width="117" y="0" height="30"/></clipPath><clipPath id="f8f37d64ca"><path d="M 108.367188 182.910156 L 150 182.910156 L 150 201.5 L 108.367188 201.5 Z M 108.367188 182.910156 " clip-rule="nonzero"/></clipPath><clipPath id="78e3d293f2"><path d="M 144.441406 201.140625 C 136.375 201.710938 133.242188 201.332031 129.636719 200.570312 C 124.414062 199.527344 114.164062 197.34375 111.03125 194.972656 C 109.605469 193.925781 109.039062 192.691406 108.753906 191.457031 C 108.375 190.128906 108.375 188.421875 108.941406 187.1875 C 109.796875 185.667969 111.980469 183.582031 113.785156 183.199219 C 115.585938 182.820312 118.433594 183.582031 119.761719 184.910156 C 121.09375 186.144531 122.042969 188.992188 121.757812 190.792969 C 121.378906 192.691406 119.574219 195.066406 117.867188 195.824219 C 116.25 196.585938 113.214844 196.394531 111.695312 195.351562 C 110.082031 194.402344 108.5625 191.839844 108.46875 190.035156 C 108.375 188.136719 109.890625 185.480469 111.125 184.339844 C 112.265625 183.390625 113.5 183.199219 115.207031 183.011719 C 117.769531 182.820312 121.660156 183.769531 125.078125 184.71875 C 129.066406 185.667969 134.191406 188.609375 137.796875 189.085938 C 140.359375 189.464844 142.828125 188.230469 144.539062 188.515625 C 145.773438 188.707031 146.53125 189.085938 147.386719 189.65625 C 148.144531 190.226562 148.902344 190.984375 149.378906 191.933594 C 149.851562 193.074219 150.136719 195.160156 149.851562 196.394531 C 149.664062 197.4375 149.1875 198.292969 148.429688 199.050781 C 147.480469 200 144.441406 201.140625 144.441406 201.140625 " clip-rule="nonzero"/></clipPath><clipPath id="ce45c10398"><path d="M 0.367188 0.910156 L 42 0.910156 L 42 19.5 L 0.367188 19.5 Z M 0.367188 0.910156 " clip-rule="nonzero"/></clipPath><clipPath id="2b083885fb"><path d="M 36.441406 19.140625 C 28.375 19.710938 25.242188 19.332031 21.636719 18.570312 C 16.414062 17.527344 6.164062 15.34375 3.03125 12.972656 C 1.605469 11.925781 1.039062 10.691406 0.753906 9.457031 C 0.375 8.128906 0.375 6.421875 0.941406 5.1875 C 1.796875 3.667969 3.980469 1.582031 5.785156 1.199219 C 7.585938 0.820312 10.433594 1.582031 11.761719 2.910156 C 13.09375 4.144531 14.042969 6.992188 13.757812 8.792969 C 13.378906 10.691406 11.574219 13.066406 9.867188 13.824219 C 8.25 14.585938 5.214844 14.394531 3.695312 13.351562 C 2.082031 12.402344 0.5625 9.839844 0.46875 8.035156 C 0.375 6.136719 1.890625 3.480469 3.125 2.339844 C 4.265625 1.390625 5.5 1.199219 7.207031 1.011719 C 9.769531 0.820312 13.660156 1.769531 17.078125 2.71875 C 21.066406 3.667969 26.191406 6.609375 29.796875 7.085938 C 32.359375 7.464844 34.828125 6.230469 36.539062 6.515625 C 37.773438 6.707031 38.53125 7.085938 39.386719 7.65625 C 40.144531 8.226562 40.902344 8.984375 41.378906 9.933594 C 41.851562 11.074219 42.136719 13.160156 41.851562 14.394531 C 41.664062 15.4375 41.1875 16.292969 40.429688 17.050781 C 39.480469 18 36.441406 19.140625 36.441406 19.140625 " clip-rule="nonzero"/></clipPath><clipPath id="35284edfe4"><rect x="0" width="42" y="0" height="20"/></clipPath><clipPath id="ff0776d48c"><path d="M 40.566406 183.65625 L 52.691406 183.65625 L 52.691406 195.9375 L 40.566406 195.9375 Z M 40.566406 183.65625 " clip-rule="nonzero"/></clipPath><clipPath id="e72cd90f32"><path d="M 52.65625 187.851562 C 51.042969 194.402344 50.1875 194.972656 49.332031 195.351562 C 48.382812 195.730469 47.433594 196.015625 46.390625 195.824219 C 44.96875 195.636719 42.40625 194.117188 41.457031 192.882812 C 40.789062 192.027344 40.507812 191.175781 40.601562 190.035156 C 40.695312 188.609375 41.644531 185.859375 42.972656 184.816406 C 44.304688 183.769531 47.152344 183.582031 48.574219 183.769531 C 49.617188 184.054688 51.136719 185.382812 51.136719 185.382812 " clip-rule="nonzero"/></clipPath><clipPath id="59c5d0f663"><path d="M 0.566406 0.65625 L 12.691406 0.65625 L 12.691406 12.9375 L 0.566406 12.9375 Z M 0.566406 0.65625 " clip-rule="nonzero"/></clipPath><clipPath id="4ee4965acf"><path d="M 12.65625 4.851562 C 11.042969 11.402344 10.1875 11.972656 9.332031 12.351562 C 8.382812 12.730469 7.433594 13.015625 6.390625 12.824219 C 4.96875 12.636719 2.40625 11.117188 1.457031 9.882812 C 0.789062 9.027344 0.507812 8.175781 0.601562 7.035156 C 0.695312 5.609375 1.644531 2.859375 2.972656 1.816406 C 4.304688 0.769531 7.152344 0.582031 8.574219 0.769531 C 9.617188 1.054688 11.136719 2.382812 11.136719 2.382812 " clip-rule="nonzero"/></clipPath><clipPath id="e19cc2524e"><rect x="0" width="13" y="0" height="13"/></clipPath><clipPath id="39251de12f"><path d="M 33.285156 179.207031 L 46.960938 179.207031 L 46.960938 191.863281 L 33.285156 191.863281 Z M 33.285156 179.207031 " clip-rule="nonzero"/></clipPath><clipPath id="b493897054"><path d="M 39.652344 191.839844 C 33.671875 188.042969 33.199219 186.617188 33.386719 185.289062 C 33.671875 183.675781 34.90625 181.207031 36.425781 180.257812 C 37.847656 179.402344 40.695312 179.308594 42.214844 179.972656 C 43.828125 180.734375 45.441406 182.917969 45.726562 184.625 C 46.011719 186.332031 45.15625 188.992188 43.921875 190.128906 C 42.6875 191.269531 39.9375 192.027344 38.324219 191.648438 C 36.613281 191.363281 34.527344 189.558594 33.863281 187.945312 C 33.199219 186.332031 33.671875 183.582031 34.527344 182.15625 C 35.09375 181.019531 36.519531 180.164062 37.660156 179.6875 C 38.703125 179.308594 39.9375 179.121094 41.171875 179.308594 C 42.5 179.59375 44.207031 180.257812 45.15625 181.207031 C 46.105469 182.25 46.867188 183.960938 46.960938 185.382812 C 46.960938 186.714844 46.390625 188.515625 45.535156 189.558594 C 44.683594 190.699219 41.644531 191.839844 41.644531 191.839844 " clip-rule="nonzero"/></clipPath><clipPath id="350e72be81"><path d="M 0.285156 0.207031 L 13.960938 0.207031 L 13.960938 12.863281 L 0.285156 12.863281 Z M 0.285156 0.207031 " clip-rule="nonzero"/></clipPath><clipPath id="46bf459ee4"><path d="M 6.652344 12.839844 C 0.671875 9.042969 0.199219 7.617188 0.386719 6.289062 C 0.671875 4.675781 1.90625 2.207031 3.425781 1.257812 C 4.847656 0.402344 7.695312 0.308594 9.214844 0.972656 C 10.828125 1.734375 12.441406 3.917969 12.726562 5.625 C 13.011719 7.332031 12.15625 9.992188 10.921875 11.128906 C 9.6875 12.269531 6.9375 13.027344 5.324219 12.648438 C 3.613281 12.363281 1.527344 10.558594 0.863281 8.945312 C 0.199219 7.332031 0.671875 4.582031 1.527344 3.15625 C 2.09375 2.019531 3.519531 1.164062 4.660156 0.6875 C 5.703125 0.308594 6.9375 0.121094 8.171875 0.308594 C 9.5 0.59375 11.207031 1.257812 12.15625 2.207031 C 13.105469 3.25 13.867188 4.960938 13.960938 6.382812 C 13.960938 7.714844 13.390625 9.515625 12.535156 10.558594 C 11.683594 11.699219 8.644531 12.839844 8.644531 12.839844 " clip-rule="nonzero"/></clipPath><clipPath id="0d4ee9dbc3"><rect x="0" width="14" y="0" height="13"/></clipPath><clipPath id="79adbefaec"><path d="M 59.929688 190.699219 L 129.90625 190.699219 L 129.90625 211.679688 L 59.929688 211.679688 Z M 59.929688 190.699219 " clip-rule="nonzero"/></clipPath><clipPath id="160d5e9f16"><path d="M 67.082031 190.699219 C 128.117188 200.191406 129.160156 201.804688 129.636719 203.417969 C 130.109375 204.746094 129.824219 206.359375 129.351562 207.59375 C 128.78125 208.828125 127.738281 210.0625 126.597656 210.726562 C 125.363281 211.390625 123.84375 211.773438 122.421875 211.488281 C 120.808594 211.105469 118.339844 209.398438 117.484375 207.976562 C 116.726562 206.742188 116.632812 205.128906 116.917969 203.796875 C 117.105469 202.46875 117.769531 200.949219 118.910156 200.097656 C 120.238281 199.148438 123.085938 198.199219 124.890625 198.671875 C 126.597656 199.050781 128.78125 201.234375 129.445312 202.753906 C 130.015625 203.988281 130.015625 205.695312 129.636719 206.929688 C 129.160156 208.164062 128.210938 209.589844 127.167969 210.347656 C 126.125 211.105469 125.175781 211.488281 123.179688 211.582031 C 117.582031 211.960938 101.253906 207.308594 91.003906 205.792969 C 81.605469 204.460938 68.316406 204.746094 63.855469 202.660156 C 61.957031 201.804688 61.199219 200.855469 60.535156 199.621094 C 59.964844 198.386719 59.773438 196.585938 60.15625 195.253906 C 60.4375 193.925781 61.578125 192.40625 62.71875 191.648438 C 63.855469 190.890625 67.082031 190.699219 67.082031 190.699219 " clip-rule="nonzero"/></clipPath><clipPath id="05a9d26310"><path d="M 0.929688 0.699219 L 70.90625 0.699219 L 70.90625 21.679688 L 0.929688 21.679688 Z M 0.929688 0.699219 " clip-rule="nonzero"/></clipPath><clipPath id="30661e1355"><path d="M 8.082031 0.699219 C 69.117188 10.191406 70.160156 11.804688 70.636719 13.417969 C 71.109375 14.746094 70.824219 16.359375 70.351562 17.59375 C 69.78125 18.828125 68.738281 20.0625 67.597656 20.726562 C 66.363281 21.390625 64.84375 21.773438 63.421875 21.488281 C 61.808594 21.105469 59.339844 19.398438 58.484375 17.976562 C 57.726562 16.742188 57.632812 15.128906 57.917969 13.796875 C 58.105469 12.46875 58.769531 10.949219 59.910156 10.097656 C 61.238281 9.148438 64.085938 8.199219 65.890625 8.671875 C 67.597656 9.050781 69.78125 11.234375 70.445312 12.753906 C 71.015625 13.988281 71.015625 15.695312 70.636719 16.929688 C 70.160156 18.164062 69.210938 19.589844 68.167969 20.347656 C 67.125 21.105469 66.175781 21.488281 64.179688 21.582031 C 58.582031 21.960938 42.253906 17.308594 32.003906 15.792969 C 22.605469 14.460938 9.316406 14.746094 4.855469 12.660156 C 2.957031 11.804688 2.199219 10.855469 1.535156 9.621094 C 0.964844 8.386719 0.773438 6.585938 1.15625 5.253906 C 1.4375 3.925781 2.578125 2.40625 3.71875 1.648438 C 4.855469 0.890625 8.082031 0.699219 8.082031 0.699219 " clip-rule="nonzero"/></clipPath><clipPath id="c9f078202f"><rect x="0" width="71" y="0" height="22"/></clipPath><clipPath id="ddabe979c7"><path d="M 1.175781 178.179688 L 191.960938 178.179688 L 191.960938 263.609375 L 1.175781 263.609375 Z M 1.175781 178.179688 " clip-rule="nonzero"/></clipPath><clipPath id="005e870aba"><path d="M 404 0.125 L 487.867188 0.125 L 487.867188 92 L 404 92 Z M 404 0.125 " clip-rule="nonzero"/></clipPath><clipPath id="5d6c584fe4"><path d="M 423.523438 0.078125 L 487.929688 16.410156 L 468.796875 91.855469 L 404.394531 75.523438 Z M 423.523438 0.078125 " clip-rule="nonzero"/></clipPath><clipPath id="2a925e81ed"><path d="M 5 2 L 54 2 L 54 82 L 5 82 Z M 5 2 " clip-rule="nonzero"/></clipPath><clipPath id="176879237f"><path d="M 19.523438 0.078125 L 83.929688 16.410156 L 64.796875 91.855469 L 0.394531 75.523438 Z M 19.523438 0.078125 " clip-rule="nonzero"/></clipPath><clipPath id="67b55ce534"><path d="M 84.359375 16.519531 L 19.957031 0.1875 L 0.824219 75.632812 L 65.230469 91.964844 Z M 84.359375 16.519531 " clip-rule="nonzero"/></clipPath><clipPath id="40f716e1b0"><path d="M 7 29 L 75 29 L 75 68 L 7 68 Z M 7 29 " clip-rule="nonzero"/></clipPath><clipPath id="f9315ee1d6"><path d="M 19.523438 0.078125 L 83.929688 16.410156 L 64.796875 91.855469 L 0.394531 75.523438 Z M 19.523438 0.078125 " clip-rule="nonzero"/></clipPath><clipPath id="c53cefa162"><path d="M 84.359375 16.519531 L 19.957031 0.1875 L 0.824219 75.632812 L 65.230469 91.964844 Z M 84.359375 16.519531 " clip-rule="nonzero"/></clipPath><clipPath id="74e917d360"><rect x="0" width="84" y="0" height="92"/></clipPath><clipPath id="7ecfffa814"><path d="M 60 32 L 481 32 L 481 296.140625 L 60 296.140625 Z M 60 32 " clip-rule="nonzero"/></clipPath><clipPath id="59e52a0753"><rect x="0" width="421" y="0" height="265"/></clipPath><clipPath id="01e9d20d0d"><rect x="0" width="488" y="0" height="297"/></clipPath></defs><g transform="matrix(1, 0, 0, 1, 33, 26)"><g clip-path="url(#01e9d20d0d)"><g clip-path="url(#f3512bd132)"><g clip-path="url(#dd907c290b)"><g transform="matrix(1, 0, 0, 1, 141, 226)"><g clip-path="url(#3741ac6cac)"><g clip-path="url(#6a68619294)"><g clip-path="url(#67277f17cd)"><rect x="-393.765" width="1043.28" fill="#00497d" y="-391.229996" height="660.95998" fill-opacity="1"/></g></g></g></g></g></g><g clip-path="url(#7043fd5f81)"><g clip-path="url(#5c75c6dd6e)"><g transform="matrix(1, 0, 0, 1, 28, 183)"><g clip-path="url(#731bd51f1b)"><g clip-path="url(#77cc5cbc2a)"><g clip-path="url(#d6aab16dd7)"><rect x="-280.765" width="1043.28" fill="#00497d" y="-348.229996" height="660.95998" fill-opacity="1"/></g></g></g></g></g></g><g clip-path="url(#e46b4f3ccf)"><g clip-path="url(#b074a9f723)"><g transform="matrix(1, 0, 0, 1, 67, 191)"><g clip-path="url(#ead0003b88)"><g clip-path="url(#358edf7a30)"><g clip-path="url(#7534009eeb)"><rect x="-319.765" width="1043.28" fill="#00497d" y="-356.229996" height="660.95998" fill-opacity="1"/></g></g></g></g></g></g><g clip-path="url(#642a477903)"><g clip-path="url(#167729b50d)"><g transform="matrix(1, 0, 0, 1, 60, 189)"><g clip-path="url(#4a48d25a56)"><g clip-path="url(#093e8aa11d)"><g clip-path="url(#6a94b16a3c)"><rect x="-312.765" width="1043.28" fill="#00497d" y="-354.229996" height="660.95998" fill-opacity="1"/></g></g></g></g></g></g><g clip-path="url(#4ba2e67668)"><g clip-path="url(#3d751ba50e)"><g transform="matrix(1, 0, 0, 1, 71, 194)"><g clip-path="url(#b50c6b443b)"><g clip-path="url(#bddeba49e9)"><g clip-path="url(#409b805e24)"><rect x="-323.765" width="1043.28" fill="#00497d" y="-359.229996" height="660.95998" fill-opacity="1"/></g></g></g></g></g></g><g clip-path="url(#55ea63be89)"><g clip-path="url(#0d076b744a)"><g transform="matrix(1, 0, 0, 1, 43, 178)"><g clip-path="url(#16ddd2ca53)"><g clip-path="url(#ecd52c0464)"><g clip-path="url(#5a27681bf7)"><rect x="-295.765" width="1043.28" fill="#00497d" y="-343.229996" height="660.95998" fill-opacity="1"/></g></g></g></g></g></g><g clip-path="url(#f8f37d64ca)"><g clip-path="url(#78e3d293f2)"><g transform="matrix(1, 0, 0, 1, 108, 182)"><g clip-path="url(#35284edfe4)"><g clip-path="url(#ce45c10398)"><g clip-path="url(#2b083885fb)"><rect x="-360.765" width="1043.28" fill="#00497d" y="-347.229996" height="660.95998" fill-opacity="1"/></g></g></g></g></g></g><g clip-path="url(#ff0776d48c)"><g clip-path="url(#e72cd90f32)"><g transform="matrix(1, 0, 0, 1, 40, 183)"><g clip-path="url(#e19cc2524e)"><g clip-path="url(#59c5d0f663)"><g clip-path="url(#4ee4965acf)"><rect x="-292.765" width="1043.28" fill="#00497d" y="-348.229996" height="660.95998" fill-opacity="1"/></g></g></g></g></g></g><g clip-path="url(#39251de12f)"><g clip-path="url(#b493897054)"><g transform="matrix(1, 0, 0, 1, 33, 179)"><g clip-path="url(#0d4ee9dbc3)"><g clip-path="url(#350e72be81)"><g clip-path="url(#46bf459ee4)"><rect x="-285.765" width="1043.28" fill="#00497d" y="-344.229996" height="660.95998" fill-opacity="1"/></g></g></g></g></g></g><g clip-path="url(#79adbefaec)"><g clip-path="url(#160d5e9f16)"><g transform="matrix(1, 0, 0, 1, 59, 190)"><g clip-path="url(#c9f078202f)"><g clip-path="url(#05a9d26310)"><g clip-path="url(#30661e1355)"><rect x="-311.765" width="1043.28" fill="#00497d" y="-355.229996" height="660.95998" fill-opacity="1"/></g></g></g></g></g></g><g clip-path="url(#ddabe979c7)"><path fill="#00497d" d="M 185.304688 245.160156 C 184.886719 247.082031 184.195312 248.910156 182.679688 250.238281 C 181.242188 251.5 179.285156 252.1875 177.449219 252.609375 C 172.777344 253.691406 167.976562 254.421875 163.230469 255.113281 C 153.660156 256.503906 143.984375 257.273438 134.3125 257.476562 C 114.746094 257.890625 95.164062 255.910156 76.082031 251.574219 C 57.003906 247.238281 38.421875 240.660156 20.972656 231.800781 C 18.804688 230.699219 16.65625 229.5625 14.519531 228.394531 C 12.5625 227.320312 10.339844 226.394531 8.683594 224.855469 C 5.542969 221.933594 7.421875 216.484375 8.566406 213.019531 C 11.265625 204.851562 16.371094 197.449219 22.859375 191.820312 C 23.167969 191.558594 23.476562 191.300781 23.789062 191.046875 C 24.175781 192.296875 24.863281 193.464844 25.75 194.492188 C 27.457031 196.472656 29.953125 197.886719 32.25 199.074219 C 34.773438 200.378906 77.265625 212.796875 93.984375 214.90625 C 105.210938 216.320312 116.546875 217.230469 127.855469 217.632812 C 138.996094 218.027344 150.480469 217.617188 161.140625 214.050781 C 163.789062 213.164062 166.40625 212.09375 168.890625 210.8125 C 170.972656 209.738281 172.9375 208.25 173.871094 206.066406 C 174.773438 207.070312 175.628906 208.109375 176.421875 209.195312 C 178.90625 212.613281 181.039062 216.386719 182.550781 220.300781 C 184.039062 224.15625 185.15625 228.359375 185.59375 232.378906 C 186.050781 236.546875 186.203125 241.039062 185.304688 245.160156 Z M 29.597656 188.601562 C 29.613281 188.53125 29.628906 188.460938 29.652344 188.390625 C 29.671875 188.335938 29.722656 188.207031 29.75 188.15625 C 29.796875 188.058594 29.828125 187.996094 29.847656 187.953125 C 29.976562 187.804688 30.125 187.667969 30.257812 187.527344 C 31.105469 186.636719 32.816406 185.976562 34.382812 185.570312 C 36.488281 185.019531 38.292969 185 40.683594 184.863281 C 46.308594 184.542969 51.9375 184.351562 57.566406 184.289062 C 80.171875 184.050781 102.820312 185.882812 125.078125 189.851562 C 136.253906 191.847656 147.332031 194.359375 158.269531 197.390625 C 161.632812 198.324219 167.148438 199.25 168.898438 202.6875 C 169.101562 203.089844 169.222656 203.429688 169.011719 203.96875 C 168.707031 204.742188 167.960938 205.242188 167.277344 205.65625 C 165.203125 206.910156 162.898438 207.84375 160.621094 208.652344 C 150.894531 212.113281 140.484375 212.699219 130.25 212.472656 C 119.753906 212.242188 109.246094 211.261719 98.792969 210.300781 C 69.078125 207.5625 41.851562 196.394531 38.324219 194.988281 C 37.019531 194.382812 35.714844 193.773438 34.417969 193.148438 C 32.847656 192.324219 31.023438 191.339844 30.023438 189.945312 C 29.75 189.5625 29.652344 189.300781 29.582031 188.890625 C 29.667969 189.398438 29.691406 188.28125 29.597656 188.601562 Z M 190.691406 224.542969 C 188.402344 215.308594 183.648438 206.632812 177.050781 199.773438 C 175.339844 197.992188 167.636719 194.78125 167.234375 194.597656 C 164.75 193.449219 162.101562 192.777344 159.476562 192.039062 C 156.558594 191.21875 153.628906 190.433594 150.691406 189.683594 C 144.730469 188.167969 138.730469 186.804688 132.703125 185.589844 C 108.671875 180.746094 84.160156 178.265625 59.648438 178.28125 C 53.582031 178.28125 47.519531 178.441406 41.464844 178.75 C 36.769531 178.988281 25.34375 183.664062 24.574219 184.875 C 16.839844 189.71875 10.453125 196.617188 6.285156 204.746094 C 4.132812 208.941406 2.261719 213.617188 1.578125 218.304688 C 1.179688 221.0625 1.292969 223.804688 2.519531 226.355469 C 3.675781 228.757812 5.773438 230.453125 7.988281 231.839844 C 16.914062 237.425781 26.777344 241.816406 36.5 245.804688 C 46.082031 249.730469 55.914062 253.039062 65.921875 255.679688 C 86.28125 261.046875 107.375 263.820312 128.429688 263.859375 C 138.859375 263.882812 149.296875 263.238281 159.636719 261.871094 C 164.886719 261.175781 170.117188 260.332031 175.316406 259.296875 C 179.941406 258.375 185.152344 257.027344 188.246094 253.183594 C 191.5 249.136719 192.101562 243.644531 192.265625 238.621094 C 192.417969 233.90625 191.820312 229.117188 190.691406 224.542969 " fill-opacity="1" fill-rule="nonzero"/></g><path fill="#00497d" d="M 67.753906 223.019531 C 66.578125 225.738281 63.730469 225.863281 61.109375 225.28125 C 61.730469 224.03125 62.394531 222.804688 63.101562 221.601562 C 63.847656 221.734375 64.675781 221.488281 65.25 220.675781 C 65.621094 220.160156 66.625 220.347656 67.222656 220.734375 C 68 221.230469 68.152344 222.09375 67.753906 223.019531 Z M 68.152344 216.3125 C 66.546875 215.804688 64.753906 215.9375 63.363281 216.769531 C 62.503906 216.410156 61.417969 216.535156 60.75 217.523438 C 59.300781 219.671875 57.996094 221.902344 56.839844 224.199219 C 56.03125 224.410156 55.304688 225.121094 55.097656 225.882812 C 54.921875 226.507812 55.015625 227.074219 55.285156 227.546875 C 53.738281 231.167969 52.542969 234.945312 51.730469 238.84375 C 51.144531 241.648438 55.460938 242.84375 56.035156 240.027344 C 56.761719 236.464844 57.816406 232.964844 59.175781 229.589844 C 61.78125 230.324219 64.5625 230.527344 67.109375 229.496094 C 70.007812 228.324219 72.304688 225.613281 72.5 222.425781 C 72.675781 219.570312 70.824219 217.160156 68.152344 216.3125 " fill-opacity="1" fill-rule="nonzero"/><path fill="#00497d" d="M 97.160156 222.515625 C 93.617188 222.777344 90.21875 222.710938 86.773438 221.761719 C 86.117188 221.582031 85.5625 221.6875 85.136719 221.960938 C 84.265625 221.492188 83.132812 221.589844 82.503906 222.722656 C 78.628906 229.75 76.222656 237.289062 75.207031 245.242188 C 75.09375 246.136719 76.003906 247.34375 76.90625 247.476562 C 81.53125 248.15625 86.769531 248.347656 91.242188 246.757812 C 92.300781 246.382812 93.035156 245.4375 92.863281 244.277344 C 92.714844 243.289062 91.769531 242.171875 90.644531 242.320312 C 88.460938 242.609375 86.320312 243.066406 84.117188 243.179688 C 82.789062 243.25 81.457031 243.242188 80.128906 243.164062 C 80.480469 240.925781 80.957031 238.703125 81.554688 236.511719 C 84.117188 237.132812 86.871094 237.933594 89.503906 237.984375 C 92.027344 238.035156 92.296875 234.527344 90.074219 233.757812 C 87.8125 232.972656 85.210938 232.773438 82.792969 232.511719 C 83.585938 230.222656 84.515625 227.980469 85.566406 225.808594 C 85.59375 225.820312 85.621094 225.832031 85.652344 225.84375 C 89.503906 227.207031 93.722656 227.636719 97.730469 226.746094 C 100.070312 226.226562 99.601562 222.339844 97.160156 222.515625 " fill-opacity="1" fill-rule="nonzero"/><path fill="#00497d" d="M 128.742188 231.328125 C 125.402344 230.5625 122.023438 229.914062 118.636719 229.308594 C 117.972656 228.5625 116.71875 228.355469 115.820312 228.808594 C 113.25 228.359375 110.683594 227.917969 108.125 227.453125 C 105.539062 226.980469 104.414062 230.914062 107.027344 231.429688 C 109.453125 231.90625 111.878906 232.410156 114.304688 232.90625 C 113.960938 234.96875 113.6875 237.050781 113.375 239.113281 C 112.914062 242.125 112.222656 245.199219 112.195312 248.25 C 112.175781 250.730469 115.820312 251.203125 116.496094 248.828125 C 117.328125 245.925781 117.523438 242.804688 117.929688 239.816406 C 118.199219 237.816406 118.515625 235.808594 118.765625 233.800781 C 121.710938 234.378906 124.667969 234.917969 127.628906 235.367188 C 128.757812 235.535156 129.867188 235.082031 130.207031 233.902344 C 130.507812 232.851562 129.839844 231.582031 128.742188 231.328125 " fill-opacity="1" fill-rule="nonzero"/><path fill="#00497d" d="M 171.175781 233.3125 C 170.75 229.605469 168.046875 226.609375 164.195312 226.433594 C 161.257812 226.296875 158.363281 227.773438 156.015625 229.652344 C 155.089844 228.296875 154.019531 227.039062 152.5625 226.242188 C 149.347656 224.484375 145.730469 225.867188 143.714844 228.722656 C 141.457031 231.925781 142.113281 235.859375 143.753906 239.164062 C 145.285156 242.242188 147.511719 245.601562 150.304688 247.65625 C 151.582031 248.597656 153.105469 249.300781 154.707031 249.410156 C 156.472656 249.53125 158.5 248.851562 160.050781 248.0625 C 161.492188 247.332031 162.816406 246.324219 164.117188 245.363281 C 165.523438 244.324219 166.933594 243.242188 168.101562 241.925781 C 170.222656 239.539062 171.550781 236.554688 171.175781 233.3125 " fill-opacity="1" fill-rule="nonzero"/><g clip-path="url(#005e870aba)"><g clip-path="url(#5d6c584fe4)"><g transform="matrix(1, 0, 0, 1, 404, 0)"><g clip-path="url(#74e917d360)"><g clip-path="url(#2a925e81ed)"><g clip-path="url(#176879237f)"><g clip-path="url(#67b55ce534)"><path fill="#eb4f26" d="M 21.191406 5.835938 C 23.535156 8.554688 27.410156 8.363281 30.222656 12.855469 C 34.082031 18.382812 35.628906 25.289062 35.507812 32.03125 C 35.382812 38.769531 33.6875 45.386719 31.53125 51.769531 C 29.574219 57.566406 27.117188 63.390625 22.796875 67.722656 C 18.476562 72.050781 11.898438 74.601562 6.09375 72.675781 C 5.601562 73.644531 5.378906 74.113281 6.0625 74.960938 C 6.296875 75.210938 6.5625 75.425781 6.859375 75.605469 C 8.144531 76.488281 9.53125 77.15625 11.019531 77.609375 C 12.65625 78.117188 14.082031 79.007812 15.730469 79.40625 C 19.648438 80.351562 23.566406 81.527344 27.597656 81.558594 C 31.363281 81.589844 35.34375 80.449219 37.878906 77.707031 C 37.988281 77.589844 38.015625 77.457031 37.964844 77.304688 C 37.914062 77.152344 37.808594 77.066406 37.652344 77.042969 C 36.597656 76.890625 35.613281 76.542969 34.699219 76 C 37.34375 75.515625 39.707031 74.425781 41.785156 72.722656 C 41.90625 72.621094 41.9375 72.5 41.871094 72.351562 C 41.804688 72.207031 41.691406 72.148438 41.535156 72.171875 C 40.808594 72.28125 40.082031 72.277344 39.355469 72.152344 C 41.683594 70.871094 43.53125 69.085938 44.886719 66.800781 C 44.980469 66.640625 44.976562 66.480469 44.882812 66.324219 C 44.785156 66.167969 44.644531 66.09375 44.460938 66.105469 C 43.921875 66.113281 43.425781 65.980469 42.96875 65.699219 C 44.644531 63.585938 46.269531 61.429688 47.835938 59.234375 C 48 59.003906 48.007812 58.765625 47.867188 58.519531 C 47.722656 58.277344 47.507812 58.167969 47.226562 58.199219 L 46.117188 58.320312 C 46.191406 56.3125 47.675781 54.6875 48.832031 53.039062 C 53.027344 47.050781 53.972656 42.777344 53.832031 35.796875 C 53.8125 35.265625 53.609375 34.8125 53.230469 34.441406 C 52.570312 33.777344 51.515625 32.128906 50.871094 31.984375 C 51.6875 29.425781 51.929688 26.8125 51.597656 24.148438 C 51.507812 23.4375 50.726562 23.011719 50.117188 23.382812 C 49.785156 23.582031 49.4375 23.742188 49.066406 23.859375 C 49.269531 18.894531 47.050781 14.003906 43.613281 10.414062 C 40.175781 6.828125 35.609375 4.460938 30.839844 3.066406 C 27.863281 2.195312 24.6875 1.679688 21.667969 2.476562 C 21.234375 2.582031 20.875 2.808594 20.59375 3.160156 C 19.886719 4.089844 20.542969 5.085938 21.191406 5.835938 Z M 21.191406 5.835938 " fill-opacity="1" fill-rule="nonzero"/></g></g></g><g clip-path="url(#40f716e1b0)"><g clip-path="url(#f9315ee1d6)"><g clip-path="url(#c53cefa162)"><path fill="#00497d" d="M 64.523438 65.46875 C 63.4375 66.894531 65.277344 68.871094 66.570312 67.484375 C 70.75 63.003906 73.886719 57.664062 74.664062 51.519531 C 74.925781 49.472656 72.125 48.65625 71.496094 50.714844 C 69.890625 55.957031 67.871094 61.074219 64.523438 65.46875 Z M 66.339844 43.878906 C 66.964844 41.882812 70.125 42.664062 69.507812 44.683594 C 67.816406 50.234375 65.175781 55.773438 60.800781 59.683594 C 59.738281 60.632812 57.78125 59.414062 58.683594 58.085938 C 61.765625 53.546875 64.683594 49.167969 66.339844 43.878906 Z M 20.222656 29.84375 C 23.953125 34.820312 25.800781 44.574219 20.34375 49.070312 C 19.351562 49.886719 17.707031 49.1875 18.050781 47.777344 C 18.714844 45.066406 19.933594 42.550781 20.035156 39.707031 C 20.140625 36.707031 19.269531 33.882812 17.625 31.390625 C 16.535156 29.738281 19.078125 28.320312 20.222656 29.84375 Z M 11.046875 35.445312 C 11.003906 33.84375 13.421875 33.808594 13.523438 35.394531 C 13.898438 41.347656 13.378906 48.785156 9.894531 53.84375 C 9.136719 54.941406 7.246094 54.355469 7.617188 52.925781 C 8.34375 50.125 9.554688 47.496094 10.195312 44.667969 C 10.867188 41.628906 11.148438 38.554688 11.046875 35.445312 Z M 11.046875 35.445312 " fill-opacity="1" fill-rule="nonzero"/></g></g></g></g></g></g></g><g clip-path="url(#7ecfffa814)"><g transform="matrix(1, 0, 0, 1, 60, 32)"><g clip-path="url(#59e52a0753)"><g fill="#eb4f26" fill-opacity="1"><g transform="translate(3.025606, 163.870283)"><g><path d="M -1.15625 -124.953125 C -0.269531 -125.285156 1.328125 -125.503906 3.640625 -125.609375 C 5.953125 -125.722656 8.484375 -125.804688 11.234375 -125.859375 C 13.992188 -125.910156 16.582031 -125.960938 19 -126.015625 C 21.425781 -126.078125 23.132812 -126.273438 24.125 -126.609375 L 26.4375 -114.046875 L 27.4375 -108.265625 L 28.59375 -102.3125 L 30.90625 -90.734375 L 31.734375 -85.953125 L 32.890625 -80.15625 L 34.046875 -74.21875 L 35.203125 -68.421875 L 35.703125 -65.609375 L 36.03125 -63.640625 L 38.34375 -52.0625 L 39.34375 -46.109375 L 40.328125 -41.328125 L 41.484375 -35.53125 C 41.484375 -35.425781 41.507812 -35.289062 41.5625 -35.125 C 41.625 -34.957031 41.65625 -34.765625 41.65625 -34.546875 L 41.8125 -34.703125 L 42.484375 -37.015625 C 42.703125 -38.117188 43.03125 -39.191406 43.46875 -40.234375 C 43.90625 -41.285156 44.234375 -42.363281 44.453125 -43.46875 L 45.625 -47.265625 L 47.4375 -54.046875 C 47.875 -55.253906 48.148438 -56.300781 48.265625 -57.1875 L 48.921875 -60 L 50.578125 -68.09375 L 51.5625 -72.890625 L 51.890625 -75.375 L 52.890625 -80.328125 L 54.21875 -87.265625 L 55.375 -93.390625 C 55.8125 -95.585938 57.296875 -96.769531 59.828125 -96.9375 C 62.367188 -97.101562 65.234375 -97.1875 68.421875 -97.1875 C 70.960938 -97.1875 73.222656 -97.1875 75.203125 -97.1875 C 77.179688 -97.1875 79.054688 -97.238281 80.828125 -97.34375 C 80.828125 -97.125 80.769531 -96.875 80.65625 -96.59375 C 80.539062 -96.320312 80.484375 -96.023438 80.484375 -95.703125 L 79.828125 -91.5625 L 78.671875 -84.625 L 75.703125 -71.234375 L 74.046875 -64.125 L 70.734375 -50.90625 L 69.09375 -44.625 L 67.59375 -39.671875 L 66.78125 -36.6875 L 65.78125 -33.71875 L 64.125 -28.09375 L 62.3125 -22.640625 L 61.3125 -20 L 60.328125 -17.515625 L 56.03125 -5.953125 L 55.03125 -3.640625 L 53.0625 0.828125 L 50.078125 7.265625 C 47.878906 7.265625 45.867188 7.289062 44.046875 7.34375 C 42.234375 7.40625 40.441406 7.4375 38.671875 7.4375 C 35.921875 7.320312 33.523438 7.070312 31.484375 6.6875 C 29.441406 6.300781 28.257812 5.5625 27.9375 4.46875 L 27.609375 3.46875 L 26.28125 -2.15625 C 26.164062 -3.144531 25.941406 -4.242188 25.609375 -5.453125 C 25.285156 -6.660156 25.015625 -7.875 24.796875 -9.09375 L 23.96875 -13.0625 L 22.8125 -18.1875 L 21.65625 -24.796875 L 20.5 -30.75 L 19.34375 -36.859375 L 18.015625 -43.296875 L 17.03125 -48.765625 L 14.546875 -61.3125 L 13.21875 -68.09375 C 13.113281 -68.644531 12.976562 -69.222656 12.8125 -69.828125 C 12.644531 -70.429688 12.503906 -71.007812 12.390625 -71.5625 L 11.734375 -75.03125 L 11.234375 -77.359375 L 9.921875 -83.140625 C 9.804688 -83.691406 9.722656 -84.269531 9.671875 -84.875 C 9.617188 -85.476562 9.476562 -86.054688 9.25 -86.609375 L 7.9375 -92.234375 L 6.609375 -97.6875 L 4.953125 -104.296875 L 3.3125 -110.578125 L 1.8125 -115.53125 L 0 -121.3125 C -0.113281 -121.976562 -0.28125 -122.613281 -0.5 -123.21875 C -0.71875 -123.820312 -0.9375 -124.398438 -1.15625 -124.953125 Z M -1.15625 -124.953125 "/></g></g></g><g fill="#eb4f26" fill-opacity="1"><g transform="translate(87.319586, 163.870283)"><g><path d="M 64.953125 -15.703125 C 64.847656 -15.703125 64.710938 -15.671875 64.546875 -15.609375 C 64.378906 -15.554688 64.1875 -15.53125 63.96875 -15.53125 C 62.644531 -15.3125 61.320312 -15.144531 60 -15.03125 C 58.675781 -14.925781 57.242188 -14.816406 55.703125 -14.703125 L 53.390625 -14.703125 C 52.617188 -14.703125 51.898438 -14.675781 51.234375 -14.625 C 50.578125 -14.570312 49.863281 -14.546875 49.09375 -14.546875 C 47.875 -14.546875 46.628906 -14.515625 45.359375 -14.453125 C 44.097656 -14.398438 42.863281 -14.375 41.65625 -14.375 L 33.546875 -14.375 C 33.109375 -14.375 32.640625 -14.398438 32.140625 -14.453125 C 31.648438 -14.515625 31.128906 -14.546875 30.578125 -14.546875 L 26.28125 -14.546875 C 25.394531 -14.546875 24.457031 -14.515625 23.46875 -14.453125 C 22.476562 -14.398438 21.539062 -14.320312 20.65625 -14.21875 L 13.71875 -13.546875 C 12.613281 -13.441406 11.425781 -13.304688 10.15625 -13.140625 C 8.894531 -12.972656 7.601562 -12.890625 6.28125 -12.890625 C 5.507812 -12.890625 5.148438 -13.25 5.203125 -13.96875 C 5.253906 -14.6875 5.28125 -15.265625 5.28125 -15.703125 L 5.28125 -22.484375 C 5.28125 -23.023438 5.304688 -23.570312 5.359375 -24.125 C 5.421875 -24.675781 5.453125 -25.226562 5.453125 -25.78125 C 5.453125 -26.550781 5.476562 -27.265625 5.53125 -27.921875 C 5.59375 -28.585938 5.625 -29.304688 5.625 -30.078125 L 5.953125 -36.6875 C 5.953125 -37.238281 5.976562 -37.789062 6.03125 -38.34375 C 6.082031 -38.894531 6.164062 -39.445312 6.28125 -40 L 6.609375 -42.140625 C 6.941406 -44.015625 7.109375 -45.890625 7.109375 -47.765625 L 7.109375 -51.234375 C 7.109375 -53.878906 7.050781 -56.523438 6.9375 -59.171875 C 6.832031 -61.816406 6.78125 -64.515625 6.78125 -67.265625 L 6.78125 -69.578125 C 6.78125 -70.023438 6.804688 -70.382812 6.859375 -70.65625 C 6.910156 -70.9375 6.9375 -71.296875 6.9375 -71.734375 L 6.9375 -79.828125 C 6.9375 -80.597656 6.960938 -81.34375 7.015625 -82.0625 C 7.078125 -82.78125 7.109375 -83.523438 7.109375 -84.296875 C 7.109375 -87.160156 7.21875 -89.941406 7.4375 -92.640625 C 7.65625 -95.335938 7.765625 -98.066406 7.765625 -100.828125 L 7.765625 -105.78125 C 7.765625 -106.21875 7.820312 -106.546875 7.9375 -106.765625 C 7.488281 -106.878906 6.878906 -106.9375 6.109375 -106.9375 L 5.625 -106.9375 C 4.40625 -106.9375 2.394531 -106.878906 -0.40625 -106.765625 C -3.21875 -106.660156 -6.109375 -106.550781 -9.078125 -106.4375 C -12.054688 -106.332031 -14.316406 -106.28125 -15.859375 -106.28125 C -17.410156 -106.28125 -18.210938 -106.691406 -18.265625 -107.515625 C -18.316406 -108.335938 -18.34375 -109.300781 -18.34375 -110.40625 L -18.34375 -119.171875 C -18.34375 -121.921875 -18.175781 -123.65625 -17.84375 -124.375 C -17.519531 -125.09375 -16.914062 -125.421875 -16.03125 -125.359375 C -15.144531 -125.304688 -13.988281 -125.335938 -12.5625 -125.453125 L -6.109375 -125.453125 C -5.335938 -125.453125 -4.617188 -125.476562 -3.953125 -125.53125 C -3.296875 -125.582031 -2.582031 -125.609375 -1.8125 -125.609375 L 6.109375 -125.609375 C 6.660156 -125.609375 7.210938 -125.582031 7.765625 -125.53125 C 8.316406 -125.476562 8.8125 -125.453125 9.25 -125.453125 L 12.5625 -125.125 C 12.675781 -125.007812 12.785156 -124.953125 12.890625 -124.953125 C 13.992188 -124.953125 15.507812 -125.035156 17.4375 -125.203125 C 19.363281 -125.367188 21.34375 -125.503906 23.375 -125.609375 C 25.414062 -125.722656 27.046875 -125.78125 28.265625 -125.78125 C 28.816406 -125.78125 29.285156 -125.671875 29.671875 -125.453125 C 30.054688 -125.234375 30.46875 -125.125 30.90625 -125.125 C 31.570312 -125.125 32.207031 -125.203125 32.8125 -125.359375 C 33.414062 -125.523438 34.046875 -125.609375 34.703125 -125.609375 L 35.703125 -125.609375 C 36.140625 -125.609375 36.550781 -125.5 36.9375 -125.28125 C 37.320312 -125.0625 37.738281 -124.953125 38.1875 -124.953125 L 39.34375 -124.953125 C 40.664062 -124.953125 41.929688 -125.003906 43.140625 -125.109375 C 44.347656 -125.222656 45.503906 -125.28125 46.609375 -125.28125 C 46.941406 -125.28125 47.269531 -125.253906 47.59375 -125.203125 C 47.925781 -125.148438 48.257812 -125.125 48.59375 -125.125 L 51.40625 -124.78125 C 51.726562 -124.78125 52.082031 -124.722656 52.46875 -124.609375 C 52.863281 -124.503906 53.222656 -124.453125 53.546875 -124.453125 L 55.859375 -124.453125 C 56.410156 -124.453125 57.015625 -124.476562 57.671875 -124.53125 C 58.335938 -124.59375 58.945312 -124.625 59.5 -124.625 C 60.601562 -124.625 61.648438 -124.648438 62.640625 -124.703125 C 63.628906 -124.753906 64.617188 -124.78125 65.609375 -124.78125 L 67.265625 -124.625 L 67.265625 -121.984375 C 67.160156 -119.554688 67.109375 -117.347656 67.109375 -115.359375 C 67.109375 -113.378906 67 -111.34375 66.78125 -109.25 C 66.78125 -107.925781 66.445312 -107.039062 65.78125 -106.59375 C 65.125 -106.15625 64.1875 -105.9375 62.96875 -105.9375 C 61.976562 -105.9375 60.875 -105.960938 59.65625 -106.015625 C 58.445312 -106.078125 57.179688 -106.109375 55.859375 -106.109375 C 55.085938 -106.109375 54.34375 -106.109375 53.625 -106.109375 C 52.914062 -106.109375 52.117188 -106.164062 51.234375 -106.28125 L 48.921875 -106.28125 C 48.484375 -106.28125 48.097656 -106.304688 47.765625 -106.359375 C 47.429688 -106.410156 47.101562 -106.4375 46.78125 -106.4375 C 45.457031 -106.4375 44.160156 -106.460938 42.890625 -106.515625 C 41.617188 -106.578125 40.320312 -106.609375 39 -106.609375 C 38.226562 -106.609375 37.484375 -106.632812 36.765625 -106.6875 C 36.054688 -106.738281 35.316406 -106.765625 34.546875 -106.765625 L 33.390625 -106.765625 L 33.390625 -105.609375 C 33.390625 -103.960938 33.273438 -102.253906 33.046875 -100.484375 C 32.828125 -98.722656 32.71875 -97.019531 32.71875 -95.375 C 32.71875 -94.820312 32.691406 -94.269531 32.640625 -93.71875 C 32.585938 -93.164062 32.5625 -92.613281 32.5625 -92.0625 C 32.5625 -91.289062 32.53125 -90.546875 32.46875 -89.828125 C 32.414062 -89.109375 32.390625 -88.363281 32.390625 -87.59375 C 32.390625 -85.832031 32.414062 -83.957031 32.46875 -81.96875 C 32.53125 -79.988281 32.5625 -78.117188 32.5625 -76.359375 C 33.113281 -76.359375 33.632812 -76.328125 34.125 -76.265625 C 34.625 -76.210938 35.203125 -76.1875 35.859375 -76.1875 L 41.328125 -76.1875 C 42.203125 -76.1875 43.078125 -76.050781 43.953125 -75.78125 C 44.835938 -75.507812 45.722656 -75.375 46.609375 -75.375 L 49.921875 -75.375 C 51.785156 -75.375 53.597656 -75.453125 55.359375 -75.609375 C 57.128906 -75.773438 58.894531 -75.859375 60.65625 -75.859375 C 61.207031 -75.859375 61.726562 -75.832031 62.21875 -75.78125 C 62.71875 -75.726562 63.191406 -75.703125 63.640625 -75.703125 C 63.523438 -73.929688 63.4375 -71.972656 63.375 -69.828125 C 63.320312 -67.679688 63.019531 -65.285156 62.46875 -62.640625 C 62.25 -62.203125 61.695312 -61.898438 60.8125 -61.734375 C 59.9375 -61.566406 58.894531 -61.375 57.6875 -61.15625 C 56.695312 -61.039062 55.617188 -60.957031 54.453125 -60.90625 C 53.296875 -60.851562 52.113281 -60.828125 50.90625 -60.828125 C 49.582031 -60.828125 48.285156 -60.796875 47.015625 -60.734375 C 45.753906 -60.679688 44.515625 -60.65625 43.296875 -60.65625 L 32.0625 -60.15625 L 31.078125 -60.15625 L 31.078125 -59 L 30.90625 -57.84375 L 30.90625 -55.53125 C 30.90625 -52.664062 30.796875 -49.828125 30.578125 -47.015625 C 30.359375 -44.210938 30.25 -41.378906 30.25 -38.515625 C 30.25 -37.742188 30.21875 -37 30.15625 -36.28125 C 30.101562 -35.5625 30.078125 -34.816406 30.078125 -34.046875 L 30.078125 -30.75 C 30.742188 -30.632812 31.847656 -30.519531 33.390625 -30.40625 C 34.929688 -30.300781 36.691406 -30.25 38.671875 -30.25 C 39.117188 -30.25 39.5625 -30.273438 40 -30.328125 C 40.4375 -30.378906 40.878906 -30.40625 41.328125 -30.40625 L 43.296875 -30.40625 C 43.742188 -30.40625 44.160156 -30.378906 44.546875 -30.328125 C 44.929688 -30.273438 45.34375 -30.25 45.78125 -30.25 C 45.5625 -30.351562 46.25 -30.515625 47.84375 -30.734375 C 49.445312 -30.960938 50.851562 -31.078125 52.0625 -31.078125 L 58.015625 -31.078125 C 59.554688 -31.078125 61.375 -30.851562 63.46875 -30.40625 C 65.5625 -29.96875 66.609375 -29.304688 66.609375 -28.421875 C 66.609375 -26.441406 66.441406 -24.488281 66.109375 -22.5625 C 65.773438 -20.632812 65.390625 -18.347656 64.953125 -15.703125 Z M 64.953125 -15.703125 "/></g></g></g><g fill="#eb4f26" fill-opacity="1"><g transform="translate(154.589497, 163.870283)"><g><path d="M 52.890625 -99 L 77.515625 -97.6875 C 77.734375 -96.582031 77.867188 -94.789062 77.921875 -92.3125 C 77.984375 -89.832031 78.066406 -86.882812 78.171875 -83.46875 L 78.171875 -76.03125 C 78.171875 -75.363281 78.195312 -74.695312 78.25 -74.03125 C 78.3125 -73.375 78.34375 -72.71875 78.34375 -72.0625 C 78.34375 -68.757812 78.367188 -65.125 78.421875 -61.15625 C 78.484375 -57.1875 78.515625 -53.546875 78.515625 -50.234375 C 78.515625 -46.929688 78.515625 -44.617188 78.515625 -43.296875 L 78.515625 -38.84375 C 78.515625 -37.851562 78.484375 -36.972656 78.421875 -36.203125 C 78.367188 -35.429688 78.34375 -34.710938 78.34375 -34.046875 L 78.34375 -31.90625 C 78.34375 -30.46875 78.34375 -29.75 78.34375 -29.75 C 78.34375 -29.75 78.3125 -29.914062 78.25 -30.25 C 78.195312 -30.582031 78.144531 -30.664062 78.09375 -30.5 C 78.039062 -30.332031 77.957031 -29.421875 77.84375 -27.765625 C 77.738281 -26.109375 77.578125 -23.242188 77.359375 -19.171875 L 77.359375 -17.03125 C 77.359375 -16.25 77.328125 -15.445312 77.265625 -14.625 C 77.210938 -13.800781 77.1875 -12.894531 77.1875 -11.90625 L 77.1875 0.828125 C 77.1875 2.585938 77.101562 4.429688 76.9375 6.359375 C 76.769531 8.285156 76.46875 10.132812 76.03125 11.90625 L 67.4375 11.90625 C 66.332031 11.90625 64.976562 11.929688 63.375 11.984375 C 61.78125 12.035156 60.265625 11.8125 58.828125 11.3125 C 57.398438 10.820312 56.359375 9.804688 55.703125 8.265625 L 54.703125 6.109375 L 52.390625 1.15625 L 49.421875 -5.28125 L 48.265625 -7.609375 L 47.109375 -10.078125 L 44.296875 -16.359375 C 43.859375 -17.242188 43.414062 -18.15625 42.96875 -19.09375 C 42.53125 -20.03125 42.09375 -20.992188 41.65625 -21.984375 L 40.328125 -24.953125 L 39.34375 -26.9375 L 38.015625 -30.078125 L 37.015625 -32.234375 L 35.53125 -35.375 L 31.5625 -44.453125 L 29.09375 -50.40625 L 28.59375 -51.5625 L 28.59375 -44.796875 C 28.59375 -44.128906 28.5625 -43.460938 28.5 -42.796875 C 28.445312 -42.140625 28.421875 -41.484375 28.421875 -40.828125 L 28.421875 -17.03125 C 28.421875 -14.9375 28.445312 -12.894531 28.5 -10.90625 C 28.5625 -8.925781 28.59375 -6.890625 28.59375 -4.796875 L 28.59375 10.75 C 28.59375 11.519531 28.59375 12.34375 28.59375 13.21875 C 28.59375 14.101562 28.484375 14.984375 28.265625 15.859375 C 28.148438 17.847656 27.816406 19.671875 27.265625 21.328125 C 27.046875 22.421875 26.023438 23.160156 24.203125 23.546875 C 22.390625 23.929688 20.378906 24.148438 18.171875 24.203125 C 15.972656 24.265625 14.160156 24.40625 12.734375 24.625 C 11.847656 24.625 11.1875 24.570312 10.75 24.46875 L 8.921875 23.96875 C 8.703125 23.851562 8.484375 23.6875 8.265625 23.46875 C 8.046875 23.25 7.828125 23.082031 7.609375 22.96875 L 7.609375 20.171875 C 7.609375 18.734375 7.578125 17.351562 7.515625 16.03125 C 7.460938 14.707031 7.4375 13.332031 7.4375 11.90625 L 7.4375 7.9375 C 7.4375 7.382812 7.40625 6.882812 7.34375 6.4375 C 7.289062 6 7.265625 5.5625 7.265625 5.125 L 7.265625 -11.90625 C 7.265625 -12.457031 7.238281 -12.976562 7.1875 -13.46875 C 7.132812 -13.96875 7.109375 -14.4375 7.109375 -14.875 L 7.109375 -32.234375 C 7.109375 -33.328125 7.078125 -34.367188 7.015625 -35.359375 C 6.960938 -36.359375 6.9375 -37.410156 6.9375 -38.515625 L 6.9375 -42.640625 C 6.9375 -48.367188 6.796875 -54.097656 6.515625 -59.828125 C 6.242188 -65.554688 6.109375 -71.285156 6.109375 -77.015625 C 6.109375 -77.679688 6.082031 -78.34375 6.03125 -79 C 5.976562 -79.664062 5.953125 -80.273438 5.953125 -80.828125 C 5.953125 -82.804688 5.894531 -84.785156 5.78125 -86.765625 C 5.675781 -88.753906 5.625 -90.738281 5.625 -92.71875 L 5.625 -97.34375 C 7.382812 -97.570312 9.144531 -97.6875 10.90625 -97.6875 C 12.664062 -97.6875 14.429688 -97.6875 16.203125 -97.6875 L 26.9375 -97.6875 C 28.15625 -97.6875 29.3125 -96.414062 30.40625 -93.875 L 32.390625 -88.921875 L 33.875 -85.125 C 34.425781 -83.6875 34.976562 -82.164062 35.53125 -80.5625 C 36.082031 -78.96875 36.742188 -77.398438 37.515625 -75.859375 L 38.515625 -73.046875 L 41.328125 -64.796875 L 42.96875 -60.15625 L 45.625 -53.390625 L 49.25 -44.796875 L 50.25 -42.140625 L 52.5625 -37.015625 C 52.5625 -36.910156 52.613281 -36.828125 52.71875 -36.765625 C 52.832031 -36.710938 52.890625 -36.632812 52.890625 -36.53125 C 53.003906 -36.414062 53.0625 -36.273438 53.0625 -36.109375 C 53.0625 -35.941406 53.113281 -35.804688 53.21875 -35.703125 L 53.21875 -41.15625 C 53.21875 -41.707031 53.191406 -42.203125 53.140625 -42.640625 C 53.085938 -43.078125 53.0625 -43.519531 53.0625 -43.96875 L 53.0625 -48.421875 C 53.0625 -48.972656 53.03125 -49.550781 52.96875 -50.15625 C 52.914062 -50.769531 52.890625 -51.40625 52.890625 -52.0625 C 52.890625 -52.394531 52.859375 -52.722656 52.796875 -53.046875 C 52.742188 -53.378906 52.71875 -53.769531 52.71875 -54.21875 L 52.71875 -57.515625 C 52.71875 -58.398438 52.691406 -59.253906 52.640625 -60.078125 C 52.585938 -60.898438 52.5625 -61.753906 52.5625 -62.640625 C 52.5625 -63.191406 52.53125 -63.769531 52.46875 -64.375 C 52.414062 -64.976562 52.390625 -65.613281 52.390625 -66.28125 L 52.390625 -70.40625 C 52.390625 -71.175781 52.363281 -71.945312 52.3125 -72.71875 C 52.257812 -73.488281 52.234375 -74.257812 52.234375 -75.03125 C 52.234375 -75.914062 52.203125 -76.769531 52.140625 -77.59375 C 52.085938 -78.425781 52.0625 -79.28125 52.0625 -80.15625 C 52.0625 -83.019531 52.003906 -85.800781 51.890625 -88.5 C 51.785156 -91.207031 51.734375 -94.101562 51.734375 -97.1875 C 51.734375 -98.0625 52.117188 -98.664062 52.890625 -99 Z M 52.890625 -99 "/></g></g></g><g fill="#eb4f26" fill-opacity="1"><g transform="translate(239.544609, 163.870283)"><g><path d="M 46.609375 -113.875 L 48.921875 -113.875 C 50.242188 -113.875 51.484375 -113.789062 52.640625 -113.625 C 53.796875 -113.46875 54.925781 -113.273438 56.03125 -113.046875 C 65.507812 -113.046875 72.726562 -109.960938 77.6875 -103.796875 L 79.5 -100.484375 L 80.15625 -93.875 C 80.707031 -91.675781 81.175781 -89.390625 81.5625 -87.015625 C 81.945312 -84.648438 82.140625 -82.253906 82.140625 -79.828125 L 82.3125 -73.21875 C 82.3125 -71.675781 81.484375 -70.546875 79.828125 -69.828125 C 78.179688 -69.109375 76.144531 -68.691406 73.71875 -68.578125 C 71.289062 -68.472656 68.835938 -68.554688 66.359375 -68.828125 C 63.878906 -69.109375 61.8125 -69.46875 60.15625 -69.90625 C 58.507812 -70.351562 57.628906 -70.742188 57.515625 -71.078125 C 56.640625 -74.816406 56.226562 -77.515625 56.28125 -79.171875 C 56.332031 -80.828125 56.414062 -82.535156 56.53125 -84.296875 C 56.632812 -86.054688 56.578125 -87.789062 56.359375 -89.5 C 56.140625 -91.207031 55.421875 -92.613281 54.203125 -93.71875 C 52.992188 -94.820312 50.957031 -95.375 48.09375 -95.375 L 43.140625 -95.53125 C 40.710938 -95.53125 38.5625 -94.976562 36.6875 -93.875 L 35.859375 -93.21875 C 34.648438 -92.007812 33.742188 -90.6875 33.140625 -89.25 C 32.535156 -87.820312 32.007812 -86.0625 31.5625 -83.96875 C 31.125 -82.3125 30.820312 -80.570312 30.65625 -78.75 C 30.488281 -76.9375 30.40625 -75.148438 30.40625 -73.390625 L 30.40625 -68.921875 C 30.40625 -68.484375 30.429688 -68.097656 30.484375 -67.765625 C 30.546875 -67.429688 30.578125 -67.046875 30.578125 -66.609375 C 30.578125 -66.054688 30.601562 -65.476562 30.65625 -64.875 C 30.71875 -64.269531 30.75 -63.691406 30.75 -63.140625 C 31.1875 -59.390625 31.40625 -55.335938 31.40625 -50.984375 C 31.40625 -46.628906 31.40625 -42.414062 31.40625 -38.34375 L 32.0625 -31.40625 C 32.28125 -28.757812 32.664062 -26.28125 33.21875 -23.96875 C 33.769531 -21.65625 34.648438 -19.5625 35.859375 -17.6875 L 37.359375 -16.03125 C 39.453125 -13.9375 42.039062 -12.890625 45.125 -12.890625 C 50.300781 -12.890625 53.988281 -14.046875 56.1875 -16.359375 C 58.394531 -18.671875 59.742188 -21.726562 60.234375 -25.53125 C 60.734375 -29.332031 60.984375 -33.382812 60.984375 -37.6875 C 60.878906 -38.457031 61.757812 -39.035156 63.625 -39.421875 C 65.5 -39.804688 67.675781 -39.941406 70.15625 -39.828125 C 72.632812 -39.722656 74.863281 -39.335938 76.84375 -38.671875 C 78.832031 -38.015625 79.882812 -37.078125 80 -35.859375 L 80.328125 -28.921875 L 80.328125 -27.9375 C 80.328125 -25.84375 80.296875 -23.609375 80.234375 -21.234375 C 80.179688 -18.867188 79.71875 -16.253906 78.84375 -13.390625 L 78.171875 -11.5625 C 77.734375 -10.46875 77.210938 -9.367188 76.609375 -8.265625 C 76.003906 -7.160156 75.257812 -6.113281 74.375 -5.125 L 72.234375 -3.140625 C 68.484375 -0.0546875 64.347656 1.921875 59.828125 2.796875 C 55.316406 3.679688 50.46875 4.125 45.28125 4.125 C 42.414062 4.125 39.332031 4.015625 36.03125 3.796875 C 32.726562 3.578125 29.644531 2.914062 26.78125 1.8125 L 22.8125 0.171875 C 21.820312 -0.273438 20.773438 -0.800781 19.671875 -1.40625 C 18.566406 -2.007812 17.628906 -2.695312 16.859375 -3.46875 L 16.203125 -4.125 L 13.71875 -6.9375 L 12.0625 -9.421875 C 11.507812 -10.410156 10.929688 -11.535156 10.328125 -12.796875 C 9.722656 -14.066406 9.253906 -15.253906 8.921875 -16.359375 L 7.265625 -22.3125 C 7.046875 -23.75 6.796875 -25.207031 6.515625 -26.6875 C 6.242188 -28.175781 6.109375 -29.640625 6.109375 -31.078125 C 6.109375 -32.066406 6.050781 -33.054688 5.9375 -34.046875 C 5.832031 -35.035156 5.78125 -36.023438 5.78125 -37.015625 L 5.453125 -43.96875 C 5.453125 -44.519531 5.421875 -45.097656 5.359375 -45.703125 C 5.304688 -46.304688 5.28125 -46.882812 5.28125 -47.4375 C 5.28125 -48.644531 5.253906 -49.800781 5.203125 -50.90625 C 5.148438 -52.007812 5.125 -53.113281 5.125 -54.21875 L 5.125 -66.9375 C 5.125 -68.257812 5.175781 -69.550781 5.28125 -70.8125 C 5.394531 -72.082031 5.453125 -73.378906 5.453125 -74.703125 L 5.453125 -76.859375 C 5.453125 -77.734375 5.535156 -78.640625 5.703125 -79.578125 C 5.867188 -80.515625 5.953125 -81.425781 5.953125 -82.3125 L 6.609375 -86.9375 L 7.609375 -93.21875 L 8.421875 -97.1875 C 8.535156 -97.1875 8.59375 -97.238281 8.59375 -97.34375 C 10.25 -101.53125 12.285156 -104.53125 14.703125 -106.34375 C 17.128906 -108.164062 19.992188 -109.6875 23.296875 -110.90625 L 26.609375 -111.890625 C 29.472656 -112.660156 32.582031 -113.179688 35.9375 -113.453125 C 39.300781 -113.734375 42.859375 -113.875 46.609375 -113.875 Z M 46.609375 -113.875 "/></g></g></g><g fill="#eb4f26" fill-opacity="1"><g transform="translate(324.169154, 163.870283)"><g><path d="M 3.46875 -96.03125 L 5.625 -96.03125 C 7.820312 -96.03125 10.019531 -96.140625 12.21875 -96.359375 C 14.425781 -96.578125 16.632812 -96.6875 18.84375 -96.6875 L 24.46875 -97.1875 C 25.007812 -97.1875 25.554688 -97.210938 26.109375 -97.265625 C 26.660156 -97.316406 27.210938 -97.34375 27.765625 -97.34375 L 34.546875 -97.34375 C 34.984375 -97.34375 35.367188 -97.34375 35.703125 -97.34375 C 36.035156 -97.34375 36.421875 -97.398438 36.859375 -97.515625 L 45.625 -98.015625 C 47.820312 -98.015625 50.210938 -98.207031 52.796875 -98.59375 C 55.390625 -98.976562 58.117188 -99.171875 60.984375 -99.171875 L 63.796875 -99.171875 C 66.222656 -99.171875 69.113281 -99.28125 72.46875 -99.5 C 75.832031 -99.71875 79.054688 -99.828125 82.140625 -99.828125 C 82.804688 -99.828125 83.25 -98.863281 83.46875 -96.9375 C 83.6875 -95.007812 83.796875 -92.941406 83.796875 -90.734375 C 83.796875 -88.535156 83.796875 -86.941406 83.796875 -85.953125 C 83.796875 -85.179688 83.765625 -84.4375 83.703125 -83.71875 C 83.648438 -83 83.296875 -82.472656 82.640625 -82.140625 C 82.421875 -82.035156 82.035156 -81.984375 81.484375 -81.984375 L 78.171875 -81.484375 C 77.628906 -81.367188 77.050781 -81.3125 76.4375 -81.3125 C 75.832031 -81.3125 75.253906 -81.3125 74.703125 -81.3125 C 74.148438 -81.3125 73.597656 -81.285156 73.046875 -81.234375 C 72.503906 -81.179688 71.957031 -81.15625 71.40625 -81.15625 L 68.09375 -81.15625 C 67.757812 -81.15625 67.398438 -81.125 67.015625 -81.0625 C 66.628906 -81.007812 66.273438 -80.984375 65.953125 -80.984375 L 67.109375 -76.6875 L 68.921875 -70.078125 L 69.90625 -66.9375 L 70.90625 -63.640625 C 71.125 -62.859375 71.367188 -62.109375 71.640625 -61.390625 C 71.921875 -60.679688 72.117188 -59.941406 72.234375 -59.171875 L 73.875 -52.390625 L 75.703125 -44.453125 L 76.859375 -38.015625 C 77.078125 -37.128906 77.296875 -36.242188 77.515625 -35.359375 C 77.734375 -34.484375 77.953125 -33.601562 78.171875 -32.71875 L 78.84375 -30.578125 L 80.984375 -24.125 L 82.140625 -20.5 C 82.691406 -19.175781 83.160156 -17.90625 83.546875 -16.6875 C 83.929688 -15.476562 84.347656 -14.269531 84.796875 -13.0625 L 86.109375 -9.59375 C 86.546875 -8.59375 86.929688 -7.488281 87.265625 -6.28125 L 90.078125 1.65625 C 90.296875 2.09375 90.457031 2.503906 90.5625 2.890625 C 90.675781 3.273438 90.789062 3.6875 90.90625 4.125 L 91.234375 5.625 C 91.234375 6.0625 91.203125 6.554688 91.140625 7.109375 C 91.085938 7.660156 91.0625 8.210938 91.0625 8.765625 C 91.0625 8.867188 91.085938 9.003906 91.140625 9.171875 C 91.203125 9.335938 91.234375 9.53125 91.234375 9.75 L 91.734375 11.90625 L 92.890625 16.6875 C 92.992188 17.132812 93.179688 17.601562 93.453125 18.09375 C 93.734375 18.59375 93.929688 19.0625 94.046875 19.5 C 93.378906 20.164062 92.109375 20.742188 90.234375 21.234375 C 88.367188 21.734375 86.332031 22.144531 84.125 22.46875 C 81.925781 22.800781 79.941406 23.132812 78.171875 23.46875 C 77.847656 23.46875 77.519531 23.4375 77.1875 23.375 C 76.851562 23.320312 76.46875 23.296875 76.03125 23.296875 L 74.046875 23.796875 L 71.078125 24.625 C 70.523438 23.632812 70.082031 22.695312 69.75 21.8125 L 68.59375 18.84375 C 68.476562 18.507812 68.394531 18.175781 68.34375 17.84375 C 68.289062 17.519531 68.15625 17.191406 67.9375 16.859375 L 66.78125 13.546875 L 65.609375 10.078125 L 64.625 6.453125 C 64.625 5.128906 64.320312 3.5 63.71875 1.5625 C 63.113281 -0.363281 62.585938 -2.039062 62.140625 -3.46875 C 61.816406 -3.46875 61.488281 -3.441406 61.15625 -3.390625 C 60.820312 -3.335938 60.488281 -3.3125 60.15625 -3.3125 C 59.832031 -3.3125 59.503906 -3.28125 59.171875 -3.21875 C 58.835938 -3.164062 58.453125 -3.140625 58.015625 -3.140625 L 48.59375 -3.140625 C 46.0625 -3.140625 43.28125 -3.191406 40.25 -3.296875 C 37.21875 -3.410156 34.4375 -3.140625 31.90625 -2.484375 C 31.457031 -1.265625 30.957031 0.5 30.40625 2.8125 L 29.75 6.28125 C 29.632812 6.832031 29.492188 7.4375 29.328125 8.09375 C 29.171875 8.757812 29.035156 9.421875 28.921875 10.078125 L 28.265625 13.890625 C 27.710938 18.296875 26.859375 21.210938 25.703125 22.640625 C 24.546875 24.078125 22.644531 24.796875 20 24.796875 C 18.789062 24.796875 16.890625 24.65625 14.296875 24.375 C 11.703125 24.101562 9.359375 23.632812 7.265625 22.96875 C 5.171875 22.3125 4.125 21.539062 4.125 20.65625 L 4.125 19.671875 C 4.125 18.128906 4.34375 16.503906 4.78125 14.796875 C 5.226562 13.085938 5.671875 11.351562 6.109375 9.59375 L 6.609375 6.78125 C 6.828125 5.675781 7.101562 4.546875 7.4375 3.390625 C 7.769531 2.234375 7.988281 1.101562 8.09375 0 L 9.59375 -7.109375 L 11.078125 -14.546875 L 12.5625 -21.328125 C 12.78125 -22.535156 12.972656 -23.71875 13.140625 -24.875 C 13.304688 -26.03125 13.554688 -27.160156 13.890625 -28.265625 L 14.703125 -31.90625 L 17.03125 -43.140625 L 18.515625 -49.25 L 22.140625 -62.46875 L 23.796875 -69.09375 C 24.015625 -69.632812 24.148438 -70.179688 24.203125 -70.734375 C 24.265625 -71.285156 24.351562 -71.785156 24.46875 -72.234375 L 25.125 -75.375 C 25.125 -75.59375 25.148438 -75.78125 25.203125 -75.9375 C 25.253906 -76.101562 25.28125 -76.242188 25.28125 -76.359375 C 24.507812 -76.910156 23.488281 -77.15625 22.21875 -77.09375 C 20.957031 -77.039062 19.722656 -77.015625 18.515625 -77.015625 C 17.960938 -77.015625 17.378906 -76.957031 16.765625 -76.84375 C 16.160156 -76.738281 15.53125 -76.6875 14.875 -76.6875 C 12.445312 -76.582031 10.019531 -76.445312 7.59375 -76.28125 C 5.175781 -76.113281 3.25 -76.03125 1.8125 -76.03125 L 1.8125 -85.78125 C 2.039062 -87.4375 2.234375 -89.28125 2.390625 -91.3125 C 2.554688 -93.351562 2.914062 -94.925781 3.46875 -96.03125 Z M 59.671875 -17.515625 C 59.453125 -17.960938 59.285156 -18.429688 59.171875 -18.921875 C 59.054688 -19.421875 58.945312 -19.890625 58.84375 -20.328125 L 57.515625 -25.125 C 57.296875 -26 57.101562 -26.820312 56.9375 -27.59375 C 56.769531 -28.375 56.578125 -29.148438 56.359375 -29.921875 L 55.859375 -31.734375 C 55.753906 -32.285156 55.617188 -32.78125 55.453125 -33.21875 C 55.285156 -33.65625 55.144531 -34.097656 55.03125 -34.546875 L 53.71875 -40.328125 C 53.601562 -40.992188 53.40625 -41.628906 53.125 -42.234375 C 52.851562 -42.835938 52.71875 -43.46875 52.71875 -44.125 L 51.40625 -49.75 C 51.289062 -50.300781 51.148438 -50.796875 50.984375 -51.234375 C 50.816406 -51.671875 50.679688 -52.113281 50.578125 -52.5625 L 50.078125 -54.546875 L 49.421875 -57.359375 L 48.765625 -60.328125 C 48.648438 -60.878906 48.507812 -61.375 48.34375 -61.8125 C 48.175781 -62.25 48.039062 -62.691406 47.9375 -63.140625 L 47.59375 -65.125 C 47.488281 -66.113281 47.1875 -67.597656 46.6875 -69.578125 C 46.195312 -71.566406 45.507812 -73 44.625 -73.875 C 44.507812 -73.101562 44.316406 -72.304688 44.046875 -71.484375 C 43.773438 -70.660156 43.523438 -69.804688 43.296875 -68.921875 L 42.8125 -67.109375 L 40.828125 -59.671875 L 39.171875 -53.21875 C 38.734375 -51.457031 38.207031 -49.582031 37.59375 -47.59375 C 36.988281 -45.613281 36.6875 -43.6875 36.6875 -41.8125 L 34.875 -34.21875 L 33.875 -29.421875 C 33.769531 -28.984375 33.632812 -28.515625 33.46875 -28.015625 C 33.300781 -27.515625 33.21875 -27.046875 33.21875 -26.609375 L 31.5625 -17.6875 L 34.046875 -17.6875 C 35.035156 -17.6875 36 -17.65625 36.9375 -17.59375 C 37.875 -17.539062 38.894531 -17.515625 40 -17.515625 Z M 59.671875 -17.515625 "/></g></g></g><g fill="#eb4f26" fill-opacity="1"><g transform="translate(414.259042, 163.870283)"><g/></g></g></g></g></g></g></g></svg>