<svg width="127" height="105" viewBox="0 0 127 105" fill="none" xmlns="http://www.w3.org/2000/svg">
<mask id="mask0_8_3" style="mask-type:luminance" maskUnits="userSpaceOnUse" x="101" y="0" width="26" height="33">
<path d="M101.895 0H127V32.6023H101.895V0Z" fill="white"/>
</mask>
<g mask="url(#mask0_8_3)">
<mask id="mask1_8_3" style="mask-type:luminance" maskUnits="userSpaceOnUse" x="101" y="0" width="26" height="33">
<path d="M107.699 0.0152588L126.987 5.85111L121.281 32.7053L101.993 26.8678L107.699 0.0152588Z" fill="white"/>
</mask>
<g mask="url(#mask1_8_3)">
<mask id="mask2_8_3" style="mask-type:luminance" maskUnits="userSpaceOnUse" x="101" y="0" width="26" height="33">
<path d="M127 0H101.895V32.6023H127V0Z" fill="white"/>
</mask>
<g mask="url(#mask2_8_3)">
<mask id="mask3_8_3" style="mask-type:luminance" maskUnits="userSpaceOnUse" x="103" y="0" width="16" height="30">
<path d="M103.372 0.440796H118.14V29.078H103.372V0.440796Z" fill="white"/>
</mask>
<g mask="url(#mask3_8_3)">
<mask id="mask4_8_3" style="mask-type:luminance" maskUnits="userSpaceOnUse" x="101" y="0" width="26" height="33">
<path d="M107.699 0.015625L126.987 5.85148L121.281 32.7057L101.993 26.8681L107.699 0.015625Z" fill="white"/>
</mask>
<g mask="url(#mask4_8_3)">
<mask id="mask5_8_3" style="mask-type:luminance" maskUnits="userSpaceOnUse" x="101" y="-1" width="26" height="34">
<path d="M126.919 5.83134L107.632 -0.0045166L101.926 26.848L121.214 32.6856L126.919 5.83134Z" fill="white"/>
</mask>
<g mask="url(#mask5_8_3)">
<path d="M108.195 2.05345C108.89 3.01376 110.038 2.94664 110.873 4.53511C112.015 6.49015 112.473 8.93394 112.437 11.3175C112.401 13.7011 111.899 16.0433 111.259 18.3013C110.679 20.3509 109.951 22.4127 108.671 23.9444C107.39 25.476 105.44 26.3778 103.72 25.6963C103.574 26.0388 103.508 26.204 103.71 26.5035C103.78 26.5929 103.858 26.6687 103.946 26.7323C104.327 27.0438 104.738 27.2813 105.179 27.4414C105.665 27.6204 106.088 27.937 106.577 28.0764C107.737 28.412 108.898 28.8268 110.092 28.8388C111.21 28.8492 112.39 28.4447 113.141 27.4758C113.173 27.4345 113.181 27.3863 113.167 27.333C113.151 27.2796 113.121 27.2486 113.073 27.24C112.762 27.1867 112.471 27.0645 112.199 26.8717C112.982 26.7014 113.682 26.3141 114.299 25.7135C114.335 25.6774 114.344 25.6326 114.324 25.5827C114.305 25.5311 114.272 25.5087 114.224 25.5173C114.009 25.5569 113.793 25.5552 113.578 25.5105C114.269 25.0578 114.815 24.4262 115.219 23.6174C115.247 23.5606 115.245 23.5055 115.216 23.4487C115.188 23.3936 115.146 23.3678 115.091 23.3713C114.932 23.3747 114.785 23.3282 114.65 23.2284C115.147 22.4798 115.627 21.7174 116.093 20.9412C116.141 20.8586 116.144 20.7743 116.102 20.6883C116.059 20.6022 115.995 20.5643 115.911 20.5747L115.583 20.6194C115.606 19.9069 116.046 19.3338 116.387 18.7504C117.632 16.6319 117.912 15.1192 117.87 12.6513C117.864 12.462 117.805 12.3019 117.691 12.1711C117.495 11.9371 117.183 11.3536 116.992 11.302C117.234 10.3968 117.306 9.47261 117.208 8.52951C117.181 8.27997 116.95 8.12852 116.768 8.25932C116.67 8.32988 116.566 8.38667 116.458 8.42797C116.517 6.67085 115.86 4.94126 114.841 3.6729C113.822 2.40281 112.468 1.56641 111.054 1.07249C110.172 0.764434 109.23 0.582009 108.336 0.864251C108.206 0.902112 108.101 0.982999 108.017 1.10519C107.808 1.4339 108.003 1.78842 108.195 2.05345Z" fill="#FFFCFB"/>
</g>
</g>
</g>
<mask id="mask6_8_3" style="mask-type:luminance" maskUnits="userSpaceOnUse" x="104" y="10" width="21" height="15">
<path d="M104.11 10.1334H124.416V24.2317H104.11V10.1334Z" fill="white"/>
</mask>
<g mask="url(#mask6_8_3)">
<mask id="mask7_8_3" style="mask-type:luminance" maskUnits="userSpaceOnUse" x="101" y="0" width="26" height="33">
<path d="M107.699 0.015625L126.987 5.85148L121.281 32.7057L101.993 26.8681L107.699 0.015625Z" fill="white"/>
</mask>
<g mask="url(#mask7_8_3)">
<mask id="mask8_8_3" style="mask-type:luminance" maskUnits="userSpaceOnUse" x="101" y="-1" width="26" height="34">
<path d="M126.919 5.83134L107.632 -0.0045166L101.926 26.848L121.214 32.6856L126.919 5.83134Z" fill="white"/>
</mask>
<g mask="url(#mask8_8_3)">
<path d="M121.038 23.1455C120.717 23.6515 121.262 24.3502 121.647 23.858C122.886 22.2747 123.814 20.3851 124.045 18.2115C124.122 17.4887 123.292 17.1995 123.106 17.9275C122.63 19.781 122.03 21.5932 121.038 23.1455ZM121.578 15.5095C121.762 14.8022 122.7 15.0793 122.516 15.7935C122.015 17.7571 121.231 19.7156 119.935 21.101C119.621 21.4366 119.039 21.0046 119.308 20.5348C120.222 18.9291 121.087 17.3803 121.578 15.5095ZM107.908 10.5445C109.014 12.3051 109.562 15.7556 107.944 17.3458C107.649 17.635 107.162 17.3871 107.264 16.8898C107.461 15.9295 107.823 15.0397 107.851 14.0329C107.883 12.9711 107.625 11.9729 107.138 11.0918C106.814 10.5066 107.569 10.0058 107.908 10.5445ZM105.188 12.5254C105.175 11.9592 105.892 11.9471 105.922 12.5081C106.033 14.6146 105.879 17.2443 104.846 19.0341C104.621 19.4231 104.06 19.2148 104.171 18.7089C104.387 17.7193 104.745 16.79 104.935 15.7883C105.134 14.7127 105.218 13.6268 105.188 12.5254Z" fill="#FF774D"/>
</g>
</g>
</g>
</g>
</g>
</g>
<mask id="mask9_8_3" style="mask-type:luminance" maskUnits="userSpaceOnUse" x="0" y="11" width="125" height="94">
<path d="M124.785 11.455H0V104.856H124.785V11.455Z" fill="white"/>
</mask>
<g mask="url(#mask9_8_3)">
<path d="M0.485489 25.0749C0.743631 24.9561 1.21377 24.8787 1.89878 24.8408C2.58668 24.7995 3.33803 24.7703 4.15428 24.7513C4.97341 24.7341 5.74206 24.7152 6.46169 24.6963C7.17987 24.6739 7.68606 24.6051 7.97881 24.4897L8.66527 28.9299L8.95946 30.9813L9.30557 33.0878L9.99203 37.1768L10.2343 38.8772L10.5804 40.9217L10.9208 43.0282L11.2611 45.0727L11.4111 46.064L11.5092 46.7662L12.1956 50.8621L12.4898 52.9686L12.784 54.662L13.1243 56.7134C13.1243 56.7513 13.1316 56.7995 13.1474 56.858C13.1662 56.9182 13.1763 56.9871 13.1763 57.0645L13.2224 57.0026L13.4185 56.1834C13.4834 55.7944 13.5815 55.4158 13.7127 55.0475C13.8425 54.6758 13.9406 54.2955 14.0069 53.9048L14.353 52.5555L14.8895 50.1599C15.0193 49.7331 15.1029 49.3648 15.1376 49.0516L15.3337 48.0534L15.8182 45.1897L16.1124 43.4963L16.2105 42.6151L16.5047 40.8597L16.897 38.4091L17.2431 36.2406C17.3729 35.461 17.8142 35.0428 18.5641 34.9877C19.3169 34.9292 20.1677 34.8983 21.1138 34.8983C21.8637 34.8983 22.5328 34.8983 23.1212 34.8983C23.7096 34.8983 24.2648 34.8776 24.7883 34.8363C24.7883 34.9155 24.771 35.005 24.7364 35.1048C24.7047 35.2011 24.6903 35.3078 24.6903 35.4214L24.4941 36.8877L24.1538 39.3453L23.2712 44.0814L22.7809 46.5941L21.8002 51.2751L21.3099 53.4918L20.8657 55.2472L20.6234 56.3004L20.3292 57.3536L19.8389 59.3431L19.3024 61.2706L19.0082 62.2068L18.7141 63.088L17.4392 67.177L17.145 67.9962L16.5566 69.5726L15.674 71.8581C15.0193 71.8581 14.4237 71.8667 13.8858 71.8856C13.3464 71.9028 12.8157 71.9132 12.2937 71.9132C11.4745 71.8753 10.7621 71.7893 10.1593 71.6516C9.55506 71.5139 9.20463 71.2489 9.10944 70.8599L9.01138 70.5088L8.61912 68.5263C8.58451 68.1735 8.51673 67.7828 8.41722 67.356C8.3206 66.9258 8.23984 66.4955 8.17494 66.0687L7.93266 64.6644L7.58655 62.8539L7.24621 60.5134L6.9001 58.4069L6.55975 56.2453L6.16749 53.9599L5.8733 52.0324L5.14069 47.5853L4.74843 45.1897C4.71382 44.997 4.67056 44.7939 4.62153 44.5771C4.57538 44.3619 4.535 44.1571 4.50039 43.9644L4.30426 42.7322L4.16004 41.913L3.76778 39.8685C3.73317 39.6757 3.70721 39.4726 3.69279 39.2558C3.67693 39.0407 3.63655 38.8359 3.57165 38.6431L3.17939 36.6537L2.78713 34.7193L2.29681 32.3856L1.80648 30.1621L1.36231 28.4067L0.825832 26.3622C0.795548 26.1281 0.747957 25.9044 0.681619 25.6876C0.616723 25.4724 0.551827 25.2676 0.485489 25.0749Z" fill="#FFFCFB"/>
<path d="M45.0769 63.7282C45.0423 63.7282 44.999 63.7385 44.95 63.7558C44.9038 63.7747 44.8476 63.7833 44.7827 63.7833C44.3904 63.8625 43.9982 63.921 43.6059 63.9623C43.2136 64.0001 42.7882 64.038 42.331 64.0793H41.6446C41.4138 64.0793 41.2004 64.0896 41.0043 64.1068C40.8082 64.1258 40.5962 64.1344 40.3697 64.1344C40.0121 64.1344 39.6444 64.1464 39.268 64.1688C38.8901 64.1877 38.5238 64.1963 38.1662 64.1963H35.7607C35.6338 64.1963 35.4953 64.1877 35.3454 64.1688C35.1983 64.1464 35.0454 64.1344 34.8839 64.1344H33.609C33.3466 64.1344 33.0682 64.1464 32.7726 64.1688C32.4798 64.1877 32.2029 64.2153 31.9419 64.2514L29.8826 64.4855C29.5552 64.5268 29.2033 64.5784 28.8269 64.6369C28.4534 64.692 28.0712 64.7195 27.679 64.7195C27.4482 64.7195 27.3401 64.5939 27.3559 64.3409C27.3747 64.0896 27.3848 63.8848 27.3848 63.7282V61.3326C27.3848 61.1364 27.392 60.9402 27.4078 60.7475C27.4223 60.5513 27.4309 60.3551 27.4309 60.1623C27.4309 59.887 27.4381 59.6323 27.454 59.3982C27.4727 59.1642 27.4828 58.9129 27.4828 58.641L27.5809 56.3005C27.5809 56.1077 27.5881 55.915 27.604 55.7222C27.6184 55.526 27.6444 55.3281 27.679 55.1302L27.777 54.373C27.8722 53.7087 27.9212 53.0444 27.9212 52.3835V51.1582C27.9212 50.2219 27.9039 49.2857 27.8693 48.3495C27.8376 47.4133 27.8232 46.4599 27.8232 45.4858V44.6666C27.8232 44.5117 27.8304 44.3844 27.8463 44.288C27.865 44.1882 27.8751 44.0591 27.8751 43.9025V41.0388C27.8751 40.7634 27.8823 40.5001 27.8982 40.2471C27.9126 39.9959 27.9212 39.7343 27.9212 39.4624C27.9212 38.4487 27.953 37.4643 28.0193 36.5092C28.0842 35.5506 28.1174 34.5851 28.1174 33.611V31.8556C28.1174 31.7007 28.1347 31.5837 28.1693 31.5045C28.0381 31.4684 27.8578 31.4495 27.6271 31.4495H27.4828C27.1209 31.4495 26.5253 31.4701 25.6946 31.5114C24.861 31.5493 24.003 31.5871 23.1218 31.6284C22.2378 31.6663 21.5672 31.6835 21.1086 31.6835C20.6558 31.6835 20.4207 31.5372 20.4048 31.2429C20.3861 30.9504 20.376 30.6079 20.376 30.2172V27.1195C20.376 26.1471 20.4265 25.5344 20.526 25.2815C20.6226 25.025 20.8014 24.908 21.0625 24.9304C21.3249 24.9493 21.6667 24.9373 22.0893 24.896H24.0044C24.2323 24.896 24.4428 24.8874 24.639 24.8684C24.8351 24.8512 25.0485 24.8409 25.2793 24.8409H27.6271C27.7915 24.8409 27.9559 24.8512 28.1174 24.8684C28.2818 24.8874 28.4303 24.896 28.5616 24.896L29.5422 25.013C29.5725 25.0543 29.6057 25.0749 29.6403 25.0749C29.9662 25.0749 30.4147 25.0457 30.9843 24.9854C31.5569 24.9269 32.1453 24.8787 32.7495 24.8409C33.3523 24.7996 33.8354 24.7789 34.1974 24.7789C34.3589 24.7789 34.4974 24.8185 34.6127 24.896C34.7281 24.9751 34.8507 25.013 34.9819 25.013C35.1781 25.013 35.3641 24.9854 35.5415 24.9304C35.7217 24.8719 35.9107 24.8409 36.1068 24.8409H36.401C36.5308 24.8409 36.6519 24.8805 36.7644 24.9579C36.8798 25.0371 37.0024 25.0749 37.1336 25.0749H37.4797C37.872 25.0749 38.2469 25.0577 38.6046 25.0199C38.9651 24.9786 39.3098 24.9579 39.6371 24.9579C39.7323 24.9579 39.8289 24.9682 39.9256 24.9854C40.0251 25.0044 40.1246 25.013 40.2255 25.013L41.0562 25.13C41.1514 25.13 41.2581 25.1507 41.3735 25.192C41.4888 25.2298 41.5941 25.247 41.6907 25.247H42.3772C42.5416 25.247 42.7233 25.2384 42.9194 25.2195C43.1156 25.2023 43.2944 25.192 43.4559 25.192C43.7818 25.192 44.0919 25.1834 44.3846 25.1644C44.6803 25.1421 44.9759 25.13 45.273 25.13L45.7576 25.192V26.1282C45.7258 26.987 45.7114 27.7666 45.7114 28.4687C45.7114 29.1674 45.6782 29.8868 45.6133 30.6303C45.6133 31.0984 45.5153 31.4116 45.3191 31.5665C45.123 31.7231 44.8461 31.8005 44.4885 31.8005C44.1914 31.8005 43.8626 31.7919 43.5021 31.773C43.1444 31.7506 42.7695 31.7386 42.3772 31.7386C42.1493 31.7386 41.9287 31.7386 41.7138 31.7386C41.5018 31.7386 41.2653 31.7214 41.0043 31.6835H40.3236C40.1924 31.6835 40.077 31.6749 39.9775 31.656C39.8809 31.6336 39.7828 31.6216 39.6833 31.6216C39.291 31.6216 38.906 31.613 38.5296 31.594C38.1561 31.5768 37.7739 31.5665 37.3816 31.5665C37.1509 31.5665 36.9288 31.5579 36.7183 31.539C36.5063 31.5166 36.2856 31.5045 36.0549 31.5045H35.7145V31.9176C35.7145 32.501 35.6814 33.105 35.6165 33.728C35.5501 34.3528 35.5184 34.9568 35.5184 35.5385C35.5184 35.7364 35.5098 35.9343 35.4953 36.1305C35.4795 36.3233 35.4723 36.516 35.4723 36.7088C35.4723 36.9841 35.4622 37.2492 35.4434 37.5004C35.4276 37.7534 35.4203 38.0167 35.4203 38.2921C35.4203 38.9168 35.4276 39.5794 35.4434 40.2815C35.4622 40.9803 35.4723 41.6411 35.4723 42.2641C35.6338 42.2641 35.7866 42.2762 35.9337 42.2985C36.0794 42.3175 36.251 42.3261 36.4471 42.3261H38.0681C38.3291 42.3261 38.5902 42.3743 38.8526 42.4706C39.1136 42.567 39.3747 42.6152 39.6371 42.6152H40.612C41.1687 42.6152 41.7095 42.5877 42.233 42.5326C42.755 42.4741 43.2785 42.4431 43.802 42.4431C43.9635 42.4431 44.1164 42.4534 44.2635 42.4706C44.4135 42.4896 44.5534 42.4982 44.6846 42.4982C44.65 43.1229 44.624 43.8164 44.6096 44.5771C44.5938 45.3395 44.5029 46.1862 44.3385 47.1173C44.2722 47.2739 44.1092 47.3823 43.8482 47.4408C43.5857 47.5011 43.2771 47.5699 42.9194 47.6474C42.6224 47.6852 42.3036 47.7145 41.9619 47.7368C41.6186 47.7558 41.2668 47.7644 40.9062 47.7644C40.5168 47.7644 40.1347 47.7747 39.7583 47.7919C39.3804 47.8108 39.0141 47.8195 38.6565 47.8195L35.3223 47.9984H35.0281V48.4046L34.9819 48.8176V49.6368C34.9819 50.6522 34.9488 51.6572 34.8839 52.652C34.8175 53.6433 34.7858 54.6466 34.7858 55.6603C34.7858 55.9322 34.7757 56.1955 34.757 56.4519C34.7411 56.7049 34.7339 56.9665 34.7339 57.2367V58.4069C34.93 58.4448 35.2559 58.4827 35.7145 58.524C36.1717 58.5618 36.6952 58.579 37.2836 58.579C37.4134 58.579 37.5446 58.5704 37.6758 58.5515C37.8056 58.5343 37.9369 58.524 38.0681 58.524H38.6565C38.7863 58.524 38.9074 58.5343 39.0199 58.5515C39.1353 58.5704 39.2579 58.579 39.3891 58.579C39.3228 58.5429 39.5275 58.4861 40.0006 58.4069C40.4736 58.3295 40.8904 58.2899 41.2523 58.2899H43.0175C43.4747 58.2899 44.0126 58.3691 44.6327 58.524C45.2514 58.6806 45.5614 58.9146 45.5614 59.2261C45.5614 59.9283 45.5124 60.6218 45.4172 61.3051C45.3206 61.9849 45.2067 62.792 45.0769 63.7282Z" fill="#FFFCFB"/>
<path d="M61.4375 34.2511L68.7405 34.7192C68.8054 35.1099 68.8458 35.7449 68.8616 36.6261C68.8804 37.5038 68.9049 38.545 68.9366 39.7514V42.381C68.9366 42.6151 68.9438 42.8491 68.9597 43.0832C68.9784 43.3172 68.9885 43.5513 68.9885 43.7853C68.9885 44.9556 68.9957 46.2429 69.0116 47.6472C69.026 49.0516 69.0347 50.3388 69.0347 51.5091C69.0347 52.6759 69.0347 53.4917 69.0347 53.9598V55.5431C69.0347 55.8925 69.026 56.204 69.0116 56.4793C68.9957 56.7512 68.9885 57.0025 68.9885 57.2365V57.9938C68.9885 58.5032 68.9885 58.7579 68.9885 58.7579C68.9885 58.7579 68.9784 58.7011 68.9597 58.5858C68.9438 58.4671 68.928 58.4378 68.9135 58.4963C68.8977 58.5514 68.8732 58.8732 68.8385 59.4601C68.8068 60.0435 68.7592 61.0571 68.6943 62.5028V63.26C68.6943 63.5319 68.6842 63.8141 68.6655 64.1067C68.6496 64.401 68.6424 64.7228 68.6424 65.0705V69.5726C68.6424 70.1956 68.6165 70.8495 68.5674 71.5345C68.5213 72.2177 68.4319 72.8717 68.3021 73.4964H65.7524C65.425 73.4964 65.0255 73.505 64.5525 73.5239C64.0795 73.5411 63.6296 73.4637 63.2027 73.2899C62.7787 73.1143 62.4701 72.7547 62.274 72.2091L61.9798 71.445L61.2933 69.6896L60.4107 67.411L60.0704 66.5918L59.7243 65.7176L58.8936 63.494C58.7624 63.1825 58.6311 62.8607 58.5013 62.5303C58.3701 62.1999 58.2389 61.8591 58.1091 61.5046L57.7168 60.4513L57.4226 59.7492L57.0304 58.6409L56.7362 57.8768L56.292 56.7684L55.121 53.5536L54.3826 51.4472L54.2384 51.041V53.4366C54.2384 53.6707 54.2283 53.9047 54.2095 54.1388C54.1937 54.3728 54.1865 54.6069 54.1865 54.8409V63.26C54.1865 64 54.1937 64.7194 54.2095 65.4215C54.2283 66.1237 54.2384 66.8465 54.2384 67.59V73.0834C54.2384 73.3587 54.2384 73.6513 54.2384 73.9645C54.2384 74.276 54.2052 74.5875 54.1403 74.9007C54.1057 75.5977 54.0076 76.2396 53.8461 76.8282C53.7798 77.2172 53.4769 77.4788 52.9347 77.613C52.3953 77.7507 51.7997 77.8281 51.1465 77.847C50.4961 77.8694 49.9581 77.9193 49.5313 77.9985C49.2688 77.9985 49.0727 77.9778 48.9429 77.9365L48.4064 77.7644C48.3401 77.7231 48.2752 77.6629 48.2103 77.5855C48.1439 77.5063 48.079 77.4495 48.0141 77.4134V76.4152C48.0141 75.9092 48.004 75.4239 47.9853 74.9558C47.9694 74.4877 47.9622 74.0006 47.9622 73.4964V72.0921C47.9622 71.8942 47.9536 71.7169 47.9392 71.562C47.9233 71.4054 47.9161 71.2488 47.9161 71.0939V65.0705C47.9161 64.8777 47.906 64.6953 47.8872 64.5197C47.8714 64.3408 47.8642 64.1738 47.8642 64.0172V57.8768C47.8642 57.4913 47.8555 57.1247 47.8411 56.7753C47.8252 56.4225 47.818 56.0508 47.818 55.6601V54.1939C47.818 52.17 47.7747 50.1444 47.6911 48.1153C47.6103 46.088 47.57 44.059 47.57 42.0299C47.57 41.7959 47.5613 41.5618 47.5469 41.3278C47.531 41.0937 47.5238 40.8803 47.5238 40.6876C47.5238 39.9854 47.5065 39.2833 47.4719 38.5811C47.4402 37.8789 47.4258 37.1768 47.4258 36.4746V34.8362C47.9478 34.7588 48.4713 34.7192 48.9948 34.7192C49.5168 34.7192 50.0403 34.7192 50.5638 34.7192H53.7481C54.1057 34.7192 54.4475 35.1701 54.7749 36.0685L55.3633 37.8239L55.8017 39.1662C55.9661 39.6756 56.1305 40.2126 56.292 40.7771C56.4564 41.3415 56.6525 41.8974 56.8804 42.443L57.1746 43.4343L58.011 46.3599L58.5013 47.9983L59.2859 50.3939L60.3646 53.4366L60.653 54.3728L61.3395 56.1833C61.3395 56.2246 61.3539 56.2556 61.3856 56.2728C61.4202 56.2917 61.4375 56.321 61.4375 56.3623C61.4721 56.4002 61.4894 56.4483 61.4894 56.5069C61.4894 56.5671 61.5039 56.6153 61.5356 56.6514V54.7239C61.5356 54.5277 61.5269 54.3505 61.5125 54.1939C61.4966 54.039 61.4894 53.8824 61.4894 53.7257V52.1493C61.4894 51.9531 61.4793 51.7483 61.4606 51.5367C61.4447 51.3215 61.4375 51.0961 61.4375 50.862C61.4375 50.7484 61.4289 50.6331 61.4144 50.5178C61.3986 50.3991 61.3914 50.2614 61.3914 50.1048V48.9345C61.3914 48.623 61.3813 48.3201 61.3625 48.0258C61.3467 47.7333 61.3395 47.4304 61.3395 47.1172C61.3395 46.9244 61.3308 46.7213 61.3164 46.5045C61.3005 46.2894 61.2933 46.0674 61.2933 45.8368V44.3705C61.2933 44.1003 61.2832 43.8301 61.2645 43.5582C61.2486 43.2828 61.2414 43.0075 61.2414 42.7321C61.2414 42.4206 61.2327 42.1194 61.2183 41.8303C61.2024 41.5377 61.1952 41.2348 61.1952 40.9216C61.1952 39.908 61.1779 38.9236 61.1433 37.9684C61.1116 37.015 61.0972 35.991 61.0972 34.8982C61.0972 34.5867 61.2097 34.3716 61.4375 34.2511Z" fill="#FFFCFB"/>
<path d="M84.766 28.9919H85.4525C85.8404 28.9919 86.2052 29.0229 86.5485 29.0814C86.8946 29.1365 87.2306 29.2036 87.558 29.2811C90.3644 29.2811 92.5045 30.3739 93.9783 32.5578L94.5148 33.7281L94.7109 36.0686C94.8753 36.85 95.0138 37.6588 95.1263 38.4987C95.2417 39.3351 95.2993 40.1818 95.2993 41.0388L95.3513 43.3794C95.3513 43.9266 95.1046 44.3259 94.6129 44.5772C94.124 44.8302 93.5197 44.9764 92.8016 45.0177C92.0819 45.0556 91.3551 45.0246 90.6211 44.9282C89.8856 44.8319 89.2727 44.7062 88.7809 44.5496C88.292 44.3947 88.031 44.2571 87.9964 44.1366C87.7339 42.8114 87.6113 41.8563 87.6272 41.2729C87.6459 40.686 87.6705 40.082 87.7022 39.4624C87.7368 38.8394 87.7209 38.2233 87.656 37.6175C87.5897 37.0117 87.3763 36.5144 87.0157 36.1237C86.6581 35.7348 86.0538 35.5386 85.2044 35.5386L83.7334 35.4835C83.0138 35.4835 82.3778 35.6797 81.824 36.0686L81.576 36.3027C81.2183 36.7295 80.9487 37.1976 80.7684 37.707C80.591 38.213 80.4367 38.836 80.3069 39.5794C80.1757 40.1628 80.0848 40.7755 80.0358 41.4174C79.9853 42.0611 79.9608 42.6944 79.9608 43.3174V44.9007C79.9608 45.0573 79.968 45.195 79.9839 45.3137C80.0026 45.4291 80.0127 45.565 80.0127 45.7199C80.0127 45.9127 80.0199 46.1174 80.0358 46.3326C80.0502 46.5443 80.0589 46.749 80.0589 46.9452C80.1887 48.2721 80.255 49.7057 80.255 51.2477C80.255 52.7863 80.255 54.2749 80.255 55.7154L80.4511 58.1729C80.516 59.1091 80.63 59.9886 80.7915 60.8095C80.9559 61.6269 81.2183 62.3652 81.576 63.0261L82.0202 63.6112C82.6388 64.3513 83.4061 64.7196 84.3218 64.7196C85.8562 64.7196 86.9494 64.3117 87.6041 63.4942C88.2574 62.6785 88.6569 61.5977 88.804 60.2519C88.954 58.9026 89.0289 57.4691 89.0289 55.9494C88.9943 55.6792 89.2539 55.4744 89.8077 55.3368C90.3644 55.1991 91.0104 55.1509 91.7459 55.1922C92.48 55.2301 93.1419 55.3643 93.7303 55.5983C94.3187 55.8324 94.6302 56.1663 94.6648 56.5965L94.7629 59.0472V59.3983C94.7629 60.1417 94.7528 60.9334 94.734 61.7732C94.7182 62.6096 94.5797 63.5338 94.3187 64.5475L94.1226 65.1877C93.9913 65.5783 93.8356 65.969 93.6553 66.3579C93.4779 66.7486 93.2587 67.1203 92.9977 67.4731L92.3574 68.1753C91.2455 69.2629 90.0211 69.9617 88.6828 70.2749C87.3445 70.5864 85.9082 70.743 84.3737 70.743C83.5229 70.743 82.6086 70.7034 81.6279 70.626C80.6473 70.5468 79.7315 70.3127 78.8821 69.9238L77.7053 69.3387C77.4126 69.1872 77.1025 69.0048 76.7766 68.788C76.4492 68.5728 76.1709 68.3302 75.9401 68.0583L75.7498 67.8242L75.0114 66.826L74.5211 65.9518C74.3596 65.599 74.1879 65.1997 74.0077 64.754C73.826 64.3048 73.6875 63.8849 73.5923 63.4942L73.102 61.3877C73.0357 60.8835 72.9607 60.3672 72.8771 59.8388C72.7963 59.3122 72.7559 58.7959 72.7559 58.29C72.7559 57.9372 72.7386 57.5861 72.704 57.2367C72.6723 56.8891 72.6578 56.538 72.6578 56.1835L72.5598 53.7259C72.5598 53.5332 72.5511 53.3301 72.5367 53.1132C72.5208 52.8981 72.5136 52.6933 72.5136 52.5006C72.5136 52.0703 72.5035 51.6607 72.4848 51.2752C72.4689 50.8863 72.4617 50.4956 72.4617 50.105V45.6029C72.4617 45.1348 72.4761 44.677 72.5079 44.2261C72.5425 43.7769 72.5598 43.3174 72.5598 42.8493V42.0921C72.5598 41.7806 72.5843 41.4587 72.6348 41.1283C72.6838 40.7944 72.7098 40.4709 72.7098 40.1577L72.9059 38.5262L73.2001 36.3027L73.4424 34.8984C73.477 34.8984 73.4943 34.8777 73.4943 34.8364C73.9817 33.3598 74.586 32.2997 75.3056 31.656C76.0238 31.0089 76.8746 30.472 77.8553 30.0452L78.8359 29.6941C79.6854 29.4187 80.6083 29.2329 81.6048 29.1365C82.5999 29.0401 83.6541 28.9919 84.766 28.9919Z" fill="#FFFCFB"/>
<path d="M97.0593 35.3044H97.6996C98.3529 35.3044 99.0062 35.2665 99.6609 35.1874C100.314 35.1099 100.966 35.0703 101.616 35.0703L103.284 34.8983C103.448 34.8983 103.612 34.8896 103.774 34.8707C103.938 34.8483 104.103 34.8363 104.264 34.8363H106.272C106.401 34.8363 106.515 34.8363 106.612 34.8363C106.711 34.8363 106.827 34.8191 106.958 34.7812L109.56 34.6022C110.213 34.6022 110.923 34.5368 111.688 34.4026C112.457 34.2649 113.266 34.1961 114.117 34.1961H114.948C115.666 34.1961 116.524 34.1582 117.52 34.0791C118.515 34.0016 119.471 33.962 120.387 33.962C120.583 33.962 120.713 34.3045 120.78 34.9877C120.844 35.6675 120.878 36.3972 120.878 37.1768C120.878 37.9582 120.878 38.5244 120.878 38.8772C120.878 39.1491 120.867 39.4124 120.849 39.6688C120.833 39.9218 120.728 40.1059 120.531 40.2195C120.469 40.2574 120.356 40.2746 120.191 40.2746L119.21 40.4536C119.049 40.4914 118.877 40.5087 118.697 40.5087C118.515 40.5087 118.345 40.5087 118.184 40.5087C118.018 40.5087 117.852 40.5207 117.688 40.5431C117.526 40.562 117.365 40.5706 117.203 40.5706H116.222C116.121 40.5706 116.015 40.5809 115.899 40.5981C115.787 40.6171 115.683 40.6257 115.588 40.6257L115.928 42.147L116.465 44.4876L116.759 45.6028L117.053 46.7662C117.118 47.0415 117.191 47.3065 117.272 47.5578C117.356 47.8108 117.414 48.0741 117.445 48.3495L117.936 50.7451L118.478 53.5537L118.818 55.8323C118.883 56.1455 118.948 56.457 119.014 56.7685C119.079 57.0817 119.144 57.3932 119.21 57.7047L119.407 58.462L120.047 60.7474L120.387 62.0347C120.549 62.5028 120.687 62.9503 120.803 63.3771C120.918 63.8039 121.041 64.2341 121.172 64.6644L121.564 65.8897C121.694 66.2442 121.808 66.6332 121.904 67.06L122.741 69.8686C122.806 70.0235 122.853 70.1681 122.885 70.3023C122.92 70.44 122.951 70.5863 122.983 70.7429L123.081 71.2729C123.081 71.4278 123.072 71.6034 123.058 71.7961C123.042 71.9923 123.035 72.1885 123.035 72.3813C123.035 72.4226 123.042 72.4708 123.058 72.5258C123.072 72.5843 123.081 72.6532 123.081 72.7323L123.231 73.4965L123.571 75.1899C123.606 75.3448 123.664 75.51 123.745 75.6855C123.825 75.8594 123.883 76.0246 123.918 76.1812C123.721 76.4152 123.344 76.6183 122.787 76.7939C122.233 76.9728 121.629 77.1191 120.976 77.2344C120.321 77.3532 119.733 77.4702 119.21 77.5855C119.114 77.5855 119.016 77.5752 118.916 77.558C118.82 77.539 118.706 77.5304 118.576 77.5304L117.988 77.7025L117.105 77.9986C116.939 77.644 116.808 77.3119 116.713 77.0004L116.367 75.9471C116.335 75.8318 116.31 75.7148 116.292 75.5961C116.276 75.4808 116.235 75.3637 116.17 75.245L115.83 74.0816L115.49 72.8494L115.196 71.5621C115.196 71.094 115.105 70.5174 114.924 69.8342C114.743 69.1561 114.587 68.5641 114.457 68.0582C114.361 68.0582 114.263 68.0685 114.163 68.0857C114.066 68.1046 113.968 68.1132 113.869 68.1132C113.772 68.1132 113.674 68.1253 113.575 68.1476C113.478 68.1666 113.364 68.1752 113.234 68.1752H110.442C109.688 68.1752 108.862 68.158 107.962 68.1201C107.065 68.0788 106.243 68.1752 105.493 68.4092C105.362 68.836 105.213 69.4573 105.049 70.2748L104.853 71.507C104.821 71.6998 104.78 71.9132 104.731 72.1472C104.681 72.3813 104.641 72.6153 104.61 72.8494L104.414 74.1986C104.248 75.7544 103.995 76.7835 103.653 77.2895C103.31 77.7989 102.747 78.0536 101.963 78.0536C101.601 78.0536 101.035 78.0054 100.267 77.9091C99.5008 77.8127 98.8072 77.6475 98.1842 77.4134C97.564 77.1794 97.2554 76.9057 97.2554 76.5942V76.2431C97.2554 75.6959 97.3203 75.1211 97.4516 74.5153C97.5813 73.9129 97.7126 73.3003 97.8438 72.6773L97.9938 71.6791C98.0587 71.2884 98.1395 70.8892 98.2361 70.4813C98.3356 70.0717 98.4005 69.6724 98.4322 69.2835L98.8764 66.7709L99.3148 64.1343L99.759 61.7387C99.8239 61.3119 99.8801 60.8954 99.9263 60.4858C99.9753 60.0728 100.05 59.6718 100.151 59.2811L100.394 57.9938L101.08 54.0218L101.518 51.8534L102.597 47.1792L103.087 44.8386C103.152 44.6459 103.193 44.4531 103.209 44.2604C103.227 44.0642 103.252 43.8869 103.284 43.7303L103.48 42.6151C103.48 42.5377 103.487 42.4706 103.503 42.4155C103.521 42.357 103.532 42.3054 103.532 42.2641C103.301 42.0713 102.997 41.9853 102.62 42.0025C102.247 42.0214 101.879 42.03 101.518 42.03C101.357 42.03 101.185 42.0507 101.005 42.092C100.828 42.1298 100.642 42.147 100.445 42.147C99.7258 42.1883 99.0062 42.24 98.288 42.2985C97.5684 42.3535 96.9958 42.3811 96.569 42.3811V38.9322C96.6339 38.3505 96.6916 37.6983 96.742 36.9772C96.7911 36.2527 96.8978 35.6951 97.0593 35.3044ZM113.725 63.088C113.658 62.9331 113.609 62.7679 113.575 62.5923C113.543 62.4133 113.511 62.2464 113.477 62.0898L113.084 60.3963C113.018 60.0848 112.96 59.794 112.911 59.5221C112.865 59.2467 112.809 58.9714 112.744 58.696L112.594 58.0558C112.562 57.8596 112.522 57.6841 112.473 57.5326C112.422 57.3777 112.382 57.2211 112.352 57.0645L111.959 55.0131C111.925 54.779 111.867 54.557 111.786 54.3454C111.706 54.1302 111.665 53.9048 111.665 53.6707L111.273 51.6813C111.238 51.4885 111.195 51.3147 111.146 51.1581C111.1 51.0032 111.06 50.8466 111.025 50.69L110.881 49.9878L110.685 48.9897L110.488 47.9364C110.457 47.7437 110.416 47.5698 110.367 47.4132C110.317 47.2584 110.276 47.1017 110.246 46.9451L110.148 46.243C110.113 45.8953 110.023 45.3687 109.877 44.6666C109.73 43.9644 109.527 43.4584 109.266 43.1452C109.231 43.4171 109.173 43.6994 109.092 43.9919C109.012 44.2862 108.938 44.5891 108.873 44.9006L108.723 45.5408L108.135 48.1705L107.645 50.4559C107.513 51.0807 107.358 51.7432 107.177 52.4454C107 53.1441 106.912 53.8256 106.912 54.4899L106.37 57.1815L106.076 58.875C106.044 59.0316 106.003 59.1968 105.954 59.3706C105.904 59.5462 105.879 59.7114 105.879 59.8663L105.395 63.026H106.127C106.419 63.026 106.704 63.038 106.981 63.0604C107.261 63.0793 107.565 63.088 107.893 63.088H113.725Z" fill="#FFFCFB"/>
</g>
</svg>
